<?xml version="1.0" encoding="utf-8"?>
<!-- Generator: Adobe Illustrator 26.0.1, SVG Export Plug-In . SVG Version: 6.00 Build 0)  -->
<svg version="1.1" id="Layer_1" xmlns="http://www.w3.org/2000/svg" xmlns:xlink="http://www.w3.org/1999/xlink" x="0px" y="0px"
	 width="279.6542969px" height="332.4990234px" viewBox="0 0 279.6542969 332.4990234"
	 style="enable-background:new 0 0 279.6542969 332.4990234;" xml:space="preserve">
<style type="text/css">
	.st0{fill:#FCE00A;}
	.st1{fill:#FFFFFF;}
	.st2{fill:#00B7FF;}
</style>
<g>
	<g>
		<path class="st0" d="M99.5449219,82.1220703V37.328125h7.4658203v18.6640625h20.5302734
			c0.4667969,0,0.8935547,0.1953125,1.2832031,0.5834961c0.3886719,0.3896484,0.5830078,0.8164062,0.5830078,1.2832031v24.2631836
			H99.5449219z M121.9423828,74.65625V63.4580078h-14.9316406V74.65625H121.9423828z"/>
		<path class="st1" d="M137.8066406,82.1220703V55.9921875h27.9960938c0.4667969,0,0.8935547,0.1953125,1.2832031,0.5834961
			c0.3886719,0.3896484,0.5830078,0.8164062,0.5830078,1.2832031v13.0644531h-22.3964844V74.65625h22.3964844v7.4658203H137.8066406
			z M160.2041016,67.190918v-3.7329102h-14.9316406v3.7329102H160.2041016z"/>
		<path class="st1" d="M176.0683594,82.1220703V55.9921875h27.9960938c0.4667969,0,0.8935547,0.1953125,1.2832031,0.5834961
			c0.3886719,0.3896484,0.5830078,0.8164062,0.5830078,1.2832031V74.65625h3.7333984v7.4658203H176.0683594z M198.4658203,74.65625
			V63.4580078h-14.9316406V74.65625H198.4658203z"/>
		<path class="st1" d="M221.7949219,82.1220703V63.4580078H218.0625v-7.4658203h3.7324219V37.328125h5.5996094
			c0.4667969,0,0.8935547,0.1948242,1.2832031,0.5830078c0.3886719,0.3901367,0.5830078,0.8168945,0.5830078,1.2832031v16.7978516
			h3.7333984v7.4658203h-3.7333984v18.6640625H221.7949219z"/>
		<path class="st1" d="M241.3925781,82.1220703V74.65625h22.3974609v-3.7329102h-22.3974609V55.9921875h27.9960938
			c0.4667969,0,0.8935547,0.1953125,1.2832031,0.5834961c0.3886719,0.3896484,0.5830078,0.8164062,0.5830078,1.2832031v5.5991211
			h-22.3964844v3.7329102h22.3964844v14.9311523H241.3925781z"/>
	</g>
	<g>
		<path class="st0" d="M141.5390625,149.2011719v-26.1298828h7.4658203v18.6640625h14.9316406v-18.6640625h5.5986328
			c0.4667969,0,0.8935547,0.1953125,1.2832031,0.5834961c0.3886719,0.3896484,0.5830078,0.8164062,0.5830078,1.2832031v24.2631836
			H141.5390625z"/>
		<path class="st1" d="M183.5332031,149.2011719v-18.6640625h-3.7324219v-7.4658203h3.7324219v-18.6640625h9.3320312
			c0.4667969,0,0.8935547,0.1948242,1.2832031,0.5830078c0.3886719,0.3901367,0.5839844,0.8168945,0.5839844,1.2832031v5.5996094
			h-3.7333984v11.1982422h3.7333984v7.4658203h-3.7333984v18.6640625H183.5332031z"/>
		<path class="st1" d="M203.1308594,149.2011719v-26.1298828h27.9960938c0.4667969,0,0.8935547,0.1953125,1.2832031,0.5834961
			c0.3886719,0.3896484,0.5830078,0.8164062,0.5830078,1.2832031v24.2631836H203.1308594z M225.5283203,141.7353516v-11.1982422
			h-14.9316406v11.1982422H225.5283203z"/>
		<path class="st1" d="M241.3925781,149.2011719v-7.4658203h22.3974609v-3.7329102h-22.3974609v-14.9311523h27.9960938
			c0.4667969,0,0.8935547,0.1953125,1.2832031,0.5834961c0.3886719,0.3896484,0.5830078,0.8164062,0.5830078,1.2832031v5.5991211
			h-22.3964844v3.7329102h22.3964844v14.9311523H241.3925781z"/>
	</g>
	<g>
		<path class="st0" d="M37.9521484,235.4130859v-7.4648438h18.6650391v-11.1992188H34.2197266v-26.1298828h27.9960938
			c0.4667969,0,0.8935547,0.1953125,1.2832031,0.5839844c0.3886719,0.3896484,0.5830078,0.8164062,0.5830078,1.2832031v42.9267578
			H37.9521484z M56.6171875,209.2832031v-11.1982422H41.6855469v11.1982422H56.6171875z"/>
		<path class="st1" d="M72.4814453,216.7490234v-26.1298828h7.4658203v18.6640625h14.9316406v-18.6640625h5.5986328
			c0.4667969,0,0.8935547,0.1953125,1.2832031,0.5839844c0.3886719,0.3896484,0.5830078,0.8164062,0.5830078,1.2832031v24.2626953
			H72.4814453z"/>
		<path class="st1" d="M110.7431641,216.7490234v-26.1298828h27.9960938c0.4667969,0,0.8935547,0.1953125,1.2832031,0.5839844
			c0.3886719,0.3896484,0.5830078,0.8164062,0.5830078,1.2832031v24.2626953h-7.4648438v-18.6640625h-14.9316406v18.6640625
			H110.7431641z"/>
		<path class="st1" d="M149.0039062,216.7490234v-7.4658203h22.3974609v-3.7324219h-22.3974609v-14.9316406H177
			c0.4667969,0,0.8935547,0.1953125,1.2832031,0.5839844c0.3886719,0.3896484,0.5830078,0.8164062,0.5830078,1.2832031v5.5986328
			h-22.3964844v3.7333984h22.3964844v14.9306641H149.0039062z"/>
		<path class="st1" d="M187.265625,216.7490234v-44.7939453h7.4658203v18.6640625h20.5302734
			c0.4667969,0,0.8935547,0.1953125,1.2832031,0.5839844c0.3886719,0.3896484,0.5830078,0.8164062,0.5830078,1.2832031v24.2626953
			h-7.4648438v-18.6640625h-14.9316406v18.6640625H187.265625z"/>
		<path class="st1" d="M225.5273438,186.8867188v-7.4658203h5.5996094c0.4658203,0,0.8925781,0.1953125,1.2832031,0.5830078
			c0.3876953,0.390625,0.5830078,0.8164062,0.5830078,1.2832031v5.5996094H225.5273438z M225.5273438,216.7490234v-26.1298828
			h7.4658203v26.1298828H225.5273438z"/>
		<path class="st1" d="M241.3916016,235.4130859v-44.7939453h27.9960938c0.4667969,0,0.8935547,0.1953125,1.2832031,0.5839844
			c0.3886719,0.3896484,0.5830078,0.8164062,0.5830078,1.2832031v24.2626953h-22.3964844v18.6640625H241.3916016z
			 M263.7890625,209.2832031v-11.1982422h-14.9316406v11.1982422H263.7890625z"/>
	</g>
	<g>
		<path class="st2" d="M119.1416016,332.4990234v-7.4658203h18.6650391v-11.1982422h-22.3974609v-26.1298828h27.9960938
			c0.4667969,0,0.8935547,0.1953125,1.2832031,0.5830078c0.3886719,0.3896484,0.5830078,0.8164062,0.5830078,1.2832031v42.9277344
			H119.1416016z M137.8066406,306.3691406v-11.1982422H122.875v11.1982422H137.8066406z"/>
		<path class="st2" d="M153.6708984,313.8349609v-26.1298828h27.9960938c0.4667969,0,0.8935547,0.1953125,1.2832031,0.5830078
			c0.3886719,0.3896484,0.5830078,0.8164062,0.5830078,1.2832031v16.7978516h3.7333984v7.4658203H153.6708984z
			 M176.0683594,306.3691406v-11.1982422h-14.9316406v11.1982422H176.0683594z"/>
		<path class="st2" d="M195.6650391,313.8349609v-26.1298828h35.4619141c0.4667969,0,0.8935547,0.1953125,1.2832031,0.5830078
			c0.3876953,0.3896484,0.5830078,0.8164062,0.5830078,1.2832031v24.2636719h-7.4658203v-18.6640625H218.0625v18.6640625h-7.4658203
			v-18.6640625h-7.4658203v18.6640625H195.6650391z"/>
		<path class="st2" d="M241.3925781,313.8349609v-26.1298828h27.9960938c0.4667969,0,0.8935547,0.1953125,1.2832031,0.5830078
			c0.3886719,0.3896484,0.5830078,0.8164062,0.5830078,1.2832031v13.0644531h-22.3964844v3.7333984h22.3964844v7.4658203
			H241.3925781z M263.7900391,298.9033203v-3.7324219h-14.9316406v3.7324219H263.7900391z"/>
	</g>
	<rect x="0.0004135" y="256.0509949" class="st0" width="271.2544861" height="10.1341972"/>
	<g>
		<g>
			<path class="st1" d="M5.2753906,215.9628906v-5.234375h-5.234375v-5.2333984h5.234375v-5.234375h3.9257812
				c0.3271484,0,0.6259766,0.1367188,0.8994141,0.4082031c0.2724609,0.2734375,0.4091797,0.5732422,0.4091797,0.9003906v3.9257812
				h5.234375v5.2333984h-5.234375v5.234375H5.2753906z"/>
		</g>
	</g>
</g>
<g>
</g>
<g>
</g>
<g>
</g>
<g>
</g>
<g>
</g>
<g>
</g>
<g>
</g>
<g>
</g>
<g>
</g>
<g>
</g>
<g>
</g>
<g>
</g>
<g>
</g>
<g>
</g>
<g>
</g>
</svg>
