<?xml version="1.0" encoding="utf-8"?>
<!-- Generator: Adobe Illustrator 26.0.1, SVG Export Plug-In . SVG Version: 6.00 Build 0)  -->
<svg version="1.1" id="Layer_1" xmlns="http://www.w3.org/2000/svg" xmlns:xlink="http://www.w3.org/1999/xlink" x="0px" y="0px"
	 width="40.1328011px" height="75.9357986px" viewBox="0 0 40.1328011 75.9357986"
	 style="enable-background:new 0 0 40.1328011 75.9357986;" xml:space="preserve">
<style type="text/css">
	.st0{fill:#1E2235;}
	.st1{fill:url(#SVGID_1_);}
	.st2{fill:#1B2162;}
	.st3{fill:#252D88;}
	.st4{fill:#2D37A3;}
	.st5{fill:#424DCB;}
	.st6{fill:#00B7FF;}
	.st7{fill:#0261CC;}
	.st8{fill:#380762;}
	.st9{fill:#370C45;}
	.st10{fill:#703991;}
	.st11{fill:#A046C2;}
	.st12{fill:#543175;}
	.st13{fill:#FFFFFF;}
	.st14{fill:#B947C0;}
	.st15{fill:#DB8EE3;}
	.st16{fill:#8B0975;}
	.st17{fill:#BD3151;}
	.st18{fill:#CC3154;}
	.st19{fill:#FF7261;}
	.st20{fill:#BF2C4E;}
	.st21{fill:#FE9867;}
	.st22{fill:#EF3A65;}
	.st23{fill:#FFAD6E;}
	.st24{fill:#FA559F;}
	.st25{fill:#FCE00A;}
	.st26{fill:#837CC2;}
	.st27{fill:#0284DB;}
	.st28{fill:#BFBAF0;}
	.st29{fill:#5E4194;}
	.st30{fill:#755AC1;}
	.st31{fill:#A8A3D2;}
	.st32{fill:#5D75C2;}
	.st33{fill:#6D85CF;}
	.st34{fill:#89C7DE;}
	.st35{opacity:0.5;}
	.st36{fill:#FF001F;}
	.st37{fill:#97C1FF;}
	.st38{fill:#FFF203;}
	.st39{fill:#0086FF;}
	.st40{display:none;}
	.st41{display:inline;fill:#370C45;}
	.st42{display:inline;fill:#FE9867;}
	.st43{display:inline;fill:#FA559F;}
	.st44{display:inline;fill:#EF3A65;}
	.st45{display:inline;fill:#CC3154;}
	.st46{display:inline;fill:#FF7261;}
	.st47{display:inline;fill:#8B0975;}
	.st48{display:inline;fill:#380762;}
	.st49{display:inline;fill:#B947C0;}
	.st50{display:inline;fill:#BD3151;}
	.st51{display:inline;fill:#BF2C4E;}
	.st52{display:inline;fill:#FFAD6E;}
	.st53{fill:#FCEB6A;}
	.st54{fill:#F2C50F;}
	.st55{fill:#8ADD8A;}
	.st56{fill:#00FF00;}
	.st57{fill:#07D607;}
	.st58{fill:#05CC0A;}
	.st59{fill:#482A63;}
	.st60{fill:#DE990E;}
	.st61{fill:#009DFF;}
	.st62{fill:#E8AB0E;}
	.st63{fill:#72A614;}
	.st64{fill:#A7E007;}
	.st65{fill:#699C18;}
	.st66{fill:#6D9E16;}
	.st67{fill:#84BF15;}
	.st68{fill:#3A4F93;}
	.st69{fill:#2D3B70;}
	.st70{fill:none;stroke:#1B2442;stroke-miterlimit:10;}
	.st71{opacity:0;fill:#171A33;}
	.st72{fill:#FFFB00;}
	.st73{opacity:0.2;}
	.st74{fill:#42061A;}
</style>
<g>
	<rect x="38.374855" y="55.214489" class="st8" width="1.6527084" height="1.7375637"/>
	<rect x="36.6377754" y="56.9520493" class="st8" width="1.7370812" height="1.6568104"/>
	<rect x="36.6377754" y="55.214489" class="st26" width="1.7370812" height="1.7375637"/>
	<rect x="36.6377754" y="53.5622597" class="st8" width="1.7370812" height="1.6522259"/>
	<rect x="37.5233269" y="63.6977692" class="st9" width="1.6568104" height="1.6523063"/>
	<rect x="34.9809647" y="55.214489" class="st8" width="1.6568104" height="1.7375637"/>
	<rect x="34.9809647" y="48.5113983" class="st9" width="1.6568104" height="1.6564888"/>
	<rect x="35.866436" y="65.3500748" class="st9" width="1.6568909" height="1.7415854"/>
	<rect x="35.866436" y="63.6977692" class="st13" width="1.6568909" height="1.6523063"/>
	<rect x="35.866436" y="62.0408783" class="st9" width="1.6568909" height="1.6568909"/>
	<rect x="33.3240738" y="50.1678886" class="st9" width="1.6568909" height="1.7374834"/>
	<rect x="33.3240738" y="48.5113983" class="st27" width="1.6568909" height="1.6564888"/>
	<rect x="33.3240738" y="46.8586884" class="st9" width="1.6568909" height="1.6527084"/>
	<rect x="34.1293564" y="63.6977692" class="st9" width="1.7370812" height="1.6523063"/>
	<rect x="31.5869923" y="48.5113983" class="st9" width="1.7370812" height="1.6564888"/>
	<rect x="30.7817116" y="70.8630142" class="st8" width="1.6527084" height="1.6564888"/>
	<rect x="29.1248207" y="72.5195084" class="st8" width="1.6568909" height="1.7374834"/>
	<rect x="29.1248207" y="70.8630142" class="st26" width="1.6568909" height="1.6564888"/>
	<rect x="29.1248207" y="69.2103119" class="st8" width="1.6568909" height="1.6527084"/>
	<rect x="27.0062523" y="61.6171646" class="st9" width="1.6568104" height="1.6568909"/>
	<rect x="27.0062523" y="59.8800812" class="st9" width="1.6568104" height="1.7370812"/>
	<rect x="27.0062523" y="58.2232742" class="st9" width="1.6568104" height="1.6568104"/>
	<rect x="27.0062523" y="56.4857101" class="st9" width="1.6568104" height="1.7375637"/>
	<rect x="27.0062523" y="43.464798" class="st9" width="1.6568104" height="1.6522259"/>
	<rect x="27.3877392" y="70.8630142" class="st8" width="1.7370812" height="1.6564888"/>
	<rect x="25.2690907" y="63.2740555" class="st9" width="1.7371616" height="1.6522259"/>
	<rect x="25.2690907" y="61.6171646" class="st16" width="1.7371616" height="1.6568909"/>
	<rect x="25.2690907" y="59.8800812" class="st16" width="1.7371616" height="1.7370812"/>
	<rect x="25.2690907" y="58.2232742" class="st22" width="1.7371616" height="1.6568104"/>
	<rect x="25.2690907" y="56.4857101" class="st16" width="1.7371616" height="1.7375637"/>
	<rect x="25.2690907" y="54.8334007" class="st9" width="1.7371616" height="1.6523063"/>
	<rect x="25.2690907" y="45.1170235" class="st9" width="1.7371616" height="1.7416657"/>
	<rect x="25.2690907" y="43.464798" class="st27" width="1.7371616" height="1.6522259"/>
	<rect x="25.2690907" y="41.7272339" class="st9" width="1.7371616" height="1.7375637"/>
	<rect x="23.6122799" y="63.2740555" class="st9" width="1.6568104" height="1.6522259"/>
	<rect x="23.6122799" y="61.6171646" class="st19" width="1.6568104" height="1.6568909"/>
	<rect x="23.6122799" y="59.8800812" class="st16" width="1.6568104" height="1.7370812"/>
	<rect x="23.6122799" y="58.2232742" class="st19" width="1.6568104" height="1.6568104"/>
	<rect x="23.6122799" y="56.4857101" class="st16" width="1.6568104" height="1.7375637"/>
	<rect x="23.6122799" y="54.8334007" class="st16" width="1.6568104" height="1.6523063"/>
	<rect x="23.6122799" y="53.1765938" class="st9" width="1.6568104" height="1.6568104"/>
	<rect x="23.6122799" y="43.464798" class="st9" width="1.6568104" height="1.6522259"/>
	<rect x="21.8751984" y="64.9262772" class="st9" width="1.7370812" height="1.7416657"/>
	<rect x="21.8751984" y="63.2740555" class="st22" width="1.7370812" height="1.6522259"/>
	<rect x="21.8751984" y="61.6171646" class="st25" width="1.7370812" height="1.6568909"/>
	<rect x="21.8751984" y="59.8800812" class="st22" width="1.7370812" height="1.7370812"/>
	<rect x="21.8751984" y="58.2232742" class="st19" width="1.7370812" height="1.6568104"/>
	<rect x="21.8751984" y="56.4857101" class="st22" width="1.7370812" height="1.7375637"/>
	<rect x="21.8751984" y="54.8334007" class="st16" width="1.7370812" height="1.6523063"/>
	<rect x="21.8751984" y="53.1765938" class="st9" width="1.7370812" height="1.6568104"/>
	<rect x="20.2183075" y="72.0957108" class="st8" width="1.6568909" height="1.6568909"/>
	<rect x="20.2183075" y="64.9262772" class="st9" width="1.6568909" height="1.7416657"/>
	<rect x="20.2183075" y="63.2740555" class="st16" width="1.6568909" height="1.6522259"/>
	<rect x="20.2183075" y="61.6171646" class="st19" width="1.6568909" height="1.6568909"/>
	<rect x="20.2183075" y="59.8800812" class="st19" width="1.6568909" height="1.7370812"/>
	<rect x="20.2183075" y="58.2232742" class="st25" width="1.6568909" height="1.6568104"/>
	<rect x="20.2183075" y="56.4857101" class="st19" width="1.6568909" height="1.7375637"/>
	<rect x="20.2183075" y="54.8334007" class="st19" width="1.6568909" height="1.6523063"/>
	<rect x="20.2183075" y="53.1765938" class="st16" width="1.6568909" height="1.6568104"/>
	<rect x="20.2183075" y="51.4390297" class="st9" width="1.6568909" height="1.7375637"/>
	<rect x="18.5655994" y="73.7526016" class="st8" width="1.6527084" height="1.7370812"/>
	<rect x="18.5655994" y="72.0957108" class="st26" width="1.6527084" height="1.6568909"/>
	<rect x="18.5655994" y="70.3581467" class="st8" width="1.6527084" height="1.7375637"/>
	<rect x="18.5655994" y="64.9262772" class="st9" width="1.6527084" height="1.7416657"/>
	<rect x="18.5655994" y="63.2740555" class="st16" width="1.6527084" height="1.6522259"/>
	<rect x="18.5655994" y="61.6171646" class="st19" width="1.6527084" height="1.6568909"/>
	<rect x="18.5655994" y="59.8800812" class="st25" width="1.6527084" height="1.7370812"/>
	<rect x="18.5655994" y="58.2232742" class="st13" width="1.6527084" height="1.6568104"/>
	<rect x="18.5655994" y="56.4857101" class="st25" width="1.6527084" height="1.7375637"/>
	<rect x="18.5655994" y="54.8334007" class="st22" width="1.6527084" height="1.6523063"/>
	<rect x="18.5655994" y="53.1765938" class="st22" width="1.6527084" height="1.6568104"/>
	<rect x="18.5655994" y="51.4390297" class="st9" width="1.6527084" height="1.7375637"/>
	<rect x="16.8285179" y="72.0957108" class="st8" width="1.7370812" height="1.6568909"/>
	<rect x="16.8285179" y="64.9262772" class="st9" width="1.7370812" height="1.7416657"/>
	<rect x="16.8285179" y="63.2740555" class="st16" width="1.7370812" height="1.6522259"/>
	<rect x="16.8285179" y="61.6171646" class="st22" width="1.7370812" height="1.6568909"/>
	<rect x="16.8285179" y="59.8800812" class="st19" width="1.7370812" height="1.7370812"/>
	<rect x="16.8285179" y="58.2232742" class="st25" width="1.7370812" height="1.6568104"/>
	<rect x="16.8285179" y="56.4857101" class="st19" width="1.7370812" height="1.7375637"/>
	<rect x="16.8285179" y="54.8334007" class="st19" width="1.7370812" height="1.6523063"/>
	<rect x="16.8285179" y="53.1765938" class="st16" width="1.7370812" height="1.6568104"/>
	<rect x="16.8285179" y="51.4390297" class="st9" width="1.7370812" height="1.7375637"/>
	<rect x="15.1717081" y="63.2740555" class="st9" width="1.6568104" height="1.6522259"/>
	<rect x="15.1717081" y="61.6171646" class="st16" width="1.6568104" height="1.6568909"/>
	<rect x="15.1717081" y="59.8800812" class="st22" width="1.6568104" height="1.7370812"/>
	<rect x="15.1717081" y="58.2232742" class="st19" width="1.6568104" height="1.6568104"/>
	<rect x="15.1717081" y="56.4857101" class="st22" width="1.6568104" height="1.7375637"/>
	<rect x="15.1717081" y="54.8334007" class="st16" width="1.6568104" height="1.6523063"/>
	<rect x="15.1717081" y="53.1765938" class="st16" width="1.6568104" height="1.6568104"/>
	<rect x="15.1717081" y="51.4390297" class="st9" width="1.6568104" height="1.7375637"/>
	<rect x="17.7140713" y="41.7272339" class="st8" width="1.6568104" height="1.7375637"/>
	<rect x="13.5148172" y="63.2740555" class="st9" width="1.6568909" height="1.6522259"/>
	<rect x="13.5148172" y="61.6171646" class="st16" width="1.6568909" height="1.6568909"/>
	<rect x="13.5148172" y="59.8800812" class="st16" width="1.6568909" height="1.7370812"/>
	<rect x="13.5148172" y="58.2232742" class="st19" width="1.6568909" height="1.6568104"/>
	<rect x="13.5148172" y="56.4857101" class="st16" width="1.6568909" height="1.7375637"/>
	<rect x="13.5148172" y="54.8334007" class="st9" width="1.6568909" height="1.6523063"/>
	<rect x="13.5148172" y="53.1765938" class="st9" width="1.6568909" height="1.6568104"/>
	<rect x="16.0571804" y="43.464798" class="st8" width="1.6568909" height="1.6522259"/>
	<rect x="16.0571804" y="41.7272339" class="st26" width="1.6568909" height="1.7375637"/>
	<rect x="16.0571804" y="40.0708275" class="st8" width="1.6568909" height="1.6564083"/>
	<rect x="9.2353735" y="69.2103119" class="st9" width="1.7370812" height="1.6527084"/>
	<rect x="11.7777357" y="59.8800812" class="st9" width="1.7370812" height="1.7370812"/>
	<rect x="11.7777357" y="58.2232742" class="st9" width="1.7370812" height="1.6568104"/>
	<rect x="11.7777357" y="56.4857101" class="st9" width="1.7370812" height="1.7375637"/>
	<rect x="14.3200979" y="41.7272339" class="st8" width="1.7370812" height="1.7375637"/>
	<rect x="14.3200979" y="40.0708275" class="st28" width="1.7370812" height="1.6564083"/>
	<rect x="14.3200979" y="38.4140167" class="st8" width="1.7370812" height="1.6568104"/>
	<rect x="7.5826654" y="70.8630142" class="st9" width="1.6527084" height="1.6564888"/>
	<rect x="7.5826654" y="69.2103119" class="st19" width="1.6527084" height="1.6527084"/>
	<rect x="7.5826654" y="67.4686432" class="st9" width="1.6527084" height="1.7416657"/>
	<rect x="12.6673899" y="40.0708275" class="st8" width="1.6527084" height="1.6564083"/>
	<rect x="5.8455038" y="72.5195084" class="st9" width="1.7371616" height="1.7374834"/>
	<rect x="5.8455038" y="70.8630142" class="st22" width="1.7371616" height="1.6564888"/>
	<rect x="5.8455038" y="69.2103119" class="st25" width="1.7371616" height="1.6527084"/>
	<rect x="5.8455038" y="67.4686432" class="st22" width="1.7371616" height="1.7416657"/>
	<rect x="5.8455038" y="65.8164139" class="st9" width="1.7371616" height="1.6522259"/>
	<rect x="7.116725" y="46.8586884" class="st9" width="1.7370812" height="1.6527084"/>
	<rect x="4.188693" y="70.8630142" class="st9" width="1.6568104" height="1.6564888"/>
	<rect x="4.188693" y="69.2103119" class="st19" width="1.6568104" height="1.6527084"/>
	<rect x="4.188693" y="67.4686432" class="st9" width="1.6568104" height="1.7416657"/>
	<rect x="5.4598341" y="48.5113983" class="st9" width="1.6568909" height="1.6564888"/>
	<rect x="5.4598341" y="46.8586884" class="st13" width="1.6568909" height="1.6527084"/>
	<rect x="5.4598341" y="45.1170235" class="st9" width="1.6568909" height="1.7416657"/>
	<rect x="2.5318828" y="69.2103119" class="st9" width="1.6568104" height="1.6527084"/>
	<rect x="5.074245" y="56.4857101" class="st8" width="1.6568104" height="1.7375637"/>
	<rect x="3.8030238" y="46.8586884" class="st9" width="1.6568104" height="1.6527084"/>
	<rect x="3.3370836" y="58.2232742" class="st8" width="1.7371616" height="1.6568104"/>
	<rect x="3.3370836" y="56.4857101" class="st26" width="1.7371616" height="1.7375637"/>
	<rect x="3.3370836" y="54.8334007" class="st8" width="1.7371616" height="1.6523063"/>
	<rect x="1.6802731" y="58.2232742" class="st8" width="1.6568104" height="1.6568104"/>
	<rect x="1.6802731" y="56.4857101" class="st28" width="1.6568104" height="1.7375637"/>
	<rect x="1.6802731" y="54.8334007" class="st8" width="1.6568104" height="1.6523063"/>
	<rect x="0.0275646" y="56.4857101" class="st8" width="1.6527084" height="1.7375637"/>
</g>
<g>
	<rect x="37.9678993" y="27.4675007" class="st29" width="2.1649001" height="2.0604999"/>
	<rect x="35.9131012" y="29.5279999" class="st29" width="2.0548" height="2.1592"/>
	<rect x="35.9131012" y="27.4675007" class="st30" width="2.0548" height="2.0604999"/>
	<rect x="35.9131012" y="25.3078003" class="st29" width="2.0548" height="2.1596999"/>
	<rect x="35.9131012" y="21.0881004" class="st28" width="2.0548" height="2.1649001"/>
	<rect x="35.9131012" y="19.0333996" class="st28" width="2.0548" height="2.0546999"/>
	<rect x="35.9131012" y="16.8736" class="st28" width="2.0548" height="2.1598001"/>
	<rect x="35.9131012" y="14.8136997" class="st28" width="2.0548" height="2.0599"/>
	<rect x="35.9131012" y="12.6539001" class="st28" width="2.0548" height="2.1598001"/>
	<rect x="33.7533989" y="31.6872005" class="st29" width="2.1596999" height="2.0599999"/>
	<rect x="33.7533989" y="29.5279999" class="st30" width="2.1596999" height="2.1592"/>
	<rect x="33.7533989" y="27.4675007" class="st62" width="2.1596999" height="2.0604999"/>
	<rect x="33.7533989" y="25.3078003" class="st30" width="2.1596999" height="2.1596999"/>
	<rect x="33.7533989" y="23.2530003" class="st28" width="2.1596999" height="2.0548"/>
	<rect x="33.7533989" y="21.0881004" class="st12" width="2.1596999" height="2.1649001"/>
	<rect x="33.7533989" y="19.0333996" class="st12" width="2.1596999" height="2.0546999"/>
	<rect x="33.7533989" y="16.8736" class="st12" width="2.1596999" height="2.1598001"/>
	<rect x="33.7533989" y="14.8136997" class="st12" width="2.1596999" height="2.0599"/>
	<rect x="33.7533989" y="12.6539001" class="st12" width="2.1596999" height="2.1598001"/>
	<rect x="33.7533989" y="10.5939999" class="st28" width="2.1596999" height="2.0599"/>
	<rect x="33.7533989" y="8.4342003" class="st28" width="2.1596999" height="2.1598001"/>
	<rect x="31.6933994" y="31.6872005" class="st30" width="2.0599999" height="2.0599999"/>
	<rect x="31.6933994" y="29.5279999" class="st26" width="2.0599999" height="2.1592"/>
	<rect x="31.6933994" y="27.4675007" class="st30" width="2.0599999" height="2.0604999"/>
	<rect x="31.6933994" y="25.3078003" class="st28" width="2.0599999" height="2.1596999"/>
	<rect x="31.6933994" y="23.2530003" class="st12" width="2.0599999" height="2.0548"/>
	<rect x="31.6933994" y="21.0881004" class="st20" width="2.0599999" height="2.1649001"/>
	<rect x="31.6933994" y="19.0333996" class="st20" width="2.0599999" height="2.0546999"/>
	<rect x="31.6933994" y="16.8736" class="st20" width="2.0599999" height="2.1598001"/>
	<rect x="31.6933994" y="14.8136997" class="st12" width="2.0599999" height="2.0599"/>
	<rect x="31.6933994" y="12.6539001" class="st12" width="2.0599999" height="2.1598001"/>
	<rect x="31.6933994" y="10.5939999" class="st12" width="2.0599999" height="2.0599"/>
	<rect x="31.6933994" y="8.4342003" class="st12" width="2.0599999" height="2.1598001"/>
	<rect x="31.6933994" y="6.3743" class="st28" width="2.0599999" height="2.0599"/>
	<rect x="29.5337009" y="33.7472" class="st29" width="2.1596999" height="2.1607001"/>
	<rect x="29.5337009" y="31.6872005" class="st62" width="2.1596999" height="2.0599999"/>
	<rect x="29.5337009" y="29.5279999" class="st26" width="2.1596999" height="2.1592"/>
	<rect x="29.5337009" y="27.4675007" class="st30" width="2.1596999" height="2.0604999"/>
	<rect x="29.5337009" y="25.3078003" class="st28" width="2.1596999" height="2.1596999"/>
	<rect x="29.5337009" y="23.2530003" class="st20" width="2.1596999" height="2.0548"/>
	<rect x="29.5337009" y="21.0881004" class="st22" width="2.1596999" height="2.1649001"/>
	<rect x="29.5337009" y="19.0333996" class="st13" width="2.1596999" height="2.0546999"/>
	<rect x="29.5337009" y="16.8736" class="st22" width="2.1596999" height="2.1598001"/>
	<rect x="29.5337009" y="14.8136997" class="st20" width="2.1596999" height="2.0599"/>
	<rect x="29.5337009" y="12.6539001" class="st20" width="2.1596999" height="2.1598001"/>
	<rect x="29.5337009" y="10.5939999" class="st12" width="2.1596999" height="2.0599"/>
	<rect x="29.5337009" y="8.4342003" class="st12" width="2.1596999" height="2.1598001"/>
	<rect x="29.5337009" y="6.3743" class="st12" width="2.1596999" height="2.0599"/>
	<rect x="29.5337009" y="4.2146001" class="st28" width="2.1596999" height="2.1596999"/>
	<rect x="27.4736996" y="33.7472" class="st30" width="2.0599999" height="2.1607001"/>
	<rect x="27.4736996" y="31.6872005" class="st26" width="2.0599999" height="2.0599999"/>
	<rect x="27.4736996" y="29.5279999" class="st26" width="2.0599999" height="2.1592"/>
	<rect x="27.4736996" y="27.4675007" class="st28" width="2.0599999" height="2.0604999"/>
	<rect x="27.4736996" y="25.3078003" class="st20" width="2.0599999" height="2.1596999"/>
	<rect x="27.4736996" y="23.2530003" class="st22" width="2.0599999" height="2.0548"/>
	<rect x="27.4736996" y="21.0881004" class="st13" width="2.0599999" height="2.1649001"/>
	<rect x="27.4736996" y="19.0333996" class="st9" width="2.0599999" height="2.0546999"/>
	<rect x="27.4736996" y="16.8736" class="st13" width="2.0599999" height="2.1598001"/>
	<rect x="27.4736996" y="14.8136997" class="st22" width="2.0599999" height="2.0599"/>
	<rect x="27.4736996" y="12.6539001" class="st22" width="2.0599999" height="2.1598001"/>
	<rect x="27.4736996" y="10.5939999" class="st20" width="2.0599999" height="2.0599"/>
	<rect x="27.4736996" y="8.4342003" class="st12" width="2.0599999" height="2.1598001"/>
	<rect x="27.4736996" y="6.3743" class="st12" width="2.0599999" height="2.0599"/>
	<rect x="27.4736996" y="4.2146001" class="st12" width="2.0599999" height="2.1596999"/>
	<rect x="27.4736996" y="2.1598001" class="st28" width="2.0599999" height="2.0548"/>
	<rect x="25.3129997" y="35.9079018" class="st29" width="2.1607001" height="2.0599999"/>
	<rect x="25.3129997" y="33.7472" class="st30" width="2.1607001" height="2.1607001"/>
	<rect x="25.3129997" y="31.6872005" class="st26" width="2.1607001" height="2.0599999"/>
	<rect x="25.3129997" y="29.5279999" class="st30" width="2.1607001" height="2.1592"/>
	<rect x="25.3129997" y="27.4675007" class="st28" width="2.1607001" height="2.0604999"/>
	<rect x="25.3129997" y="25.3078003" class="st20" width="2.1607001" height="2.1596999"/>
	<rect x="25.3129997" y="23.2530003" class="st22" width="2.1607001" height="2.0548"/>
	<rect x="25.3129997" y="21.0881004" class="st13" width="2.1607001" height="2.1649001"/>
	<rect x="25.3129997" y="19.0333996" class="st13" width="2.1607001" height="2.0546999"/>
	<rect x="25.3129997" y="16.8736" class="st13" width="2.1607001" height="2.1598001"/>
	<rect x="25.3129997" y="14.8136997" class="st22" width="2.1607001" height="2.0599"/>
	<rect x="25.3129997" y="12.6539001" class="st22" width="2.1607001" height="2.1598001"/>
	<rect x="25.3129997" y="10.5939999" class="st22" width="2.1607001" height="2.0599"/>
	<rect x="25.3129997" y="8.4342003" class="st20" width="2.1607001" height="2.1598001"/>
	<rect x="25.3129997" y="6.3743" class="st12" width="2.1607001" height="2.0599"/>
	<rect x="25.3129997" y="4.2146001" class="st12" width="2.1607001" height="2.1596999"/>
	<rect x="25.3129997" y="2.1598001" class="st28" width="2.1607001" height="2.0548"/>
	<rect x="23.2541008" y="35.9079018" class="st30" width="2.0589001" height="2.0599999"/>
	<rect x="23.2541008" y="33.7472" class="st26" width="2.0589001" height="2.1607001"/>
	<rect x="23.2541008" y="31.6872005" class="st26" width="2.0589001" height="2.0599999"/>
	<rect x="23.2541008" y="29.5279999" class="st30" width="2.0589001" height="2.1592"/>
	<rect x="23.2541008" y="27.4675007" class="st28" width="2.0589001" height="2.0604999"/>
	<rect x="23.2541008" y="25.3078003" class="st22" width="2.0589001" height="2.1596999"/>
	<rect x="23.2541008" y="23.2530003" class="st22" width="2.0589001" height="2.0548"/>
	<rect x="23.2541008" y="21.0881004" class="st22" width="2.0589001" height="2.1649001"/>
	<rect x="23.2541008" y="19.0333996" class="st13" width="2.0589001" height="2.0546999"/>
	<rect x="23.2541008" y="16.8736" class="st22" width="2.0589001" height="2.1598001"/>
	<rect x="23.2541008" y="14.8136997" class="st22" width="2.0589001" height="2.0599"/>
	<rect x="23.2541008" y="12.6539001" class="st13" width="2.0589001" height="2.1598001"/>
	<rect x="23.2541008" y="10.5939999" class="st22" width="2.0589001" height="2.0599"/>
	<rect x="23.2541008" y="8.4342003" class="st22" width="2.0589001" height="2.1598001"/>
	<rect x="23.2541008" y="6.3743" class="st20" width="2.0589001" height="2.0599"/>
	<rect x="23.2541008" y="4.2146001" class="st12" width="2.0589001" height="2.1596999"/>
	<rect x="23.2541008" y="2.1598001" class="st12" width="2.0589001" height="2.0548"/>
	<rect x="23.2541008" class="st28" width="2.0589001" height="2.1598001"/>
	<rect x="21.0932999" y="35.9079018" class="st30" width="2.1608" height="2.0599999"/>
	<rect x="21.0932999" y="33.7472" class="st26" width="2.1608" height="2.1607001"/>
	<rect x="21.0932999" y="31.6872005" class="st31" width="2.1608" height="2.0599999"/>
	<rect x="21.0932999" y="29.5279999" class="st30" width="2.1608" height="2.1592"/>
	<rect x="21.0932999" y="27.4675007" class="st28" width="2.1608" height="2.0604999"/>
	<rect x="21.0932999" y="25.3078003" class="st22" width="2.1608" height="2.1596999"/>
	<rect x="21.0932999" y="23.2530003" class="st22" width="2.1608" height="2.0548"/>
	<rect x="21.0932999" y="21.0881004" class="st22" width="2.1608" height="2.1649001"/>
	<rect x="21.0932999" y="19.0333996" class="st22" width="2.1608" height="2.0546999"/>
	<rect x="21.0932999" y="16.8736" class="st22" width="2.1608" height="2.1598001"/>
	<rect x="21.0932999" y="14.8136997" class="st13" width="2.1608" height="2.0599"/>
	<rect x="21.0932999" y="12.6539001" class="st9" width="2.1608" height="2.1598001"/>
	<rect x="21.0932999" y="10.5939999" class="st13" width="2.1608" height="2.0599"/>
	<rect x="21.0932999" y="8.4342003" class="st22" width="2.1608" height="2.1598001"/>
	<rect x="21.0932999" y="6.3743" class="st22" width="2.1608" height="2.0599"/>
	<rect x="21.0932999" y="4.2146001" class="st20" width="2.1608" height="2.1596999"/>
	<rect x="21.0932999" y="2.1598001" class="st12" width="2.1608" height="2.0548"/>
	<rect x="21.0932999" class="st28" width="2.1608" height="2.1598001"/>
	<rect x="19.0396004" y="35.9079018" class="st26" width="2.0537" height="2.0599999"/>
	<rect x="19.0396004" y="33.7472" class="st54" width="2.0537" height="2.1607001"/>
	<rect x="19.0396004" y="31.6872005" class="st31" width="2.0537" height="2.0599999"/>
	<rect x="19.0396004" y="29.5279999" class="st30" width="2.0537" height="2.1592"/>
	<rect x="19.0396004" y="27.4675007" class="st28" width="2.0537" height="2.0604999"/>
	<rect x="19.0396004" y="25.3078003" class="st22" width="2.0537" height="2.1596999"/>
	<rect x="19.0396004" y="23.2530003" class="st22" width="2.0537" height="2.0548"/>
	<rect x="19.0396004" y="21.0881004" class="st22" width="2.0537" height="2.1649001"/>
	<rect x="19.0396004" y="19.0333996" class="st22" width="2.0537" height="2.0546999"/>
	<rect x="19.0396004" y="16.8736" class="st22" width="2.0537" height="2.1598001"/>
	<rect x="19.0396004" y="14.8136997" class="st13" width="2.0537" height="2.0599"/>
	<rect x="19.0396004" y="12.6539001" class="st13" width="2.0537" height="2.1598001"/>
	<rect x="19.0396004" y="10.5939999" class="st13" width="2.0537" height="2.0599"/>
	<rect x="19.0396004" y="8.4342003" class="st22" width="2.0537" height="2.1598001"/>
	<rect x="19.0396004" y="6.3743" class="st22" width="2.0537" height="2.0599"/>
	<rect x="19.0396004" y="4.2146001" class="st22" width="2.0537" height="2.1596999"/>
	<rect x="19.0396004" y="2.1598001" class="st20" width="2.0537" height="2.0548"/>
	<rect x="19.0396004" class="st28" width="2.0537" height="2.1598001"/>
	<rect x="16.8787994" y="35.9079018" class="st26" width="2.1608" height="2.0599999"/>
	<rect x="16.8787994" y="33.7472" class="st31" width="2.1608" height="2.1607001"/>
	<rect x="16.8787994" y="31.6872005" class="st31" width="2.1608" height="2.0599999"/>
	<rect x="16.8787994" y="29.5279999" class="st30" width="2.1608" height="2.1592"/>
	<rect x="16.8787994" y="27.4675007" class="st28" width="2.1608" height="2.0604999"/>
	<rect x="16.8787994" y="25.3078003" class="st22" width="2.1608" height="2.1596999"/>
	<rect x="16.8787994" y="23.2530003" class="st22" width="2.1608" height="2.0548"/>
	<rect x="16.8787994" y="21.0881004" class="st22" width="2.1608" height="2.1649001"/>
	<rect x="16.8787994" y="19.0333996" class="st13" width="2.1608" height="2.0546999"/>
	<rect x="16.8787994" y="16.8736" class="st22" width="2.1608" height="2.1598001"/>
	<rect x="16.8787994" y="14.8136997" class="st22" width="2.1608" height="2.0599"/>
	<rect x="16.8787994" y="12.6539001" class="st13" width="2.1608" height="2.1598001"/>
	<rect x="16.8787994" y="10.5939999" class="st22" width="2.1608" height="2.0599"/>
	<rect x="16.8787994" y="8.4342003" class="st22" width="2.1608" height="2.1598001"/>
	<rect x="16.8787994" y="6.3743" class="st22" width="2.1608" height="2.0599"/>
	<rect x="16.8787994" y="4.2146001" class="st24" width="2.1608" height="2.1596999"/>
	<rect x="16.8787994" y="2.1598001" class="st12" width="2.1608" height="2.0548"/>
	<rect x="16.8787994" class="st28" width="2.1608" height="2.1598001"/>
	<rect x="14.8189001" y="35.9079018" class="st31" width="2.0599" height="2.0599999"/>
	<rect x="14.8189001" y="33.7472" class="st31" width="2.0599" height="2.1607001"/>
	<rect x="14.8189001" y="31.6872005" class="st31" width="2.0599" height="2.0599999"/>
	<rect x="14.8189001" y="29.5279999" class="st30" width="2.0599" height="2.1592"/>
	<rect x="14.8189001" y="27.4675007" class="st28" width="2.0599" height="2.0604999"/>
	<rect x="14.8189001" y="25.3078003" class="st22" width="2.0599" height="2.1596999"/>
	<rect x="14.8189001" y="23.2530003" class="st22" width="2.0599" height="2.0548"/>
	<rect x="14.8189001" y="21.0881004" class="st13" width="2.0599" height="2.1649001"/>
	<rect x="14.8189001" y="19.0333996" class="st9" width="2.0599" height="2.0546999"/>
	<rect x="14.8189001" y="16.8736" class="st13" width="2.0599" height="2.1598001"/>
	<rect x="14.8189001" y="14.8136997" class="st22" width="2.0599" height="2.0599"/>
	<rect x="14.8189001" y="12.6539001" class="st22" width="2.0599" height="2.1598001"/>
	<rect x="14.8189001" y="10.5939999" class="st22" width="2.0599" height="2.0599"/>
	<rect x="14.8189001" y="8.4342003" class="st22" width="2.0599" height="2.1598001"/>
	<rect x="14.8189001" y="6.3743" class="st24" width="2.0599" height="2.0599"/>
	<rect x="14.8189001" y="4.2146001" class="st12" width="2.0599" height="2.1596999"/>
	<rect x="14.8189001" y="2.1598001" class="st12" width="2.0599" height="2.0548"/>
	<rect x="14.8189001" class="st28" width="2.0599" height="2.1598001"/>
	<rect x="12.6590996" y="33.7472" class="st28" width="2.1598001" height="2.1607001"/>
	<rect x="12.6590996" y="31.6872005" class="st31" width="2.1598001" height="2.0599999"/>
	<rect x="12.6590996" y="29.5279999" class="st26" width="2.1598001" height="2.1592"/>
	<rect x="12.6590996" y="27.4675007" class="st28" width="2.1598001" height="2.0604999"/>
	<rect x="12.6590996" y="25.3078003" class="st22" width="2.1598001" height="2.1596999"/>
	<rect x="12.6590996" y="23.2530003" class="st22" width="2.1598001" height="2.0548"/>
	<rect x="12.6590996" y="21.0881004" class="st13" width="2.1598001" height="2.1649001"/>
	<rect x="12.6590996" y="19.0333996" class="st13" width="2.1598001" height="2.0546999"/>
	<rect x="12.6590996" y="16.8736" class="st13" width="2.1598001" height="2.1598001"/>
	<rect x="12.6590996" y="14.8136997" class="st22" width="2.1598001" height="2.0599"/>
	<rect x="12.6590996" y="12.6539001" class="st22" width="2.1598001" height="2.1598001"/>
	<rect x="12.6590996" y="10.5939999" class="st22" width="2.1598001" height="2.0599"/>
	<rect x="12.6590996" y="8.4342003" class="st24" width="2.1598001" height="2.1598001"/>
	<rect x="12.6590996" y="6.3743" class="st12" width="2.1598001" height="2.0599"/>
	<rect x="12.6590996" y="4.2146001" class="st12" width="2.1598001" height="2.1596999"/>
	<rect x="12.6590996" y="2.1598001" class="st12" width="2.1598001" height="2.0548"/>
	<rect x="12.6590996" class="st28" width="2.1598001" height="2.1598001"/>
	<rect x="10.5992002" y="33.7472" class="st28" width="2.0599" height="2.1607001"/>
	<rect x="10.5992002" y="31.6872005" class="st25" width="2.0599" height="2.0599999"/>
	<rect x="10.5992002" y="29.5279999" class="st26" width="2.0599" height="2.1592"/>
	<rect x="10.5992002" y="27.4675007" class="st28" width="2.0599" height="2.0604999"/>
	<rect x="10.5992002" y="25.3078003" class="st24" width="2.0599" height="2.1596999"/>
	<rect x="10.5992002" y="23.2530003" class="st22" width="2.0599" height="2.0548"/>
	<rect x="10.5992002" y="21.0881004" class="st22" width="2.0599" height="2.1649001"/>
	<rect x="10.5992002" y="19.0333996" class="st13" width="2.0599" height="2.0546999"/>
	<rect x="10.5992002" y="16.8736" class="st22" width="2.0599" height="2.1598001"/>
	<rect x="10.5992002" y="14.8136997" class="st22" width="2.0599" height="2.0599"/>
	<rect x="10.5992002" y="12.6539001" class="st22" width="2.0599" height="2.1598001"/>
	<rect x="10.5992002" y="10.5939999" class="st24" width="2.0599" height="2.0599"/>
	<rect x="10.5992002" y="8.4342003" class="st12" width="2.0599" height="2.1598001"/>
	<rect x="10.5992002" y="6.3743" class="st12" width="2.0599" height="2.0599"/>
	<rect x="10.5992002" y="4.2146001" class="st12" width="2.0599" height="2.1596999"/>
	<rect x="10.5992002" y="2.1598001" class="st28" width="2.0599" height="2.0548"/>
	<rect x="8.4393997" y="33.7472" class="st28" width="2.1598001" height="2.1607001"/>
	<rect x="8.4393997" y="31.6872005" class="st31" width="2.1598001" height="2.0599999"/>
	<rect x="8.4393997" y="29.5279999" class="st31" width="2.1598001" height="2.1592"/>
	<rect x="8.4393997" y="27.4675007" class="st26" width="2.1598001" height="2.0604999"/>
	<rect x="8.4393997" y="25.3078003" class="st28" width="2.1598001" height="2.1596999"/>
	<rect x="8.4393997" y="23.2530003" class="st24" width="2.1598001" height="2.0548"/>
	<rect x="8.4393997" y="21.0881004" class="st22" width="2.1598001" height="2.1649001"/>
	<rect x="8.4393997" y="19.0333996" class="st22" width="2.1598001" height="2.0546999"/>
	<rect x="8.4393997" y="16.8736" class="st22" width="2.1598001" height="2.1598001"/>
	<rect x="8.4393997" y="14.8136997" class="st24" width="2.1598001" height="2.0599"/>
	<rect x="8.4393997" y="12.6539001" class="st24" width="2.1598001" height="2.1598001"/>
	<rect x="8.4393997" y="10.5939999" class="st12" width="2.1598001" height="2.0599"/>
	<rect x="8.4393997" y="8.4342003" class="st12" width="2.1598001" height="2.1598001"/>
	<rect x="8.4393997" y="6.3743" class="st12" width="2.1598001" height="2.0599"/>
	<rect x="8.4393997" y="4.2146001" class="st13" width="2.1598001" height="2.1596999"/>
	<rect x="8.4393997" y="2.1598001" class="st28" width="2.1598001" height="2.0548"/>
	<rect x="6.3794999" y="31.6872005" class="st28" width="2.0599" height="2.0599999"/>
	<rect x="6.3794999" y="29.5279999" class="st31" width="2.0599" height="2.1592"/>
	<rect x="6.3794999" y="27.4675007" class="st31" width="2.0599" height="2.0604999"/>
	<rect x="6.3794999" y="25.3078003" class="st26" width="2.0599" height="2.1596999"/>
	<rect x="6.3794999" y="23.2530003" class="st12" width="2.0599" height="2.0548"/>
	<rect x="6.3794999" y="21.0881004" class="st24" width="2.0599" height="2.1649001"/>
	<rect x="6.3794999" y="19.0333996" class="st24" width="2.0599" height="2.0546999"/>
	<rect x="6.3794999" y="16.8736" class="st24" width="2.0599" height="2.1598001"/>
	<rect x="6.3794999" y="14.8136997" class="st12" width="2.0599" height="2.0599"/>
	<rect x="6.3794999" y="12.6539001" class="st12" width="2.0599" height="2.1598001"/>
	<rect x="6.3794999" y="10.5939999" class="st12" width="2.0599" height="2.0599"/>
	<rect x="6.3794999" y="8.4342003" class="st12" width="2.0599" height="2.1598001"/>
	<rect x="6.3794999" y="6.3743" class="st13" width="2.0599" height="2.0599"/>
	<rect x="6.3794999" y="4.2146001" class="st28" width="2.0599" height="2.1596999"/>
	<rect x="4.2196999" y="29.5279999" class="st31" width="2.1598001" height="2.1592"/>
	<rect x="4.2196999" y="27.4675007" class="st25" width="2.1598001" height="2.0604999"/>
	<rect x="4.2196999" y="25.3078003" class="st26" width="2.1598001" height="2.1596999"/>
	<rect x="4.2196999" y="23.2530003" class="st28" width="2.1598001" height="2.0548"/>
	<rect x="4.2196999" y="21.0881004" class="st12" width="2.1598001" height="2.1649001"/>
	<rect x="4.2196999" y="19.0333996" class="st12" width="2.1598001" height="2.0546999"/>
	<rect x="4.2196999" y="16.8736" class="st12" width="2.1598001" height="2.1598001"/>
	<rect x="4.2196999" y="14.8136997" class="st12" width="2.1598001" height="2.0599"/>
	<rect x="4.2196999" y="12.6539001" class="st12" width="2.1598001" height="2.1598001"/>
	<rect x="4.2196999" y="10.5939999" class="st12" width="2.1598001" height="2.0599"/>
	<rect x="4.2196999" y="8.4342003" class="st12" width="2.1598001" height="2.1598001"/>
	<rect x="4.2196999" y="6.3743" class="st28" width="2.1598001" height="2.0599"/>
	<rect x="2.1649001" y="29.5279999" class="st28" width="2.0548" height="2.1592"/>
	<rect x="2.1649001" y="27.4675007" class="st26" width="2.0548" height="2.0604999"/>
	<rect x="2.1649001" y="25.3078003" class="st30" width="2.0548" height="2.1596999"/>
	<rect x="2.1649001" y="21.0881004" class="st28" width="2.0548" height="2.1649001"/>
	<rect x="2.1649001" y="19.0333996" class="st12" width="2.0548" height="2.0546999"/>
	<rect x="2.1649001" y="16.8736" class="st12" width="2.0548" height="2.1598001"/>
	<rect x="2.1649001" y="14.8136997" class="st12" width="2.0548" height="2.0599"/>
	<rect x="2.1649001" y="12.6539001" class="st12" width="2.0548" height="2.1598001"/>
	<rect x="2.1649001" y="10.5939999" class="st28" width="2.0548" height="2.0599"/>
	<rect x="2.1649001" y="8.4342003" class="st28" width="2.0548" height="2.1598001"/>
	<rect y="27.4675007" class="st28" width="2.1649001" height="2.0604999"/>
	<rect y="19.0333996" class="st28" width="2.1649001" height="2.0546999"/>
	<rect y="16.8736" class="st28" width="2.1649001" height="2.1598001"/>
	<rect y="14.8136997" class="st28" width="2.1649001" height="2.0599"/>
	<rect y="12.6539001" class="st28" width="2.1649001" height="2.1598001"/>
</g>
</svg>
