<?xml version="1.0" encoding="utf-8"?>
<!-- Generator: Adobe Illustrator 26.0.1, SVG Export Plug-In . SVG Version: 6.00 Build 0)  -->
<svg version="1.1" id="Layer_1" xmlns="http://www.w3.org/2000/svg" xmlns:xlink="http://www.w3.org/1999/xlink" x="0px" y="0px"
	 width="47px" height="45px" viewBox="0 0 47 45" style="enable-background:new 0 0 47 45;" xml:space="preserve">
<style type="text/css">
	.st0{opacity:0.3;}
	.st1{fill:#181818;}
	.st2{fill:#A8A8A8;}
	.st3{fill:#202020;}
	.st4{fill:#585858;}
</style>
<g id="XMLID_27_" class="st0">
	<rect x="44.5438499" y="25.6925507" width="2.1598015" height="2.0543003"/>
	<rect x="44.5438499" y="23.5271492" width="2.1598015" height="2.1653996"/>
	<rect x="44.5438499" y="21.4728508" width="2.1598015" height="2.0543003"/>
	<rect x="44.5438499" y="19.3125496" class="st1" width="2.1598015" height="2.1602993"/>
	<rect x="44.5438499" y="17.2526493" width="2.1598015" height="2.0599003"/>
	<rect x="44.5438499" y="15.0929499" width="2.1598015" height="2.1596994"/>
	<rect x="44.5438499" y="13.0329504" width="2.1598015" height="2.0600004"/>
	<rect x="42.4839516" y="34.1267509" width="2.0598984" height="2.0598984"/>
	<rect x="42.4839516" y="31.9669495" width="2.0598984" height="2.1598015"/>
	<rect x="42.4839516" y="29.9070492" width="2.0598984" height="2.0599003"/>
	<rect x="42.4839516" y="27.7468491" width="2.0598984" height="2.1602001"/>
	<rect x="42.4839516" y="25.6925507" width="2.0598984" height="2.0543003"/>
	<rect x="42.4839516" y="21.4728508" width="2.0598984" height="2.0543003"/>
	<rect x="42.4839516" y="19.3125496" width="2.0598984" height="2.1602993"/>
	<rect x="42.4839516" y="17.2526493" width="2.0598984" height="2.0599003"/>
	<rect x="42.4839516" y="15.0929499" width="2.0598984" height="2.1596994"/>
	<rect x="42.4839516" y="13.0329504" class="st1" width="2.0598984" height="2.0600004"/>
	<rect x="42.4839516" y="10.87325" width="2.0598984" height="2.1596994"/>
	<rect x="42.4839516" y="8.8132496" width="2.0598984" height="2.0599995"/>
	<rect x="40.3241501" y="36.1866493" width="2.1598015" height="2.1598015"/>
	<rect x="40.3241501" y="34.1267509" width="2.1598015" height="2.0598984"/>
	<rect x="40.3241501" y="31.9669495" class="st2" width="2.1598015" height="2.1598015"/>
	<rect x="40.3241501" y="29.9070492" class="st3" width="2.1598015" height="2.0599003"/>
	<rect x="40.3241501" y="27.7468491" class="st4" width="2.1598015" height="2.1602001"/>
	<rect x="40.3241501" y="25.6925507" width="2.1598015" height="2.0543003"/>
	<rect x="40.3241501" y="23.5271492" width="2.1598015" height="2.1653996"/>
	<rect x="40.3241501" y="21.4728508" width="2.1598015" height="2.0543003"/>
	<rect x="40.3241501" y="19.3125496" width="2.1598015" height="2.1602993"/>
	<rect x="40.3241501" y="15.0929499" width="2.1598015" height="2.1596994"/>
	<rect x="40.3241501" y="13.0329504" class="st3" width="2.1598015" height="2.0600004"/>
	<rect x="40.3241501" y="10.87325" class="st1" width="2.1598015" height="2.1596994"/>
	<rect x="40.3241501" y="8.8132496" width="2.1598015" height="2.0599995"/>
	<rect x="40.3241501" y="6.6530499" width="2.1598015" height="2.1601996"/>
	<rect x="40.3241501" y="4.5987501" width="2.1598015" height="2.0543003"/>
	<rect x="38.2642517" y="38.3464508" width="2.0598984" height="2.0598984"/>
	<rect x="38.2642517" y="36.1866493" class="st1" width="2.0598984" height="2.1598015"/>
	<rect x="38.2642517" y="34.1267509" class="st1" width="2.0598984" height="2.0598984"/>
	<rect x="38.2642517" y="31.9669495" width="2.0598984" height="2.1598015"/>
	<rect x="38.2642517" y="29.9070492" class="st1" width="2.0598984" height="2.0599003"/>
	<rect x="38.2642517" y="27.7468491" width="2.0598984" height="2.1602001"/>
	<rect x="38.2642517" y="25.6925507" class="st4" width="2.0598984" height="2.0543003"/>
	<rect x="38.2642517" y="23.5271492" class="st3" width="2.0598984" height="2.1653996"/>
	<rect x="38.2642517" y="21.4728508" class="st1" width="2.0598984" height="2.0543003"/>
	<rect x="38.2642517" y="19.3125496" width="2.0598984" height="2.1602993"/>
	<rect x="38.2642517" y="17.2526493" width="2.0598984" height="2.0599003"/>
	<rect x="38.2642517" y="15.0929499" width="2.0598984" height="2.1596994"/>
	<rect x="38.2642517" y="13.0329504" width="2.0598984" height="2.0600004"/>
	<rect x="38.2642517" y="10.87325" class="st4" width="2.0598984" height="2.1596994"/>
	<rect x="38.2642517" y="8.8132496" class="st1" width="2.0598984" height="2.0599995"/>
	<rect x="38.2642517" y="6.6530499" width="2.0598984" height="2.1601996"/>
	<rect x="38.2642517" y="4.5987501" width="2.0598984" height="2.0543003"/>
	<rect x="36.1039505" y="40.4063492" width="2.1603012" height="2.0548019"/>
	<rect x="36.1039505" y="38.3464508" class="st4" width="2.1603012" height="2.0598984"/>
	<rect x="36.1039505" y="36.1866493" class="st3" width="2.1603012" height="2.1598015"/>
	<rect x="36.1039505" y="34.1267509" width="2.1603012" height="2.0598984"/>
	<rect x="36.1039505" y="31.9669495" width="2.1603012" height="2.1598015"/>
	<rect x="36.1039505" y="29.9070492" width="2.1603012" height="2.0599003"/>
	<rect x="36.1039505" y="27.7468491" class="st3" width="2.1603012" height="2.1602001"/>
	<rect x="36.1039505" y="25.6925507" class="st4" width="2.1603012" height="2.0543003"/>
	<rect x="36.1039505" y="23.5271492" class="st2" width="2.1603012" height="2.1653996"/>
	<rect x="36.1039505" y="21.4728508" class="st3" width="2.1603012" height="2.0543003"/>
	<rect x="36.1039505" y="19.3125496" width="2.1603012" height="2.1602993"/>
	<rect x="36.1039505" y="17.2526493" width="2.1603012" height="2.0599003"/>
	<rect x="36.1039505" y="15.0929499" width="2.1603012" height="2.1596994"/>
	<rect x="36.1039505" y="13.0329504" width="2.1603012" height="2.0600004"/>
	<rect x="36.1039505" y="10.87325" class="st3" width="2.1603012" height="2.1596994"/>
	<rect x="36.1039505" y="8.8132496" class="st2" width="2.1603012" height="2.0599995"/>
	<rect x="36.1039505" y="6.6530499" width="2.1603012" height="2.1601996"/>
	<rect x="36.1039505" y="4.5987501" width="2.1603012" height="2.0543003"/>
	<rect x="36.1039505" y="2.43855" width="2.1603012" height="2.1602001"/>
	<rect x="34.0497513" y="42.4611511" width="2.0541992" height="2.1598015"/>
	<rect x="34.0497513" y="40.4063492" width="2.0541992" height="2.0548019"/>
	<rect x="34.0497513" y="38.3464508" width="2.0541992" height="2.0598984"/>
	<rect x="34.0497513" y="34.1267509" width="2.0541992" height="2.0598984"/>
	<rect x="34.0497513" y="31.9669495" width="2.0541992" height="2.1598015"/>
	<rect x="34.0497513" y="29.9070492" width="2.0541992" height="2.0599003"/>
	<rect x="34.0497513" y="27.7468491" width="2.0541992" height="2.1602001"/>
	<rect x="34.0497513" y="25.6925507" width="2.0541992" height="2.0543003"/>
	<rect x="34.0497513" y="23.5271492" class="st3" width="2.0541992" height="2.1653996"/>
	<rect x="34.0497513" y="21.4728508" class="st4" width="2.0541992" height="2.0543003"/>
	<rect x="34.0497513" y="19.3125496" class="st1" width="2.0541992" height="2.1602993"/>
	<rect x="34.0497513" y="17.2526493" width="2.0541992" height="2.0599003"/>
	<rect x="34.0497513" y="15.0929499" width="2.0541992" height="2.1596994"/>
	<rect x="34.0497513" y="13.0329504" width="2.0541992" height="2.0600004"/>
	<rect x="34.0497513" y="10.87325" width="2.0541992" height="2.1596994"/>
	<rect x="34.0497513" y="8.8132496" class="st3" width="2.0541992" height="2.0599995"/>
	<rect x="34.0497513" y="6.6530499" class="st1" width="2.0541992" height="2.1601996"/>
	<rect x="34.0497513" y="4.5987501" width="2.0541992" height="2.0543003"/>
	<rect x="31.8894501" y="40.4063492" width="2.1603012" height="2.0548019"/>
	<rect x="31.8894501" y="36.1866493" width="2.1603012" height="2.1598015"/>
	<rect x="31.8894501" y="34.1267509" width="2.1603012" height="2.0598984"/>
	<rect x="31.8894501" y="31.9669495" width="2.1603012" height="2.1598015"/>
	<rect x="31.8894501" y="29.9070492" width="2.1603012" height="2.0599003"/>
	<rect x="31.8894501" y="27.7468491" width="2.1603012" height="2.1602001"/>
	<rect x="31.8894501" y="25.6925507" width="2.1603012" height="2.0543003"/>
	<rect x="31.8894501" y="23.5271492" width="2.1603012" height="2.1653996"/>
	<rect x="31.8894501" y="21.4728508" class="st3" width="2.1603012" height="2.0543003"/>
	<rect x="31.8894501" y="19.3125496" width="2.1603012" height="2.1602993"/>
	<rect x="31.8894501" y="17.2526493" width="2.1603012" height="2.0599003"/>
	<rect x="31.8894501" y="15.0929499" width="2.1603012" height="2.1596994"/>
	<rect x="31.8894501" y="13.0329504" width="2.1603012" height="2.0600004"/>
	<rect x="31.8894501" y="10.87325" width="2.1603012" height="2.1596994"/>
	<rect x="31.8894501" y="8.8132496" class="st4" width="2.1603012" height="2.0599995"/>
	<rect x="31.8894501" y="6.6530499" width="2.1603012" height="2.1601996"/>
	<rect x="31.8894501" y="4.5987501" width="2.1603012" height="2.0543003"/>
	<rect x="31.8894501" y="2.43855" width="2.1603012" height="2.1602001"/>
	<rect x="29.8300495" y="40.4063492" width="2.0594006" height="2.0548019"/>
	<rect x="29.8300495" y="38.3464508" width="2.0594006" height="2.0598984"/>
	<rect x="29.8300495" y="36.1866493" width="2.0594006" height="2.1598015"/>
	<rect x="29.8300495" y="31.9669495" width="2.0594006" height="2.1598015"/>
	<rect x="29.8300495" y="29.9070492" width="2.0594006" height="2.0599003"/>
	<rect x="29.8300495" y="27.7468491" width="2.0594006" height="2.1602001"/>
	<rect x="29.8300495" y="25.6925507" width="2.0594006" height="2.0543003"/>
	<rect x="29.8300495" y="23.5271492" width="2.0594006" height="2.1653996"/>
	<rect x="29.8300495" y="21.4728508" class="st4" width="2.0594006" height="2.0543003"/>
	<rect x="29.8300495" y="19.3125496" class="st3" width="2.0594006" height="2.1602993"/>
	<rect x="29.8300495" y="17.2526493" width="2.0594006" height="2.0599003"/>
	<rect x="29.8300495" y="15.0929499" width="2.0594006" height="2.1596994"/>
	<rect x="29.8300495" y="13.0329504" width="2.0594006" height="2.0600004"/>
	<rect x="29.8300495" y="10.87325" class="st3" width="2.0594006" height="2.1596994"/>
	<rect x="29.8300495" y="8.8132496" width="2.0594006" height="2.0599995"/>
	<rect x="29.8300495" y="6.6530499" class="st1" width="2.0594006" height="2.1601996"/>
	<rect x="29.8300495" y="4.5987501" width="2.0594006" height="2.0543003"/>
	<rect x="29.8300495" y="2.43855" width="2.0594006" height="2.1602001"/>
	<rect x="29.8300495" y="0.37905" width="2.0594006" height="2.0595"/>
	<rect x="27.6697502" y="42.4611511" width="2.1602993" height="2.1598015"/>
	<rect x="27.6697502" y="40.4063492" width="2.1602993" height="2.0548019"/>
	<rect x="27.6697502" y="38.3464508" width="2.1602993" height="2.0598984"/>
	<rect x="27.6697502" y="34.1267509" width="2.1602993" height="2.0598984"/>
	<rect x="27.6697502" y="31.9669495" width="2.1602993" height="2.1598015"/>
	<rect x="27.6697502" y="29.9070492" width="2.1602993" height="2.0599003"/>
	<rect x="27.6697502" y="27.7468491" width="2.1602993" height="2.1602001"/>
	<rect x="27.6697502" y="25.6925507" width="2.1602993" height="2.0543003"/>
	<rect x="27.6697502" y="23.5271492" class="st1" width="2.1602993" height="2.1653996"/>
	<rect x="27.6697502" y="21.4728508" class="st3" width="2.1602993" height="2.0543003"/>
	<rect x="27.6697502" y="19.3125496" class="st1" width="2.1602993" height="2.1602993"/>
	<rect x="27.6697502" y="17.2526493" class="st1" width="2.1602993" height="2.0599003"/>
	<rect x="27.6697502" y="15.0929499" width="2.1602993" height="2.1596994"/>
	<rect x="27.6697502" y="13.0329504" class="st3" width="2.1602993" height="2.0600004"/>
	<rect x="27.6697502" y="10.87325" width="2.1602993" height="2.1596994"/>
	<rect x="27.6697502" y="8.8132496" class="st3" width="2.1602993" height="2.0599995"/>
	<rect x="27.6697502" y="6.6530499" width="2.1602993" height="2.1601996"/>
	<rect x="27.6697502" y="4.5987501" width="2.1602993" height="2.0543003"/>
	<rect x="27.6697502" y="2.43855" width="2.1602993" height="2.1602001"/>
	<rect x="25.6098499" y="40.4063492" width="2.0599003" height="2.0548019"/>
	<rect x="25.6098499" y="36.1866493" width="2.0599003" height="2.1598015"/>
	<rect x="25.6098499" y="34.1267509" width="2.0599003" height="2.0598984"/>
	<rect x="25.6098499" y="31.9669495" width="2.0599003" height="2.1598015"/>
	<rect x="25.6098499" y="29.9070492" class="st1" width="2.0599003" height="2.0599003"/>
	<rect x="25.6098499" y="27.7468491" width="2.0599003" height="2.1602001"/>
	<rect x="25.6098499" y="25.6925507" class="st3" width="2.0599003" height="2.0543003"/>
	<rect x="25.6098499" y="23.5271492" class="st3" width="2.0599003" height="2.1653996"/>
	<rect x="25.6098499" y="21.4728508" class="st4" width="2.0599003" height="2.0543003"/>
	<rect x="25.6098499" y="19.3125496" class="st3" width="2.0599003" height="2.1602993"/>
	<rect x="25.6098499" y="17.2526493" width="2.0599003" height="2.0599003"/>
	<rect x="25.6098499" y="15.0929499" class="st4" width="2.0599003" height="2.1596994"/>
	<rect x="25.6098499" y="13.0329504" class="st2" width="2.0599003" height="2.0600004"/>
	<rect x="25.6098499" y="10.87325" class="st1" width="2.0599003" height="2.1596994"/>
	<rect x="25.6098499" y="8.8132496" width="2.0599003" height="2.0599995"/>
	<rect x="25.6098499" y="6.6530499" width="2.0599003" height="2.1601996"/>
	<rect x="25.6098499" y="2.43855" class="st1" width="2.0599003" height="2.1602001"/>
	<rect x="25.6098499" y="0.37905" width="2.0599003" height="2.0595"/>
	<rect x="23.4501495" y="38.3464508" width="2.1597004" height="2.0598984"/>
	<rect x="23.4501495" y="36.1866493" width="2.1597004" height="2.1598015"/>
	<rect x="23.4501495" y="34.1267509" width="2.1597004" height="2.0598984"/>
	<rect x="23.4501495" y="31.9669495" class="st1" width="2.1597004" height="2.1598015"/>
	<rect x="23.4501495" y="29.9070492" class="st4" width="2.1597004" height="2.0599003"/>
	<rect x="23.4501495" y="27.7468491" class="st3" width="2.1597004" height="2.1602001"/>
	<rect x="23.4501495" y="25.6925507" class="st4" width="2.1597004" height="2.0543003"/>
	<rect x="23.4501495" y="23.5271492" class="st2" width="2.1597004" height="2.1653996"/>
	<rect x="23.4501495" y="21.4728508" class="st3" width="2.1597004" height="2.0543003"/>
	<rect x="23.4501495" y="19.3125496" class="st4" width="2.1597004" height="2.1602993"/>
	<rect x="23.4501495" y="17.2526493" class="st4" width="2.1597004" height="2.0599003"/>
	<rect x="23.4501495" y="15.0929499" class="st3" width="2.1597004" height="2.1596994"/>
	<rect x="23.4501495" y="13.0329504" class="st3" width="2.1597004" height="2.0600004"/>
	<rect x="23.4501495" y="10.87325" width="2.1597004" height="2.1596994"/>
	<rect x="23.4501495" y="8.8132496" width="2.1597004" height="2.0599995"/>
	<rect x="23.4501495" y="6.6530499" width="2.1597004" height="2.1601996"/>
	<rect x="23.4501495" y="4.5987501" width="2.1597004" height="2.0543003"/>
	<rect x="21.3901501" y="42.4611511" class="st1" width="2.0599995" height="2.1598015"/>
	<rect x="21.3901501" y="40.4063492" width="2.0599995" height="2.0548019"/>
	<rect x="21.3901501" y="38.3464508" width="2.0599995" height="2.0598984"/>
	<rect x="21.3901501" y="36.1866493" class="st4" width="2.0599995" height="2.1598015"/>
	<rect x="21.3901501" y="34.1267509" class="st3" width="2.0599995" height="2.0598984"/>
	<rect x="21.3901501" y="31.9669495" class="st3" width="2.0599995" height="2.1598015"/>
	<rect x="21.3901501" y="29.9070492" class="st3" width="2.0599995" height="2.0599003"/>
	<rect x="21.3901501" y="27.7468491" class="st1" width="2.0599995" height="2.1602001"/>
	<rect x="21.3901501" y="25.6925507" class="st1" width="2.0599995" height="2.0543003"/>
	<rect x="21.3901501" y="23.5271492" class="st3" width="2.0599995" height="2.1653996"/>
	<rect x="21.3901501" y="21.4728508" class="st4" width="2.0599995" height="2.0543003"/>
	<rect x="21.3901501" y="19.3125496" class="st1" width="2.0599995" height="2.1602993"/>
	<rect x="21.3901501" y="17.2526493" class="st3" width="2.0599995" height="2.0599003"/>
	<rect x="21.3901501" y="15.0929499" width="2.0599995" height="2.1596994"/>
	<rect x="21.3901501" y="13.0329504" width="2.0599995" height="2.0600004"/>
	<rect x="21.3901501" y="10.87325" width="2.0599995" height="2.1596994"/>
	<rect x="21.3901501" y="8.8132496" width="2.0599995" height="2.0599995"/>
	<rect x="21.3901501" y="6.6530499" width="2.0599995" height="2.1601996"/>
	<rect x="21.3901501" y="2.43855" width="2.0599995" height="2.1602001"/>
	<rect x="19.2304497" y="40.4063492" width="2.1597004" height="2.0548019"/>
	<rect x="19.2304497" y="38.3464508" width="2.1597004" height="2.0598984"/>
	<rect x="19.2304497" y="36.1866493" width="2.1597004" height="2.1598015"/>
	<rect x="19.2304497" y="34.1267509" class="st3" width="2.1597004" height="2.0598984"/>
	<rect x="19.2304497" y="31.9669495" width="2.1597004" height="2.1598015"/>
	<rect x="19.2304497" y="29.9070492" width="2.1597004" height="2.0599003"/>
	<rect x="19.2304497" y="27.7468491" width="2.1597004" height="2.1602001"/>
	<rect x="19.2304497" y="25.6925507" width="2.1597004" height="2.0543003"/>
	<rect x="19.2304497" y="23.5271492" width="2.1597004" height="2.1653996"/>
	<rect x="19.2304497" y="21.4728508" class="st1" width="2.1597004" height="2.0543003"/>
	<rect x="19.2304497" y="19.3125496" class="st3" width="2.1597004" height="2.1602993"/>
	<rect x="19.2304497" y="17.2526493" width="2.1597004" height="2.0599003"/>
	<rect x="19.2304497" y="15.0929499" width="2.1597004" height="2.1596994"/>
	<rect x="19.2304497" y="13.0329504" width="2.1597004" height="2.0600004"/>
	<rect x="19.2304497" y="10.87325" width="2.1597004" height="2.1596994"/>
	<rect x="19.2304497" y="8.8132496" width="2.1597004" height="2.0599995"/>
	<rect x="19.2304497" y="4.5987501" width="2.1597004" height="2.0543003"/>
	<rect x="19.2304497" y="2.43855" width="2.1597004" height="2.1602001"/>
	<rect x="19.2304497" y="0.37905" width="2.1597004" height="2.0595"/>
	<rect x="17.1756496" y="42.4611511" width="2.0548" height="2.1598015"/>
	<rect x="17.1756496" y="40.4063492" width="2.0548" height="2.0548019"/>
	<rect x="17.1756496" y="38.3464508" width="2.0548" height="2.0598984"/>
	<rect x="17.1756496" y="36.1866493" class="st4" width="2.0548" height="2.1598015"/>
	<rect x="17.1756496" y="34.1267509" class="st2" width="2.0548" height="2.0598984"/>
	<rect x="17.1756496" y="31.9669495" width="2.0548" height="2.1598015"/>
	<rect x="17.1756496" y="29.9070492" width="2.0548" height="2.0599003"/>
	<rect x="17.1756496" y="27.7468491" width="2.0548" height="2.1602001"/>
	<rect x="17.1756496" y="25.6925507" width="2.0548" height="2.0543003"/>
	<rect x="17.1756496" y="23.5271492" class="st1" width="2.0548" height="2.1653996"/>
	<rect x="17.1756496" y="21.4728508" class="st4" width="2.0548" height="2.0543003"/>
	<rect x="17.1756496" y="19.3125496" width="2.0548" height="2.1602993"/>
	<rect x="17.1756496" y="17.2526493" width="2.0548" height="2.0599003"/>
	<rect x="17.1756496" y="15.0929499" width="2.0548" height="2.1596994"/>
	<rect x="17.1756496" y="13.0329504" width="2.0548" height="2.0600004"/>
	<rect x="17.1756496" y="10.87325" width="2.0548" height="2.1596994"/>
	<rect x="17.1756496" y="6.6530499" width="2.0548" height="2.1601996"/>
	<rect x="17.1756496" y="4.5987501" width="2.0548" height="2.0543003"/>
	<rect x="17.1756496" y="2.43855" width="2.0548" height="2.1602001"/>
	<rect x="15.01015" y="40.4063492" width="2.1654997" height="2.0548019"/>
	<rect x="15.01015" y="38.3464508" width="2.1654997" height="2.0598984"/>
	<rect x="15.01015" y="36.1866493" class="st2" width="2.1654997" height="2.1598015"/>
	<rect x="15.01015" y="34.1267509" class="st3" width="2.1654997" height="2.0598984"/>
	<rect x="15.01015" y="31.9669495" width="2.1654997" height="2.1598015"/>
	<rect x="15.01015" y="29.9070492" width="2.1654997" height="2.0599003"/>
	<rect x="15.01015" y="27.7468491" width="2.1654997" height="2.1602001"/>
	<rect x="15.01015" y="25.6925507" width="2.1654997" height="2.0543003"/>
	<rect x="15.01015" y="23.5271492" width="2.1654997" height="2.1653996"/>
	<rect x="15.01015" y="21.4728508" class="st3" width="2.1654997" height="2.0543003"/>
	<rect x="15.01015" y="19.3125496" width="2.1654997" height="2.1602993"/>
	<rect x="15.01015" y="17.2526493" width="2.1654997" height="2.0599003"/>
	<rect x="15.01015" y="15.0929499" width="2.1654997" height="2.1596994"/>
	<rect x="15.01015" y="13.0329504" width="2.1654997" height="2.0600004"/>
	<rect x="15.01015" y="10.87325" width="2.1654997" height="2.1596994"/>
	<rect x="15.01015" y="8.8132496" width="2.1654997" height="2.0599995"/>
	<rect x="15.01015" y="6.6530499" width="2.1654997" height="2.1601996"/>
	<rect x="15.01015" y="2.43855" width="2.1654997" height="2.1602001"/>
	<rect x="12.9559498" y="38.3464508" width="2.0542002" height="2.0598984"/>
	<rect x="12.9559498" y="36.1866493" class="st3" width="2.0542002" height="2.1598015"/>
	<rect x="12.9559498" y="34.1267509" width="2.0542002" height="2.0598984"/>
	<rect x="12.9559498" y="31.9669495" width="2.0542002" height="2.1598015"/>
	<rect x="12.9559498" y="29.9070492" width="2.0542002" height="2.0599003"/>
	<rect x="12.9559498" y="27.7468491" width="2.0542002" height="2.1602001"/>
	<rect x="12.9559498" y="25.6925507" width="2.0542002" height="2.0543003"/>
	<rect x="12.9559498" y="23.5271492" width="2.0542002" height="2.1653996"/>
	<rect x="12.9559498" y="21.4728508" class="st4" width="2.0542002" height="2.0543003"/>
	<rect x="12.9559498" y="19.3125496" class="st3" width="2.0542002" height="2.1602993"/>
	<rect x="12.9559498" y="17.2526493" width="2.0542002" height="2.0599003"/>
	<rect x="12.9559498" y="15.0929499" width="2.0542002" height="2.1596994"/>
	<rect x="12.9559498" y="13.0329504" width="2.0542002" height="2.0600004"/>
	<rect x="12.9559498" y="10.87325" width="2.0542002" height="2.1596994"/>
	<rect x="12.9559498" y="8.8132496" width="2.0542002" height="2.0599995"/>
	<rect x="12.9559498" y="4.5987501" width="2.0542002" height="2.0543003"/>
	<rect x="12.9559498" y="2.43855" width="2.0542002" height="2.1602001"/>
	<rect x="12.9559498" y="0.37905" width="2.0542002" height="2.0595"/>
	<rect x="10.7956495" y="40.4063492" width="2.1603003" height="2.0548019"/>
	<rect x="10.7956495" y="38.3464508" width="2.1603003" height="2.0598984"/>
	<rect x="10.7956495" y="36.1866493" width="2.1603003" height="2.1598015"/>
	<rect x="10.7956495" y="34.1267509" class="st4" width="2.1603003" height="2.0598984"/>
	<rect x="10.7956495" y="31.9669495" width="2.1603003" height="2.1598015"/>
	<rect x="10.7956495" y="29.9070492" width="2.1603003" height="2.0599003"/>
	<rect x="10.7956495" y="27.7468491" width="2.1603003" height="2.1602001"/>
	<rect x="10.7956495" y="25.6925507" width="2.1603003" height="2.0543003"/>
	<rect x="10.7956495" y="23.5271492" width="2.1603003" height="2.1653996"/>
	<rect x="10.7956495" y="21.4728508" class="st3" width="2.1603003" height="2.0543003"/>
	<rect x="10.7956495" y="19.3125496" class="st2" width="2.1603003" height="2.1602993"/>
	<rect x="10.7956495" y="17.2526493" width="2.1603003" height="2.0599003"/>
	<rect x="10.7956495" y="15.0929499" class="st3" width="2.1603003" height="2.1596994"/>
	<rect x="10.7956495" y="13.0329504" width="2.1603003" height="2.0600004"/>
	<rect x="10.7956495" y="10.87325" width="2.1603003" height="2.1596994"/>
	<rect x="10.7956495" y="8.8132496" width="2.1603003" height="2.0599995"/>
	<rect x="10.7956495" y="6.6530499" class="st3" width="2.1603003" height="2.1601996"/>
	<rect x="10.7956495" y="4.5987501" class="st4" width="2.1603003" height="2.0543003"/>
	<rect x="10.7956495" y="2.43855" width="2.1603003" height="2.1602001"/>
	<rect x="8.7362499" y="38.3464508" width="2.0594006" height="2.0598984"/>
	<rect x="8.7362499" y="36.1866493" width="2.0594006" height="2.1598015"/>
	<rect x="8.7362499" y="34.1267509" width="2.0594006" height="2.0598984"/>
	<rect x="8.7362499" y="31.9669495" class="st1" width="2.0594006" height="2.1598015"/>
	<rect x="8.7362499" y="29.9070492" width="2.0594006" height="2.0599003"/>
	<rect x="8.7362499" y="27.7468491" width="2.0594006" height="2.1602001"/>
	<rect x="8.7362499" y="25.6925507" width="2.0594006" height="2.0543003"/>
	<rect x="8.7362499" y="23.5271492" width="2.0594006" height="2.1653996"/>
	<rect x="8.7362499" y="21.4728508" width="2.0594006" height="2.0543003"/>
	<rect x="8.7362499" y="19.3125496" class="st3" width="2.0594006" height="2.1602993"/>
	<rect x="8.7362499" y="17.2526493" class="st4" width="2.0594006" height="2.0599003"/>
	<rect x="8.7362499" y="15.0929499" width="2.0594006" height="2.1596994"/>
	<rect x="8.7362499" y="13.0329504" class="st1" width="2.0594006" height="2.0600004"/>
	<rect x="8.7362499" y="10.87325" width="2.0594006" height="2.1596994"/>
	<rect x="8.7362499" y="8.8132496" class="st1" width="2.0594006" height="2.0599995"/>
	<rect x="8.7362499" y="6.6530499" class="st1" width="2.0594006" height="2.1601996"/>
	<rect x="8.7362499" y="4.5987501" width="2.0594006" height="2.0543003"/>
	<rect x="6.5760498" y="36.1866493" width="2.1602001" height="2.1598015"/>
	<rect x="6.5760498" y="34.1267509" width="2.1602001" height="2.0598984"/>
	<rect x="6.5760498" y="31.9669495" width="2.1602001" height="2.1598015"/>
	<rect x="6.5760498" y="29.9070492" class="st3" width="2.1602001" height="2.0599003"/>
	<rect x="6.5760498" y="27.7468491" width="2.1602001" height="2.1602001"/>
	<rect x="6.5760498" y="25.6925507" width="2.1602001" height="2.0543003"/>
	<rect x="6.5760498" y="23.5271492" width="2.1602001" height="2.1653996"/>
	<rect x="6.5760498" y="21.4728508" width="2.1602001" height="2.0543003"/>
	<rect x="6.5760498" y="19.3125496" width="2.1602001" height="2.1602993"/>
	<rect x="6.5760498" y="17.2526493" width="2.1602001" height="2.0599003"/>
	<rect x="6.5760498" y="15.0929499" class="st4" width="2.1602001" height="2.1596994"/>
	<rect x="6.5760498" y="13.0329504" class="st3" width="2.1602001" height="2.0600004"/>
	<rect x="6.5760498" y="10.87325" class="st2" width="2.1602001" height="2.1596994"/>
	<rect x="6.5760498" y="8.8132496" width="2.1602001" height="2.0599995"/>
	<rect x="6.5760498" y="6.6530499" width="2.1602001" height="2.1601996"/>
	<rect x="4.5160499" y="34.1267509" width="2.0599999" height="2.0598984"/>
	<rect x="4.5160499" y="31.9669495" width="2.0599999" height="2.1598015"/>
	<rect x="4.5160499" y="29.9070492" width="2.0599999" height="2.0599003"/>
	<rect x="4.5160499" y="27.7468491" width="2.0599999" height="2.1602001"/>
	<rect x="4.5160499" y="25.6925507" width="2.0599999" height="2.0543003"/>
	<rect x="4.5160499" y="23.5271492" width="2.0599999" height="2.1653996"/>
	<rect x="4.5160499" y="21.4728508" width="2.0599999" height="2.0543003"/>
	<rect x="4.5160499" y="19.3125496" width="2.0599999" height="2.1602993"/>
	<rect x="4.5160499" y="17.2526493" width="2.0599999" height="2.0599003"/>
	<rect x="4.5160499" y="15.0929499" width="2.0599999" height="2.1596994"/>
	<rect x="4.5160499" y="13.0329504" width="2.0599999" height="2.0600004"/>
	<rect x="4.5160499" y="10.87325" width="2.0599999" height="2.1596994"/>
	<rect x="4.5160499" y="8.8132496" width="2.0599999" height="2.0599995"/>
	<rect x="4.5160499" y="6.6530499" width="2.0599999" height="2.1601996"/>
	<rect x="2.46175" y="29.9070492" width="2.0543003" height="2.0599003"/>
	<rect x="2.46175" y="27.7468491" width="2.0543003" height="2.1602001"/>
	<rect x="2.46175" y="25.6925507" width="2.0543003" height="2.0543003"/>
	<rect x="2.46175" y="23.5271492" width="2.0543003" height="2.1653996"/>
	<rect x="2.46175" y="19.3125496" width="2.0543003" height="2.1602993"/>
	<rect x="2.46175" y="17.2526493" width="2.0543003" height="2.0599003"/>
	<rect x="2.46175" y="15.0929499" width="2.0543003" height="2.1596994"/>
	<rect x="2.46175" y="13.0329504" width="2.0543003" height="2.0600004"/>
	<rect x="0.29635" y="23.5271492" width="2.1654" height="2.1653996"/>
	<rect x="0.29635" y="17.2526493" width="2.1654" height="2.0599003"/>
</g>
</svg>
