<?xml version="1.0" encoding="utf-8"?>
<!-- Generator: Adobe Illustrator 26.0.1, SVG Export Plug-In . SVG Version: 6.00 Build 0)  -->
<svg version="1.1" id="Layer_1" xmlns="http://www.w3.org/2000/svg" xmlns:xlink="http://www.w3.org/1999/xlink" x="0px" y="0px"
	 width="40px" height="92px" viewBox="0 0 40 92" style="enable-background:new 0 0 40 92;" xml:space="preserve">
<style type="text/css">
	.st0{fill:#370C45;}
	.st1{fill:#FE9867;}
	.st2{fill:#FA559F;}
	.st3{fill:#EF3A65;}
	.st4{fill:#CC3154;}
	.st5{fill:#FF7261;}
	.st6{fill:#8B0975;}
	.st7{fill:#380762;}
	.st8{fill:#FCE00A;}
	.st9{fill:#FFFFFF;}
</style>
<rect x="15.623621" y="44.0284004" class="st0" width="2.217406" height="2.1555107"/>
<rect x="17.8410282" y="44.0284004" class="st0" width="2.104636" height="2.1555107"/>
<rect x="19.9456635" y="44.0284004" class="st0" width="2.212182" height="2.1555107"/>
<rect x="22.1578465" y="44.0284004" class="st0" width="2.1098597" height="2.1555107"/>
<rect x="13.5189857" y="41.9725952" class="st0" width="2.1046369" height="2.0558059"/>
<rect x="15.623621" y="41.9725952" class="st1" width="2.217406" height="2.0558059"/>
<rect x="17.8410282" y="41.9725952" class="st1" width="2.104636" height="2.0558059"/>
<rect x="19.9456635" y="41.9725952" class="st1" width="2.212182" height="2.0558059"/>
<rect x="22.1578465" y="41.9725952" class="st1" width="2.1098597" height="2.0558059"/>
<rect x="24.2677059" y="41.9725952" class="st0" width="2.2132077" height="2.0558059"/>
<rect x="11.3069057" y="39.8170853" class="st0" width="2.2120795" height="2.1555107"/>
<rect x="13.5189857" y="39.8170853" class="st1" width="2.1046369" height="2.1555107"/>
<rect x="15.623621" y="39.8170853" class="st2" width="2.217406" height="2.1555107"/>
<rect x="17.8410282" y="39.8170853" class="st2" width="2.104636" height="2.1555107"/>
<rect x="19.9456635" y="39.8170853" class="st2" width="2.212182" height="2.1555107"/>
<rect x="22.1578465" y="39.8170853" class="st2" width="2.1098597" height="2.1555107"/>
<rect x="24.2677059" y="39.8170853" class="st1" width="2.2132077" height="2.1555107"/>
<rect x="26.4809113" y="39.8170853" class="st0" width="2.1088362" height="2.1555107"/>
<rect x="9.1970463" y="37.7612801" class="st0" width="2.1098597" height="2.0558059"/>
<rect x="11.3069057" y="37.7612801" class="st1" width="2.2120795" height="2.0558059"/>
<rect x="13.5189857" y="37.7612801" class="st2" width="2.1046369" height="2.0558059"/>
<rect x="15.623621" y="37.7612801" class="st3" width="2.217406" height="2.0558059"/>
<rect x="17.8410282" y="37.7612801" class="st3" width="2.104636" height="2.0558059"/>
<rect x="19.9456635" y="37.7612801" class="st3" width="2.212182" height="2.0558059"/>
<rect x="22.1578465" y="37.7612801" class="st3" width="2.1098597" height="2.0558059"/>
<rect x="24.2677059" y="37.7612801" class="st2" width="2.2132077" height="2.0558059"/>
<rect x="26.4809113" y="37.7612801" class="st1" width="2.1088362" height="2.0558059"/>
<rect x="28.5897484" y="37.7612801" class="st0" width="2.2132077" height="2.0558059"/>
<rect x="6.9848633" y="35.7105598" class="st0" width="2.212183" height="2.0507159"/>
<rect x="9.1970463" y="35.7105598" class="st1" width="2.1098597" height="2.0507159"/>
<rect x="11.3069057" y="35.7105598" class="st2" width="2.2120795" height="2.0507159"/>
<rect x="13.5189857" y="35.7105598" class="st3" width="2.1046369" height="2.0507159"/>
<rect x="15.623621" y="35.7105598" class="st3" width="2.217406" height="2.0507159"/>
<rect x="17.8410282" y="35.7105598" class="st3" width="2.104636" height="2.0507159"/>
<rect x="19.9456635" y="35.7105598" class="st3" width="2.212182" height="2.0507159"/>
<rect x="22.1578465" y="35.7105598" class="st3" width="2.1098597" height="2.0507159"/>
<rect x="24.2677059" y="35.7105598" class="st3" width="2.2132077" height="2.0507159"/>
<rect x="26.4809113" y="35.7105598" class="st2" width="2.1088362" height="2.0507159"/>
<rect x="28.5897484" y="35.7105598" class="st1" width="2.2132077" height="2.0507159"/>
<rect x="30.8029537" y="35.7105598" class="st0" width="2.1098597" height="2.0507159"/>
<rect x="4.8750043" y="33.5499611" class="st0" width="2.1098592" height="2.1606007"/>
<rect x="6.9848633" y="33.5499611" class="st1" width="2.212183" height="2.1606007"/>
<rect x="9.1970463" y="33.5499611" class="st2" width="2.1098597" height="2.1606007"/>
<rect x="11.3069057" y="33.5499611" class="st3" width="2.2120795" height="2.1606007"/>
<rect x="13.5189857" y="33.5499611" class="st3" width="2.1046369" height="2.1606007"/>
<rect x="15.623621" y="33.5499611" class="st3" width="2.217406" height="2.1606007"/>
<rect x="17.8410282" y="33.5499611" class="st3" width="2.104636" height="2.1606007"/>
<rect x="19.9456635" y="33.5499611" class="st3" width="2.212182" height="2.1606007"/>
<rect x="22.1578465" y="33.5499611" class="st4" width="2.1098597" height="2.1606007"/>
<rect x="24.2677059" y="33.5499611" class="st3" width="2.2132077" height="2.1606007"/>
<rect x="26.4809113" y="33.5499611" class="st3" width="2.1088362" height="2.1606007"/>
<rect x="28.5897484" y="33.5499611" class="st2" width="2.2132077" height="2.1606007"/>
<rect x="30.8029537" y="33.5499611" class="st1" width="2.1098597" height="2.1606007"/>
<rect x="32.9128151" y="33.5499611" class="st0" width="2.212184" height="2.1606007"/>
<rect x="4.8750043" y="31.499342" class="st0" width="2.1098592" height="2.0506189"/>
<rect x="6.9848633" y="31.499342" class="st1" width="2.212183" height="2.0506189"/>
<rect x="9.1970463" y="31.499342" class="st4" width="2.1098597" height="2.0506189"/>
<rect x="11.3069057" y="31.499342" class="st3" width="2.2120795" height="2.0506189"/>
<rect x="13.5189857" y="31.499342" class="st3" width="2.1046369" height="2.0506189"/>
<rect x="15.623621" y="31.499342" class="st4" width="2.217406" height="2.0506189"/>
<rect x="17.8410282" y="31.499342" class="st3" width="2.104636" height="2.0506189"/>
<rect x="19.9456635" y="31.499342" class="st3" width="2.212182" height="2.0506189"/>
<rect x="22.1578465" y="31.499342" class="st3" width="2.1098597" height="2.0506189"/>
<rect x="24.2677059" y="31.499342" class="st3" width="2.2132077" height="2.0506189"/>
<rect x="26.4809113" y="31.499342" class="st4" width="2.1088362" height="2.0506189"/>
<rect x="28.5897484" y="31.499342" class="st4" width="2.2132077" height="2.0506189"/>
<rect x="30.8029537" y="31.499342" class="st1" width="2.1098597" height="2.0506189"/>
<rect x="32.9128151" y="31.499342" class="st0" width="2.212184" height="2.0506189"/>
<rect x="4.8750043" y="29.3438339" class="st0" width="2.1098592" height="2.1555088"/>
<rect x="6.9848633" y="29.3438339" class="st1" width="2.212183" height="2.1555088"/>
<rect x="9.1970463" y="29.3438339" class="st4" width="2.1098597" height="2.1555088"/>
<rect x="11.3069057" y="29.3438339" class="st4" width="2.2120795" height="2.1555088"/>
<rect x="13.5189857" y="29.3438339" class="st3" width="2.1046369" height="2.1555088"/>
<rect x="15.623621" y="29.3438339" class="st3" width="2.217406" height="2.1555088"/>
<rect x="17.8410282" y="29.3438339" class="st3" width="2.104636" height="2.1555088"/>
<rect x="19.9456635" y="29.3438339" class="st3" width="2.212182" height="2.1555088"/>
<rect x="22.1578465" y="29.3438339" class="st3" width="2.1098597" height="2.1555088"/>
<rect x="24.2677059" y="29.3438339" class="st4" width="2.2132077" height="2.1555088"/>
<rect x="26.4809113" y="29.3438339" class="st3" width="2.1088362" height="2.1555088"/>
<rect x="28.5897484" y="29.3438339" class="st4" width="2.2132077" height="2.1555088"/>
<rect x="30.8029537" y="29.3438339" class="st1" width="2.1098597" height="2.1555088"/>
<rect x="32.9128151" y="29.3438339" class="st2" width="2.212184" height="2.1555088"/>
<rect x="4.8750043" y="27.2880268" class="st0" width="2.1098592" height="2.0558078"/>
<rect x="6.9848633" y="27.2880268" class="st1" width="2.212183" height="2.0558078"/>
<rect x="9.1970463" y="27.2880268" class="st4" width="2.1098597" height="2.0558078"/>
<rect x="11.3069057" y="27.2880268" class="st3" width="2.2120795" height="2.0558078"/>
<rect x="13.5189857" y="27.2880268" class="st4" width="2.1046369" height="2.0558078"/>
<rect x="15.623621" y="27.2880268" class="st3" width="2.217406" height="2.0558078"/>
<rect x="17.8410282" y="27.2880268" class="st4" width="2.104636" height="2.0558078"/>
<rect x="19.9456635" y="27.2880268" class="st3" width="2.212182" height="2.0558078"/>
<rect x="22.1578465" y="27.2880268" class="st4" width="2.1098597" height="2.0558078"/>
<rect x="24.2677059" y="27.2880268" class="st3" width="2.2132077" height="2.0558078"/>
<rect x="26.4809113" y="27.2880268" class="st4" width="2.1088362" height="2.0558078"/>
<rect x="28.5897484" y="27.2880268" class="st4" width="2.2132077" height="2.0558078"/>
<rect x="30.8029537" y="27.2880268" class="st1" width="2.1098597" height="2.0558078"/>
<rect x="32.9128151" y="27.2880268" class="st5" width="2.212184" height="2.0558078"/>
<rect x="4.8750043" y="25.132616" class="st0" width="2.1098592" height="2.1554098"/>
<rect x="6.9848633" y="25.132616" class="st5" width="2.212183" height="2.1554098"/>
<rect x="9.1970463" y="25.132616" class="st5" width="2.1098597" height="2.1554098"/>
<rect x="11.3069057" y="25.132616" class="st4" width="2.2120795" height="2.1554098"/>
<rect x="13.5189857" y="25.132616" class="st3" width="2.1046369" height="2.1554098"/>
<rect x="15.623621" y="25.132616" class="st4" width="2.217406" height="2.1554098"/>
<rect x="17.8410282" y="25.132616" class="st3" width="2.104636" height="2.1554098"/>
<rect x="19.9456635" y="25.132616" class="st4" width="2.212182" height="2.1554098"/>
<rect x="22.1578465" y="25.132616" class="st3" width="2.1098597" height="2.1554098"/>
<rect x="24.2677059" y="25.132616" class="st4" width="2.2132077" height="2.1554098"/>
<rect x="26.4809113" y="25.132616" class="st4" width="2.1088362" height="2.1554098"/>
<rect x="28.5897484" y="25.132616" class="st5" width="2.2132077" height="2.1554098"/>
<rect x="30.8029537" y="25.132616" class="st5" width="2.1098597" height="2.1554098"/>
<rect x="32.9128151" y="25.132616" class="st2" width="2.212184" height="2.1554098"/>
<rect x="4.8750043" y="23.0767097" class="st0" width="2.1098592" height="2.0559068"/>
<rect x="6.9848633" y="23.0767097" class="st5" width="2.212183" height="2.0559068"/>
<rect x="9.1970463" y="23.0767097" class="st5" width="2.1098597" height="2.0559068"/>
<rect x="11.3069057" y="23.0767097" class="st5" width="2.2120795" height="2.0559068"/>
<rect x="13.5189857" y="23.0767097" class="st4" width="2.1046369" height="2.0559068"/>
<rect x="15.623621" y="23.0767097" class="st4" width="2.217406" height="2.0559068"/>
<rect x="17.8410282" y="23.0767097" class="st4" width="2.104636" height="2.0559068"/>
<rect x="19.9456635" y="23.0767097" class="st4" width="2.212182" height="2.0559068"/>
<rect x="22.1578465" y="23.0767097" class="st4" width="2.1098597" height="2.0559068"/>
<rect x="24.2677059" y="23.0767097" class="st4" width="2.2132077" height="2.0559068"/>
<rect x="26.4809113" y="23.0767097" class="st5" width="2.1088362" height="2.0559068"/>
<rect x="28.5897484" y="23.0767097" class="st5" width="2.2132077" height="2.0559068"/>
<rect x="30.8029537" y="23.0767097" class="st5" width="2.1098597" height="2.0559068"/>
<rect x="32.9128151" y="23.0767097" class="st5" width="2.212184" height="2.0559068"/>
<rect x="4.8750043" y="20.921299" class="st0" width="2.1098592" height="2.1554098"/>
<rect x="6.9848633" y="20.921299" class="st5" width="2.212183" height="2.1554098"/>
<rect x="9.1970463" y="20.921299" class="st2" width="2.1098597" height="2.1554098"/>
<rect x="11.3069057" y="20.921299" class="st5" width="2.2120795" height="2.1554098"/>
<rect x="13.5189857" y="20.921299" class="st5" width="2.1046369" height="2.1554098"/>
<rect x="15.623621" y="20.921299" class="st4" width="2.217406" height="2.1554098"/>
<rect x="17.8410282" y="20.921299" class="st4" width="2.104636" height="2.1554098"/>
<rect x="19.9456635" y="20.921299" class="st4" width="2.212182" height="2.1554098"/>
<rect x="22.1578465" y="20.921299" class="st4" width="2.1098597" height="2.1554098"/>
<rect x="24.2677059" y="20.921299" class="st5" width="2.2132077" height="2.1554098"/>
<rect x="26.4809113" y="20.921299" class="st5" width="2.1088362" height="2.1554098"/>
<rect x="28.5897484" y="20.921299" class="st5" width="2.2132077" height="2.1554098"/>
<rect x="30.8029537" y="20.921299" class="st2" width="2.1098597" height="2.1554098"/>
<rect x="32.9128151" y="20.921299" class="st2" width="2.212184" height="2.1554098"/>
<rect x="4.8750043" y="18.8653927" class="st0" width="2.1098592" height="2.0559068"/>
<rect x="6.9848633" y="18.8653927" class="st2" width="2.212183" height="2.0559068"/>
<rect x="9.1970463" y="18.8653927" class="st2" width="2.1098597" height="2.0559068"/>
<rect x="11.3069057" y="18.8653927" class="st5" width="2.2120795" height="2.0559068"/>
<rect x="13.5189857" y="18.8653927" class="st2" width="2.1046369" height="2.0559068"/>
<rect x="15.623621" y="18.8653927" class="st5" width="2.217406" height="2.0559068"/>
<rect x="17.8410282" y="18.8653927" class="st5" width="2.104636" height="2.0559068"/>
<rect x="19.9456635" y="18.8653927" class="st5" width="2.212182" height="2.0559068"/>
<rect x="22.1578465" y="18.8653927" class="st5" width="2.1098597" height="2.0559068"/>
<rect x="24.2677059" y="18.8653927" class="st5" width="2.2132077" height="2.0559068"/>
<rect x="26.4809113" y="18.8653927" class="st2" width="2.1088362" height="2.0559068"/>
<rect x="28.5897484" y="18.8653927" class="st5" width="2.2132077" height="2.0559068"/>
<rect x="30.8029537" y="18.8653927" class="st2" width="2.1098597" height="2.0559068"/>
<rect x="32.9128151" y="18.8653927" class="st5" width="2.212184" height="2.0559068"/>
<rect x="4.8750043" y="16.7099838" class="st0" width="2.1098592" height="2.1554098"/>
<rect x="6.9848633" y="16.7099838" class="st2" width="2.212183" height="2.1554098"/>
<rect x="9.1970463" y="16.7099838" class="st6" width="2.1098597" height="2.1554098"/>
<rect x="11.3069057" y="16.7099838" class="st2" width="2.2120795" height="2.1554098"/>
<rect x="13.5189857" y="16.7099838" class="st2" width="2.1046369" height="2.1554098"/>
<rect x="15.623621" y="16.7099838" class="st5" width="2.217406" height="2.1554098"/>
<rect x="17.8410282" y="16.7099838" class="st5" width="2.104636" height="2.1554098"/>
<rect x="19.9456635" y="16.7099838" class="st5" width="2.212182" height="2.1554098"/>
<rect x="22.1578465" y="16.7099838" class="st2" width="2.1098597" height="2.1554098"/>
<rect x="24.2677059" y="16.7099838" class="st5" width="2.2132077" height="2.1554098"/>
<rect x="26.4809113" y="16.7099838" class="st2" width="2.1088362" height="2.1554098"/>
<rect x="28.5897484" y="16.7099838" class="st2" width="2.2132077" height="2.1554098"/>
<rect x="30.8029537" y="16.7099838" class="st6" width="2.1098597" height="2.1554098"/>
<rect x="32.9128151" y="16.7099838" class="st5" width="2.212184" height="2.1554098"/>
<rect x="4.8750043" y="14.6592665" class="st0" width="2.1098592" height="2.0507169"/>
<rect x="6.9848633" y="14.6592665" class="st2" width="2.212183" height="2.0507169"/>
<rect x="9.1970463" y="14.6592665" class="st6" width="2.1098597" height="2.0507169"/>
<rect x="11.3069057" y="14.6592665" class="st2" width="2.2120795" height="2.0507169"/>
<rect x="13.5189857" y="14.6592665" class="st2" width="2.1046369" height="2.0507169"/>
<rect x="15.623621" y="14.6592665" class="st2" width="2.217406" height="2.0507169"/>
<rect x="17.8410282" y="14.6592665" class="st5" width="2.104636" height="2.0507169"/>
<rect x="19.9456635" y="14.6592665" class="st2" width="2.212182" height="2.0507169"/>
<rect x="22.1578465" y="14.6592665" class="st2" width="2.1098597" height="2.0507169"/>
<rect x="24.2677059" y="14.6592665" class="st2" width="2.2132077" height="2.0507169"/>
<rect x="26.4809113" y="14.6592665" class="st6" width="2.1088362" height="2.0507169"/>
<rect x="28.5897484" y="14.6592665" class="st2" width="2.2132077" height="2.0507169"/>
<rect x="30.8029537" y="14.6592665" class="st6" width="2.1098597" height="2.0507169"/>
<rect x="32.9128151" y="14.6592665" class="st5" width="2.212184" height="2.0507169"/>
<rect x="4.8750043" y="12.5037565" class="st0" width="2.1098592" height="2.1555088"/>
<rect x="6.9848633" y="12.5037565" class="st6" width="2.212183" height="2.1555088"/>
<rect x="9.1970463" y="12.5037565" class="st7" width="2.1098597" height="2.1555088"/>
<rect x="11.3069057" y="12.5037565" class="st2" width="2.2120795" height="2.1555088"/>
<rect x="13.5189857" y="12.5037565" class="st6" width="2.1046369" height="2.1555088"/>
<rect x="15.623621" y="12.5037565" class="st2" width="2.217406" height="2.1555088"/>
<rect x="17.8410282" y="12.5037565" class="st2" width="2.104636" height="2.1555088"/>
<rect x="19.9456635" y="12.5037565" class="st2" width="2.212182" height="2.1555088"/>
<rect x="22.1578465" y="12.5037565" class="st6" width="2.1098597" height="2.1555088"/>
<rect x="24.2677059" y="12.5037565" class="st2" width="2.2132077" height="2.1555088"/>
<rect x="26.4809113" y="12.5037565" class="st6" width="2.1088362" height="2.1555088"/>
<rect x="28.5897484" y="12.5037565" class="st6" width="2.2132077" height="2.1555088"/>
<rect x="30.8029537" y="12.5037565" class="st7" width="2.1098597" height="2.1555088"/>
<rect x="32.9128151" y="12.5037565" class="st0" width="2.212184" height="2.1555088"/>
<rect x="4.8750043" y="10.4479485" class="st0" width="2.1098592" height="2.0558078"/>
<rect x="6.9848633" y="10.4479485" class="st6" width="2.212183" height="2.0558078"/>
<rect x="9.1970463" y="10.4479485" class="st7" width="2.1098597" height="2.0558078"/>
<rect x="11.3069057" y="10.4479485" class="st6" width="2.2120795" height="2.0558078"/>
<rect x="13.5189857" y="10.4479485" class="st6" width="2.1046369" height="2.0558078"/>
<rect x="15.623621" y="10.4479485" class="st6" width="2.217406" height="2.0558078"/>
<rect x="17.8410282" y="10.4479485" class="st2" width="2.104636" height="2.0558078"/>
<rect x="19.9456635" y="10.4479485" class="st6" width="2.212182" height="2.0558078"/>
<rect x="22.1578465" y="10.4479485" class="st6" width="2.1098597" height="2.0558078"/>
<rect x="24.2677059" y="10.4479485" class="st2" width="2.2132077" height="2.0558078"/>
<rect x="26.4809113" y="10.4479485" class="st7" width="2.1088362" height="2.0558078"/>
<rect x="28.5897484" y="10.4479485" class="st6" width="2.2132077" height="2.0558078"/>
<rect x="30.8029537" y="10.4479485" class="st7" width="2.1098597" height="2.0558078"/>
<rect x="32.9128151" y="10.4479485" class="st0" width="2.212184" height="2.0558078"/>
<rect x="4.8750043" y="8.2914419" class="st0" width="2.1098592" height="2.156507"/>
<rect x="6.9848633" y="8.2914419" class="st7" width="2.212183" height="2.156507"/>
<rect x="9.1970463" y="8.2914419" class="st0" width="2.1098597" height="2.156507"/>
<rect x="11.3069057" y="8.2914419" class="st6" width="2.2120795" height="2.156507"/>
<rect x="13.5189857" y="8.2914419" class="st7" width="2.1046369" height="2.156507"/>
<rect x="15.623621" y="8.2914419" class="st6" width="2.217406" height="2.156507"/>
<rect x="17.8410282" y="8.2914419" class="st6" width="2.104636" height="2.156507"/>
<rect x="19.9456635" y="8.2914419" class="st6" width="2.212182" height="2.156507"/>
<rect x="22.1578465" y="8.2914419" class="st7" width="2.1098597" height="2.156507"/>
<rect x="24.2677059" y="8.2914419" class="st6" width="2.2132077" height="2.156507"/>
<rect x="26.4809113" y="8.2914419" class="st7" width="2.1088362" height="2.156507"/>
<rect x="28.5897484" y="8.2914419" class="st7" width="2.2132077" height="2.156507"/>
<rect x="30.8029537" y="8.2914419" class="st0" width="2.1098597" height="2.156507"/>
<rect x="35.1249962" y="30.4718895" class="st0" width="2.1098597" height="2.0507159"/>
<rect x="35.1249962" y="28.3112907" class="st1" width="2.1098597" height="2.1606007"/>
<rect x="35.1249962" y="26.2606735" class="st1" width="2.1098597" height="2.0506189"/>
<rect x="35.1249962" y="24.1051636" class="st1" width="2.1098597" height="2.1555088"/>
<rect x="35.1249962" y="22.0493565" class="st1" width="2.1098597" height="2.0558078"/>
<rect x="35.1249962" y="19.8939457" class="st5" width="2.1098597" height="2.1554098"/>
<rect x="35.1249962" y="17.8380394" class="st5" width="2.1098597" height="2.0559068"/>
<rect x="35.1249962" y="15.6826296" class="st2" width="2.1098597" height="2.1554098"/>
<rect x="35.1249962" y="13.6267233" class="st2" width="2.1098597" height="2.0559068"/>
<rect x="35.1249962" y="11.4713135" class="st6" width="2.1098597" height="2.1554098"/>
<rect x="35.1249962" y="9.4205961" class="st6" width="2.1098597" height="2.0507169"/>
<rect x="35.1249962" y="7.2650867" class="st7" width="2.1098597" height="2.1555088"/>
<rect x="35.1249962" y="5.2092791" class="st7" width="2.1098597" height="2.0558078"/>
<rect x="35.1249962" y="3.0527718" class="st0" width="2.1098597" height="2.156507"/>
<rect x="4.7726798" y="33.5499611" class="st0" width="2.212184" height="2.1606007"/>
<rect x="4.7726798" y="31.499342" class="st0" width="2.212184" height="2.0506189"/>
<rect x="4.7726798" y="29.3438339" class="st2" width="2.212184" height="2.1555088"/>
<rect x="4.7726798" y="27.2880268" class="st5" width="2.212184" height="2.0558078"/>
<rect x="4.7726798" y="25.132616" class="st2" width="2.212184" height="2.1554098"/>
<rect x="4.7726798" y="23.0767097" class="st5" width="2.212184" height="2.0559068"/>
<rect x="4.7726798" y="20.921299" class="st2" width="2.212184" height="2.1554098"/>
<rect x="4.7726798" y="18.8653927" class="st5" width="2.212184" height="2.0559068"/>
<rect x="4.7726798" y="16.7099838" class="st5" width="2.212184" height="2.1554098"/>
<rect x="4.7726798" y="14.6592665" class="st5" width="2.212184" height="2.0507169"/>
<rect x="4.7726798" y="12.5037565" class="st0" width="2.212184" height="2.1555088"/>
<rect x="4.7726798" y="10.4479485" class="st0" width="2.212184" height="2.0558078"/>
<rect x="2.6628199" y="30.4718895" class="st0" width="2.1098597" height="2.0507159"/>
<rect x="2.6628199" y="28.3112907" class="st1" width="2.1098597" height="2.1606007"/>
<rect x="2.6628199" y="26.2606735" class="st1" width="2.1098597" height="2.0506189"/>
<rect x="2.6628199" y="24.1051636" class="st1" width="2.1098597" height="2.1555088"/>
<rect x="2.6628199" y="22.0493565" class="st1" width="2.1098597" height="2.0558078"/>
<rect x="2.6628199" y="19.8939457" class="st5" width="2.1098597" height="2.1554098"/>
<rect x="2.6628199" y="17.8380394" class="st5" width="2.1098597" height="2.0559068"/>
<rect x="2.6628199" y="15.6826296" class="st2" width="2.1098597" height="2.1554098"/>
<rect x="2.6628199" y="13.6267233" class="st2" width="2.1098597" height="2.0559068"/>
<rect x="2.6628199" y="11.4713135" class="st6" width="2.1098597" height="2.1554098"/>
<rect x="2.6628199" y="9.4205961" class="st6" width="2.1098597" height="2.0507169"/>
<rect x="2.6628199" y="7.2650867" class="st7" width="2.1098597" height="2.1555088"/>
<rect x="2.6628199" y="5.2092791" class="st7" width="2.1098597" height="2.0558078"/>
<rect x="2.6628199" y="3.0527718" class="st0" width="2.1098597" height="2.156507"/>
<rect x="4.8750043" y="6.2366328" class="st0" width="2.1098592" height="2.05481"/>
<rect x="6.9848633" y="6.2366328" class="st7" width="2.212183" height="2.05481"/>
<rect x="11.3069057" y="6.2366328" class="st7" width="2.2120795" height="2.05481"/>
<rect x="13.5189857" y="6.2366328" class="st7" width="2.1046369" height="2.05481"/>
<rect x="15.623621" y="6.2366328" class="st7" width="2.217406" height="2.05481"/>
<rect x="17.8410282" y="6.2366328" class="st6" width="2.104636" height="2.05481"/>
<rect x="19.9456635" y="6.2366328" class="st7" width="2.212182" height="2.05481"/>
<rect x="22.1578465" y="6.2366328" class="st7" width="2.1098597" height="2.05481"/>
<rect x="24.2677059" y="6.2366328" class="st6" width="2.2132077" height="2.05481"/>
<rect x="26.4809113" y="6.2366328" class="st0" width="2.1088362" height="2.05481"/>
<rect x="28.5897484" y="6.2366328" class="st7" width="2.2132077" height="2.05481"/>
<rect x="6.9848633" y="4.0801258" class="st0" width="2.212183" height="2.156507"/>
<rect x="11.3069057" y="4.0801258" class="st7" width="2.2120795" height="2.156507"/>
<rect x="13.5189857" y="4.0801258" class="st0" width="2.1046369" height="2.156507"/>
<rect x="15.623621" y="4.0801258" class="st7" width="2.217406" height="2.156507"/>
<rect x="17.8410282" y="4.0801258" class="st7" width="2.104636" height="2.156507"/>
<rect x="19.9456635" y="4.0801258" class="st7" width="2.212182" height="2.156507"/>
<rect x="22.1578465" y="4.0801258" class="st0" width="2.1098597" height="2.156507"/>
<rect x="24.2677059" y="4.0801258" class="st7" width="2.2132077" height="2.156507"/>
<rect x="28.5897484" y="4.0801258" class="st0" width="2.2132077" height="2.156507"/>
<rect x="11.3069057" y="2.0243177" class="st0" width="2.2120795" height="2.0558074"/>
<rect x="15.623621" y="2.0243177" class="st0" width="2.217406" height="2.0558074"/>
<rect x="17.8410282" y="2.0243177" class="st7" width="2.104636" height="2.0558074"/>
<rect x="19.9456635" y="2.0243177" class="st0" width="2.212182" height="2.0558074"/>
<rect x="24.2677059" y="2.0243177" class="st7" width="2.2132077" height="2.0558074"/>
<rect x="17.8410282" y="-0.1310915" class="st0" width="2.104636" height="2.1554093"/>
<rect x="24.2677059" y="-0.1310915" class="st0" width="2.2132077" height="2.1554093"/>
<g>
	<rect x="37.1236229" y="74.6315994" class="st0" width="2.1046379" height="2.0558059"/>
	<rect x="37.1236229" y="72.4760971" class="st0" width="2.1046379" height="2.1555068"/>
	<rect x="37.1236229" y="70.4202881" class="st6" width="2.1046379" height="2.0558059"/>
	<rect x="37.1236229" y="68.2643814" class="st6" width="2.1046379" height="2.1559103"/>
	<rect x="37.1236229" y="66.2141647" class="st6" width="2.1046379" height="2.0502172"/>
	<rect x="37.1236229" y="64.1582565" class="st0" width="2.1046379" height="2.0559087"/>
	<rect x="37.1236229" y="62.002346" class="st0" width="2.1046379" height="2.1559103"/>
	<rect x="35.0137634" y="76.6874161" class="st0" width="2.1098578" height="2.0502172"/>
	<rect x="35.0137634" y="74.6315994" class="st6" width="2.1098578" height="2.0558059"/>
	<rect x="35.0137634" y="72.4760971" class="st6" width="2.1098578" height="2.1555068"/>
	<rect x="35.0137634" y="70.4202881" class="st3" width="2.1098578" height="2.0558059"/>
	<rect x="35.0137634" y="68.2643814" class="st6" width="2.1098578" height="2.1559103"/>
	<rect x="35.0137634" y="66.2141647" class="st3" width="2.1098578" height="2.0502172"/>
	<rect x="35.0137634" y="64.1582565" class="st6" width="2.1098578" height="2.0559087"/>
	<rect x="35.0137634" y="62.002346" class="st6" width="2.1098578" height="2.1559103"/>
	<rect x="35.0137634" y="59.9470367" class="st0" width="2.1098578" height="2.0553071"/>
	<rect x="32.8016815" y="80.8987274" class="st0" width="2.2120783" height="2.0507197"/>
	<rect x="32.8016815" y="78.7376328" class="st0" width="2.2120783" height="2.1610956"/>
	<rect x="32.8016815" y="76.6874161" class="st6" width="2.2120783" height="2.0502172"/>
	<rect x="32.8016815" y="74.6315994" class="st5" width="2.2120783" height="2.0558059"/>
	<rect x="32.8016815" y="72.4760971" class="st3" width="2.2120783" height="2.1555068"/>
	<rect x="32.8016815" y="70.4202881" class="st6" width="2.2120783" height="2.0558059"/>
	<rect x="32.8016815" y="68.2643814" class="st3" width="2.2120783" height="2.1559103"/>
	<rect x="32.8016815" y="66.2141647" class="st6" width="2.2120783" height="2.0502172"/>
	<rect x="32.8016815" y="64.1582565" class="st3" width="2.2120783" height="2.0559087"/>
	<rect x="32.8016815" y="62.002346" class="st6" width="2.2120783" height="2.1559103"/>
	<rect x="32.8016815" y="59.9470367" class="st3" width="2.2120783" height="2.0553071"/>
	<rect x="32.8016815" y="57.8963203" class="st0" width="2.2120783" height="2.0507159"/>
	<rect x="30.691721" y="80.8987274" class="st0" width="2.1099613" height="2.0507197"/>
	<rect x="30.691721" y="78.7376328" class="st6" width="2.1099613" height="2.1610956"/>
	<rect x="30.691721" y="76.6874161" class="st3" width="2.1099613" height="2.0502172"/>
	<rect x="30.691721" y="74.6315994" class="st3" width="2.1099613" height="2.0558059"/>
	<rect x="30.691721" y="72.4760971" class="st5" width="2.1099613" height="2.1555068"/>
	<rect x="30.691721" y="70.4202881" class="st3" width="2.1099613" height="2.0558059"/>
	<rect x="30.691721" y="68.2643814" class="st3" width="2.1099613" height="2.1559103"/>
	<rect x="30.691721" y="66.2141647" class="st3" width="2.1099613" height="2.0502172"/>
	<rect x="30.691721" y="64.1582565" class="st3" width="2.1099613" height="2.0559087"/>
	<rect x="30.691721" y="62.002346" class="st8" width="2.1099613" height="2.1559103"/>
	<rect x="30.691721" y="59.9470367" class="st6" width="2.1099613" height="2.0553071"/>
	<rect x="30.691721" y="57.8963203" class="st6" width="2.1099613" height="2.0507159"/>
	<rect x="30.691721" y="55.7351227" class="st0" width="2.1099613" height="2.1611984"/>
	<rect x="28.5870857" y="82.9494476" class="st0" width="2.104636" height="2.0554101"/>
	<rect x="28.5870857" y="80.8987274" class="st6" width="2.104636" height="2.0507197"/>
	<rect x="28.5870857" y="78.7376328" class="st3" width="2.104636" height="2.1610956"/>
	<rect x="28.5870857" y="76.6874161" class="st3" width="2.104636" height="2.0502172"/>
	<rect x="28.5870857" y="74.6315994" class="st5" width="2.104636" height="2.0558059"/>
	<rect x="28.5870857" y="72.4760971" class="st3" width="2.104636" height="2.1555068"/>
	<rect x="28.5870857" y="70.4202881" class="st8" width="2.104636" height="2.0558059"/>
	<rect x="28.5870857" y="68.2643814" class="st5" width="2.104636" height="2.1559103"/>
	<rect x="28.5870857" y="66.2141647" class="st3" width="2.104636" height="2.0502172"/>
	<rect x="28.5870857" y="64.1582565" class="st5" width="2.104636" height="2.0559087"/>
	<rect x="28.5870857" y="62.002346" class="st3" width="2.104636" height="2.1559103"/>
	<rect x="28.5870857" y="59.9470367" class="st3" width="2.104636" height="2.0553071"/>
	<rect x="28.5870857" y="57.8963203" class="st6" width="2.104636" height="2.0507159"/>
	<rect x="28.5870857" y="55.7351227" class="st3" width="2.104636" height="2.1611984"/>
	<rect x="28.5870857" y="53.6850014" class="st0" width="2.104636" height="2.0501182"/>
	<rect x="26.3750038" y="85.0048599" class="st0" width="2.2120805" height="2.1559103"/>
	<rect x="26.3750038" y="82.9494476" class="st6" width="2.2120805" height="2.0554101"/>
	<rect x="26.3750038" y="80.8987274" class="st6" width="2.2120805" height="2.0507197"/>
	<rect x="26.3750038" y="78.7376328" class="st5" width="2.2120805" height="2.1610956"/>
	<rect x="26.3750038" y="76.6874161" class="st3" width="2.2120805" height="2.0502172"/>
	<rect x="26.3750038" y="74.6315994" class="st5" width="2.2120805" height="2.0558059"/>
	<rect x="26.3750038" y="72.4760971" class="st8" width="2.2120805" height="2.1555068"/>
	<rect x="26.3750038" y="70.4202881" class="st5" width="2.2120805" height="2.0558059"/>
	<rect x="26.3750038" y="68.2643814" class="st8" width="2.2120805" height="2.1559103"/>
	<rect x="26.3750038" y="66.2141647" class="st5" width="2.2120805" height="2.0502172"/>
	<rect x="26.3750038" y="64.1582565" class="st3" width="2.2120805" height="2.0559087"/>
	<rect x="26.3750038" y="62.002346" class="st3" width="2.2120805" height="2.1559103"/>
	<rect x="26.3750038" y="59.9470367" class="st8" width="2.2120805" height="2.0553071"/>
	<rect x="26.3750038" y="57.8963203" class="st3" width="2.2120805" height="2.0507159"/>
	<rect x="26.3750038" y="55.7351227" class="st6" width="2.2120805" height="2.1611984"/>
	<rect x="26.3750038" y="53.6850014" class="st6" width="2.2120805" height="2.0501182"/>
	<rect x="26.3750038" y="51.5289917" class="st0" width="2.2120805" height="2.1560094"/>
	<rect x="24.2650433" y="85.0048599" class="st0" width="2.1099613" height="2.1559103"/>
	<rect x="24.2650433" y="82.9494476" class="st3" width="2.1099613" height="2.0554101"/>
	<rect x="24.2650433" y="80.8987274" class="st5" width="2.1099613" height="2.0507197"/>
	<rect x="24.2650433" y="78.7376328" class="st9" width="2.1099613" height="2.1610956"/>
	<rect x="24.2650433" y="76.6874161" class="st5" width="2.1099613" height="2.0502172"/>
	<rect x="24.2650433" y="74.6315994" class="st3" width="2.1099613" height="2.0558059"/>
	<rect x="24.2650433" y="72.4760971" class="st8" width="2.1099613" height="2.1555068"/>
	<rect x="24.2650433" y="70.4202881" class="st8" width="2.1099613" height="2.0558059"/>
	<rect x="24.2650433" y="68.2643814" class="st8" width="2.1099613" height="2.1559103"/>
	<rect x="24.2650433" y="66.2141647" class="st8" width="2.1099613" height="2.0502172"/>
	<rect x="24.2650433" y="64.1582565" class="st5" width="2.1099613" height="2.0559087"/>
	<rect x="24.2650433" y="62.002346" class="st5" width="2.1099613" height="2.1559103"/>
	<rect x="24.2650433" y="59.9470367" class="st3" width="2.1099613" height="2.0553071"/>
	<rect x="24.2650433" y="57.8963203" class="st3" width="2.1099613" height="2.0507159"/>
	<rect x="24.2650433" y="55.7351227" class="st3" width="2.1099613" height="2.1611984"/>
	<rect x="24.2650433" y="53.6850014" class="st6" width="2.1099613" height="2.0501182"/>
	<rect x="24.2650433" y="51.5289917" class="st0" width="2.1099613" height="2.1560094"/>
	<rect x="22.0529633" y="87.160759" class="st0" width="2.2120805" height="2.0558059"/>
	<rect x="22.0529633" y="85.0048599" class="st6" width="2.2120805" height="2.1559103"/>
	<rect x="22.0529633" y="82.9494476" class="st6" width="2.2120805" height="2.0554101"/>
	<rect x="22.0529633" y="80.8987274" class="st5" width="2.2120805" height="2.0507197"/>
	<rect x="22.0529633" y="78.7376328" class="st8" width="2.2120805" height="2.1610956"/>
	<rect x="22.0529633" y="76.6874161" class="st8" width="2.2120805" height="2.0502172"/>
	<rect x="22.0529633" y="74.6315994" class="st8" width="2.2120805" height="2.0558059"/>
	<rect x="22.0529633" y="72.4760971" class="st8" width="2.2120805" height="2.1555068"/>
	<rect x="22.0529633" y="70.4202881" class="st9" width="2.2120805" height="2.0558059"/>
	<rect x="22.0529633" y="68.2643814" class="st5" width="2.2120805" height="2.1559103"/>
	<rect x="22.0529633" y="66.2141647" class="st8" width="2.2120805" height="2.0502172"/>
	<rect x="22.0529633" y="64.1582565" class="st3" width="2.2120805" height="2.0559087"/>
	<rect x="22.0529633" y="62.002346" class="st3" width="2.2120805" height="2.1559103"/>
	<rect x="22.0529633" y="59.9470367" class="st5" width="2.2120805" height="2.0553071"/>
	<rect x="22.0529633" y="57.8963203" class="st3" width="2.2120805" height="2.0507159"/>
	<rect x="22.0529633" y="55.7351227" class="st5" width="2.2120805" height="2.1611984"/>
	<rect x="22.0529633" y="53.6850014" class="st3" width="2.2120805" height="2.0501182"/>
	<rect x="22.0529633" y="51.5289917" class="st6" width="2.2120805" height="2.1560094"/>
	<rect x="22.0529633" y="49.4736862" class="st0" width="2.2120805" height="2.0553071"/>
	<rect x="19.9431038" y="87.160759" class="st0" width="2.1098597" height="2.0558059"/>
	<rect x="19.9431038" y="85.0048599" class="st6" width="2.1098597" height="2.1559103"/>
	<rect x="19.9431038" y="82.9494476" class="st3" width="2.1098597" height="2.0554101"/>
	<rect x="19.9431038" y="80.8987274" class="st3" width="2.1098597" height="2.0507197"/>
	<rect x="19.9431038" y="78.7376328" class="st5" width="2.1098597" height="2.1610956"/>
	<rect x="19.9431038" y="76.6874161" class="st5" width="2.1098597" height="2.0502172"/>
	<rect x="19.9431038" y="74.6315994" class="st8" width="2.1098597" height="2.0558059"/>
	<rect x="19.9431038" y="72.4760971" class="st8" width="2.1098597" height="2.1555068"/>
	<rect x="19.9431038" y="70.4202881" class="st9" width="2.1098597" height="2.0558059"/>
	<rect x="19.9431038" y="68.2643814" class="st8" width="2.1098597" height="2.1559103"/>
	<rect x="19.9431038" y="66.2141647" class="st8" width="2.1098597" height="2.0502172"/>
	<rect x="19.9431038" y="64.1582565" class="st5" width="2.1098597" height="2.0559087"/>
	<rect x="19.9431038" y="62.002346" class="st5" width="2.1098597" height="2.1559103"/>
	<rect x="19.9431038" y="59.9470367" class="st8" width="2.1098597" height="2.0553071"/>
	<rect x="19.9431038" y="57.8963203" class="st5" width="2.1098597" height="2.0507159"/>
	<rect x="19.9431038" y="55.7351227" class="st3" width="2.1098597" height="2.1611984"/>
	<rect x="19.9431038" y="53.6850014" class="st6" width="2.1098597" height="2.0501182"/>
	<rect x="19.9431038" y="51.5289917" class="st6" width="2.1098597" height="2.1560094"/>
	<rect x="19.9431038" y="49.4736862" class="st0" width="2.1098597" height="2.0553071"/>
	<rect x="17.8384666" y="85.0048599" class="st0" width="2.104636" height="2.1559103"/>
	<rect x="17.8384666" y="82.9494476" class="st8" width="2.104636" height="2.0554101"/>
	<rect x="17.8384666" y="80.8987274" class="st3" width="2.104636" height="2.0507197"/>
	<rect x="17.8384666" y="78.7376328" class="st5" width="2.104636" height="2.1610956"/>
	<rect x="17.8384666" y="76.6874161" class="st8" width="2.104636" height="2.0502172"/>
	<rect x="17.8384666" y="74.6315994" class="st9" width="2.104636" height="2.0558059"/>
	<rect x="17.8384666" y="72.4760971" class="st9" width="2.104636" height="2.1555068"/>
	<rect x="17.8384666" y="70.4202881" class="st9" width="2.104636" height="2.0558059"/>
	<rect x="17.8384666" y="68.2643814" class="st9" width="2.104636" height="2.1559103"/>
	<rect x="17.8384666" y="66.2141647" class="st8" width="2.104636" height="2.0502172"/>
	<rect x="17.8384666" y="64.1582565" class="st9" width="2.104636" height="2.0559087"/>
	<rect x="17.8384666" y="62.002346" class="st8" width="2.104636" height="2.1559103"/>
	<rect x="17.8384666" y="59.9470367" class="st9" width="2.104636" height="2.0553071"/>
	<rect x="17.8384666" y="57.8963203" class="st8" width="2.104636" height="2.0507159"/>
	<rect x="17.8384666" y="55.7351227" class="st5" width="2.104636" height="2.1611984"/>
	<rect x="17.8384666" y="53.6850014" class="st3" width="2.104636" height="2.0501182"/>
	<rect x="17.8384666" y="51.5289917" class="st6" width="2.104636" height="2.1560094"/>
	<rect x="17.8384666" y="49.4736862" class="st0" width="2.104636" height="2.0553071"/>
	<rect x="15.6210613" y="85.0048599" class="st0" width="2.217406" height="2.1559103"/>
	<rect x="15.6210613" y="82.9494476" class="st6" width="2.217406" height="2.0554101"/>
	<rect x="15.6210613" y="80.8987274" class="st5" width="2.217406" height="2.0507197"/>
	<rect x="15.6210613" y="78.7376328" class="st3" width="2.217406" height="2.1610956"/>
	<rect x="15.6210613" y="76.6874161" class="st5" width="2.217406" height="2.0502172"/>
	<rect x="15.6210613" y="74.6315994" class="st8" width="2.217406" height="2.0558059"/>
	<rect x="15.6210613" y="72.4760971" class="st8" width="2.217406" height="2.1555068"/>
	<rect x="15.6210613" y="70.4202881" class="st9" width="2.217406" height="2.0558059"/>
	<rect x="15.6210613" y="68.2643814" class="st8" width="2.217406" height="2.1559103"/>
	<rect x="15.6210613" y="66.2141647" class="st8" width="2.217406" height="2.0502172"/>
	<rect x="15.6210613" y="64.1582565" class="st3" width="2.217406" height="2.0559087"/>
	<rect x="15.6210613" y="62.002346" class="st5" width="2.217406" height="2.1559103"/>
	<rect x="15.6210613" y="59.9470367" class="st3" width="2.217406" height="2.0553071"/>
	<rect x="15.6210613" y="57.8963203" class="st5" width="2.217406" height="2.0507159"/>
	<rect x="15.6210613" y="55.7351227" class="st3" width="2.217406" height="2.1611984"/>
	<rect x="15.6210613" y="53.6850014" class="st3" width="2.217406" height="2.0501182"/>
	<rect x="15.6210613" y="51.5289917" class="st3" width="2.217406" height="2.1560094"/>
	<rect x="15.6210613" y="49.4736862" class="st0" width="2.217406" height="2.0553071"/>
	<rect x="13.5164251" y="85.0048599" class="st0" width="2.104636" height="2.1559103"/>
	<rect x="13.5164251" y="82.9494476" class="st3" width="2.104636" height="2.0554101"/>
	<rect x="13.5164251" y="80.8987274" class="st6" width="2.104636" height="2.0507197"/>
	<rect x="13.5164251" y="78.7376328" class="st3" width="2.104636" height="2.1610956"/>
	<rect x="13.5164251" y="76.6874161" class="st5" width="2.104636" height="2.0502172"/>
	<rect x="13.5164251" y="74.6315994" class="st8" width="2.104636" height="2.0558059"/>
	<rect x="13.5164251" y="72.4760971" class="st8" width="2.104636" height="2.1555068"/>
	<rect x="13.5164251" y="70.4202881" class="st8" width="2.104636" height="2.0558059"/>
	<rect x="13.5164251" y="68.2643814" class="st8" width="2.104636" height="2.1559103"/>
	<rect x="13.5164251" y="66.2141647" class="st5" width="2.104636" height="2.0502172"/>
	<rect x="13.5164251" y="64.1582565" class="st5" width="2.104636" height="2.0559087"/>
	<rect x="13.5164251" y="62.002346" class="st8" width="2.104636" height="2.1559103"/>
	<rect x="13.5164251" y="59.9470367" class="st5" width="2.104636" height="2.0553071"/>
	<rect x="13.5164251" y="57.8963203" class="st3" width="2.104636" height="2.0507159"/>
	<rect x="13.5164251" y="55.7351227" class="st3" width="2.104636" height="2.1611984"/>
	<rect x="13.5164251" y="53.6850014" class="st6" width="2.104636" height="2.0501182"/>
	<rect x="13.5164251" y="51.5289917" class="st6" width="2.104636" height="2.1560094"/>
	<rect x="13.5164251" y="49.4736862" class="st0" width="2.104636" height="2.0553071"/>
	<rect x="11.4064636" y="82.9494476" class="st0" width="2.1099613" height="2.0554101"/>
	<rect x="11.4064636" y="80.8987274" class="st6" width="2.1099613" height="2.0507197"/>
	<rect x="11.4064636" y="78.7376328" class="st3" width="2.1099613" height="2.1610956"/>
	<rect x="11.4064636" y="76.6874161" class="st5" width="2.1099613" height="2.0502172"/>
	<rect x="11.4064636" y="74.6315994" class="st9" width="2.1099613" height="2.0558059"/>
	<rect x="11.4064636" y="72.4760971" class="st5" width="2.1099613" height="2.1555068"/>
	<rect x="11.4064636" y="70.4202881" class="st8" width="2.1099613" height="2.0558059"/>
	<rect x="11.4064636" y="68.2643814" class="st5" width="2.1099613" height="2.1559103"/>
	<rect x="11.4064636" y="66.2141647" class="st8" width="2.1099613" height="2.0502172"/>
	<rect x="11.4064636" y="64.1582565" class="st5" width="2.1099613" height="2.0559087"/>
	<rect x="11.4064636" y="62.002346" class="st3" width="2.1099613" height="2.1559103"/>
	<rect x="11.4064636" y="59.9470367" class="st3" width="2.1099613" height="2.0553071"/>
	<rect x="11.4064636" y="57.8963203" class="st3" width="2.1099613" height="2.0507159"/>
	<rect x="11.4064636" y="55.7351227" class="st6" width="2.1099613" height="2.1611984"/>
	<rect x="11.4064636" y="53.6850014" class="st6" width="2.1099613" height="2.0501182"/>
	<rect x="11.4064636" y="51.5289917" class="st0" width="2.1099613" height="2.1560094"/>
	<rect x="9.1943836" y="82.9494476" class="st0" width="2.2120805" height="2.0554101"/>
	<rect x="9.1943836" y="80.8987274" class="st6" width="2.2120805" height="2.0507197"/>
	<rect x="9.1943836" y="78.7376328" class="st8" width="2.2120805" height="2.1610956"/>
	<rect x="9.1943836" y="76.6874161" class="st3" width="2.2120805" height="2.0502172"/>
	<rect x="9.1943836" y="74.6315994" class="st5" width="2.2120805" height="2.0558059"/>
	<rect x="9.1943836" y="72.4760971" class="st5" width="2.2120805" height="2.1555068"/>
	<rect x="9.1943836" y="70.4202881" class="st9" width="2.2120805" height="2.0558059"/>
	<rect x="9.1943836" y="68.2643814" class="st3" width="2.2120805" height="2.1559103"/>
	<rect x="9.1943836" y="66.2141647" class="st5" width="2.2120805" height="2.0502172"/>
	<rect x="9.1943836" y="64.1582565" class="st3" width="2.2120805" height="2.0559087"/>
	<rect x="9.1943836" y="62.002346" class="st8" width="2.2120805" height="2.1559103"/>
	<rect x="9.1943836" y="59.9470367" class="st3" width="2.2120805" height="2.0553071"/>
	<rect x="9.1943836" y="57.8963203" class="st6" width="2.2120805" height="2.0507159"/>
	<rect x="9.1943836" y="55.7351227" class="st6" width="2.2120805" height="2.1611984"/>
	<rect x="9.1943836" y="53.6850014" class="st3" width="2.2120805" height="2.0501182"/>
	<rect x="9.1943836" y="51.5289917" class="st0" width="2.2120805" height="2.1560094"/>
	<rect x="7.0845251" y="82.9494476" class="st0" width="2.1098597" height="2.0554101"/>
	<rect x="7.0845251" y="80.8987274" class="st3" width="2.1098597" height="2.0507197"/>
	<rect x="7.0845251" y="78.7376328" class="st6" width="2.1098597" height="2.1610956"/>
	<rect x="7.0845251" y="76.6874161" class="st3" width="2.1098597" height="2.0502172"/>
	<rect x="7.0845251" y="74.6315994" class="st5" width="2.1098597" height="2.0558059"/>
	<rect x="7.0845251" y="72.4760971" class="st3" width="2.1098597" height="2.1555068"/>
	<rect x="7.0845251" y="70.4202881" class="st8" width="2.1098597" height="2.0558059"/>
	<rect x="7.0845251" y="68.2643814" class="st5" width="2.1098597" height="2.1559103"/>
	<rect x="7.0845251" y="66.2141647" class="st3" width="2.1098597" height="2.0502172"/>
	<rect x="7.0845251" y="64.1582565" class="st3" width="2.1098597" height="2.0559087"/>
	<rect x="7.0845251" y="62.002346" class="st6" width="2.1098597" height="2.1559103"/>
	<rect x="7.0845251" y="59.9470367" class="st6" width="2.1098597" height="2.0553071"/>
	<rect x="7.0845251" y="57.8963203" class="st3" width="2.1098597" height="2.0507159"/>
	<rect x="7.0845251" y="55.7351227" class="st6" width="2.1098597" height="2.1611984"/>
	<rect x="7.0845251" y="53.6850014" class="st0" width="2.1098597" height="2.0501182"/>
	<rect x="4.8723421" y="80.8987274" class="st0" width="2.212182" height="2.0507197"/>
	<rect x="4.8723421" y="78.7376328" class="st6" width="2.212182" height="2.1610956"/>
	<rect x="4.8723421" y="76.6874161" class="st6" width="2.212182" height="2.0502172"/>
	<rect x="4.8723421" y="74.6315994" class="st3" width="2.212182" height="2.0558059"/>
	<rect x="4.8723421" y="72.4760971" class="st3" width="2.212182" height="2.1555068"/>
	<rect x="4.8723421" y="70.4202881" class="st5" width="2.212182" height="2.0558059"/>
	<rect x="4.8723421" y="68.2643814" class="st3" width="2.212182" height="2.1559103"/>
	<rect x="4.8723421" y="66.2141647" class="st5" width="2.212182" height="2.0502172"/>
	<rect x="4.8723421" y="64.1582565" class="st6" width="2.212182" height="2.0559087"/>
	<rect x="4.8723421" y="62.002346" class="st3" width="2.212182" height="2.1559103"/>
	<rect x="4.8723421" y="59.9470367" class="st6" width="2.212182" height="2.0553071"/>
	<rect x="4.8723421" y="57.8963203" class="st6" width="2.212182" height="2.0507159"/>
	<rect x="4.8723421" y="55.7351227" class="st0" width="2.212182" height="2.1611984"/>
	<rect x="2.7677062" y="78.7376328" class="st0" width="2.104636" height="2.1610956"/>
	<rect x="2.7677062" y="76.6874161" class="st6" width="2.104636" height="2.0502172"/>
	<rect x="2.7677062" y="74.6315994" class="st6" width="2.104636" height="2.0558059"/>
	<rect x="2.7677062" y="72.4760971" class="st6" width="2.104636" height="2.1555068"/>
	<rect x="2.7677062" y="70.4202881" class="st3" width="2.104636" height="2.0558059"/>
	<rect x="2.7677062" y="68.2643814" class="st3" width="2.104636" height="2.1559103"/>
	<rect x="2.7677062" y="66.2141647" class="st3" width="2.104636" height="2.0502172"/>
	<rect x="2.7677062" y="64.1582565" class="st6" width="2.104636" height="2.0559087"/>
	<rect x="2.7677062" y="62.002346" class="st6" width="2.104636" height="2.1559103"/>
	<rect x="2.7677062" y="59.9470367" class="st0" width="2.104636" height="2.0553071"/>
	<rect x="2.7677062" y="57.8963203" class="st0" width="2.104636" height="2.0507159"/>
	<rect x="0.6578467" y="76.6874161" class="st0" width="2.1098592" height="2.0502172"/>
	<rect x="0.6578467" y="74.6315994" class="st0" width="2.1098592" height="2.0558059"/>
	<rect x="0.6578467" y="72.4760971" class="st6" width="2.1098592" height="2.1555068"/>
	<rect x="0.6578467" y="70.4202881" class="st3" width="2.1098592" height="2.0558059"/>
	<rect x="0.6578467" y="68.2643814" class="st6" width="2.1098592" height="2.1559103"/>
	<rect x="0.6578467" y="66.2141647" class="st6" width="2.1098592" height="2.0502172"/>
	<rect x="0.6578467" y="64.1582565" class="st0" width="2.1098592" height="2.0559087"/>
	<rect x="0.6578467" y="62.002346" class="st0" width="2.1098592" height="2.1559103"/>
</g>
</svg>
