<?xml version="1.0" encoding="utf-8"?>
<!-- Generator: Adobe Illustrator 26.0.1, SVG Export Plug-In . SVG Version: 6.00 Build 0)  -->
<svg version="1.1" id="Layer_1" xmlns="http://www.w3.org/2000/svg" xmlns:xlink="http://www.w3.org/1999/xlink" x="0px" y="0px"
	 width="23.1490993px" height="46.2980995px" viewBox="0 0 23.1490993 46.2980995"
	 style="enable-background:new 0 0 23.1490993 46.2980995;" xml:space="preserve">
<style type="text/css">
	.st0{fill:#1E2235;}
	.st1{fill:url(#SVGID_1_);}
	.st2{fill:#1B2162;}
	.st3{fill:#252D88;}
	.st4{fill:#2D37A3;}
	.st5{fill:#424DCB;}
	.st6{fill:#00B7FF;}
	.st7{fill:#0261CC;}
	.st8{fill:#380762;}
	.st9{fill:#370C45;}
	.st10{fill:#703991;}
	.st11{fill:#A046C2;}
	.st12{fill:#543175;}
	.st13{fill:#FFFFFF;}
	.st14{fill:#B947C0;}
	.st15{fill:#DB8EE3;}
	.st16{fill:#8B0975;}
	.st17{fill:#BD3151;}
	.st18{fill:#CC3154;}
	.st19{fill:#FF7261;}
	.st20{fill:#BF2C4E;}
	.st21{fill:#FE9867;}
	.st22{fill:#EF3A65;}
	.st23{fill:#FFAD6E;}
	.st24{fill:#FA559F;}
	.st25{fill:#FCE00A;}
	.st26{fill:#837CC2;}
	.st27{fill:#0284DB;}
	.st28{fill:#BFBAF0;}
	.st29{fill:#5E4194;}
	.st30{fill:#755AC1;}
	.st31{fill:#A8A3D2;}
	.st32{fill:#5D75C2;}
	.st33{fill:#6D85CF;}
	.st34{fill:#89C7DE;}
	.st35{opacity:0.5;}
	.st36{fill:#FF001F;}
	.st37{fill:#97C1FF;}
	.st38{fill:#FFF203;}
	.st39{fill:#0086FF;}
	.st40{display:none;}
	.st41{display:inline;fill:#370C45;}
	.st42{display:inline;fill:#FE9867;}
	.st43{display:inline;fill:#FA559F;}
	.st44{display:inline;fill:#EF3A65;}
	.st45{display:inline;fill:#CC3154;}
	.st46{display:inline;fill:#FF7261;}
	.st47{display:inline;fill:#8B0975;}
	.st48{display:inline;fill:#380762;}
	.st49{display:inline;fill:#B947C0;}
	.st50{display:inline;fill:#BD3151;}
	.st51{display:inline;fill:#BF2C4E;}
	.st52{display:inline;fill:#FFAD6E;}
	.st53{fill:#FCEB6A;}
	.st54{fill:#F2C50F;}
	.st55{fill:#8ADD8A;}
	.st56{fill:#00FF00;}
	.st57{fill:#07D607;}
	.st58{fill:#05CC0A;}
	.st59{fill:#482A63;}
	.st60{fill:#DE990E;}
	.st61{fill:#009DFF;}
	.st62{fill:#E8AB0E;}
	.st63{fill:#72A614;}
	.st64{fill:#A7E007;}
	.st65{fill:#699C18;}
	.st66{fill:#6D9E16;}
	.st67{fill:#84BF15;}
	.st68{fill:#3A4F93;}
	.st69{fill:#2D3B70;}
	.st70{fill:none;stroke:#1B2442;stroke-miterlimit:10;}
	.st71{opacity:0;fill:#171A33;}
	.st72{fill:#FFFB00;}
	.st73{opacity:0.2;}
	.st74{fill:#42061A;}
</style>
<g>
	<g>
		<rect x="21.0942993" y="33.644249" class="st9" width="2.0548" height="2.1596999"/>
		<rect x="18.9284" y="35.8039513" class="st9" width="2.1659" height="2.0599999"/>
		<rect x="18.9284" y="33.644249" class="st8" width="2.1659" height="2.1596999"/>
		<rect x="18.9284" y="31.5842495" class="st9" width="2.1659" height="2.0599999"/>
		<rect x="16.8745995" y="37.8639488" class="st9" width="2.0538001" height="2.1596999"/>
		<rect x="16.8745995" y="35.8039513" class="st8" width="2.0538001" height="2.0599999"/>
		<rect x="16.8745995" y="33.644249" class="st16" width="2.0538001" height="2.1596999"/>
		<rect x="16.8745995" y="31.5842495" class="st8" width="2.0538001" height="2.0599999"/>
		<rect x="16.8745995" y="29.4235497" class="st9" width="2.0538001" height="2.1607001"/>
		<rect x="14.7138996" y="40.0236511" class="st9" width="2.1607001" height="2.0599"/>
		<rect x="14.7138996" y="37.8639488" class="st8" width="2.1607001" height="2.1596999"/>
		<rect x="14.7138996" y="35.8039513" class="st16" width="2.1607001" height="2.0599999"/>
		<rect x="14.7138996" y="33.644249" class="st22" width="2.1607001" height="2.1596999"/>
		<rect x="14.7138996" y="31.5842495" class="st16" width="2.1607001" height="2.0599999"/>
		<rect x="14.7138996" y="29.4235497" class="st8" width="2.1607001" height="2.1607001"/>
		<rect x="14.7138996" y="27.3697491" class="st9" width="2.1607001" height="2.0538001"/>
		<rect x="12.6549997" y="42.0835495" class="st9" width="2.0589001" height="2.0548"/>
		<rect x="12.6549997" y="40.0236511" class="st8" width="2.0589001" height="2.0599"/>
		<rect x="12.6549997" y="37.8639488" class="st16" width="2.0589001" height="2.1596999"/>
		<rect x="12.6549997" y="35.8039513" class="st22" width="2.0589001" height="2.0599999"/>
		<rect x="12.6549997" y="33.644249" class="st19" width="2.0589001" height="2.1596999"/>
		<rect x="12.6549997" y="31.5842495" class="st22" width="2.0589001" height="2.0599999"/>
		<rect x="12.6549997" y="29.4235497" class="st16" width="2.0589001" height="2.1607001"/>
		<rect x="12.6549997" y="27.3697491" class="st8" width="2.0589001" height="2.0538001"/>
		<rect x="12.6549997" y="25.2038498" class="st9" width="2.0589001" height="2.1659"/>
		<rect x="10.4941998" y="44.1383514" class="st9" width="2.1608" height="2.1596999"/>
		<rect x="10.4941998" y="42.0835495" class="st8" width="2.1608" height="2.0548"/>
		<rect x="10.4941998" y="40.0236511" class="st16" width="2.1608" height="2.0599"/>
		<rect x="10.4941998" y="37.8639488" class="st22" width="2.1608" height="2.1596999"/>
		<rect x="10.4941998" y="35.8039513" class="st19" width="2.1608" height="2.0599999"/>
		<rect x="10.4941998" y="33.644249" class="st21" width="2.1608" height="2.1596999"/>
		<rect x="10.4941998" y="31.5842495" class="st19" width="2.1608" height="2.0599999"/>
		<rect x="10.4941998" y="29.4235497" class="st22" width="2.1608" height="2.1607001"/>
		<rect x="10.4941998" y="27.3697491" class="st16" width="2.1608" height="2.0538001"/>
		<rect x="10.4941998" y="25.2038498" class="st8" width="2.1608" height="2.1659"/>
		<rect x="10.4941998" y="23.1490498" class="st9" width="2.1608" height="2.0548"/>
		<rect x="8.4342003" y="42.0835495" class="st9" width="2.0599999" height="2.0548"/>
		<rect x="8.4342003" y="40.0236511" class="st8" width="2.0599999" height="2.0599"/>
		<rect x="8.4342003" y="37.8639488" class="st16" width="2.0599999" height="2.1596999"/>
		<rect x="8.4342003" y="35.8039513" class="st22" width="2.0599999" height="2.0599999"/>
		<rect x="8.4342003" y="33.644249" class="st19" width="2.0599999" height="2.1596999"/>
		<rect x="8.4342003" y="31.5842495" class="st22" width="2.0599999" height="2.0599999"/>
		<rect x="8.4342003" y="29.4235497" class="st16" width="2.0599999" height="2.1607001"/>
		<rect x="8.4342003" y="27.3697491" class="st8" width="2.0599999" height="2.0538001"/>
		<rect x="8.4342003" y="25.2038498" class="st9" width="2.0599999" height="2.1659"/>
		<rect x="6.2744999" y="40.0236511" class="st9" width="2.1596999" height="2.0599"/>
		<rect x="6.2744999" y="37.8639488" class="st8" width="2.1596999" height="2.1596999"/>
		<rect x="6.2744999" y="35.8039513" class="st16" width="2.1596999" height="2.0599999"/>
		<rect x="6.2744999" y="33.644249" class="st22" width="2.1596999" height="2.1596999"/>
		<rect x="6.2744999" y="31.5842495" class="st16" width="2.1596999" height="2.0599999"/>
		<rect x="6.2744999" y="29.4235497" class="st8" width="2.1596999" height="2.1607001"/>
		<rect x="6.2744999" y="27.3697491" class="st9" width="2.1596999" height="2.0538001"/>
		<rect x="4.2146001" y="37.8639488" class="st9" width="2.0599" height="2.1596999"/>
		<rect x="4.2146001" y="35.8039513" class="st8" width="2.0599" height="2.0599999"/>
		<rect x="4.2146001" y="33.644249" class="st16" width="2.0599" height="2.1596999"/>
		<rect x="4.2146001" y="31.5842495" class="st8" width="2.0599" height="2.0599999"/>
		<rect x="4.2146001" y="29.4235497" class="st9" width="2.0599" height="2.1607001"/>
		<rect x="2.0548" y="35.8039513" class="st9" width="2.1598001" height="2.0599999"/>
		<rect x="2.0548" y="33.644249" class="st8" width="2.1598001" height="2.1596999"/>
		<rect x="2.0548" y="31.5842495" class="st9" width="2.1598001" height="2.0599999"/>
		<rect y="33.644249" class="st9" width="2.0548" height="2.1596999"/>
	</g>
	<rect x="10.5445995" y="33.6935501" class="st9" width="2.0599" height="2.0599999"/>
	<rect x="10.5445995" y="33.6436996" class="st9" width="2.0599" height="2.1596999"/>
	<rect x="10.5445995" y="33.6935997" class="st9" width="2.0599" height="2.0599"/>
	<rect x="10.5445995" y="33.6433983" class="st9" width="2.0599" height="2.1603"/>
	<rect x="10.4946499" y="33.6964493" class="st9" width="2.1598001" height="2.0541999"/>
	<rect x="10.4946499" y="33.6935501" class="st16" width="2.1598001" height="2.0599999"/>
	<rect x="10.4946499" y="33.6436996" class="st16" width="2.1598001" height="2.1596999"/>
	<rect x="10.4946499" y="33.6935997" class="st22" width="2.1598001" height="2.0599"/>
	<rect x="10.4946499" y="33.6433983" class="st16" width="2.1598001" height="2.1603"/>
	<rect x="10.4946499" y="33.6963997" class="st9" width="2.1598001" height="2.0543001"/>
	<rect x="10.5445995" y="33.6964493" class="st9" width="2.0599" height="2.0541999"/>
	<rect x="10.5445995" y="33.6935501" class="st19" width="2.0599" height="2.0599999"/>
	<rect x="10.5445995" y="33.6436996" class="st16" width="2.0599" height="2.1596999"/>
	<rect x="10.5445995" y="33.6935997" class="st19" width="2.0599" height="2.0599"/>
	<rect x="10.5445995" y="33.6433983" class="st16" width="2.0599" height="2.1603"/>
	<rect x="10.5445995" y="33.6963997" class="st16" width="2.0599" height="2.0543001"/>
	<rect x="10.5445995" y="33.6935997" class="st9" width="2.0599" height="2.0599"/>
	<rect x="10.4947004" y="33.6408501" class="st9" width="2.1596999" height="2.1654"/>
	<rect x="10.4947004" y="33.6964493" class="st22" width="2.1596999" height="2.0541999"/>
	<rect x="10.4947004" y="33.6935501" class="st25" width="2.1596999" height="2.0599999"/>
	<rect x="10.4947004" y="33.6436996" class="st22" width="2.1596999" height="2.1596999"/>
	<rect x="10.4947004" y="33.6935997" class="st19" width="2.1596999" height="2.0599"/>
	<rect x="10.4947004" y="33.6433983" class="st22" width="2.1596999" height="2.1603"/>
	<rect x="10.4947004" y="33.6963997" class="st16" width="2.1596999" height="2.0543001"/>
	<rect x="10.4947004" y="33.6935997" class="st9" width="2.1596999" height="2.0599"/>
	<rect x="10.5445499" y="33.6408501" class="st9" width="2.0599999" height="2.1654"/>
	<rect x="10.5445499" y="33.6964493" class="st16" width="2.0599999" height="2.0541999"/>
	<rect x="10.5445499" y="33.6935501" class="st19" width="2.0599999" height="2.0599999"/>
	<rect x="10.5445499" y="33.6436996" class="st19" width="2.0599999" height="2.1596999"/>
	<rect x="10.5445499" y="33.6935997" class="st25" width="2.0599999" height="2.0599"/>
	<rect x="10.5445499" y="33.6433983" class="st19" width="2.0599999" height="2.1603"/>
	<rect x="10.5445499" y="33.6963997" class="st19" width="2.0599999" height="2.0543001"/>
	<rect x="10.5445499" y="33.6935997" class="st16" width="2.0599999" height="2.0599"/>
	<rect x="10.5445499" y="33.6433983" class="st9" width="2.0599999" height="2.1603"/>
	<rect x="10.5471497" y="33.6408501" class="st9" width="2.0548" height="2.1654"/>
	<rect x="10.5471497" y="33.6964493" class="st16" width="2.0548" height="2.0541999"/>
	<rect x="10.5471497" y="33.6935501" class="st19" width="2.0548" height="2.0599999"/>
	<rect x="10.5471497" y="33.6436996" class="st25" width="2.0548" height="2.1596999"/>
	<rect x="10.5471497" y="33.6935997" class="st13" width="2.0548" height="2.0599"/>
	<rect x="10.5471497" y="33.6433983" class="st25" width="2.0548" height="2.1603"/>
	<rect x="10.5471497" y="33.6963997" class="st22" width="2.0548" height="2.0543001"/>
	<rect x="10.5471497" y="33.6935997" class="st22" width="2.0548" height="2.0599"/>
	<rect x="10.5471497" y="33.6433983" class="st9" width="2.0548" height="2.1603"/>
	<rect x="10.4947004" y="33.6408501" class="st9" width="2.1596999" height="2.1654"/>
	<rect x="10.4947004" y="33.6964493" class="st16" width="2.1596999" height="2.0541999"/>
	<rect x="10.4947004" y="33.6935501" class="st22" width="2.1596999" height="2.0599999"/>
	<rect x="10.4947004" y="33.6436996" class="st19" width="2.1596999" height="2.1596999"/>
	<rect x="10.4947004" y="33.6935997" class="st25" width="2.1596999" height="2.0599"/>
	<rect x="10.4947004" y="33.6433983" class="st19" width="2.1596999" height="2.1603"/>
	<rect x="10.4947004" y="33.6963997" class="st19" width="2.1596999" height="2.0543001"/>
	<rect x="10.4947004" y="33.6935997" class="st16" width="2.1596999" height="2.0599"/>
	<rect x="10.4947004" y="33.6433983" class="st9" width="2.1596999" height="2.1603"/>
	<rect x="10.5445995" y="33.6964493" class="st9" width="2.0599" height="2.0541999"/>
	<rect x="10.5445995" y="33.6935501" class="st16" width="2.0599" height="2.0599999"/>
	<rect x="10.5445995" y="33.6436996" class="st22" width="2.0599" height="2.1596999"/>
	<rect x="10.5445995" y="33.6935997" class="st19" width="2.0599" height="2.0599"/>
	<rect x="10.5445995" y="33.6433983" class="st22" width="2.0599" height="2.1603"/>
	<rect x="10.5445995" y="33.6963997" class="st16" width="2.0599" height="2.0543001"/>
	<rect x="10.5445995" y="33.6935997" class="st16" width="2.0599" height="2.0599"/>
	<rect x="10.5445995" y="33.6433983" class="st9" width="2.0599" height="2.1603"/>
	<rect x="10.5445499" y="33.6964493" class="st9" width="2.0599999" height="2.0541999"/>
	<rect x="10.5445499" y="33.6935501" class="st16" width="2.0599999" height="2.0599999"/>
	<rect x="10.5445499" y="33.6436996" class="st16" width="2.0599999" height="2.1596999"/>
	<rect x="10.5445499" y="33.6935997" class="st19" width="2.0599999" height="2.0599"/>
	<rect x="10.5445499" y="33.6433983" class="st16" width="2.0599999" height="2.1603"/>
	<rect x="10.5445499" y="33.6963997" class="st9" width="2.0599999" height="2.0543001"/>
	<rect x="10.5445499" y="33.6935997" class="st9" width="2.0599999" height="2.0599"/>
	<rect x="10.4947004" y="33.6436996" class="st9" width="2.1596999" height="2.1596999"/>
	<rect x="10.4947004" y="33.6935997" class="st9" width="2.1596999" height="2.0599"/>
	<rect x="10.4947004" y="33.6433983" class="st9" width="2.1596999" height="2.1603"/>
</g>
<g>
	<rect x="20.0113506" y="37.9109497" class="st9" width="2.0599" height="2.0599999"/>
	<rect x="20.0113506" y="35.7512512" class="st9" width="2.0599" height="2.1596999"/>
	<rect x="20.0113506" y="33.691349" class="st9" width="2.0599" height="2.0599"/>
	<rect x="20.0113506" y="31.5310497" class="st9" width="2.0599" height="2.1603"/>
	<rect x="17.8515491" y="39.9709511" class="st9" width="2.1598001" height="2.0541999"/>
	<rect x="17.8515491" y="37.9109497" class="st16" width="2.1598001" height="2.0599999"/>
	<rect x="17.8515491" y="35.7512512" class="st16" width="2.1598001" height="2.1596999"/>
	<rect x="17.8515491" y="33.691349" class="st22" width="2.1598001" height="2.0599"/>
	<rect x="17.8515491" y="31.5310497" class="st16" width="2.1598001" height="2.1603"/>
	<rect x="17.8515491" y="29.4767494" class="st9" width="2.1598001" height="2.0543001"/>
	<rect x="15.7916498" y="39.9709511" class="st9" width="2.0599" height="2.0541999"/>
	<rect x="15.7916498" y="37.9109497" class="st19" width="2.0599" height="2.0599999"/>
	<rect x="15.7916498" y="35.7512512" class="st16" width="2.0599" height="2.1596999"/>
	<rect x="15.7916498" y="33.691349" class="st19" width="2.0599" height="2.0599"/>
	<rect x="15.7916498" y="31.5310497" class="st16" width="2.0599" height="2.1603"/>
	<rect x="15.7916498" y="29.4767494" class="st16" width="2.0599" height="2.0543001"/>
	<rect x="15.7916498" y="27.4168491" class="st9" width="2.0599" height="2.0599"/>
	<rect x="13.6319504" y="42.0251503" class="st9" width="2.1596999" height="2.1654"/>
	<rect x="13.6319504" y="39.9709511" class="st22" width="2.1596999" height="2.0541999"/>
	<rect x="13.6319504" y="37.9109497" class="st25" width="2.1596999" height="2.0599999"/>
	<rect x="13.6319504" y="35.7512512" class="st22" width="2.1596999" height="2.1596999"/>
	<rect x="13.6319504" y="33.691349" class="st19" width="2.1596999" height="2.0599"/>
	<rect x="13.6319504" y="31.5310497" class="st22" width="2.1596999" height="2.1603"/>
	<rect x="13.6319504" y="29.4767494" class="st16" width="2.1596999" height="2.0543001"/>
	<rect x="13.6319504" y="27.4168491" class="st9" width="2.1596999" height="2.0599"/>
	<rect x="11.57195" y="42.0251503" class="st9" width="2.0599999" height="2.1654"/>
	<rect x="11.57195" y="39.9709511" class="st16" width="2.0599999" height="2.0541999"/>
	<rect x="11.57195" y="37.9109497" class="st19" width="2.0599999" height="2.0599999"/>
	<rect x="11.57195" y="35.7512512" class="st19" width="2.0599999" height="2.1596999"/>
	<rect x="11.57195" y="33.691349" class="st25" width="2.0599999" height="2.0599"/>
	<rect x="11.57195" y="31.5310497" class="st19" width="2.0599999" height="2.1603"/>
	<rect x="11.57195" y="29.4767494" class="st19" width="2.0599999" height="2.0543001"/>
	<rect x="11.57195" y="27.4168491" class="st16" width="2.0599999" height="2.0599"/>
	<rect x="11.57195" y="25.2565498" class="st9" width="2.0599999" height="2.1603"/>
	<rect x="9.5171499" y="42.0251503" class="st9" width="2.0548" height="2.1654"/>
	<rect x="9.5171499" y="39.9709511" class="st16" width="2.0548" height="2.0541999"/>
	<rect x="9.5171499" y="37.9109497" class="st19" width="2.0548" height="2.0599999"/>
	<rect x="9.5171499" y="35.7512512" class="st25" width="2.0548" height="2.1596999"/>
	<rect x="9.5171499" y="33.691349" class="st13" width="2.0548" height="2.0599"/>
	<rect x="9.5171499" y="31.5310497" class="st25" width="2.0548" height="2.1603"/>
	<rect x="9.5171499" y="29.4767494" class="st22" width="2.0548" height="2.0543001"/>
	<rect x="9.5171499" y="27.4168491" class="st22" width="2.0548" height="2.0599"/>
	<rect x="9.5171499" y="25.2565498" class="st9" width="2.0548" height="2.1603"/>
	<rect x="7.35745" y="42.0251503" class="st9" width="2.1596999" height="2.1654"/>
	<rect x="7.35745" y="39.9709511" class="st16" width="2.1596999" height="2.0541999"/>
	<rect x="7.35745" y="37.9109497" class="st22" width="2.1596999" height="2.0599999"/>
	<rect x="7.35745" y="35.7512512" class="st19" width="2.1596999" height="2.1596999"/>
	<rect x="7.35745" y="33.691349" class="st25" width="2.1596999" height="2.0599"/>
	<rect x="7.35745" y="31.5310497" class="st19" width="2.1596999" height="2.1603"/>
	<rect x="7.35745" y="29.4767494" class="st19" width="2.1596999" height="2.0543001"/>
	<rect x="7.35745" y="27.4168491" class="st16" width="2.1596999" height="2.0599"/>
	<rect x="7.35745" y="25.2565498" class="st9" width="2.1596999" height="2.1603"/>
	<rect x="5.2975502" y="39.9709511" class="st9" width="2.0599" height="2.0541999"/>
	<rect x="5.2975502" y="37.9109497" class="st16" width="2.0599" height="2.0599999"/>
	<rect x="5.2975502" y="35.7512512" class="st22" width="2.0599" height="2.1596999"/>
	<rect x="5.2975502" y="33.691349" class="st19" width="2.0599" height="2.0599"/>
	<rect x="5.2975502" y="31.5310497" class="st22" width="2.0599" height="2.1603"/>
	<rect x="5.2975502" y="29.4767494" class="st16" width="2.0599" height="2.0543001"/>
	<rect x="5.2975502" y="27.4168491" class="st16" width="2.0599" height="2.0599"/>
	<rect x="5.2975502" y="25.2565498" class="st9" width="2.0599" height="2.1603"/>
	<rect x="3.23755" y="39.9709511" class="st9" width="2.0599999" height="2.0541999"/>
	<rect x="3.23755" y="37.9109497" class="st16" width="2.0599999" height="2.0599999"/>
	<rect x="3.23755" y="35.7512512" class="st16" width="2.0599999" height="2.1596999"/>
	<rect x="3.23755" y="33.691349" class="st19" width="2.0599999" height="2.0599"/>
	<rect x="3.23755" y="31.5310497" class="st16" width="2.0599999" height="2.1603"/>
	<rect x="3.23755" y="29.4767494" class="st9" width="2.0599999" height="2.0543001"/>
	<rect x="3.23755" y="27.4168491" class="st9" width="2.0599999" height="2.0599"/>
	<rect x="1.07785" y="35.7512512" class="st9" width="2.1596999" height="2.1596999"/>
	<rect x="1.07785" y="33.691349" class="st9" width="2.1596999" height="2.0599"/>
	<rect x="1.07785" y="31.5310497" class="st9" width="2.1596999" height="2.1603"/>
</g>
<g>
	<g>
		<rect x="21.0942993" y="10.4952002" class="st9" width="2.0548" height="2.1596999"/>
		<rect x="18.9284" y="12.6548996" class="st9" width="2.1659" height="2.0599999"/>
		<rect x="18.9284" y="10.4952002" class="st8" width="2.1659" height="2.1596999"/>
		<rect x="18.9284" y="8.4351997" class="st9" width="2.1659" height="2.0599999"/>
		<rect x="16.8745995" y="14.7149" class="st9" width="2.0538001" height="2.1596999"/>
		<rect x="16.8745995" y="12.6548996" class="st8" width="2.0538001" height="2.0599999"/>
		<rect x="16.8745995" y="10.4952002" class="st16" width="2.0538001" height="2.1596999"/>
		<rect x="16.8745995" y="8.4351997" class="st8" width="2.0538001" height="2.0599999"/>
		<rect x="16.8745995" y="6.2744999" class="st9" width="2.0538001" height="2.1607001"/>
		<rect x="14.7138996" y="16.8745995" class="st9" width="2.1607001" height="2.0599"/>
		<rect x="14.7138996" y="14.7149" class="st8" width="2.1607001" height="2.1596999"/>
		<rect x="14.7138996" y="12.6548996" class="st16" width="2.1607001" height="2.0599999"/>
		<rect x="14.7138996" y="10.4952002" class="st22" width="2.1607001" height="2.1596999"/>
		<rect x="14.7138996" y="8.4351997" class="st16" width="2.1607001" height="2.0599999"/>
		<rect x="14.7138996" y="6.2744999" class="st8" width="2.1607001" height="2.1607001"/>
		<rect x="14.7138996" y="4.2206998" class="st9" width="2.1607001" height="2.0538001"/>
		<rect x="12.6549997" y="18.9344997" class="st9" width="2.0589001" height="2.0548"/>
		<rect x="12.6549997" y="16.8745995" class="st8" width="2.0589001" height="2.0599"/>
		<rect x="12.6549997" y="14.7149" class="st16" width="2.0589001" height="2.1596999"/>
		<rect x="12.6549997" y="12.6548996" class="st22" width="2.0589001" height="2.0599999"/>
		<rect x="12.6549997" y="10.4952002" class="st19" width="2.0589001" height="2.1596999"/>
		<rect x="12.6549997" y="8.4351997" class="st22" width="2.0589001" height="2.0599999"/>
		<rect x="12.6549997" y="6.2744999" class="st16" width="2.0589001" height="2.1607001"/>
		<rect x="12.6549997" y="4.2206998" class="st8" width="2.0589001" height="2.0538001"/>
		<rect x="12.6549997" y="2.0548" class="st9" width="2.0589001" height="2.1659"/>
		<rect x="10.4941998" y="20.9892998" class="st9" width="2.1608" height="2.1596999"/>
		<rect x="10.4941998" y="18.9344997" class="st8" width="2.1608" height="2.0548"/>
		<rect x="10.4941998" y="16.8745995" class="st16" width="2.1608" height="2.0599"/>
		<rect x="10.4941998" y="14.7149" class="st22" width="2.1608" height="2.1596999"/>
		<rect x="10.4941998" y="12.6548996" class="st19" width="2.1608" height="2.0599999"/>
		<rect x="10.4941998" y="10.4952002" class="st21" width="2.1608" height="2.1596999"/>
		<rect x="10.4941998" y="8.4351997" class="st19" width="2.1608" height="2.0599999"/>
		<rect x="10.4941998" y="6.2744999" class="st22" width="2.1608" height="2.1607001"/>
		<rect x="10.4941998" y="4.2206998" class="st16" width="2.1608" height="2.0538001"/>
		<rect x="10.4941998" y="2.0548" class="st8" width="2.1608" height="2.1659"/>
		<rect x="10.4941998" class="st9" width="2.1608" height="2.0548"/>
		<rect x="8.4342003" y="18.9344997" class="st9" width="2.0599999" height="2.0548"/>
		<rect x="8.4342003" y="16.8745995" class="st8" width="2.0599999" height="2.0599"/>
		<rect x="8.4342003" y="14.7149" class="st16" width="2.0599999" height="2.1596999"/>
		<rect x="8.4342003" y="12.6548996" class="st22" width="2.0599999" height="2.0599999"/>
		<rect x="8.4342003" y="10.4952002" class="st19" width="2.0599999" height="2.1596999"/>
		<rect x="8.4342003" y="8.4351997" class="st22" width="2.0599999" height="2.0599999"/>
		<rect x="8.4342003" y="6.2744999" class="st16" width="2.0599999" height="2.1607001"/>
		<rect x="8.4342003" y="4.2206998" class="st8" width="2.0599999" height="2.0538001"/>
		<rect x="8.4342003" y="2.0548" class="st9" width="2.0599999" height="2.1659"/>
		<rect x="6.2744999" y="16.8745995" class="st9" width="2.1596999" height="2.0599"/>
		<rect x="6.2744999" y="14.7149" class="st8" width="2.1596999" height="2.1596999"/>
		<rect x="6.2744999" y="12.6548996" class="st16" width="2.1596999" height="2.0599999"/>
		<rect x="6.2744999" y="10.4952002" class="st22" width="2.1596999" height="2.1596999"/>
		<rect x="6.2744999" y="8.4351997" class="st16" width="2.1596999" height="2.0599999"/>
		<rect x="6.2744999" y="6.2744999" class="st8" width="2.1596999" height="2.1607001"/>
		<rect x="6.2744999" y="4.2206998" class="st9" width="2.1596999" height="2.0538001"/>
		<rect x="4.2146001" y="14.7149" class="st9" width="2.0599" height="2.1596999"/>
		<rect x="4.2146001" y="12.6548996" class="st8" width="2.0599" height="2.0599999"/>
		<rect x="4.2146001" y="10.4952002" class="st16" width="2.0599" height="2.1596999"/>
		<rect x="4.2146001" y="8.4351997" class="st8" width="2.0599" height="2.0599999"/>
		<rect x="4.2146001" y="6.2744999" class="st9" width="2.0599" height="2.1607001"/>
		<rect x="2.0548" y="12.6548996" class="st9" width="2.1598001" height="2.0599999"/>
		<rect x="2.0548" y="10.4952002" class="st8" width="2.1598001" height="2.1596999"/>
		<rect x="2.0548" y="8.4351997" class="st9" width="2.1598001" height="2.0599999"/>
		<rect y="10.4952002" class="st9" width="2.0548" height="2.1596999"/>
	</g>
	<rect x="10.5445995" y="10.5445004" class="st9" width="2.0599" height="2.0599999"/>
	<rect x="10.5445995" y="10.4946499" class="st9" width="2.0599" height="2.1596999"/>
	<rect x="10.5445995" y="10.5445499" class="st9" width="2.0599" height="2.0599"/>
	<rect x="10.5445995" y="10.4943504" class="st9" width="2.0599" height="2.1603"/>
	<rect x="10.4946499" y="10.5474005" class="st9" width="2.1598001" height="2.0541999"/>
	<rect x="10.4946499" y="10.5445004" class="st16" width="2.1598001" height="2.0599999"/>
	<rect x="10.4946499" y="10.4946499" class="st16" width="2.1598001" height="2.1596999"/>
	<rect x="10.4946499" y="10.5445499" class="st22" width="2.1598001" height="2.0599"/>
	<rect x="10.4946499" y="10.4943504" class="st16" width="2.1598001" height="2.1603"/>
	<rect x="10.4946499" y="10.5473499" class="st9" width="2.1598001" height="2.0543001"/>
	<rect x="10.5445995" y="10.5474005" class="st9" width="2.0599" height="2.0541999"/>
	<rect x="10.5445995" y="10.5445004" class="st19" width="2.0599" height="2.0599999"/>
	<rect x="10.5445995" y="10.4946499" class="st16" width="2.0599" height="2.1596999"/>
	<rect x="10.5445995" y="10.5445499" class="st19" width="2.0599" height="2.0599"/>
	<rect x="10.5445995" y="10.4943504" class="st16" width="2.0599" height="2.1603"/>
	<rect x="10.5445995" y="10.5473499" class="st16" width="2.0599" height="2.0543001"/>
	<rect x="10.5445995" y="10.5445499" class="st9" width="2.0599" height="2.0599"/>
	<rect x="10.4947004" y="10.4918003" class="st9" width="2.1596999" height="2.1654"/>
	<rect x="10.4947004" y="10.5474005" class="st22" width="2.1596999" height="2.0541999"/>
	<rect x="10.4947004" y="10.5445004" class="st25" width="2.1596999" height="2.0599999"/>
	<rect x="10.4947004" y="10.4946499" class="st22" width="2.1596999" height="2.1596999"/>
	<rect x="10.4947004" y="10.5445499" class="st19" width="2.1596999" height="2.0599"/>
	<rect x="10.4947004" y="10.4943504" class="st22" width="2.1596999" height="2.1603"/>
	<rect x="10.4947004" y="10.5473499" class="st16" width="2.1596999" height="2.0543001"/>
	<rect x="10.4947004" y="10.5445499" class="st9" width="2.1596999" height="2.0599"/>
	<rect x="10.5445499" y="10.4918003" class="st9" width="2.0599999" height="2.1654"/>
	<rect x="10.5445499" y="10.5474005" class="st16" width="2.0599999" height="2.0541999"/>
	<rect x="10.5445499" y="10.5445004" class="st19" width="2.0599999" height="2.0599999"/>
	<rect x="10.5445499" y="10.4946499" class="st19" width="2.0599999" height="2.1596999"/>
	<rect x="10.5445499" y="10.5445499" class="st25" width="2.0599999" height="2.0599"/>
	<rect x="10.5445499" y="10.4943504" class="st19" width="2.0599999" height="2.1603"/>
	<rect x="10.5445499" y="10.5473499" class="st19" width="2.0599999" height="2.0543001"/>
	<rect x="10.5445499" y="10.5445499" class="st16" width="2.0599999" height="2.0599"/>
	<rect x="10.5445499" y="10.4943504" class="st9" width="2.0599999" height="2.1603"/>
	<rect x="10.5471497" y="10.4918003" class="st9" width="2.0548" height="2.1654"/>
	<rect x="10.5471497" y="10.5474005" class="st16" width="2.0548" height="2.0541999"/>
	<rect x="10.5471497" y="10.5445004" class="st19" width="2.0548" height="2.0599999"/>
	<rect x="10.5471497" y="10.4946499" class="st25" width="2.0548" height="2.1596999"/>
	<rect x="10.5471497" y="10.5445499" class="st13" width="2.0548" height="2.0599"/>
	<rect x="10.5471497" y="10.4943504" class="st25" width="2.0548" height="2.1603"/>
	<rect x="10.5471497" y="10.5473499" class="st22" width="2.0548" height="2.0543001"/>
	<rect x="10.5471497" y="10.5445499" class="st22" width="2.0548" height="2.0599"/>
	<rect x="10.5471497" y="10.4943504" class="st9" width="2.0548" height="2.1603"/>
	<rect x="10.4947004" y="10.4918003" class="st9" width="2.1596999" height="2.1654"/>
	<rect x="10.4947004" y="10.5474005" class="st16" width="2.1596999" height="2.0541999"/>
	<rect x="10.4947004" y="10.5445004" class="st22" width="2.1596999" height="2.0599999"/>
	<rect x="10.4947004" y="10.4946499" class="st19" width="2.1596999" height="2.1596999"/>
	<rect x="10.4947004" y="10.5445499" class="st25" width="2.1596999" height="2.0599"/>
	<rect x="10.4947004" y="10.4943504" class="st19" width="2.1596999" height="2.1603"/>
	<rect x="10.4947004" y="10.5473499" class="st19" width="2.1596999" height="2.0543001"/>
	<rect x="10.4947004" y="10.5445499" class="st16" width="2.1596999" height="2.0599"/>
	<rect x="10.4947004" y="10.4943504" class="st9" width="2.1596999" height="2.1603"/>
	<rect x="10.5445995" y="10.5474005" class="st9" width="2.0599" height="2.0541999"/>
	<rect x="10.5445995" y="10.5445004" class="st16" width="2.0599" height="2.0599999"/>
	<rect x="10.5445995" y="10.4946499" class="st22" width="2.0599" height="2.1596999"/>
	<rect x="10.5445995" y="10.5445499" class="st19" width="2.0599" height="2.0599"/>
	<rect x="10.5445995" y="10.4943504" class="st22" width="2.0599" height="2.1603"/>
	<rect x="10.5445995" y="10.5473499" class="st16" width="2.0599" height="2.0543001"/>
	<rect x="10.5445995" y="10.5445499" class="st16" width="2.0599" height="2.0599"/>
	<rect x="10.5445995" y="10.4943504" class="st9" width="2.0599" height="2.1603"/>
	<rect x="10.5445499" y="10.5474005" class="st9" width="2.0599999" height="2.0541999"/>
	<rect x="10.5445499" y="10.5445004" class="st16" width="2.0599999" height="2.0599999"/>
	<rect x="10.5445499" y="10.4946499" class="st16" width="2.0599999" height="2.1596999"/>
	<rect x="10.5445499" y="10.5445499" class="st19" width="2.0599999" height="2.0599"/>
	<rect x="10.5445499" y="10.4943504" class="st16" width="2.0599999" height="2.1603"/>
	<rect x="10.5445499" y="10.5473499" class="st9" width="2.0599999" height="2.0543001"/>
	<rect x="10.5445499" y="10.5445499" class="st9" width="2.0599999" height="2.0599"/>
	<rect x="10.4947004" y="10.4946499" class="st9" width="2.1596999" height="2.1596999"/>
	<rect x="10.4947004" y="10.5445499" class="st9" width="2.1596999" height="2.0599"/>
	<rect x="10.4947004" y="10.4943504" class="st9" width="2.1596999" height="2.1603"/>
</g>
</svg>
