<?xml version="1.0" encoding="utf-8"?>
<!-- Generator: Adobe Illustrator 26.0.1, SVG Export Plug-In . SVG Version: 6.00 Build 0)  -->
<svg version="1.1" id="Layer_1" xmlns="http://www.w3.org/2000/svg" xmlns:xlink="http://www.w3.org/1999/xlink" x="0px" y="0px"
	 width="23.1490993px" height="46.2980995px" viewBox="0 0 23.1490993 46.2980995"
	 style="enable-background:new 0 0 23.1490993 46.2980995;" xml:space="preserve">
<style type="text/css">
	.st0{fill:#370C45;}
	.st1{fill:#380762;}
	.st2{fill:#8B0975;}
	.st3{fill:#EF3A65;}
	.st4{fill:#FF7261;}
	.st5{fill:#FE9867;}
	.st6{fill:#FCE00A;}
	.st7{fill:#FFFFFF;}
	.st8{fill:#F2F2F2;}
	.st9{fill:#F3F3F3;}
	.st10{fill:#F8F8F8;}
</style>
<g>
	<g>
		<rect x="21.0942993" y="33.644249" class="st0" width="2.0548" height="2.1596985"/>
		<rect x="18.9284" y="35.8039513" class="st0" width="2.1658993" height="2.0600014"/>
		<rect x="18.9284" y="33.644249" class="st1" width="2.1658993" height="2.1596985"/>
		<rect x="18.9284" y="31.5842495" class="st0" width="2.1658993" height="2.0599995"/>
		<rect x="16.8745995" y="37.8639488" class="st0" width="2.0538006" height="2.1596985"/>
		<rect x="16.8745995" y="35.8039513" class="st1" width="2.0538006" height="2.0600014"/>
		<rect x="16.8745995" y="33.644249" class="st2" width="2.0538006" height="2.1596985"/>
		<rect x="16.8745995" y="31.5842495" class="st1" width="2.0538006" height="2.0599995"/>
		<rect x="16.8745995" y="29.4235497" class="st0" width="2.0538006" height="2.1606998"/>
		<rect x="14.7138996" y="40.0236511" class="st0" width="2.1606998" height="2.0598984"/>
		<rect x="14.7138996" y="37.8639488" class="st1" width="2.1606998" height="2.1596985"/>
		<rect x="14.7138996" y="35.8039513" class="st2" width="2.1606998" height="2.0600014"/>
		<rect x="14.7138996" y="33.644249" class="st3" width="2.1606998" height="2.1596985"/>
		<rect x="14.7138996" y="31.5842495" class="st2" width="2.1606998" height="2.0599995"/>
		<rect x="14.7138996" y="29.4235497" class="st1" width="2.1606998" height="2.1606998"/>
		<rect x="14.7138996" y="27.3697491" class="st0" width="2.1606998" height="2.0538006"/>
		<rect x="12.6549997" y="42.0835495" class="st0" width="2.0588999" height="2.0548019"/>
		<rect x="12.6549997" y="40.0236511" class="st1" width="2.0588999" height="2.0598984"/>
		<rect x="12.6549997" y="37.8639488" class="st2" width="2.0588999" height="2.1596985"/>
		<rect x="12.6549997" y="35.8039513" class="st3" width="2.0588999" height="2.0600014"/>
		<rect x="12.6549997" y="33.644249" class="st4" width="2.0588999" height="2.1596985"/>
		<rect x="12.6549997" y="31.5842495" class="st3" width="2.0588999" height="2.0599995"/>
		<rect x="12.6549997" y="29.4235497" class="st2" width="2.0588999" height="2.1606998"/>
		<rect x="12.6549997" y="27.3697491" class="st1" width="2.0588999" height="2.0538006"/>
		<rect x="12.6549997" y="25.2038498" class="st0" width="2.0588999" height="2.1658993"/>
		<rect x="10.4941998" y="44.1383514" class="st0" width="2.1608" height="2.1596985"/>
		<rect x="10.4941998" y="42.0835495" class="st1" width="2.1608" height="2.0548019"/>
		<rect x="10.4941998" y="40.0236511" class="st2" width="2.1608" height="2.0598984"/>
		<rect x="10.4941998" y="37.8639488" class="st3" width="2.1608" height="2.1596985"/>
		<rect x="10.4941998" y="35.8039513" class="st4" width="2.1608" height="2.0600014"/>
		<rect x="10.4941998" y="33.644249" class="st5" width="2.1608" height="2.1596985"/>
		<rect x="10.4941998" y="31.5842495" class="st4" width="2.1608" height="2.0599995"/>
		<rect x="10.4941998" y="29.4235497" class="st3" width="2.1608" height="2.1606998"/>
		<rect x="10.4941998" y="27.3697491" class="st2" width="2.1608" height="2.0538006"/>
		<rect x="10.4941998" y="25.2038498" class="st1" width="2.1608" height="2.1658993"/>
		<rect x="10.4941998" y="23.1490498" class="st0" width="2.1608" height="2.0548"/>
		<rect x="8.4342003" y="42.0835495" class="st0" width="2.0599995" height="2.0548019"/>
		<rect x="8.4342003" y="40.0236511" class="st1" width="2.0599995" height="2.0598984"/>
		<rect x="8.4342003" y="37.8639488" class="st2" width="2.0599995" height="2.1596985"/>
		<rect x="8.4342003" y="35.8039513" class="st3" width="2.0599995" height="2.0600014"/>
		<rect x="8.4342003" y="33.644249" class="st4" width="2.0599995" height="2.1596985"/>
		<rect x="8.4342003" y="31.5842495" class="st3" width="2.0599995" height="2.0599995"/>
		<rect x="8.4342003" y="29.4235497" class="st2" width="2.0599995" height="2.1606998"/>
		<rect x="8.4342003" y="27.3697491" class="st1" width="2.0599995" height="2.0538006"/>
		<rect x="8.4342003" y="25.2038498" class="st0" width="2.0599995" height="2.1658993"/>
		<rect x="6.2744999" y="40.0236511" class="st0" width="2.1597004" height="2.0598984"/>
		<rect x="6.2744999" y="37.8639488" class="st1" width="2.1597004" height="2.1596985"/>
		<rect x="6.2744999" y="35.8039513" class="st2" width="2.1597004" height="2.0600014"/>
		<rect x="6.2744999" y="33.644249" class="st3" width="2.1597004" height="2.1596985"/>
		<rect x="6.2744999" y="31.5842495" class="st2" width="2.1597004" height="2.0599995"/>
		<rect x="6.2744999" y="29.4235497" class="st1" width="2.1597004" height="2.1606998"/>
		<rect x="6.2744999" y="27.3697491" class="st0" width="2.1597004" height="2.0538006"/>
		<rect x="4.2146001" y="37.8639488" class="st0" width="2.0598998" height="2.1596985"/>
		<rect x="4.2146001" y="35.8039513" class="st1" width="2.0598998" height="2.0600014"/>
		<rect x="4.2146001" y="33.644249" class="st2" width="2.0598998" height="2.1596985"/>
		<rect x="4.2146001" y="31.5842495" class="st1" width="2.0598998" height="2.0599995"/>
		<rect x="4.2146001" y="29.4235497" class="st0" width="2.0598998" height="2.1606998"/>
		<rect x="2.0548" y="35.8039513" class="st0" width="2.1598001" height="2.0600014"/>
		<rect x="2.0548" y="33.644249" class="st1" width="2.1598001" height="2.1596985"/>
		<rect x="2.0548" y="31.5842495" class="st0" width="2.1598001" height="2.0599995"/>
		<rect y="33.644249" class="st0" width="2.0548" height="2.1596985"/>
	</g>
	<rect x="10.5445995" y="33.6935501" class="st0" width="2.0599003" height="2.0600014"/>
	<rect x="10.5445995" y="33.6436996" class="st0" width="2.0599003" height="2.1596985"/>
	<rect x="10.5445995" y="33.6935997" class="st0" width="2.0599003" height="2.0598984"/>
	<rect x="10.5445995" y="33.6433983" class="st0" width="2.0599003" height="2.1603012"/>
	<rect x="10.4946499" y="33.6964493" class="st0" width="2.1597996" height="2.0541992"/>
	<rect x="10.4946499" y="33.6935501" class="st2" width="2.1597996" height="2.0600014"/>
	<rect x="10.4946499" y="33.6436996" class="st2" width="2.1597996" height="2.1596985"/>
	<rect x="10.4946499" y="33.6935997" class="st3" width="2.1597996" height="2.0598984"/>
	<rect x="10.4946499" y="33.6433983" class="st2" width="2.1597996" height="2.1603012"/>
	<rect x="10.4946499" y="33.6963997" class="st0" width="2.1597996" height="2.0542984"/>
	<rect x="10.5445995" y="33.6964493" class="st0" width="2.0599003" height="2.0541992"/>
	<rect x="10.5445995" y="33.6935501" class="st4" width="2.0599003" height="2.0600014"/>
	<rect x="10.5445995" y="33.6436996" class="st2" width="2.0599003" height="2.1596985"/>
	<rect x="10.5445995" y="33.6935997" class="st4" width="2.0599003" height="2.0598984"/>
	<rect x="10.5445995" y="33.6433983" class="st2" width="2.0599003" height="2.1603012"/>
	<rect x="10.5445995" y="33.6963997" class="st2" width="2.0599003" height="2.0542984"/>
	<rect x="10.5445995" y="33.6935997" class="st0" width="2.0599003" height="2.0598984"/>
	<rect x="10.4947004" y="33.6408501" class="st0" width="2.1596994" height="2.1654015"/>
	<rect x="10.4947004" y="33.6964493" class="st3" width="2.1596994" height="2.0541992"/>
	<rect x="10.4947004" y="33.6935501" class="st6" width="2.1596994" height="2.0600014"/>
	<rect x="10.4947004" y="33.6436996" class="st3" width="2.1596994" height="2.1596985"/>
	<rect x="10.4947004" y="33.6935997" class="st4" width="2.1596994" height="2.0598984"/>
	<rect x="10.4947004" y="33.6433983" class="st3" width="2.1596994" height="2.1603012"/>
	<rect x="10.4947004" y="33.6963997" class="st2" width="2.1596994" height="2.0542984"/>
	<rect x="10.4947004" y="33.6935997" class="st0" width="2.1596994" height="2.0598984"/>
	<rect x="10.5445499" y="33.6408501" class="st0" width="2.0599995" height="2.1654015"/>
	<rect x="10.5445499" y="33.6964493" class="st2" width="2.0599995" height="2.0541992"/>
	<rect x="10.5445499" y="33.6935501" class="st4" width="2.0599995" height="2.0600014"/>
	<rect x="10.5445499" y="33.6436996" class="st4" width="2.0599995" height="2.1596985"/>
	<rect x="10.5445499" y="33.6935997" class="st6" width="2.0599995" height="2.0598984"/>
	<rect x="10.5445499" y="33.6433983" class="st4" width="2.0599995" height="2.1603012"/>
	<rect x="10.5445499" y="33.6963997" class="st4" width="2.0599995" height="2.0542984"/>
	<rect x="10.5445499" y="33.6935997" class="st2" width="2.0599995" height="2.0598984"/>
	<rect x="10.5445499" y="33.6433983" class="st0" width="2.0599995" height="2.1603012"/>
	<rect x="10.5471497" y="33.6408501" class="st0" width="2.0548" height="2.1654015"/>
	<rect x="10.5471497" y="33.6964493" class="st2" width="2.0548" height="2.0541992"/>
	<rect x="10.5471497" y="33.6935501" class="st4" width="2.0548" height="2.0600014"/>
	<rect x="10.5471497" y="33.6436996" class="st6" width="2.0548" height="2.1596985"/>
	<rect x="10.5471497" y="33.6935997" class="st7" width="2.0548" height="2.0598984"/>
	<rect x="10.5471497" y="33.6433983" class="st6" width="2.0548" height="2.1603012"/>
	<rect x="10.5471497" y="33.6963997" class="st3" width="2.0548" height="2.0542984"/>
	<rect x="10.5471497" y="33.6935997" class="st3" width="2.0548" height="2.0598984"/>
	<rect x="10.5471497" y="33.6433983" class="st0" width="2.0548" height="2.1603012"/>
	<rect x="10.4947004" y="33.6408501" class="st0" width="2.1596994" height="2.1654015"/>
	<rect x="10.4947004" y="33.6964493" class="st2" width="2.1596994" height="2.0541992"/>
	<rect x="10.4947004" y="33.6935501" class="st3" width="2.1596994" height="2.0600014"/>
	<rect x="10.4947004" y="33.6436996" class="st4" width="2.1596994" height="2.1596985"/>
	<rect x="10.4947004" y="33.6935997" class="st6" width="2.1596994" height="2.0598984"/>
	<rect x="10.4947004" y="33.6433983" class="st4" width="2.1596994" height="2.1603012"/>
	<rect x="10.4947004" y="33.6963997" class="st4" width="2.1596994" height="2.0542984"/>
	<rect x="10.4947004" y="33.6935997" class="st2" width="2.1596994" height="2.0598984"/>
	<rect x="10.4947004" y="33.6433983" class="st0" width="2.1596994" height="2.1603012"/>
	<rect x="10.5445995" y="33.6964493" class="st0" width="2.0599003" height="2.0541992"/>
	<rect x="10.5445995" y="33.6935501" class="st2" width="2.0599003" height="2.0600014"/>
	<rect x="10.5445995" y="33.6436996" class="st3" width="2.0599003" height="2.1596985"/>
	<rect x="10.5445995" y="33.6935997" class="st4" width="2.0599003" height="2.0598984"/>
	<rect x="10.5445995" y="33.6433983" class="st3" width="2.0599003" height="2.1603012"/>
	<rect x="10.5445995" y="33.6963997" class="st2" width="2.0599003" height="2.0542984"/>
	<rect x="10.5445995" y="33.6935997" class="st2" width="2.0599003" height="2.0598984"/>
	<rect x="10.5445995" y="33.6433983" class="st0" width="2.0599003" height="2.1603012"/>
	<rect x="10.5445499" y="33.6964493" class="st0" width="2.0599995" height="2.0541992"/>
	<rect x="10.5445499" y="33.6935501" class="st2" width="2.0599995" height="2.0600014"/>
	<rect x="10.5445499" y="33.6436996" class="st2" width="2.0599995" height="2.1596985"/>
	<rect x="10.5445499" y="33.6935997" class="st4" width="2.0599995" height="2.0598984"/>
	<rect x="10.5445499" y="33.6433983" class="st2" width="2.0599995" height="2.1603012"/>
	<rect x="10.5445499" y="33.6963997" class="st0" width="2.0599995" height="2.0542984"/>
	<rect x="10.5445499" y="33.6935997" class="st0" width="2.0599995" height="2.0598984"/>
	<rect x="10.4947004" y="33.6436996" class="st0" width="2.1596994" height="2.1596985"/>
	<rect x="10.4947004" y="33.6935997" class="st0" width="2.1596994" height="2.0598984"/>
	<rect x="10.4947004" y="33.6433983" class="st0" width="2.1596994" height="2.1603012"/>
</g>
<g>
	<rect x="20.0113506" y="37.9109497" class="st0" width="2.0599003" height="2.0600014"/>
	<rect x="20.0113506" y="35.7512512" class="st0" width="2.0599003" height="2.1596985"/>
	<rect x="20.0113506" y="33.691349" class="st0" width="2.0599003" height="2.0598984"/>
	<rect x="20.0113506" y="31.5310497" class="st0" width="2.0599003" height="2.1602993"/>
	<rect x="17.8515491" y="39.9709511" class="st0" width="2.1597996" height="2.0541992"/>
	<rect x="17.8515491" y="37.9109497" class="st2" width="2.1597996" height="2.0600014"/>
	<rect x="17.8515491" y="35.7512512" class="st2" width="2.1597996" height="2.1596985"/>
	<rect x="17.8515491" y="33.691349" class="st3" width="2.1597996" height="2.0598984"/>
	<rect x="17.8515491" y="31.5310497" class="st2" width="2.1597996" height="2.1602993"/>
	<rect x="17.8515491" y="29.4767494" class="st0" width="2.1597996" height="2.0543003"/>
	<rect x="15.7916498" y="39.9709511" class="st0" width="2.0598993" height="2.0541992"/>
	<rect x="15.7916498" y="37.9109497" class="st4" width="2.0598993" height="2.0600014"/>
	<rect x="15.7916498" y="35.7512512" class="st2" width="2.0598993" height="2.1596985"/>
	<rect x="15.7916498" y="33.691349" class="st4" width="2.0598993" height="2.0598984"/>
	<rect x="15.7916498" y="31.5310497" class="st2" width="2.0598993" height="2.1602993"/>
	<rect x="15.7916498" y="29.4767494" class="st2" width="2.0598993" height="2.0543003"/>
	<rect x="15.7916498" y="27.4168491" class="st0" width="2.0598993" height="2.0599003"/>
	<rect x="13.6319504" y="42.0251503" class="st0" width="2.1597004" height="2.1654015"/>
	<rect x="13.6319504" y="39.9709511" class="st3" width="2.1597004" height="2.0541992"/>
	<rect x="13.6319504" y="37.9109497" class="st6" width="2.1597004" height="2.0600014"/>
	<rect x="13.6319504" y="35.7512512" class="st3" width="2.1597004" height="2.1596985"/>
	<rect x="13.6319504" y="33.691349" class="st4" width="2.1597004" height="2.0598984"/>
	<rect x="13.6319504" y="31.5310497" class="st3" width="2.1597004" height="2.1602993"/>
	<rect x="13.6319504" y="29.4767494" class="st2" width="2.1597004" height="2.0543003"/>
	<rect x="13.6319504" y="27.4168491" class="st0" width="2.1597004" height="2.0599003"/>
	<rect x="11.57195" y="42.0251503" class="st0" width="2.0600004" height="2.1654015"/>
	<rect x="11.57195" y="39.9709511" class="st2" width="2.0600004" height="2.0541992"/>
	<rect x="11.57195" y="37.9109497" class="st4" width="2.0600004" height="2.0600014"/>
	<rect x="11.57195" y="35.7512512" class="st4" width="2.0600004" height="2.1596985"/>
	<rect x="11.57195" y="33.691349" class="st6" width="2.0600004" height="2.0598984"/>
	<rect x="11.57195" y="31.5310497" class="st4" width="2.0600004" height="2.1602993"/>
	<rect x="11.57195" y="29.4767494" class="st4" width="2.0600004" height="2.0543003"/>
	<rect x="11.57195" y="27.4168491" class="st2" width="2.0600004" height="2.0599003"/>
	<rect x="11.57195" y="25.2565498" class="st0" width="2.0600004" height="2.1602993"/>
	<rect x="9.5171499" y="42.0251503" class="st0" width="2.0548" height="2.1654015"/>
	<rect x="9.5171499" y="39.9709511" class="st2" width="2.0548" height="2.0541992"/>
	<rect x="9.5171499" y="37.9109497" class="st4" width="2.0548" height="2.0600014"/>
	<rect x="9.5171499" y="35.7512512" class="st6" width="2.0548" height="2.1596985"/>
	<rect x="9.5171499" y="33.691349" class="st7" width="2.0548" height="2.0598984"/>
	<rect x="9.5171499" y="31.5310497" class="st6" width="2.0548" height="2.1602993"/>
	<rect x="9.5171499" y="29.4767494" class="st3" width="2.0548" height="2.0543003"/>
	<rect x="9.5171499" y="27.4168491" class="st3" width="2.0548" height="2.0599003"/>
	<rect x="9.5171499" y="25.2565498" class="st0" width="2.0548" height="2.1602993"/>
	<rect x="7.35745" y="42.0251503" class="st0" width="2.1596999" height="2.1654015"/>
	<rect x="7.35745" y="39.9709511" class="st2" width="2.1596999" height="2.0541992"/>
	<rect x="7.35745" y="37.9109497" class="st3" width="2.1596999" height="2.0600014"/>
	<rect x="7.35745" y="35.7512512" class="st4" width="2.1596999" height="2.1596985"/>
	<rect x="7.35745" y="33.691349" class="st6" width="2.1596999" height="2.0598984"/>
	<rect x="7.35745" y="31.5310497" class="st4" width="2.1596999" height="2.1602993"/>
	<rect x="7.35745" y="29.4767494" class="st4" width="2.1596999" height="2.0543003"/>
	<rect x="7.35745" y="27.4168491" class="st2" width="2.1596999" height="2.0599003"/>
	<rect x="7.35745" y="25.2565498" class="st0" width="2.1596999" height="2.1602993"/>
	<rect x="5.2975502" y="39.9709511" class="st0" width="2.0599003" height="2.0541992"/>
	<rect x="5.2975502" y="37.9109497" class="st2" width="2.0599003" height="2.0600014"/>
	<rect x="5.2975502" y="35.7512512" class="st3" width="2.0599003" height="2.1596985"/>
	<rect x="5.2975502" y="33.691349" class="st4" width="2.0599003" height="2.0598984"/>
	<rect x="5.2975502" y="31.5310497" class="st3" width="2.0599003" height="2.1602993"/>
	<rect x="5.2975502" y="29.4767494" class="st2" width="2.0599003" height="2.0543003"/>
	<rect x="5.2975502" y="27.4168491" class="st2" width="2.0599003" height="2.0599003"/>
	<rect x="5.2975502" y="25.2565498" class="st0" width="2.0599003" height="2.1602993"/>
	<rect x="3.23755" y="39.9709511" class="st0" width="2.0600002" height="2.0541992"/>
	<rect x="3.23755" y="37.9109497" class="st2" width="2.0600002" height="2.0600014"/>
	<rect x="3.23755" y="35.7512512" class="st2" width="2.0600002" height="2.1596985"/>
	<rect x="3.23755" y="33.691349" class="st4" width="2.0600002" height="2.0598984"/>
	<rect x="3.23755" y="31.5310497" class="st2" width="2.0600002" height="2.1602993"/>
	<rect x="3.23755" y="29.4767494" class="st0" width="2.0600002" height="2.0543003"/>
	<rect x="3.23755" y="27.4168491" class="st0" width="2.0600002" height="2.0599003"/>
	<rect x="1.07785" y="35.7512512" class="st0" width="2.1596999" height="2.1596985"/>
	<rect x="1.07785" y="33.691349" class="st0" width="2.1596999" height="2.0598984"/>
	<rect x="1.07785" y="31.5310497" class="st0" width="2.1596999" height="2.1602993"/>
</g>
<g>
	<g>
		<rect x="15.6869802" y="11.1082592" class="st8" width="0.887641" height="0.932956"/>
		<rect x="14.7513456" y="12.0412159" class="st8" width="0.9356344" height="0.8898873"/>
		<rect x="14.7513456" y="11.1082592" class="st9" width="0.9356344" height="0.932956"/>
		<rect x="14.7513456" y="10.2183723" class="st8" width="0.9356344" height="0.8898873"/>
		<rect x="13.8641367" y="12.9311028" class="st8" width="0.8872089" height="0.932956"/>
		<rect x="13.8641367" y="12.0412159" class="st9" width="0.8872089" height="0.8898873"/>
		<rect x="13.8641367" y="11.1082592" class="st7" width="0.8872089" height="0.932956"/>
		<rect x="13.8641367" y="10.2183723" class="st9" width="0.8872089" height="0.8898873"/>
		<rect x="13.8641367" y="9.2849846" class="st8" width="0.8872089" height="0.9333881"/>
		<rect x="12.9307489" y="13.8640585" class="st8" width="0.9333881" height="0.8898441"/>
		<rect x="12.9307489" y="12.9311028" class="st9" width="0.9333881" height="0.932956"/>
		<rect x="12.9307489" y="12.0412159" class="st7" width="0.9333881" height="0.8898873"/>
		<rect x="12.9307489" y="11.1082592" class="st7" width="0.9333881" height="0.932956"/>
		<rect x="12.9307489" y="10.2183723" class="st7" width="0.9333881" height="0.8898873"/>
		<rect x="12.9307489" y="9.2849846" class="st9" width="0.9333881" height="0.9333881"/>
		<rect x="12.9307489" y="8.3977757" class="st8" width="0.9333881" height="0.8872089"/>
		<rect x="12.041337" y="14.7539034" class="st8" width="0.889412" height="0.887641"/>
		<rect x="12.041337" y="13.8640585" class="st9" width="0.889412" height="0.8898441"/>
		<rect x="12.041337" y="12.9311028" class="st7" width="0.889412" height="0.932956"/>
		<rect x="12.041337" y="12.0412159" class="st7" width="0.889412" height="0.8898873"/>
		<rect x="12.041337" y="11.1082592" class="st7" width="0.889412" height="0.932956"/>
		<rect x="12.041337" y="10.2183723" class="st7" width="0.889412" height="0.8898873"/>
		<rect x="12.041337" y="9.2849846" class="st7" width="0.889412" height="0.9333881"/>
		<rect x="12.041337" y="8.3977757" class="st9" width="0.889412" height="0.8872089"/>
		<rect x="12.041337" y="7.462141" class="st8" width="0.889412" height="0.9356344"/>
		<rect x="11.1079054" y="15.6415443" class="st8" width="0.9334313" height="0.932956"/>
		<rect x="11.1079054" y="14.7539034" class="st9" width="0.9334313" height="0.887641"/>
		<rect x="11.1079054" y="13.8640585" class="st7" width="0.9334313" height="0.8898441"/>
		<rect x="11.1079054" y="12.9311028" class="st7" width="0.9334313" height="0.932956"/>
		<rect x="11.1079054" y="12.0412159" class="st7" width="0.9334313" height="0.8898873"/>
		<rect x="11.1079054" y="11.1082592" class="st7" width="0.9334313" height="0.932956"/>
		<rect x="11.1079054" y="10.2183723" class="st7" width="0.9334313" height="0.8898873"/>
		<rect x="11.1079054" y="9.2849846" class="st7" width="0.9334313" height="0.9333881"/>
		<rect x="11.1079054" y="8.3977757" class="st7" width="0.9334313" height="0.8872089"/>
		<rect x="11.1079054" y="7.462141" class="st9" width="0.9334313" height="0.9356344"/>
		<rect x="11.1079054" y="6.5745001" class="st8" width="0.9334313" height="0.887641"/>
		<rect x="10.2180185" y="14.7539034" class="st8" width="0.8898873" height="0.887641"/>
		<rect x="10.2180185" y="13.8640585" class="st9" width="0.8898873" height="0.8898441"/>
		<rect x="10.2180185" y="12.9311028" class="st7" width="0.8898873" height="0.932956"/>
		<rect x="10.2180185" y="12.0412159" class="st7" width="0.8898873" height="0.8898873"/>
		<rect x="10.2180185" y="11.1082592" class="st7" width="0.8898873" height="0.932956"/>
		<rect x="10.2180185" y="10.2183723" class="st7" width="0.8898873" height="0.8898873"/>
		<rect x="10.2180185" y="9.2849846" class="st7" width="0.8898873" height="0.9333881"/>
		<rect x="10.2180185" y="8.3977757" class="st9" width="0.8898873" height="0.8872089"/>
		<rect x="10.2180185" y="7.462141" class="st8" width="0.8898873" height="0.9356344"/>
		<rect x="9.2850628" y="13.8640585" class="st8" width="0.932956" height="0.8898441"/>
		<rect x="9.2850628" y="12.9311028" class="st9" width="0.932956" height="0.932956"/>
		<rect x="9.2850628" y="12.0412159" class="st7" width="0.932956" height="0.8898873"/>
		<rect x="9.2850628" y="11.1082592" class="st7" width="0.932956" height="0.932956"/>
		<rect x="9.2850628" y="10.2183723" class="st7" width="0.932956" height="0.8898873"/>
		<rect x="9.2850628" y="9.2849846" class="st9" width="0.932956" height="0.9333881"/>
		<rect x="9.2850628" y="8.3977757" class="st8" width="0.932956" height="0.8872089"/>
		<rect x="8.3952179" y="12.9311028" class="st8" width="0.8898441" height="0.932956"/>
		<rect x="8.3952179" y="12.0412159" class="st9" width="0.8898441" height="0.8898873"/>
		<rect x="8.3952179" y="11.1082592" class="st7" width="0.8898441" height="0.932956"/>
		<rect x="8.3952179" y="10.2183723" class="st9" width="0.8898441" height="0.8898873"/>
		<rect x="8.3952179" y="9.2849846" class="st8" width="0.8898441" height="0.9333881"/>
		<rect x="7.4622192" y="12.0412159" class="st8" width="0.9329993" height="0.8898873"/>
		<rect x="7.4622192" y="11.1082592" class="st9" width="0.9329993" height="0.932956"/>
		<rect x="7.4622192" y="10.2183723" class="st8" width="0.9329993" height="0.8898873"/>
		<rect x="6.5745783" y="11.1082592" class="st8" width="0.887641" height="0.932956"/>
	</g>
	<rect x="11.1296778" y="11.1295567" class="st10" width="0.8898441" height="0.8898873"/>
	<rect x="11.1296778" y="11.1080217" class="st10" width="0.8898441" height="0.932956"/>
	<rect x="11.1296778" y="11.1295776" class="st10" width="0.8898441" height="0.8898441"/>
	<rect x="11.1296778" y="11.107892" class="st10" width="0.8898441" height="0.9332153"/>
	<rect x="11.1080999" y="11.1308088" class="st10" width="0.9329993" height="0.8873817"/>
	<rect x="11.1080999" y="11.1295567" class="st7" width="0.9329993" height="0.8898873"/>
	<rect x="11.1080999" y="11.1080217" class="st7" width="0.9329993" height="0.932956"/>
	<rect x="11.1080999" y="11.1295776" class="st7" width="0.9329993" height="0.8898441"/>
	<rect x="11.1080999" y="11.107892" class="st7" width="0.9329993" height="0.9332153"/>
	<rect x="11.1080999" y="11.1307878" class="st10" width="0.9329993" height="0.8874249"/>
	<rect x="11.1296778" y="11.1308088" class="st10" width="0.8898441" height="0.8873817"/>
	<rect x="11.1296778" y="11.1295567" class="st7" width="0.8898441" height="0.8898873"/>
	<rect x="11.1296778" y="11.1080217" class="st7" width="0.8898441" height="0.932956"/>
	<rect x="11.1296778" y="11.1295776" class="st7" width="0.8898441" height="0.8898441"/>
	<rect x="11.1296778" y="11.107892" class="st7" width="0.8898441" height="0.9332153"/>
	<rect x="11.1296778" y="11.1307878" class="st7" width="0.8898441" height="0.8874249"/>
	<rect x="11.1296778" y="11.1295776" class="st10" width="0.8898441" height="0.8898441"/>
	<rect x="11.1081219" y="11.1067905" class="st10" width="0.932956" height="0.9354184"/>
	<rect x="11.1081219" y="11.1308088" class="st7" width="0.932956" height="0.8873817"/>
	<rect x="11.1081219" y="11.1295567" class="st7" width="0.932956" height="0.8898873"/>
	<rect x="11.1081219" y="11.1080217" class="st7" width="0.932956" height="0.932956"/>
	<rect x="11.1081219" y="11.1295776" class="st7" width="0.932956" height="0.8898441"/>
	<rect x="11.1081219" y="11.107892" class="st7" width="0.932956" height="0.9332153"/>
	<rect x="11.1081219" y="11.1307878" class="st7" width="0.932956" height="0.8874249"/>
	<rect x="11.1081219" y="11.1295776" class="st10" width="0.932956" height="0.8898441"/>
	<rect x="11.1296558" y="11.1067905" class="st10" width="0.8898873" height="0.9354184"/>
	<rect x="11.1296558" y="11.1308088" class="st7" width="0.8898873" height="0.8873817"/>
	<rect x="11.1296558" y="11.1295567" class="st7" width="0.8898873" height="0.8898873"/>
	<rect x="11.1296558" y="11.1080217" class="st7" width="0.8898873" height="0.932956"/>
	<rect x="11.1296558" y="11.1295776" class="st7" width="0.8898873" height="0.8898441"/>
	<rect x="11.1296558" y="11.107892" class="st7" width="0.8898873" height="0.9332153"/>
	<rect x="11.1296558" y="11.1307878" class="st7" width="0.8898873" height="0.8874249"/>
	<rect x="11.1296558" y="11.1295776" class="st7" width="0.8898873" height="0.8898441"/>
	<rect x="11.1296558" y="11.107892" class="st10" width="0.8898873" height="0.9332153"/>
	<rect x="11.1307793" y="11.1067905" class="st10" width="0.887641" height="0.9354184"/>
	<rect x="11.1307793" y="11.1308088" class="st7" width="0.887641" height="0.8873817"/>
	<rect x="11.1307793" y="11.1295567" class="st7" width="0.887641" height="0.8898873"/>
	<rect x="11.1307793" y="11.1080217" class="st7" width="0.887641" height="0.932956"/>
	<rect x="11.1307793" y="11.1295776" class="st7" width="0.887641" height="0.8898441"/>
	<rect x="11.1307793" y="11.107892" class="st7" width="0.887641" height="0.9332153"/>
	<rect x="11.1307793" y="11.1307878" class="st7" width="0.887641" height="0.8874249"/>
	<rect x="11.1307793" y="11.1295776" class="st7" width="0.887641" height="0.8898441"/>
	<rect x="11.1307793" y="11.107892" class="st10" width="0.887641" height="0.9332153"/>
	<rect x="11.1081219" y="11.1067905" class="st10" width="0.932956" height="0.9354184"/>
	<rect x="11.1081219" y="11.1308088" class="st7" width="0.932956" height="0.8873817"/>
	<rect x="11.1081219" y="11.1295567" class="st7" width="0.932956" height="0.8898873"/>
	<rect x="11.1081219" y="11.1080217" class="st7" width="0.932956" height="0.932956"/>
	<rect x="11.1081219" y="11.1295776" class="st7" width="0.932956" height="0.8898441"/>
	<rect x="11.1081219" y="11.107892" class="st7" width="0.932956" height="0.9332153"/>
	<rect x="11.1081219" y="11.1307878" class="st7" width="0.932956" height="0.8874249"/>
	<rect x="11.1081219" y="11.1295776" class="st7" width="0.932956" height="0.8898441"/>
	<rect x="11.1081219" y="11.107892" class="st10" width="0.932956" height="0.9332153"/>
	<rect x="11.1296778" y="11.1308088" class="st10" width="0.8898441" height="0.8873817"/>
	<rect x="11.1296778" y="11.1295567" class="st7" width="0.8898441" height="0.8898873"/>
	<rect x="11.1296778" y="11.1080217" class="st7" width="0.8898441" height="0.932956"/>
	<rect x="11.1296778" y="11.1295776" class="st7" width="0.8898441" height="0.8898441"/>
	<rect x="11.1296778" y="11.107892" class="st7" width="0.8898441" height="0.9332153"/>
	<rect x="11.1296778" y="11.1307878" class="st7" width="0.8898441" height="0.8874249"/>
	<rect x="11.1296778" y="11.1295776" class="st7" width="0.8898441" height="0.8898441"/>
	<rect x="11.1296778" y="11.107892" class="st10" width="0.8898441" height="0.9332153"/>
	<rect x="11.1296558" y="11.1308088" class="st10" width="0.8898873" height="0.8873817"/>
	<rect x="11.1296558" y="11.1295567" class="st7" width="0.8898873" height="0.8898873"/>
	<rect x="11.1296558" y="11.1080217" class="st7" width="0.8898873" height="0.932956"/>
	<rect x="11.1296558" y="11.1295776" class="st7" width="0.8898873" height="0.8898441"/>
	<rect x="11.1296558" y="11.107892" class="st7" width="0.8898873" height="0.9332153"/>
	<rect x="11.1296558" y="11.1307878" class="st10" width="0.8898873" height="0.8874249"/>
	<rect x="11.1296558" y="11.1295776" class="st10" width="0.8898873" height="0.8898441"/>
	<rect x="11.1081219" y="11.1080217" class="st10" width="0.932956" height="0.932956"/>
	<rect x="11.1081219" y="11.1295776" class="st10" width="0.932956" height="0.8898441"/>
	<rect x="11.1081219" y="11.107892" class="st10" width="0.932956" height="0.9332153"/>
</g>
</svg>
