<?xml version="1.0" encoding="utf-8"?>
<!-- Generator: Adobe Illustrator 26.0.1, SVG Export Plug-In . SVG Version: 6.00 Build 0)  -->
<svg version="1.1" id="Layer_1" xmlns="http://www.w3.org/2000/svg" xmlns:xlink="http://www.w3.org/1999/xlink" x="0px" y="0px"
	 width="40.0278015px" height="84.375px" viewBox="0 0 40.0278015 84.375" style="enable-background:new 0 0 40.0278015 84.375;"
	 xml:space="preserve">
<style type="text/css">
	.st0{fill:#1E2235;}
	.st1{fill:url(#SVGID_1_);}
	.st2{fill:#1B2162;}
	.st3{fill:#252D88;}
	.st4{fill:#2D37A3;}
	.st5{fill:#424DCB;}
	.st6{fill:#00B7FF;}
	.st7{fill:#0261CC;}
	.st8{fill:#380762;}
	.st9{fill:#370C45;}
	.st10{fill:#703991;}
	.st11{fill:#A046C2;}
	.st12{fill:#543175;}
	.st13{fill:#FFFFFF;}
	.st14{fill:#B947C0;}
	.st15{fill:#DB8EE3;}
	.st16{fill:#8B0975;}
	.st17{fill:#BD3151;}
	.st18{fill:#CC3154;}
	.st19{fill:#FF7261;}
	.st20{fill:#BF2C4E;}
	.st21{fill:#FE9867;}
	.st22{fill:#EF3A65;}
	.st23{fill:#FFAD6E;}
	.st24{fill:#FA559F;}
	.st25{fill:#FCE00A;}
	.st26{fill:#837CC2;}
	.st27{fill:#0284DB;}
	.st28{fill:#BFBAF0;}
	.st29{fill:#5E4194;}
	.st30{fill:#755AC1;}
	.st31{fill:#A8A3D2;}
	.st32{fill:#5D75C2;}
	.st33{fill:#6D85CF;}
	.st34{fill:#89C7DE;}
	.st35{opacity:0.5;}
	.st36{fill:#FF001F;}
	.st37{fill:#97C1FF;}
	.st38{fill:#FFF203;}
	.st39{fill:#0086FF;}
	.st40{display:none;}
	.st41{display:inline;fill:#370C45;}
	.st42{display:inline;fill:#FE9867;}
	.st43{display:inline;fill:#FA559F;}
	.st44{display:inline;fill:#EF3A65;}
	.st45{display:inline;fill:#CC3154;}
	.st46{display:inline;fill:#FF7261;}
	.st47{display:inline;fill:#8B0975;}
	.st48{display:inline;fill:#380762;}
	.st49{display:inline;fill:#B947C0;}
	.st50{display:inline;fill:#BD3151;}
	.st51{display:inline;fill:#BF2C4E;}
	.st52{display:inline;fill:#FFAD6E;}
	.st53{fill:#FCEB6A;}
	.st54{fill:#F2C50F;}
	.st55{fill:#8ADD8A;}
	.st56{fill:#00FF00;}
	.st57{fill:#07D607;}
	.st58{fill:#05CC0A;}
	.st59{fill:#482A63;}
	.st60{fill:#DE990E;}
	.st61{fill:#009DFF;}
	.st62{fill:#E8AB0E;}
	.st63{fill:#72A614;}
	.st64{fill:#A7E007;}
	.st65{fill:#699C18;}
	.st66{fill:#6D9E16;}
	.st67{fill:#84BF15;}
	.st68{fill:#3A4F93;}
	.st69{fill:#2D3B70;}
	.st70{fill:none;stroke:#1B2442;stroke-miterlimit:10;}
	.st71{opacity:0;fill:#171A33;}
	.st72{fill:#FFFB00;}
	.st73{opacity:0.2;}
	.st74{fill:#42061A;}
</style>
<g>
	<rect x="38.3611908" y="61.5438881" class="st8" width="1.6527084" height="1.7375637"/>
	<rect x="36.6241112" y="63.2814522" class="st8" width="1.7370812" height="1.6568104"/>
	<rect x="36.6241112" y="61.5438881" class="st26" width="1.7370812" height="1.7375637"/>
	<rect x="36.6241112" y="59.8916626" class="st8" width="1.7370812" height="1.6522259"/>
	<rect x="37.5096626" y="70.0271683" class="st9" width="1.6568104" height="1.6523063"/>
	<rect x="34.9673004" y="61.5438881" class="st8" width="1.6568104" height="1.7375637"/>
	<rect x="34.9673004" y="54.8407974" class="st9" width="1.6568104" height="1.6564888"/>
	<rect x="35.8527718" y="71.6794739" class="st9" width="1.6568909" height="1.7415854"/>
	<rect x="35.8527718" y="70.0271683" class="st13" width="1.6568909" height="1.6523063"/>
	<rect x="35.8527718" y="68.3702774" class="st9" width="1.6568909" height="1.6568909"/>
	<rect x="33.3104095" y="56.4972878" class="st9" width="1.6568909" height="1.7374834"/>
	<rect x="33.3104095" y="54.8407974" class="st27" width="1.6568909" height="1.6564888"/>
	<rect x="33.3104095" y="53.1880913" class="st9" width="1.6568909" height="1.6527084"/>
	<rect x="34.1156883" y="70.0271683" class="st9" width="1.7370812" height="1.6523063"/>
	<rect x="31.573328" y="54.8407974" class="st9" width="1.7370812" height="1.6564888"/>
	<rect x="30.7680473" y="77.192421" class="st8" width="1.6527084" height="1.6564888"/>
	<rect x="29.1111565" y="78.8489075" class="st8" width="1.6568909" height="1.7374834"/>
	<rect x="29.1111565" y="77.192421" class="st26" width="1.6568909" height="1.6564888"/>
	<rect x="29.1111565" y="75.539711" class="st8" width="1.6568909" height="1.6527084"/>
	<rect x="26.992588" y="67.9465637" class="st9" width="1.6568104" height="1.6568909"/>
	<rect x="26.992588" y="66.2094803" class="st9" width="1.6568104" height="1.7370812"/>
	<rect x="26.992588" y="64.5526733" class="st9" width="1.6568104" height="1.6568104"/>
	<rect x="26.992588" y="62.8151093" class="st9" width="1.6568104" height="1.7375637"/>
	<rect x="26.992588" y="49.7941971" class="st9" width="1.6568104" height="1.6522259"/>
	<rect x="27.3740749" y="77.192421" class="st8" width="1.7370812" height="1.6564888"/>
	<rect x="25.2554264" y="69.6034546" class="st9" width="1.7371616" height="1.6522259"/>
	<rect x="25.2554264" y="67.9465637" class="st16" width="1.7371616" height="1.6568909"/>
	<rect x="25.2554264" y="66.2094803" class="st16" width="1.7371616" height="1.7370812"/>
	<rect x="25.2554264" y="64.5526733" class="st22" width="1.7371616" height="1.6568104"/>
	<rect x="25.2554264" y="62.8151093" class="st16" width="1.7371616" height="1.7375637"/>
	<rect x="25.2554264" y="61.1628036" class="st9" width="1.7371616" height="1.6523063"/>
	<rect x="25.2554264" y="51.4464226" class="st9" width="1.7371616" height="1.7416657"/>
	<rect x="25.2554264" y="49.7941971" class="st27" width="1.7371616" height="1.6522259"/>
	<rect x="25.2554264" y="48.056633" class="st9" width="1.7371616" height="1.7375637"/>
	<rect x="23.5986156" y="69.6034546" class="st9" width="1.6568104" height="1.6522259"/>
	<rect x="23.5986156" y="67.9465637" class="st19" width="1.6568104" height="1.6568909"/>
	<rect x="23.5986156" y="66.2094803" class="st16" width="1.6568104" height="1.7370812"/>
	<rect x="23.5986156" y="64.5526733" class="st19" width="1.6568104" height="1.6568104"/>
	<rect x="23.5986156" y="62.8151093" class="st16" width="1.6568104" height="1.7375637"/>
	<rect x="23.5986156" y="61.1628036" class="st16" width="1.6568104" height="1.6523063"/>
	<rect x="23.5986156" y="59.5059929" class="st9" width="1.6568104" height="1.6568104"/>
	<rect x="23.5986156" y="49.7941971" class="st9" width="1.6568104" height="1.6522259"/>
	<rect x="21.8615341" y="71.2556839" class="st9" width="1.7370812" height="1.7416657"/>
	<rect x="21.8615341" y="69.6034546" class="st22" width="1.7370812" height="1.6522259"/>
	<rect x="21.8615341" y="67.9465637" class="st25" width="1.7370812" height="1.6568909"/>
	<rect x="21.8615341" y="66.2094803" class="st22" width="1.7370812" height="1.7370812"/>
	<rect x="21.8615341" y="64.5526733" class="st19" width="1.7370812" height="1.6568104"/>
	<rect x="21.8615341" y="62.8151093" class="st22" width="1.7370812" height="1.7375637"/>
	<rect x="21.8615341" y="61.1628036" class="st16" width="1.7370812" height="1.6523063"/>
	<rect x="21.8615341" y="59.5059929" class="st9" width="1.7370812" height="1.6568104"/>
	<rect x="20.2046432" y="78.4251099" class="st8" width="1.6568909" height="1.6568909"/>
	<rect x="20.2046432" y="71.2556839" class="st9" width="1.6568909" height="1.7416657"/>
	<rect x="20.2046432" y="69.6034546" class="st16" width="1.6568909" height="1.6522259"/>
	<rect x="20.2046432" y="67.9465637" class="st19" width="1.6568909" height="1.6568909"/>
	<rect x="20.2046432" y="66.2094803" class="st19" width="1.6568909" height="1.7370812"/>
	<rect x="20.2046432" y="64.5526733" class="st25" width="1.6568909" height="1.6568104"/>
	<rect x="20.2046432" y="62.8151093" class="st19" width="1.6568909" height="1.7375637"/>
	<rect x="20.2046432" y="61.1628036" class="st19" width="1.6568909" height="1.6523063"/>
	<rect x="20.2046432" y="59.5059929" class="st16" width="1.6568909" height="1.6568104"/>
	<rect x="20.2046432" y="57.7684288" class="st9" width="1.6568909" height="1.7375637"/>
	<rect x="18.5519352" y="80.0820007" class="st8" width="1.6527084" height="1.7370812"/>
	<rect x="18.5519352" y="78.4251099" class="st26" width="1.6527084" height="1.6568909"/>
	<rect x="18.5519352" y="76.6875458" class="st8" width="1.6527084" height="1.7375637"/>
	<rect x="18.5519352" y="71.2556839" class="st9" width="1.6527084" height="1.7416657"/>
	<rect x="18.5519352" y="69.6034546" class="st16" width="1.6527084" height="1.6522259"/>
	<rect x="18.5519352" y="67.9465637" class="st19" width="1.6527084" height="1.6568909"/>
	<rect x="18.5519352" y="66.2094803" class="st25" width="1.6527084" height="1.7370812"/>
	<rect x="18.5519352" y="64.5526733" class="st13" width="1.6527084" height="1.6568104"/>
	<rect x="18.5519352" y="62.8151093" class="st25" width="1.6527084" height="1.7375637"/>
	<rect x="18.5519352" y="61.1628036" class="st22" width="1.6527084" height="1.6523063"/>
	<rect x="18.5519352" y="59.5059929" class="st22" width="1.6527084" height="1.6568104"/>
	<rect x="18.5519352" y="57.7684288" class="st9" width="1.6527084" height="1.7375637"/>
	<rect x="16.8148537" y="78.4251099" class="st8" width="1.7370812" height="1.6568909"/>
	<rect x="16.8148537" y="71.2556839" class="st9" width="1.7370812" height="1.7416657"/>
	<rect x="16.8148537" y="69.6034546" class="st16" width="1.7370812" height="1.6522259"/>
	<rect x="16.8148537" y="67.9465637" class="st22" width="1.7370812" height="1.6568909"/>
	<rect x="16.8148537" y="66.2094803" class="st19" width="1.7370812" height="1.7370812"/>
	<rect x="16.8148537" y="64.5526733" class="st25" width="1.7370812" height="1.6568104"/>
	<rect x="16.8148537" y="62.8151093" class="st19" width="1.7370812" height="1.7375637"/>
	<rect x="16.8148537" y="61.1628036" class="st19" width="1.7370812" height="1.6523063"/>
	<rect x="16.8148537" y="59.5059929" class="st16" width="1.7370812" height="1.6568104"/>
	<rect x="16.8148537" y="57.7684288" class="st9" width="1.7370812" height="1.7375637"/>
	<rect x="15.1580439" y="69.6034546" class="st9" width="1.6568104" height="1.6522259"/>
	<rect x="15.1580439" y="67.9465637" class="st16" width="1.6568104" height="1.6568909"/>
	<rect x="15.1580439" y="66.2094803" class="st22" width="1.6568104" height="1.7370812"/>
	<rect x="15.1580439" y="64.5526733" class="st19" width="1.6568104" height="1.6568104"/>
	<rect x="15.1580439" y="62.8151093" class="st22" width="1.6568104" height="1.7375637"/>
	<rect x="15.1580439" y="61.1628036" class="st16" width="1.6568104" height="1.6523063"/>
	<rect x="15.1580439" y="59.5059929" class="st16" width="1.6568104" height="1.6568104"/>
	<rect x="15.1580439" y="57.7684288" class="st9" width="1.6568104" height="1.7375637"/>
	<rect x="17.7004051" y="48.056633" class="st8" width="1.6568104" height="1.7375637"/>
	<rect x="13.501153" y="69.6034546" class="st9" width="1.6568909" height="1.6522259"/>
	<rect x="13.501153" y="67.9465637" class="st16" width="1.6568909" height="1.6568909"/>
	<rect x="13.501153" y="66.2094803" class="st16" width="1.6568909" height="1.7370812"/>
	<rect x="13.501153" y="64.5526733" class="st19" width="1.6568909" height="1.6568104"/>
	<rect x="13.501153" y="62.8151093" class="st16" width="1.6568909" height="1.7375637"/>
	<rect x="13.501153" y="61.1628036" class="st9" width="1.6568909" height="1.6523063"/>
	<rect x="13.501153" y="59.5059929" class="st9" width="1.6568909" height="1.6568104"/>
	<rect x="16.0435143" y="49.7941971" class="st8" width="1.6568909" height="1.6522259"/>
	<rect x="16.0435143" y="48.056633" class="st26" width="1.6568909" height="1.7375637"/>
	<rect x="16.0435143" y="46.4002266" class="st8" width="1.6568909" height="1.6564083"/>
	<rect x="9.2217093" y="75.539711" class="st9" width="1.7370812" height="1.6527084"/>
	<rect x="11.7640715" y="66.2094803" class="st9" width="1.7370812" height="1.7370812"/>
	<rect x="11.7640715" y="64.5526733" class="st9" width="1.7370812" height="1.6568104"/>
	<rect x="11.7640715" y="62.8151093" class="st9" width="1.7370812" height="1.7375637"/>
	<rect x="14.3064337" y="48.056633" class="st8" width="1.7370812" height="1.7375637"/>
	<rect x="14.3064337" y="46.4002266" class="st28" width="1.7370812" height="1.6564083"/>
	<rect x="14.3064337" y="44.7434158" class="st8" width="1.7370812" height="1.6568104"/>
	<rect x="7.5690007" y="77.192421" class="st9" width="1.6527084" height="1.6564888"/>
	<rect x="7.5690007" y="75.539711" class="st19" width="1.6527084" height="1.6527084"/>
	<rect x="7.5690007" y="73.7980423" class="st9" width="1.6527084" height="1.7416657"/>
	<rect x="12.6537256" y="46.4002266" class="st8" width="1.6527084" height="1.6564083"/>
	<rect x="5.8318391" y="78.8489075" class="st9" width="1.7371616" height="1.7374834"/>
	<rect x="5.8318391" y="77.192421" class="st22" width="1.7371616" height="1.6564888"/>
	<rect x="5.8318391" y="75.539711" class="st25" width="1.7371616" height="1.6527084"/>
	<rect x="5.8318391" y="73.7980423" class="st22" width="1.7371616" height="1.7416657"/>
	<rect x="5.8318391" y="72.1458206" class="st9" width="1.7371616" height="1.6522259"/>
	<rect x="7.1030602" y="53.1880913" class="st9" width="1.7370812" height="1.6527084"/>
	<rect x="4.1750288" y="77.192421" class="st9" width="1.6568104" height="1.6564888"/>
	<rect x="4.1750288" y="75.539711" class="st19" width="1.6568104" height="1.6527084"/>
	<rect x="4.1750288" y="73.7980423" class="st9" width="1.6568104" height="1.7416657"/>
	<rect x="5.4461694" y="54.8407974" class="st9" width="1.6568909" height="1.6564888"/>
	<rect x="5.4461694" y="53.1880913" class="st13" width="1.6568909" height="1.6527084"/>
	<rect x="5.4461694" y="51.4464226" class="st9" width="1.6568909" height="1.7416657"/>
	<rect x="2.5182183" y="75.539711" class="st9" width="1.6568104" height="1.6527084"/>
	<rect x="5.0605803" y="62.8151093" class="st8" width="1.6568104" height="1.7375637"/>
	<rect x="3.7893591" y="53.1880913" class="st9" width="1.6568104" height="1.6527084"/>
	<rect x="3.3234189" y="64.5526733" class="st8" width="1.7371616" height="1.6568104"/>
	<rect x="3.3234189" y="62.8151093" class="st26" width="1.7371616" height="1.7375637"/>
	<rect x="3.3234189" y="61.1628036" class="st8" width="1.7371616" height="1.6523063"/>
	<rect x="1.6666085" y="64.5526733" class="st8" width="1.6568104" height="1.6568104"/>
	<rect x="1.6666085" y="62.8151093" class="st28" width="1.6568104" height="1.7375637"/>
	<rect x="1.6666085" y="61.1628036" class="st8" width="1.6568104" height="1.6523063"/>
	<rect x="0.0139" y="62.8151093" class="st8" width="1.6527084" height="1.7375637"/>
</g>
<g>
	<rect x="37.9678993" y="33.7533989" class="st63" width="2.0599" height="2.0537"/>
	<rect x="37.9678993" y="31.6933994" class="st64" width="2.0599" height="2.0599999"/>
	<rect x="37.9678993" y="27.4727001" class="st29" width="2.0599" height="2.0599999"/>
	<rect x="37.9678993" y="19.0384998" class="st28" width="2.0599" height="2.0548"/>
	<rect x="37.9678993" y="16.8736" class="st28" width="2.0599" height="2.1649001"/>
	<rect x="37.9678993" y="14.8188" class="st28" width="2.0599" height="2.0548"/>
	<rect x="37.9678993" y="12.6590996" class="st28" width="2.0599" height="2.1596999"/>
	<rect x="35.9131012" y="35.8070984" class="st63" width="2.0548" height="2.1608"/>
	<rect x="35.9131012" y="29.5326996" class="st63" width="2.0548" height="2.1607001"/>
	<rect x="35.9131012" y="27.4727001" class="st30" width="2.0548" height="2.0599999"/>
	<rect x="35.9131012" y="21.0932999" class="st28" width="2.0548" height="2.1596999"/>
	<rect x="35.9131012" y="19.0384998" class="st12" width="2.0548" height="2.0548"/>
	<rect x="35.9131012" y="16.8736" class="st12" width="2.0548" height="2.1649001"/>
	<rect x="35.9131012" y="14.8188" class="st12" width="2.0548" height="2.0548"/>
	<rect x="35.9131012" y="12.6590996" class="st12" width="2.0548" height="2.1596999"/>
	<rect x="35.9131012" y="10.5991001" class="st28" width="2.0548" height="2.0599999"/>
	<rect x="35.9131012" y="8.4393997" class="st28" width="2.0548" height="2.1596999"/>
	<rect x="33.7481995" y="31.6933994" class="st30" width="2.1649001" height="2.0599999"/>
	<rect x="33.7481995" y="29.5326996" class="st63" width="2.1649001" height="2.1607001"/>
	<rect x="33.7481995" y="27.4727001" class="st26" width="2.1649001" height="2.0599999"/>
	<rect x="33.7481995" y="23.2530003" class="st28" width="2.1649001" height="2.0599999"/>
	<rect x="33.7481995" y="21.0932999" class="st12" width="2.1649001" height="2.1596999"/>
	<rect x="33.7481995" y="19.0384998" class="st12" width="2.1649001" height="2.0548"/>
	<rect x="33.7481995" y="16.8736" class="st12" width="2.1649001" height="2.1649001"/>
	<rect x="33.7481995" y="14.8188" class="st12" width="2.1649001" height="2.0548"/>
	<rect x="33.7481995" y="12.6590996" class="st12" width="2.1649001" height="2.1596999"/>
	<rect x="33.7481995" y="10.5991001" class="st12" width="2.1649001" height="2.0599999"/>
	<rect x="33.7481995" y="8.4393997" class="st12" width="2.1649001" height="2.1596999"/>
	<rect x="33.7481995" y="6.3793998" class="st28" width="2.1649001" height="2.0599999"/>
	<rect x="31.6933994" y="37.9678993" class="st65" width="2.0548" height="2.0589001"/>
	<rect x="31.6933994" y="35.8070984" class="st65" width="2.0548" height="2.1608"/>
	<rect x="31.6933994" y="33.7533989" class="st64" width="2.0548" height="2.0537"/>
	<rect x="31.6933994" y="31.6933994" class="st26" width="2.0548" height="2.0599999"/>
	<rect x="31.6933994" y="29.5326996" class="st65" width="2.0548" height="2.1607001"/>
	<rect x="31.6933994" y="27.4727001" class="st65" width="2.0548" height="2.0599999"/>
	<rect x="31.6933994" y="25.3129997" class="st28" width="2.0548" height="2.1596999"/>
	<rect x="31.6933994" y="23.2530003" class="st12" width="2.0548" height="2.0599999"/>
	<rect x="31.6933994" y="21.0932999" class="st12" width="2.0548" height="2.1596999"/>
	<rect x="31.6933994" y="19.0384998" class="st65" width="2.0548" height="2.0548"/>
	<rect x="31.6933994" y="16.8736" class="st65" width="2.0548" height="2.1649001"/>
	<rect x="31.6933994" y="14.8188" class="st12" width="2.0548" height="2.0548"/>
	<rect x="31.6933994" y="12.6590996" class="st12" width="2.0548" height="2.1596999"/>
	<rect x="31.6933994" y="10.5991001" class="st12" width="2.0548" height="2.0599999"/>
	<rect x="31.6933994" y="8.4393997" class="st12" width="2.0548" height="2.1596999"/>
	<rect x="31.6933994" y="6.3793998" class="st12" width="2.0548" height="2.0599999"/>
	<rect x="31.6933994" y="4.2196999" class="st28" width="2.0548" height="2.1596999"/>
	<rect x="29.5335999" y="31.6933994" class="st65" width="2.1598001" height="2.0599999"/>
	<rect x="29.5335999" y="29.5326996" class="st29" width="2.1598001" height="2.1607001"/>
	<rect x="29.5335999" y="27.4727001" class="st31" width="2.1598001" height="2.0599999"/>
	<rect x="29.5335999" y="25.3129997" class="st28" width="2.1598001" height="2.1596999"/>
	<rect x="29.5335999" y="23.2530003" class="st12" width="2.1598001" height="2.0599999"/>
	<rect x="29.5335999" y="21.0932999" class="st65" width="2.1598001" height="2.1596999"/>
	<rect x="29.5335999" y="19.0384998" class="st65" width="2.1598001" height="2.0548"/>
	<rect x="29.5335999" y="16.8736" class="st65" width="2.1598001" height="2.1649001"/>
	<rect x="29.5335999" y="14.8188" class="st65" width="2.1598001" height="2.0548"/>
	<rect x="29.5335999" y="12.6590996" class="st66" width="2.1598001" height="2.1596999"/>
	<rect x="29.5335999" y="10.5991001" class="st12" width="2.1598001" height="2.0599999"/>
	<rect x="29.5335999" y="8.4393997" class="st12" width="2.1598001" height="2.1596999"/>
	<rect x="29.5335999" y="6.3793998" class="st12" width="2.1598001" height="2.0599999"/>
	<rect x="29.5335999" y="4.2196999" class="st12" width="2.1598001" height="2.1596999"/>
	<rect x="29.5335999" y="2.1598001" class="st28" width="2.1598001" height="2.0599"/>
	<rect x="27.4736996" y="31.6933994" class="st26" width="2.0599" height="2.0599999"/>
	<rect x="27.4736996" y="29.5326996" class="st65" width="2.0599" height="2.1607001"/>
	<rect x="27.4736996" y="27.4727001" class="st65" width="2.0599" height="2.0599999"/>
	<rect x="27.4736996" y="25.3129997" class="st28" width="2.0599" height="2.1596999"/>
	<rect x="27.4736996" y="23.2530003" class="st65" width="2.0599" height="2.0599999"/>
	<rect x="27.4736996" y="21.0932999" class="st65" width="2.0599" height="2.1596999"/>
	<rect x="27.4736996" y="19.0384998" class="st67" width="2.0599" height="2.0548"/>
	<rect x="27.4736996" y="16.8736" class="st67" width="2.0599" height="2.1649001"/>
	<rect x="27.4736996" y="14.8188" class="st67" width="2.0599" height="2.0548"/>
	<rect x="27.4736996" y="12.6590996" class="st67" width="2.0599" height="2.1596999"/>
	<rect x="27.4736996" y="10.5991001" class="st65" width="2.0599" height="2.0599999"/>
	<rect x="27.4736996" y="8.4393997" class="st12" width="2.0599" height="2.1596999"/>
	<rect x="27.4736996" y="6.3793998" class="st12" width="2.0599" height="2.0599999"/>
	<rect x="27.4736996" y="4.2196999" class="st12" width="2.0599" height="2.1596999"/>
	<rect x="27.4736996" y="2.1598001" class="st28" width="2.0599" height="2.0599"/>
	<rect x="25.3139" y="37.9678993" class="st67" width="2.1598001" height="2.0589001"/>
	<rect x="25.3139" y="35.8070984" class="st67" width="2.1598001" height="2.1608"/>
	<rect x="25.3139" y="33.7533989" class="st64" width="2.1598001" height="2.0537"/>
	<rect x="25.3139" y="31.6933994" class="st30" width="2.1598001" height="2.0599999"/>
	<rect x="25.3139" y="29.5326996" class="st29" width="2.1598001" height="2.1607001"/>
	<rect x="25.3139" y="27.4727001" class="st31" width="2.1598001" height="2.0599999"/>
	<rect x="25.3139" y="25.3129997" class="st28" width="2.1598001" height="2.1596999"/>
	<rect x="25.3139" y="23.2530003" class="st65" width="2.1598001" height="2.0599999"/>
	<rect x="25.3139" y="21.0932999" class="st67" width="2.1598001" height="2.1596999"/>
	<rect x="25.3139" y="19.0384998" class="st67" width="2.1598001" height="2.0548"/>
	<rect x="25.3139" y="16.8736" class="st13" width="2.1598001" height="2.1649001"/>
	<rect x="25.3139" y="14.8188" class="st13" width="2.1598001" height="2.0548"/>
	<rect x="25.3139" y="12.6590996" class="st67" width="2.1598001" height="2.1596999"/>
	<rect x="25.3139" y="10.5991001" class="st67" width="2.1598001" height="2.0599999"/>
	<rect x="25.3139" y="8.4393997" class="st65" width="2.1598001" height="2.1596999"/>
	<rect x="25.3139" y="6.3793998" class="st12" width="2.1598001" height="2.0599999"/>
	<rect x="25.3139" y="4.2196999" class="st12" width="2.1598001" height="2.1596999"/>
	<rect x="25.3139" y="2.1598001" class="st12" width="2.1598001" height="2.0599"/>
	<rect x="25.3139" class="st28" width="2.1598001" height="2.1598001"/>
	<rect x="23.2539997" y="40.0267982" class="st67" width="2.0599" height="2.1607001"/>
	<rect x="23.2539997" y="31.6933994" class="st67" width="2.0599" height="2.0599999"/>
	<rect x="23.2539997" y="29.5326996" class="st65" width="2.0599" height="2.1607001"/>
	<rect x="23.2539997" y="27.4727001" class="st65" width="2.0599" height="2.0599999"/>
	<rect x="23.2539997" y="25.3129997" class="st28" width="2.0599" height="2.1596999"/>
	<rect x="23.2539997" y="23.2530003" class="st67" width="2.0599" height="2.0599999"/>
	<rect x="23.2539997" y="21.0932999" class="st67" width="2.0599" height="2.1596999"/>
	<rect x="23.2539997" y="19.0384998" class="st13" width="2.0599" height="2.0548"/>
	<rect x="23.2539997" y="16.8736" class="st13" width="2.0599" height="2.1649001"/>
	<rect x="23.2539997" y="14.8188" class="st13" width="2.0599" height="2.0548"/>
	<rect x="23.2539997" y="12.6590996" class="st13" width="2.0599" height="2.1596999"/>
	<rect x="23.2539997" y="10.5991001" class="st67" width="2.0599" height="2.0599999"/>
	<rect x="23.2539997" y="8.4393997" class="st67" width="2.0599" height="2.1596999"/>
	<rect x="23.2539997" y="6.3793998" class="st65" width="2.0599" height="2.0599999"/>
	<rect x="23.2539997" y="4.2196999" class="st12" width="2.0599" height="2.1596999"/>
	<rect x="23.2539997" y="2.1598001" class="st12" width="2.0599" height="2.0599"/>
	<rect x="23.2539997" class="st28" width="2.0599" height="2.1598001"/>
	<rect x="21.0942993" y="31.6933994" class="st30" width="2.1596999" height="2.0599999"/>
	<rect x="21.0942993" y="29.5326996" class="st29" width="2.1596999" height="2.1607001"/>
	<rect x="21.0942993" y="27.4727001" class="st31" width="2.1596999" height="2.0599999"/>
	<rect x="21.0942993" y="25.3129997" class="st28" width="2.1596999" height="2.1596999"/>
	<rect x="21.0942993" y="23.2530003" class="st67" width="2.1596999" height="2.0599999"/>
	<rect x="21.0942993" y="21.0932999" class="st13" width="2.1596999" height="2.1596999"/>
	<rect x="21.0942993" y="19.0384998" class="st13" width="2.1596999" height="2.0548"/>
	<rect x="21.0942993" y="16.8736" class="st9" width="2.1596999" height="2.1649001"/>
	<rect x="21.0942993" y="14.8188" class="st9" width="2.1596999" height="2.0548"/>
	<rect x="21.0942993" y="12.6590996" class="st13" width="2.1596999" height="2.1596999"/>
	<rect x="21.0942993" y="10.5991001" class="st13" width="2.1596999" height="2.0599999"/>
	<rect x="21.0942993" y="8.4393997" class="st67" width="2.1596999" height="2.1596999"/>
	<rect x="21.0942993" y="6.3793998" class="st65" width="2.1596999" height="2.0599999"/>
	<rect x="21.0942993" y="4.2196999" class="st12" width="2.1596999" height="2.1596999"/>
	<rect x="21.0942993" y="2.1598001" class="st12" width="2.1596999" height="2.0599"/>
	<rect x="21.0942993" class="st28" width="2.1596999" height="2.1598001"/>
	<rect x="19.0342999" y="40.0267982" class="st64" width="2.0599999" height="2.1607001"/>
	<rect x="19.0342999" y="33.7533989" class="st64" width="2.0599999" height="2.0537"/>
	<rect x="19.0342999" y="31.6933994" class="st64" width="2.0599999" height="2.0599999"/>
	<rect x="19.0342999" y="29.5326996" class="st65" width="2.0599999" height="2.1607001"/>
	<rect x="19.0342999" y="27.4727001" class="st65" width="2.0599999" height="2.0599999"/>
	<rect x="19.0342999" y="25.3129997" class="st28" width="2.0599999" height="2.1596999"/>
	<rect x="19.0342999" y="23.2530003" class="st67" width="2.0599999" height="2.0599999"/>
	<rect x="19.0342999" y="21.0932999" class="st13" width="2.0599999" height="2.1596999"/>
	<rect x="19.0342999" y="19.0384998" class="st13" width="2.0599999" height="2.0548"/>
	<rect x="19.0342999" y="16.8736" class="st9" width="2.0599999" height="2.1649001"/>
	<rect x="19.0342999" y="14.8188" class="st9" width="2.0599999" height="2.0548"/>
	<rect x="19.0342999" y="12.6590996" class="st13" width="2.0599999" height="2.1596999"/>
	<rect x="19.0342999" y="10.5991001" class="st13" width="2.0599999" height="2.0599999"/>
	<rect x="19.0342999" y="8.4393997" class="st67" width="2.0599999" height="2.1596999"/>
	<rect x="19.0342999" y="6.3793998" class="st67" width="2.0599999" height="2.0599999"/>
	<rect x="19.0342999" y="4.2196999" class="st12" width="2.0599999" height="2.1596999"/>
	<rect x="19.0342999" y="2.1598001" class="st12" width="2.0599999" height="2.0599"/>
	<rect x="19.0342999" class="st28" width="2.0599999" height="2.1598001"/>
	<rect x="16.8745995" y="37.9678993" class="st64" width="2.1596999" height="2.0589001"/>
	<rect x="16.8745995" y="35.8070984" class="st64" width="2.1596999" height="2.1608"/>
	<rect x="16.8745995" y="31.6933994" class="st30" width="2.1596999" height="2.0599999"/>
	<rect x="16.8745995" y="29.5326996" class="st29" width="2.1596999" height="2.1607001"/>
	<rect x="16.8745995" y="27.4727001" class="st31" width="2.1596999" height="2.0599999"/>
	<rect x="16.8745995" y="25.3129997" class="st28" width="2.1596999" height="2.1596999"/>
	<rect x="16.8745995" y="23.2530003" class="st67" width="2.1596999" height="2.0599999"/>
	<rect x="16.8745995" y="21.0932999" class="st67" width="2.1596999" height="2.1596999"/>
	<rect x="16.8745995" y="19.0384998" class="st13" width="2.1596999" height="2.0548"/>
	<rect x="16.8745995" y="16.8736" class="st13" width="2.1596999" height="2.1649001"/>
	<rect x="16.8745995" y="14.8188" class="st13" width="2.1596999" height="2.0548"/>
	<rect x="16.8745995" y="12.6590996" class="st13" width="2.1596999" height="2.1596999"/>
	<rect x="16.8745995" y="10.5991001" class="st67" width="2.1596999" height="2.0599999"/>
	<rect x="16.8745995" y="8.4393997" class="st67" width="2.1596999" height="2.1596999"/>
	<rect x="16.8745995" y="6.3793998" class="st67" width="2.1596999" height="2.0599999"/>
	<rect x="16.8745995" y="4.2196999" class="st12" width="2.1596999" height="2.1596999"/>
	<rect x="16.8745995" y="2.1598001" class="st12" width="2.1596999" height="2.0599"/>
	<rect x="16.8745995" class="st28" width="2.1596999" height="2.1598001"/>
	<rect x="14.8198004" y="31.6933994" class="st30" width="2.0548" height="2.0599999"/>
	<rect x="14.8198004" y="29.5326996" class="st65" width="2.0548" height="2.1607001"/>
	<rect x="14.8198004" y="27.4727001" class="st65" width="2.0548" height="2.0599999"/>
	<rect x="14.8198004" y="25.3129997" class="st28" width="2.0548" height="2.1596999"/>
	<rect x="14.8198004" y="23.2530003" class="st67" width="2.0548" height="2.0599999"/>
	<rect x="14.8198004" y="21.0932999" class="st67" width="2.0548" height="2.1596999"/>
	<rect x="14.8198004" y="19.0384998" class="st67" width="2.0548" height="2.0548"/>
	<rect x="14.8198004" y="16.8736" class="st13" width="2.0548" height="2.1649001"/>
	<rect x="14.8198004" y="14.8188" class="st13" width="2.0548" height="2.0548"/>
	<rect x="14.8198004" y="12.6590996" class="st67" width="2.0548" height="2.1596999"/>
	<rect x="14.8198004" y="10.5991001" class="st67" width="2.0548" height="2.0599999"/>
	<rect x="14.8198004" y="8.4393997" class="st67" width="2.0548" height="2.1596999"/>
	<rect x="14.8198004" y="6.3793998" class="st64" width="2.0548" height="2.0599999"/>
	<rect x="14.8198004" y="4.2196999" class="st12" width="2.0548" height="2.1596999"/>
	<rect x="14.8198004" y="2.1598001" class="st12" width="2.0548" height="2.0599"/>
	<rect x="14.8198004" class="st28" width="2.0548" height="2.1598001"/>
	<rect x="12.6599998" y="31.6933994" class="st65" width="2.1598001" height="2.0599999"/>
	<rect x="12.6599998" y="29.5326996" class="st29" width="2.1598001" height="2.1607001"/>
	<rect x="12.6599998" y="27.4727001" class="st31" width="2.1598001" height="2.0599999"/>
	<rect x="12.6599998" y="25.3129997" class="st28" width="2.1598001" height="2.1596999"/>
	<rect x="12.6599998" y="23.2530003" class="st67" width="2.1598001" height="2.0599999"/>
	<rect x="12.6599998" y="21.0932999" class="st67" width="2.1598001" height="2.1596999"/>
	<rect x="12.6599998" y="19.0384998" class="st67" width="2.1598001" height="2.0548"/>
	<rect x="12.6599998" y="16.8736" class="st67" width="2.1598001" height="2.1649001"/>
	<rect x="12.6599998" y="14.8188" class="st67" width="2.1598001" height="2.0548"/>
	<rect x="12.6599998" y="12.6590996" class="st67" width="2.1598001" height="2.1596999"/>
	<rect x="12.6599998" y="10.5991001" class="st67" width="2.1598001" height="2.0599999"/>
	<rect x="12.6599998" y="8.4393997" class="st64" width="2.1598001" height="2.1596999"/>
	<rect x="12.6599998" y="6.3793998" class="st12" width="2.1598001" height="2.0599999"/>
	<rect x="12.6599998" y="4.2196999" class="st12" width="2.1598001" height="2.1596999"/>
	<rect x="12.6599998" y="2.1598001" class="st12" width="2.1598001" height="2.0599"/>
	<rect x="12.6599998" class="st28" width="2.1598001" height="2.1598001"/>
	<rect x="10.6000996" y="37.9678993" class="st65" width="2.0599" height="2.0589001"/>
	<rect x="10.6000996" y="33.7533989" class="st64" width="2.0599" height="2.0537"/>
	<rect x="10.6000996" y="31.6933994" class="st30" width="2.0599" height="2.0599999"/>
	<rect x="10.6000996" y="29.5326996" class="st30" width="2.0599" height="2.1607001"/>
	<rect x="10.6000996" y="27.4727001" class="st65" width="2.0599" height="2.0599999"/>
	<rect x="10.6000996" y="25.3129997" class="st28" width="2.0599" height="2.1596999"/>
	<rect x="10.6000996" y="23.2530003" class="st64" width="2.0599" height="2.0599999"/>
	<rect x="10.6000996" y="21.0932999" class="st67" width="2.0599" height="2.1596999"/>
	<rect x="10.6000996" y="19.0384998" class="st67" width="2.0599" height="2.0548"/>
	<rect x="10.6000996" y="16.8736" class="st67" width="2.0599" height="2.1649001"/>
	<rect x="10.6000996" y="14.8188" class="st67" width="2.0599" height="2.0548"/>
	<rect x="10.6000996" y="12.6590996" class="st67" width="2.0599" height="2.1596999"/>
	<rect x="10.6000996" y="10.5991001" class="st64" width="2.0599" height="2.0599999"/>
	<rect x="10.6000996" y="8.4393997" class="st12" width="2.0599" height="2.1596999"/>
	<rect x="10.6000996" y="6.3793998" class="st12" width="2.0599" height="2.0599999"/>
	<rect x="10.6000996" y="4.2196999" class="st12" width="2.0599" height="2.1596999"/>
	<rect x="10.6000996" y="2.1598001" class="st28" width="2.0599" height="2.0599"/>
	<rect x="8.4392996" y="35.8070984" class="st64" width="2.1608" height="2.1608"/>
	<rect x="8.4392996" y="31.6933994" class="st26" width="2.1608" height="2.0599999"/>
	<rect x="8.4392996" y="29.5326996" class="st65" width="2.1608" height="2.1607001"/>
	<rect x="8.4392996" y="27.4727001" class="st28" width="2.1608" height="2.0599999"/>
	<rect x="8.4392996" y="25.3129997" class="st28" width="2.1608" height="2.1596999"/>
	<rect x="8.4392996" y="23.2530003" class="st12" width="2.1608" height="2.0599999"/>
	<rect x="8.4392996" y="21.0932999" class="st64" width="2.1608" height="2.1596999"/>
	<rect x="8.4392996" y="19.0384998" class="st67" width="2.1608" height="2.0548"/>
	<rect x="8.4392996" y="16.8736" class="st67" width="2.1608" height="2.1649001"/>
	<rect x="8.4392996" y="14.8188" class="st64" width="2.1608" height="2.0548"/>
	<rect x="8.4392996" y="12.6590996" class="st64" width="2.1608" height="2.1596999"/>
	<rect x="8.4392996" y="10.5991001" class="st12" width="2.1608" height="2.0599999"/>
	<rect x="8.4392996" y="8.4393997" class="st12" width="2.1608" height="2.1596999"/>
	<rect x="8.4392996" y="6.3793998" class="st12" width="2.1608" height="2.0599999"/>
	<rect x="8.4392996" y="4.2196999" class="st13" width="2.1608" height="2.1596999"/>
	<rect x="8.4392996" y="2.1598001" class="st28" width="2.1608" height="2.0599"/>
	<rect x="6.3804002" y="31.6933994" class="st31" width="2.0589001" height="2.0599999"/>
	<rect x="6.3804002" y="29.5326996" class="st64" width="2.0589001" height="2.1607001"/>
	<rect x="6.3804002" y="27.4727001" class="st29" width="2.0589001" height="2.0599999"/>
	<rect x="6.3804002" y="25.3129997" class="st28" width="2.0589001" height="2.1596999"/>
	<rect x="6.3804002" y="23.2530003" class="st12" width="2.0589001" height="2.0599999"/>
	<rect x="6.3804002" y="21.0932999" class="st12" width="2.0589001" height="2.1596999"/>
	<rect x="6.3804002" y="19.0384998" class="st64" width="2.0589001" height="2.0548"/>
	<rect x="6.3804002" y="16.8736" class="st64" width="2.0589001" height="2.1649001"/>
	<rect x="6.3804002" y="14.8188" class="st12" width="2.0589001" height="2.0548"/>
	<rect x="6.3804002" y="12.6590996" class="st12" width="2.0589001" height="2.1596999"/>
	<rect x="6.3804002" y="10.5991001" class="st12" width="2.0589001" height="2.0599999"/>
	<rect x="6.3804002" y="8.4393997" class="st12" width="2.0589001" height="2.1596999"/>
	<rect x="6.3804002" y="6.3793998" class="st13" width="2.0589001" height="2.0599999"/>
	<rect x="6.3804002" y="4.2196999" class="st28" width="2.0589001" height="2.1596999"/>
	<rect x="4.2196002" y="35.8070984" class="st64" width="2.1608" height="2.1608"/>
	<rect x="4.2196002" y="29.5326996" class="st64" width="2.1608" height="2.1607001"/>
	<rect x="4.2196002" y="27.4727001" class="st30" width="2.1608" height="2.0599999"/>
	<rect x="4.2196002" y="23.2530003" class="st28" width="2.1608" height="2.0599999"/>
	<rect x="4.2196002" y="21.0932999" class="st12" width="2.1608" height="2.1596999"/>
	<rect x="4.2196002" y="19.0384998" class="st12" width="2.1608" height="2.0548"/>
	<rect x="4.2196002" y="16.8736" class="st12" width="2.1608" height="2.1649001"/>
	<rect x="4.2196002" y="14.8188" class="st12" width="2.1608" height="2.0548"/>
	<rect x="4.2196002" y="12.6590996" class="st12" width="2.1608" height="2.1596999"/>
	<rect x="4.2196002" y="10.5991001" class="st12" width="2.1608" height="2.0599999"/>
	<rect x="4.2196002" y="8.4393997" class="st12" width="2.1608" height="2.1596999"/>
	<rect x="4.2196002" y="6.3793998" class="st28" width="2.1608" height="2.0599999"/>
	<rect x="2.1596999" y="33.7533989" class="st64" width="2.0599" height="2.0537"/>
	<rect x="2.1596999" y="31.6933994" class="st64" width="2.0599" height="2.0599999"/>
	<rect x="2.1596999" y="27.4727001" class="st31" width="2.0599" height="2.0599999"/>
	<rect x="2.1596999" y="21.0932999" class="st28" width="2.0599" height="2.1596999"/>
	<rect x="2.1596999" y="19.0384998" class="st12" width="2.0599" height="2.0548"/>
	<rect x="2.1596999" y="16.8736" class="st12" width="2.0599" height="2.1649001"/>
	<rect x="2.1596999" y="14.8188" class="st12" width="2.0599" height="2.0548"/>
	<rect x="2.1596999" y="12.6590996" class="st12" width="2.0599" height="2.1596999"/>
	<rect x="2.1596999" y="10.5991001" class="st28" width="2.0599" height="2.0599999"/>
	<rect x="2.1596999" y="8.4393997" class="st28" width="2.0599" height="2.1596999"/>
	<rect y="19.0384998" class="st28" width="2.1596999" height="2.0548"/>
	<rect y="16.8736" class="st28" width="2.1596999" height="2.1649001"/>
	<rect y="14.8188" class="st28" width="2.1596999" height="2.0548"/>
	<rect y="12.6590996" class="st28" width="2.1596999" height="2.1596999"/>
</g>
</svg>
