<?xml version="1.0" encoding="utf-8"?>
<!-- Generator: Adobe Illustrator 26.0.1, SVG Export Plug-In . SVG Version: 6.00 Build 0)  -->
<svg version="1.1" id="Layer_1" xmlns="http://www.w3.org/2000/svg" xmlns:xlink="http://www.w3.org/1999/xlink" x="0px" y="0px"
	 width="43px" height="76px" viewBox="0 0 43 76" style="enable-background:new 0 0 43 76;" xml:space="preserve">
<style type="text/css">
	.st0{fill:#1E2235;}
	.st1{fill:url(#SVGID_1_);}
	.st2{fill:#1B2162;}
	.st3{fill:#252D88;}
	.st4{fill:#2D37A3;}
	.st5{fill:#424DCB;}
	.st6{fill:#00B7FF;}
	.st7{fill:#0261CC;}
	.st8{fill:#380762;}
	.st9{fill:#370C45;}
	.st10{fill:#703991;}
	.st11{fill:#A046C2;}
	.st12{fill:#543175;}
	.st13{fill:#FFFFFF;}
	.st14{fill:#B947C0;}
	.st15{fill:#DB8EE3;}
	.st16{fill:#8B0975;}
	.st17{fill:#BD3151;}
	.st18{fill:#CC3154;}
	.st19{fill:#FF7261;}
	.st20{fill:#BF2C4E;}
	.st21{fill:#FE9867;}
	.st22{fill:#EF3A65;}
	.st23{fill:#FFAD6E;}
	.st24{fill:#FA559F;}
	.st25{fill:#FCE00A;}
	.st26{fill:#837CC2;}
	.st27{fill:#0284DB;}
	.st28{fill:#BFBAF0;}
	.st29{fill:#5E4194;}
	.st30{fill:#755AC1;}
	.st31{fill:#A8A3D2;}
	.st32{fill:#5D75C2;}
	.st33{fill:#6D85CF;}
	.st34{fill:#89C7DE;}
	.st35{opacity:0.5;}
	.st36{fill:#FF001F;}
	.st37{fill:#97C1FF;}
	.st38{fill:#FFF203;}
	.st39{fill:#0086FF;}
	.st40{display:none;}
	.st41{display:inline;fill:#370C45;}
	.st42{display:inline;fill:#FE9867;}
	.st43{display:inline;fill:#FA559F;}
	.st44{display:inline;fill:#EF3A65;}
	.st45{display:inline;fill:#CC3154;}
	.st46{display:inline;fill:#FF7261;}
	.st47{display:inline;fill:#8B0975;}
	.st48{display:inline;fill:#380762;}
	.st49{display:inline;fill:#B947C0;}
	.st50{display:inline;fill:#BD3151;}
	.st51{display:inline;fill:#BF2C4E;}
	.st52{display:inline;fill:#FFAD6E;}
	.st53{fill:#FCEB6A;}
	.st54{fill:#F2C50F;}
	.st55{fill:#8ADD8A;}
	.st56{fill:#00FF00;}
	.st57{fill:#07D607;}
	.st58{fill:#05CC0A;}
	.st59{fill:#482A63;}
	.st60{fill:#DE990E;}
	.st61{fill:#009DFF;}
	.st62{fill:#E8AB0E;}
	.st63{fill:#72A614;}
	.st64{fill:#A7E007;}
	.st65{fill:#699C18;}
	.st66{fill:#6D9E16;}
	.st67{fill:#84BF15;}
	.st68{fill:#3A4F93;}
	.st69{fill:#2D3B70;}
	.st70{fill:none;stroke:#1B2442;stroke-miterlimit:10;}
	.st71{opacity:0;fill:#171A33;}
	.st72{fill:#FFFB00;}
	.st73{opacity:0.2;}
	.st74{fill:#42061A;}
</style>
<g>
	<rect x="39.84729" y="55.2626381" class="st8" width="1.6527084" height="1.7375637"/>
	<rect x="38.1102104" y="57.0002022" class="st8" width="1.7370812" height="1.6568104"/>
	<rect x="38.1102104" y="55.2626381" class="st26" width="1.7370812" height="1.7375637"/>
	<rect x="38.1102104" y="53.6104126" class="st8" width="1.7370812" height="1.6522259"/>
	<rect x="38.9957619" y="63.7459183" class="st9" width="1.6568104" height="1.6523063"/>
	<rect x="36.4533997" y="55.2626381" class="st8" width="1.6568104" height="1.7375637"/>
	<rect x="36.4533997" y="48.5595474" class="st9" width="1.6568104" height="1.6564888"/>
	<rect x="37.338871" y="65.3982239" class="st9" width="1.6568909" height="1.7415854"/>
	<rect x="37.338871" y="63.7459183" class="st13" width="1.6568909" height="1.6523063"/>
	<rect x="37.338871" y="62.0890274" class="st9" width="1.6568909" height="1.6568909"/>
	<rect x="34.7965088" y="50.2160378" class="st9" width="1.6568909" height="1.7374834"/>
	<rect x="34.7965088" y="48.5595474" class="st27" width="1.6568909" height="1.6564888"/>
	<rect x="34.7965088" y="46.9068413" class="st9" width="1.6568909" height="1.6527084"/>
	<rect x="35.6017914" y="63.7459183" class="st9" width="1.7370812" height="1.6523063"/>
	<rect x="33.0594292" y="48.5595474" class="st9" width="1.7370812" height="1.6564888"/>
	<rect x="32.2541466" y="70.911171" class="st8" width="1.6527084" height="1.6564888"/>
	<rect x="30.5972557" y="72.5676575" class="st8" width="1.6568909" height="1.7374834"/>
	<rect x="30.5972557" y="70.911171" class="st26" width="1.6568909" height="1.6564888"/>
	<rect x="30.5972557" y="69.258461" class="st8" width="1.6568909" height="1.6527084"/>
	<rect x="28.4786873" y="61.6653137" class="st9" width="1.6568104" height="1.6568909"/>
	<rect x="28.4786873" y="59.9282341" class="st9" width="1.6568104" height="1.7370812"/>
	<rect x="28.4786873" y="58.2714233" class="st9" width="1.6568104" height="1.6568104"/>
	<rect x="28.4786873" y="56.5338593" class="st9" width="1.6568104" height="1.7375637"/>
	<rect x="28.4786873" y="43.5129471" class="st9" width="1.6568104" height="1.6522259"/>
	<rect x="28.8601742" y="70.911171" class="st8" width="1.7370812" height="1.6564888"/>
	<rect x="26.7415257" y="63.3222046" class="st9" width="1.7371616" height="1.6522259"/>
	<rect x="26.7415257" y="61.6653137" class="st16" width="1.7371616" height="1.6568909"/>
	<rect x="26.7415257" y="59.9282341" class="st16" width="1.7371616" height="1.7370812"/>
	<rect x="26.7415257" y="58.2714233" class="st22" width="1.7371616" height="1.6568104"/>
	<rect x="26.7415257" y="56.5338593" class="st16" width="1.7371616" height="1.7375637"/>
	<rect x="26.7415257" y="54.8815536" class="st9" width="1.7371616" height="1.6523063"/>
	<rect x="26.7415257" y="45.1651726" class="st9" width="1.7371616" height="1.7416657"/>
	<rect x="26.7415257" y="43.5129471" class="st27" width="1.7371616" height="1.6522259"/>
	<rect x="26.7415257" y="41.775383" class="st9" width="1.7371616" height="1.7375637"/>
	<rect x="25.0847149" y="63.3222046" class="st9" width="1.6568104" height="1.6522259"/>
	<rect x="25.0847149" y="61.6653137" class="st19" width="1.6568104" height="1.6568909"/>
	<rect x="25.0847149" y="59.9282341" class="st16" width="1.6568104" height="1.7370812"/>
	<rect x="25.0847149" y="58.2714233" class="st19" width="1.6568104" height="1.6568104"/>
	<rect x="25.0847149" y="56.5338593" class="st16" width="1.6568104" height="1.7375637"/>
	<rect x="25.0847149" y="54.8815536" class="st16" width="1.6568104" height="1.6523063"/>
	<rect x="25.0847149" y="53.2247429" class="st9" width="1.6568104" height="1.6568104"/>
	<rect x="25.0847149" y="43.5129471" class="st9" width="1.6568104" height="1.6522259"/>
	<rect x="23.3476353" y="64.9744339" class="st9" width="1.7370812" height="1.7416657"/>
	<rect x="23.3476353" y="63.3222046" class="st22" width="1.7370812" height="1.6522259"/>
	<rect x="23.3476353" y="61.6653137" class="st25" width="1.7370812" height="1.6568909"/>
	<rect x="23.3476353" y="59.9282341" class="st22" width="1.7370812" height="1.7370812"/>
	<rect x="23.3476353" y="58.2714233" class="st19" width="1.7370812" height="1.6568104"/>
	<rect x="23.3476353" y="56.5338593" class="st22" width="1.7370812" height="1.7375637"/>
	<rect x="23.3476353" y="54.8815536" class="st16" width="1.7370812" height="1.6523063"/>
	<rect x="23.3476353" y="53.2247429" class="st9" width="1.7370812" height="1.6568104"/>
	<rect x="21.6907444" y="72.1438599" class="st8" width="1.6568909" height="1.6568909"/>
	<rect x="21.6907444" y="64.9744339" class="st9" width="1.6568909" height="1.7416657"/>
	<rect x="21.6907444" y="63.3222046" class="st16" width="1.6568909" height="1.6522259"/>
	<rect x="21.6907444" y="61.6653137" class="st19" width="1.6568909" height="1.6568909"/>
	<rect x="21.6907444" y="59.9282341" class="st19" width="1.6568909" height="1.7370812"/>
	<rect x="21.6907444" y="58.2714233" class="st25" width="1.6568909" height="1.6568104"/>
	<rect x="21.6907444" y="56.5338593" class="st19" width="1.6568909" height="1.7375637"/>
	<rect x="21.6907444" y="54.8815536" class="st19" width="1.6568909" height="1.6523063"/>
	<rect x="21.6907444" y="53.2247429" class="st16" width="1.6568909" height="1.6568104"/>
	<rect x="21.6907444" y="51.4871788" class="st9" width="1.6568909" height="1.7375637"/>
	<rect x="20.0380344" y="73.8007507" class="st8" width="1.6527084" height="1.7370812"/>
	<rect x="20.0380344" y="72.1438599" class="st26" width="1.6527084" height="1.6568909"/>
	<rect x="20.0380344" y="70.4062958" class="st8" width="1.6527084" height="1.7375637"/>
	<rect x="20.0380344" y="64.9744339" class="st9" width="1.6527084" height="1.7416657"/>
	<rect x="20.0380344" y="63.3222046" class="st16" width="1.6527084" height="1.6522259"/>
	<rect x="20.0380344" y="61.6653137" class="st19" width="1.6527084" height="1.6568909"/>
	<rect x="20.0380344" y="59.9282341" class="st25" width="1.6527084" height="1.7370812"/>
	<rect x="20.0380344" y="58.2714233" class="st13" width="1.6527084" height="1.6568104"/>
	<rect x="20.0380344" y="56.5338593" class="st25" width="1.6527084" height="1.7375637"/>
	<rect x="20.0380344" y="54.8815536" class="st22" width="1.6527084" height="1.6523063"/>
	<rect x="20.0380344" y="53.2247429" class="st22" width="1.6527084" height="1.6568104"/>
	<rect x="20.0380344" y="51.4871788" class="st9" width="1.6527084" height="1.7375637"/>
	<rect x="18.3009548" y="72.1438599" class="st8" width="1.7370812" height="1.6568909"/>
	<rect x="18.3009548" y="64.9744339" class="st9" width="1.7370812" height="1.7416657"/>
	<rect x="18.3009548" y="63.3222046" class="st16" width="1.7370812" height="1.6522259"/>
	<rect x="18.3009548" y="61.6653137" class="st22" width="1.7370812" height="1.6568909"/>
	<rect x="18.3009548" y="59.9282341" class="st19" width="1.7370812" height="1.7370812"/>
	<rect x="18.3009548" y="58.2714233" class="st25" width="1.7370812" height="1.6568104"/>
	<rect x="18.3009548" y="56.5338593" class="st19" width="1.7370812" height="1.7375637"/>
	<rect x="18.3009548" y="54.8815536" class="st19" width="1.7370812" height="1.6523063"/>
	<rect x="18.3009548" y="53.2247429" class="st16" width="1.7370812" height="1.6568104"/>
	<rect x="18.3009548" y="51.4871788" class="st9" width="1.7370812" height="1.7375637"/>
	<rect x="16.6441441" y="63.3222046" class="st9" width="1.6568104" height="1.6522259"/>
	<rect x="16.6441441" y="61.6653137" class="st16" width="1.6568104" height="1.6568909"/>
	<rect x="16.6441441" y="59.9282341" class="st22" width="1.6568104" height="1.7370812"/>
	<rect x="16.6441441" y="58.2714233" class="st19" width="1.6568104" height="1.6568104"/>
	<rect x="16.6441441" y="56.5338593" class="st22" width="1.6568104" height="1.7375637"/>
	<rect x="16.6441441" y="54.8815536" class="st16" width="1.6568104" height="1.6523063"/>
	<rect x="16.6441441" y="53.2247429" class="st16" width="1.6568104" height="1.6568104"/>
	<rect x="16.6441441" y="51.4871788" class="st9" width="1.6568104" height="1.7375637"/>
	<rect x="19.1865063" y="41.775383" class="st8" width="1.6568104" height="1.7375637"/>
	<rect x="14.9872522" y="63.3222046" class="st9" width="1.6568909" height="1.6522259"/>
	<rect x="14.9872522" y="61.6653137" class="st16" width="1.6568909" height="1.6568909"/>
	<rect x="14.9872522" y="59.9282341" class="st16" width="1.6568909" height="1.7370812"/>
	<rect x="14.9872522" y="58.2714233" class="st19" width="1.6568909" height="1.6568104"/>
	<rect x="14.9872522" y="56.5338593" class="st16" width="1.6568909" height="1.7375637"/>
	<rect x="14.9872522" y="54.8815536" class="st9" width="1.6568909" height="1.6523063"/>
	<rect x="14.9872522" y="53.2247429" class="st9" width="1.6568909" height="1.6568104"/>
	<rect x="17.5296154" y="43.5129471" class="st8" width="1.6568909" height="1.6522259"/>
	<rect x="17.5296154" y="41.775383" class="st26" width="1.6568909" height="1.7375637"/>
	<rect x="17.5296154" y="40.1189766" class="st8" width="1.6568909" height="1.6564083"/>
	<rect x="10.7078094" y="69.258461" class="st9" width="1.7370812" height="1.6527084"/>
	<rect x="13.2501717" y="59.9282341" class="st9" width="1.7370812" height="1.7370812"/>
	<rect x="13.2501717" y="58.2714233" class="st9" width="1.7370812" height="1.6568104"/>
	<rect x="13.2501717" y="56.5338593" class="st9" width="1.7370812" height="1.7375637"/>
	<rect x="15.7925339" y="41.775383" class="st8" width="1.7370812" height="1.7375637"/>
	<rect x="15.7925339" y="40.1189766" class="st28" width="1.7370812" height="1.6564083"/>
	<rect x="15.7925339" y="38.4621658" class="st8" width="1.7370812" height="1.6568104"/>
	<rect x="9.0551004" y="70.911171" class="st9" width="1.6527084" height="1.6564888"/>
	<rect x="9.0551004" y="69.258461" class="st19" width="1.6527084" height="1.6527084"/>
	<rect x="9.0551004" y="67.5167923" class="st9" width="1.6527084" height="1.7416657"/>
	<rect x="14.1398249" y="40.1189766" class="st8" width="1.6527084" height="1.6564083"/>
	<rect x="7.3179393" y="72.5676575" class="st9" width="1.7371616" height="1.7374834"/>
	<rect x="7.3179393" y="70.911171" class="st22" width="1.7371616" height="1.6564888"/>
	<rect x="7.3179393" y="69.258461" class="st25" width="1.7371616" height="1.6527084"/>
	<rect x="7.3179393" y="67.5167923" class="st22" width="1.7371616" height="1.7416657"/>
	<rect x="7.3179393" y="65.8645706" class="st9" width="1.7371616" height="1.6522259"/>
	<rect x="8.58916" y="46.9068413" class="st9" width="1.7370812" height="1.6527084"/>
	<rect x="5.6611285" y="70.911171" class="st9" width="1.6568104" height="1.6564888"/>
	<rect x="5.6611285" y="69.258461" class="st19" width="1.6568104" height="1.6527084"/>
	<rect x="5.6611285" y="67.5167923" class="st9" width="1.6568104" height="1.7416657"/>
	<rect x="6.9322696" y="48.5595474" class="st9" width="1.6568909" height="1.6564888"/>
	<rect x="6.9322696" y="46.9068413" class="st13" width="1.6568909" height="1.6527084"/>
	<rect x="6.9322696" y="45.1651726" class="st9" width="1.6568909" height="1.7416657"/>
	<rect x="4.0043182" y="69.258461" class="st9" width="1.6568104" height="1.6527084"/>
	<rect x="6.5466805" y="56.5338593" class="st8" width="1.6568104" height="1.7375637"/>
	<rect x="5.2754593" y="46.9068413" class="st9" width="1.6568104" height="1.6527084"/>
	<rect x="4.8095188" y="58.2714233" class="st8" width="1.7371616" height="1.6568104"/>
	<rect x="4.8095188" y="56.5338593" class="st26" width="1.7371616" height="1.7375637"/>
	<rect x="4.8095188" y="54.8815536" class="st8" width="1.7371616" height="1.6523063"/>
	<rect x="3.1527085" y="58.2714233" class="st8" width="1.6568104" height="1.6568104"/>
	<rect x="3.1527085" y="56.5338593" class="st28" width="1.6568104" height="1.7375637"/>
	<rect x="3.1527085" y="54.8815536" class="st8" width="1.6568104" height="1.6523063"/>
	<rect x="1.5" y="56.5338593" class="st8" width="1.6527084" height="1.7375637"/>
</g>
<g>
	<rect x="40.0278015" y="35.8070984" class="st59" width="2.0599999" height="2.1608"/>
	<rect x="40.0278015" y="33.7481995" class="st59" width="2.0599999" height="2.0589001"/>
	<rect x="37.8680992" y="35.8070984" class="st10" width="2.1596999" height="2.1608"/>
	<rect x="37.8680992" y="33.7481995" class="st12" width="2.1596999" height="2.0589001"/>
	<rect x="37.8680992" y="31.5874004" class="st59" width="2.1596999" height="2.1608"/>
	<rect x="37.8680992" y="19.0333996" class="st28" width="2.1596999" height="2.0599"/>
	<rect x="37.8680992" y="16.8736" class="st28" width="2.1596999" height="2.1598001"/>
	<rect x="37.8680992" y="14.8188" class="st28" width="2.1596999" height="2.0548"/>
	<rect x="37.8680992" y="12.6539001" class="st28" width="2.1596999" height="2.1649001"/>
	<rect x="37.8680992" y="10.5991001" class="st28" width="2.1596999" height="2.0548"/>
	<rect x="35.8082008" y="33.7481995" class="st10" width="2.0599" height="2.0589001"/>
	<rect x="35.8082008" y="31.5874004" class="st12" width="2.0599" height="2.1608"/>
	<rect x="35.8082008" y="29.5342007" class="st29" width="2.0599" height="2.0532"/>
	<rect x="35.8082008" y="21.0932999" class="st28" width="2.0599" height="2.1602001"/>
	<rect x="35.8082008" y="19.0333996" class="st12" width="2.0599" height="2.0599"/>
	<rect x="35.8082008" y="16.8736" class="st12" width="2.0599" height="2.1598001"/>
	<rect x="35.8082008" y="14.8188" class="st12" width="2.0599" height="2.0548"/>
	<rect x="35.8082008" y="12.6539001" class="st12" width="2.0599" height="2.1649001"/>
	<rect x="35.8082008" y="10.5991001" class="st12" width="2.0599" height="2.0548"/>
	<rect x="35.8082008" y="8.4393997" class="st28" width="2.0599" height="2.1596999"/>
	<rect x="35.8082008" y="6.3793998" class="st28" width="2.0599" height="2.0599999"/>
	<rect x="33.7533989" y="33.7481995" class="st12" width="2.0548" height="2.0589001"/>
	<rect x="33.7533989" y="31.5874004" class="st29" width="2.0548" height="2.1608"/>
	<rect x="33.7533989" y="29.5342007" class="st30" width="2.0548" height="2.0532"/>
	<rect x="33.7533989" y="27.4741993" class="st29" width="2.0548" height="2.0599999"/>
	<rect x="33.7533989" y="23.2535" class="st28" width="2.0548" height="2.0599999"/>
	<rect x="33.7533989" y="21.0932999" class="st12" width="2.0548" height="2.1602001"/>
	<rect x="33.7533989" y="19.0333996" class="st12" width="2.0548" height="2.0599"/>
	<rect x="33.7533989" y="16.8736" class="st12" width="2.0548" height="2.1598001"/>
	<rect x="33.7533989" y="14.8188" class="st12" width="2.0548" height="2.0548"/>
	<rect x="33.7533989" y="12.6539001" class="st12" width="2.0548" height="2.1649001"/>
	<rect x="33.7533989" y="10.5991001" class="st12" width="2.0548" height="2.0548"/>
	<rect x="33.7533989" y="8.4393997" class="st12" width="2.0548" height="2.1596999"/>
	<rect x="33.7533989" y="6.3793998" class="st12" width="2.0548" height="2.0599999"/>
	<rect x="33.7533989" y="4.2196999" class="st28" width="2.0548" height="2.1596999"/>
	<rect x="31.5884991" y="33.7481995" class="st29" width="2.1649001" height="2.0589001"/>
	<rect x="31.5884991" y="31.5874004" class="st30" width="2.1649001" height="2.1608"/>
	<rect x="31.5884991" y="29.5342007" class="st26" width="2.1649001" height="2.0532"/>
	<rect x="31.5884991" y="27.4741993" class="st29" width="2.1649001" height="2.0599999"/>
	<rect x="31.5884991" y="25.3134995" class="st28" width="2.1649001" height="2.1607001"/>
	<rect x="31.5884991" y="23.2535" class="st12" width="2.1649001" height="2.0599999"/>
	<rect x="31.5884991" y="21.0932999" class="st12" width="2.1649001" height="2.1602001"/>
	<rect x="31.5884991" y="19.0333996" class="st12" width="2.1649001" height="2.0599"/>
	<rect x="31.5884991" y="16.8736" class="st7" width="2.1649001" height="2.1598001"/>
	<rect x="31.5884991" y="14.8188" class="st7" width="2.1649001" height="2.0548"/>
	<rect x="31.5884991" y="12.6539001" class="st7" width="2.1649001" height="2.1649001"/>
	<rect x="31.5884991" y="10.5991001" class="st60" width="2.1649001" height="2.0548"/>
	<rect x="31.5884991" y="8.4393997" class="st54" width="2.1649001" height="2.1596999"/>
	<rect x="31.5884991" y="6.3793998" class="st25" width="2.1649001" height="2.0599999"/>
	<rect x="31.5884991" y="4.2196999" class="st12" width="2.1649001" height="2.1596999"/>
	<rect x="31.5884991" y="2.1598001" class="st28" width="2.1649001" height="2.0599"/>
	<rect x="29.5337009" y="33.7481995" class="st30" width="2.0548" height="2.0589001"/>
	<rect x="29.5337009" y="31.5874004" class="st26" width="2.0548" height="2.1608"/>
	<rect x="29.5337009" y="29.5342007" class="st26" width="2.0548" height="2.0532"/>
	<rect x="29.5337009" y="27.4741993" class="st28" width="2.0548" height="2.0599999"/>
	<rect x="29.5337009" y="25.3134995" class="st12" width="2.0548" height="2.1607001"/>
	<rect x="29.5337009" y="23.2535" class="st12" width="2.0548" height="2.0599999"/>
	<rect x="29.5337009" y="21.0932999" class="st7" width="2.0548" height="2.1602001"/>
	<rect x="29.5337009" y="19.0333996" class="st7" width="2.0548" height="2.0599"/>
	<rect x="29.5337009" y="16.8736" class="st27" width="2.0548" height="2.1598001"/>
	<rect x="29.5337009" y="14.8188" class="st27" width="2.0548" height="2.0548"/>
	<rect x="29.5337009" y="12.6539001" class="st27" width="2.0548" height="2.1649001"/>
	<rect x="29.5337009" y="10.5991001" class="st7" width="2.0548" height="2.0548"/>
	<rect x="29.5337009" y="8.4393997" class="st25" width="2.0548" height="2.1596999"/>
	<rect x="29.5337009" y="6.3793998" class="st12" width="2.0548" height="2.0599999"/>
	<rect x="29.5337009" y="4.2196999" class="st12" width="2.0548" height="2.1596999"/>
	<rect x="29.5337009" y="2.1598001" class="st28" width="2.0548" height="2.0599"/>
	<rect x="27.3738995" y="33.7481995" class="st30" width="2.1598001" height="2.0589001"/>
	<rect x="27.3738995" y="31.5874004" class="st31" width="2.1598001" height="2.1608"/>
	<rect x="27.3738995" y="29.5342007" class="st26" width="2.1598001" height="2.0532"/>
	<rect x="27.3738995" y="27.4741993" class="st28" width="2.1598001" height="2.0599999"/>
	<rect x="27.3738995" y="25.3134995" class="st12" width="2.1598001" height="2.1607001"/>
	<rect x="27.3738995" y="23.2535" class="st7" width="2.1598001" height="2.0599999"/>
	<rect x="27.3738995" y="21.0932999" class="st27" width="2.1598001" height="2.1602001"/>
	<rect x="27.3738995" y="19.0333996" class="st27" width="2.1598001" height="2.0599"/>
	<rect x="27.3738995" y="16.8736" class="st27" width="2.1598001" height="2.1598001"/>
	<rect x="27.3738995" y="14.8188" class="st27" width="2.1598001" height="2.0548"/>
	<rect x="27.3738995" y="12.6539001" class="st27" width="2.1598001" height="2.1649001"/>
	<rect x="27.3738995" y="10.5991001" class="st27" width="2.1598001" height="2.0548"/>
	<rect x="27.3738995" y="8.4393997" class="st7" width="2.1598001" height="2.1596999"/>
	<rect x="27.3738995" y="6.3793998" class="st12" width="2.1598001" height="2.0599999"/>
	<rect x="27.3738995" y="4.2196999" class="st12" width="2.1598001" height="2.1596999"/>
	<rect x="27.3738995" y="2.1598001" class="st12" width="2.1598001" height="2.0599"/>
	<rect x="27.3738995" class="st28" width="2.1598001" height="2.1598001"/>
	<rect x="25.3139992" y="33.7481995" class="st26" width="2.0599" height="2.0589001"/>
	<rect x="25.3139992" y="31.5874004" class="st31" width="2.0599" height="2.1608"/>
	<rect x="25.3139992" y="29.5342007" class="st31" width="2.0599" height="2.0532"/>
	<rect x="25.3139992" y="27.4741993" class="st28" width="2.0599" height="2.0599999"/>
	<rect x="25.3139992" y="25.3134995" class="st7" width="2.0599" height="2.1607001"/>
	<rect x="25.3139992" y="23.2535" class="st27" width="2.0599" height="2.0599999"/>
	<rect x="25.3139992" y="21.0932999" class="st27" width="2.0599" height="2.1602001"/>
	<rect x="25.3139992" y="19.0333996" class="st27" width="2.0599" height="2.0599"/>
	<rect x="25.3139992" y="16.8736" class="st13" width="2.0599" height="2.1598001"/>
	<rect x="25.3139992" y="14.8188" class="st13" width="2.0599" height="2.0548"/>
	<rect x="25.3139992" y="12.6539001" class="st13" width="2.0599" height="2.1649001"/>
	<rect x="25.3139992" y="10.5991001" class="st27" width="2.0599" height="2.0548"/>
	<rect x="25.3139992" y="8.4393997" class="st27" width="2.0599" height="2.1596999"/>
	<rect x="25.3139992" y="6.3793998" class="st12" width="2.0599" height="2.0599999"/>
	<rect x="25.3139992" y="4.2196999" class="st12" width="2.0599" height="2.1596999"/>
	<rect x="25.3139992" y="2.1598001" class="st12" width="2.0599" height="2.0599"/>
	<rect x="25.3139992" class="st28" width="2.0599" height="2.1598001"/>
	<rect x="23.1541996" y="33.7481995" class="st26" width="2.1598001" height="2.0589001"/>
	<rect x="23.1541996" y="31.5874004" class="st31" width="2.1598001" height="2.1608"/>
	<rect x="23.1541996" y="29.5342007" class="st31" width="2.1598001" height="2.0532"/>
	<rect x="23.1541996" y="27.4741993" class="st28" width="2.1598001" height="2.0599999"/>
	<rect x="23.1541996" y="25.3134995" class="st27" width="2.1598001" height="2.1607001"/>
	<rect x="23.1541996" y="23.2535" class="st27" width="2.1598001" height="2.0599999"/>
	<rect x="23.1541996" y="21.0932999" class="st27" width="2.1598001" height="2.1602001"/>
	<rect x="23.1541996" y="19.0333996" class="st13" width="2.1598001" height="2.0599"/>
	<rect x="23.1541996" y="16.8736" class="st13" width="2.1598001" height="2.1598001"/>
	<rect x="23.1541996" y="14.8188" class="st9" width="2.1598001" height="2.0548"/>
	<rect x="23.1541996" y="12.6539001" class="st13" width="2.1598001" height="2.1649001"/>
	<rect x="23.1541996" y="10.5991001" class="st13" width="2.1598001" height="2.0548"/>
	<rect x="23.1541996" y="8.4393997" class="st27" width="2.1598001" height="2.1596999"/>
	<rect x="23.1541996" y="6.3793998" class="st7" width="2.1598001" height="2.0599999"/>
	<rect x="23.1541996" y="4.2196999" class="st12" width="2.1598001" height="2.1596999"/>
	<rect x="23.1541996" y="2.1598001" class="st12" width="2.1598001" height="2.0599"/>
	<rect x="23.1541996" class="st28" width="2.1598001" height="2.1598001"/>
	<rect x="21.0942993" y="35.8070984" class="st59" width="2.0599" height="2.1608"/>
	<rect x="21.0942993" y="33.7481995" class="st59" width="2.0599" height="2.0589001"/>
	<rect x="21.0942993" y="31.5874004" class="st12" width="2.0599" height="2.1608"/>
	<rect x="21.0942993" y="29.5342007" class="st31" width="2.0599" height="2.0532"/>
	<rect x="21.0942993" y="27.4741993" class="st28" width="2.0599" height="2.0599999"/>
	<rect x="21.0942993" y="25.3134995" class="st27" width="2.0599" height="2.1607001"/>
	<rect x="21.0942993" y="23.2535" class="st27" width="2.0599" height="2.0599999"/>
	<rect x="21.0942993" y="21.0932999" class="st27" width="2.0599" height="2.1602001"/>
	<rect x="21.0942993" y="19.0333996" class="st13" width="2.0599" height="2.0599"/>
	<rect x="21.0942993" y="16.8736" class="st13" width="2.0599" height="2.1598001"/>
	<rect x="21.0942993" y="14.8188" class="st9" width="2.0599" height="2.0548"/>
	<rect x="21.0942993" y="12.6539001" class="st13" width="2.0599" height="2.1649001"/>
	<rect x="21.0942993" y="10.5991001" class="st13" width="2.0599" height="2.0548"/>
	<rect x="21.0942993" y="8.4393997" class="st27" width="2.0599" height="2.1596999"/>
	<rect x="21.0942993" y="6.3793998" class="st27" width="2.0599" height="2.0599999"/>
	<rect x="21.0942993" y="4.2196999" class="st12" width="2.0599" height="2.1596999"/>
	<rect x="21.0942993" y="2.1598001" class="st12" width="2.0599" height="2.0599"/>
	<rect x="21.0942993" class="st28" width="2.0599" height="2.1598001"/>
	<rect x="18.9335003" y="35.8070984" class="st10" width="2.1608" height="2.1608"/>
	<rect x="18.9335003" y="33.7481995" class="st10" width="2.1608" height="2.0589001"/>
	<rect x="18.9335003" y="31.5874004" class="st10" width="2.1608" height="2.1608"/>
	<rect x="18.9335003" y="29.5342007" class="st31" width="2.1608" height="2.0532"/>
	<rect x="18.9335003" y="27.4741993" class="st28" width="2.1608" height="2.0599999"/>
	<rect x="18.9335003" y="25.3134995" class="st27" width="2.1608" height="2.1607001"/>
	<rect x="18.9335003" y="23.2535" class="st27" width="2.1608" height="2.0599999"/>
	<rect x="18.9335003" y="21.0932999" class="st27" width="2.1608" height="2.1602001"/>
	<rect x="18.9335003" y="19.0333996" class="st13" width="2.1608" height="2.0599"/>
	<rect x="18.9335003" y="16.8736" class="st13" width="2.1608" height="2.1598001"/>
	<rect x="18.9335003" y="14.8188" class="st9" width="2.1608" height="2.0548"/>
	<rect x="18.9335003" y="12.6539001" class="st13" width="2.1608" height="2.1649001"/>
	<rect x="18.9335003" y="10.5991001" class="st13" width="2.1608" height="2.0548"/>
	<rect x="18.9335003" y="8.4393997" class="st27" width="2.1608" height="2.1596999"/>
	<rect x="18.9335003" y="6.3793998" class="st27" width="2.1608" height="2.0599999"/>
	<rect x="18.9335003" y="4.2196999" class="st12" width="2.1608" height="2.1596999"/>
	<rect x="18.9335003" y="2.1598001" class="st12" width="2.1608" height="2.0599"/>
	<rect x="18.9335003" class="st28" width="2.1608" height="2.1598001"/>
	<rect x="16.8745995" y="33.7481995" class="st30" width="2.0589001" height="2.0589001"/>
	<rect x="16.8745995" y="31.5874004" class="st26" width="2.0589001" height="2.1608"/>
	<rect x="16.8745995" y="29.5342007" class="st31" width="2.0589001" height="2.0532"/>
	<rect x="16.8745995" y="27.4741993" class="st28" width="2.0589001" height="2.0599999"/>
	<rect x="16.8745995" y="25.3134995" class="st27" width="2.0589001" height="2.1607001"/>
	<rect x="16.8745995" y="23.2535" class="st27" width="2.0589001" height="2.0599999"/>
	<rect x="16.8745995" y="21.0932999" class="st27" width="2.0589001" height="2.1602001"/>
	<rect x="16.8745995" y="19.0333996" class="st27" width="2.0589001" height="2.0599"/>
	<rect x="16.8745995" y="16.8736" class="st13" width="2.0589001" height="2.1598001"/>
	<rect x="16.8745995" y="14.8188" class="st13" width="2.0589001" height="2.0548"/>
	<rect x="16.8745995" y="12.6539001" class="st13" width="2.0589001" height="2.1649001"/>
	<rect x="16.8745995" y="10.5991001" class="st27" width="2.0589001" height="2.0548"/>
	<rect x="16.8745995" y="8.4393997" class="st27" width="2.0589001" height="2.1596999"/>
	<rect x="16.8745995" y="6.3793998" class="st6" width="2.0589001" height="2.0599999"/>
	<rect x="16.8745995" y="4.2196999" class="st12" width="2.0589001" height="2.1596999"/>
	<rect x="16.8745995" y="2.1598001" class="st12" width="2.0589001" height="2.0599"/>
	<rect x="16.8745995" class="st28" width="2.0589001" height="2.1598001"/>
	<rect x="14.7138996" y="33.7481995" class="st26" width="2.1607001" height="2.0589001"/>
	<rect x="14.7138996" y="31.5874004" class="st31" width="2.1607001" height="2.1608"/>
	<rect x="14.7138996" y="29.5342007" class="st31" width="2.1607001" height="2.0532"/>
	<rect x="14.7138996" y="27.4741993" class="st28" width="2.1607001" height="2.0599999"/>
	<rect x="14.7138996" y="25.3134995" class="st6" width="2.1607001" height="2.1607001"/>
	<rect x="14.7138996" y="23.2535" class="st27" width="2.1607001" height="2.0599999"/>
	<rect x="14.7138996" y="21.0932999" class="st27" width="2.1607001" height="2.1602001"/>
	<rect x="14.7138996" y="19.0333996" class="st27" width="2.1607001" height="2.0599"/>
	<rect x="14.7138996" y="16.8736" class="st27" width="2.1607001" height="2.1598001"/>
	<rect x="14.7138996" y="14.8188" class="st27" width="2.1607001" height="2.0548"/>
	<rect x="14.7138996" y="12.6539001" class="st27" width="2.1607001" height="2.1649001"/>
	<rect x="14.7138996" y="10.5991001" class="st27" width="2.1607001" height="2.0548"/>
	<rect x="14.7138996" y="8.4393997" class="st27" width="2.1607001" height="2.1596999"/>
	<rect x="14.7138996" y="6.3793998" class="st12" width="2.1607001" height="2.0599999"/>
	<rect x="14.7138996" y="4.2196999" class="st12" width="2.1607001" height="2.1596999"/>
	<rect x="14.7138996" y="2.1598001" class="st12" width="2.1607001" height="2.0599"/>
	<rect x="14.7138996" class="st28" width="2.1607001" height="2.1598001"/>
	<rect x="12.6601" y="33.7481995" class="st31" width="2.0538001" height="2.0589001"/>
	<rect x="12.6601" y="31.5874004" class="st31" width="2.0538001" height="2.1608"/>
	<rect x="12.6601" y="29.5342007" class="st31" width="2.0538001" height="2.0532"/>
	<rect x="12.6601" y="27.4741993" class="st28" width="2.0538001" height="2.0599999"/>
	<rect x="12.6601" y="25.3134995" class="st12" width="2.0538001" height="2.1607001"/>
	<rect x="12.6601" y="23.2535" class="st6" width="2.0538001" height="2.0599999"/>
	<rect x="12.6601" y="21.0932999" class="st27" width="2.0538001" height="2.1602001"/>
	<rect x="12.6601" y="19.0333996" class="st27" width="2.0538001" height="2.0599"/>
	<rect x="12.6601" y="16.8736" class="st27" width="2.0538001" height="2.1598001"/>
	<rect x="12.6601" y="14.8188" class="st27" width="2.0538001" height="2.0548"/>
	<rect x="12.6601" y="12.6539001" class="st27" width="2.0538001" height="2.1649001"/>
	<rect x="12.6601" y="10.5991001" class="st27" width="2.0538001" height="2.0548"/>
	<rect x="12.6601" y="8.4393997" class="st6" width="2.0538001" height="2.1596999"/>
	<rect x="12.6601" y="6.3793998" class="st12" width="2.0538001" height="2.0599999"/>
	<rect x="12.6601" y="4.2196999" class="st12" width="2.0538001" height="2.1596999"/>
	<rect x="12.6601" y="2.1598001" class="st12" width="2.0538001" height="2.0599"/>
	<rect x="12.6601" class="st28" width="2.0538001" height="2.1598001"/>
	<rect x="10.4993" y="33.7481995" class="st31" width="2.1608" height="2.0589001"/>
	<rect x="10.4993" y="31.5874004" class="st31" width="2.1608" height="2.1608"/>
	<rect x="10.4993" y="29.5342007" class="st31" width="2.1608" height="2.0532"/>
	<rect x="10.4993" y="27.4741993" class="st28" width="2.1608" height="2.0599999"/>
	<rect x="10.4993" y="25.3134995" class="st12" width="2.1608" height="2.1607001"/>
	<rect x="10.4993" y="23.2535" class="st12" width="2.1608" height="2.0599999"/>
	<rect x="10.4993" y="21.0932999" class="st6" width="2.1608" height="2.1602001"/>
	<rect x="10.4993" y="19.0333996" class="st6" width="2.1608" height="2.0599"/>
	<rect x="10.4993" y="16.8736" class="st27" width="2.1608" height="2.1598001"/>
	<rect x="10.4993" y="14.8188" class="st27" width="2.1608" height="2.0548"/>
	<rect x="10.4993" y="12.6539001" class="st27" width="2.1608" height="2.1649001"/>
	<rect x="10.4993" y="10.5991001" class="st6" width="2.1608" height="2.0548"/>
	<rect x="10.4993" y="8.4393997" class="st60" width="2.1608" height="2.1596999"/>
	<rect x="10.4993" y="6.3793998" class="st12" width="2.1608" height="2.0599999"/>
	<rect x="10.4993" y="4.2196999" class="st12" width="2.1608" height="2.1596999"/>
	<rect x="10.4993" y="2.1598001" class="st28" width="2.1608" height="2.0599"/>
	<rect x="8.4393997" y="33.7481995" class="st26" width="2.0599" height="2.0589001"/>
	<rect x="8.4393997" y="31.5874004" class="st31" width="2.0599" height="2.1608"/>
	<rect x="8.4393997" y="29.5342007" class="st31" width="2.0599" height="2.0532"/>
	<rect x="8.4393997" y="27.4741993" class="st26" width="2.0599" height="2.0599999"/>
	<rect x="8.4393997" y="25.3134995" class="st28" width="2.0599" height="2.1607001"/>
	<rect x="8.4393997" y="23.2535" class="st12" width="2.0599" height="2.0599999"/>
	<rect x="8.4393997" y="21.0932999" class="st12" width="2.0599" height="2.1602001"/>
	<rect x="8.4393997" y="19.0333996" class="st12" width="2.0599" height="2.0599"/>
	<rect x="8.4393997" y="16.8736" class="st6" width="2.0599" height="2.1598001"/>
	<rect x="8.4393997" y="14.8188" class="st6" width="2.0599" height="2.0548"/>
	<rect x="8.4393997" y="12.6539001" class="st61" width="2.0599" height="2.1649001"/>
	<rect x="8.4393997" y="10.5991001" class="st60" width="2.0599" height="2.0548"/>
	<rect x="8.4393997" y="8.4393997" class="st54" width="2.0599" height="2.1596999"/>
	<rect x="8.4393997" y="6.3793998" class="st25" width="2.0599" height="2.0599999"/>
	<rect x="8.4393997" y="4.2196999" class="st13" width="2.0599" height="2.1596999"/>
	<rect x="8.4393997" y="2.1598001" class="st28" width="2.0599" height="2.0599"/>
	<rect x="6.2796001" y="33.7481995" class="st59" width="2.1598001" height="2.0589001"/>
	<rect x="6.2796001" y="31.5874004" class="st26" width="2.1598001" height="2.1608"/>
	<rect x="6.2796001" y="29.5342007" class="st31" width="2.1598001" height="2.0532"/>
	<rect x="6.2796001" y="27.4741993" class="st28" width="2.1598001" height="2.0599999"/>
	<rect x="6.2796001" y="23.2535" class="st28" width="2.1598001" height="2.0599999"/>
	<rect x="6.2796001" y="21.0932999" class="st12" width="2.1598001" height="2.1602001"/>
	<rect x="6.2796001" y="19.0333996" class="st12" width="2.1598001" height="2.0599"/>
	<rect x="6.2796001" y="16.8736" class="st12" width="2.1598001" height="2.1598001"/>
	<rect x="6.2796001" y="14.8188" class="st12" width="2.1598001" height="2.0548"/>
	<rect x="6.2796001" y="12.6539001" class="st12" width="2.1598001" height="2.1649001"/>
	<rect x="6.2796001" y="10.5991001" class="st12" width="2.1598001" height="2.0548"/>
	<rect x="6.2796001" y="8.4393997" class="st12" width="2.1598001" height="2.1596999"/>
	<rect x="6.2796001" y="6.3793998" class="st13" width="2.1598001" height="2.0599999"/>
	<rect x="6.2796001" y="4.2196999" class="st28" width="2.1598001" height="2.1596999"/>
	<rect x="4.2196999" y="33.7481995" class="st59" width="2.0599" height="2.0589001"/>
	<rect x="4.2196999" y="31.5874004" class="st12" width="2.0599" height="2.1608"/>
	<rect x="4.2196999" y="29.5342007" class="st28" width="2.0599" height="2.0532"/>
	<rect x="4.2196999" y="21.0932999" class="st28" width="2.0599" height="2.1602001"/>
	<rect x="4.2196999" y="19.0333996" class="st12" width="2.0599" height="2.0599"/>
	<rect x="4.2196999" y="16.8736" class="st12" width="2.0599" height="2.1598001"/>
	<rect x="4.2196999" y="14.8188" class="st12" width="2.0599" height="2.0548"/>
	<rect x="4.2196999" y="12.6539001" class="st12" width="2.0599" height="2.1649001"/>
	<rect x="4.2196999" y="10.5991001" class="st12" width="2.0599" height="2.0548"/>
	<rect x="4.2196999" y="8.4393997" class="st28" width="2.0599" height="2.1596999"/>
	<rect x="4.2196999" y="6.3793998" class="st28" width="2.0599" height="2.0599999"/>
	<rect x="2.0599" y="35.8070984" class="st59" width="2.1598001" height="2.1608"/>
	<rect x="2.0599" y="33.7481995" class="st12" width="2.1598001" height="2.0589001"/>
	<rect x="2.0599" y="31.5874004" class="st10" width="2.1598001" height="2.1608"/>
	<rect x="2.0599" y="19.0333996" class="st28" width="2.1598001" height="2.0599"/>
	<rect x="2.0599" y="16.8736" class="st28" width="2.1598001" height="2.1598001"/>
	<rect x="2.0599" y="14.8188" class="st28" width="2.1598001" height="2.0548"/>
	<rect x="2.0599" y="12.6539001" class="st28" width="2.1598001" height="2.1649001"/>
	<rect x="2.0599" y="10.5991001" class="st28" width="2.1598001" height="2.0548"/>
	<rect y="35.8070984" class="st12" width="2.0599" height="2.1608"/>
	<rect y="33.7481995" class="st10" width="2.0599" height="2.0589001"/>
</g>
</svg>
