<?xml version="1.0" encoding="utf-8"?>
<!-- Generator: Adobe Illustrator 26.0.1, SVG Export Plug-In . SVG Version: 6.00 Build 0)  -->
<svg version="1.1" id="Layer_1" xmlns="http://www.w3.org/2000/svg" xmlns:xlink="http://www.w3.org/1999/xlink" x="0px" y="0px"
	 width="41.9818001px" height="79.7443466px" viewBox="0 0 41.9818001 79.7443466"
	 style="enable-background:new 0 0 41.9818001 79.7443466;" xml:space="preserve">
<style type="text/css">
	.st0{fill:#1E2235;}
	.st1{fill:url(#SVGID_1_);}
	.st2{fill:#1B2162;}
	.st3{fill:#252D88;}
	.st4{fill:#2D37A3;}
	.st5{fill:#424DCB;}
	.st6{fill:#00B7FF;}
	.st7{fill:#0261CC;}
	.st8{fill:#380762;}
	.st9{fill:#370C45;}
	.st10{fill:#703991;}
	.st11{fill:#A046C2;}
	.st12{fill:#543175;}
	.st13{fill:#FFFFFF;}
	.st14{fill:#B947C0;}
	.st15{fill:#DB8EE3;}
	.st16{fill:#8B0975;}
	.st17{fill:#BD3151;}
	.st18{fill:#CC3154;}
	.st19{fill:#FF7261;}
	.st20{fill:#BF2C4E;}
	.st21{fill:#FE9867;}
	.st22{fill:#EF3A65;}
	.st23{fill:#FFAD6E;}
	.st24{fill:#FA559F;}
	.st25{fill:#FCE00A;}
	.st26{fill:#837CC2;}
	.st27{fill:#0284DB;}
	.st28{fill:#BFBAF0;}
	.st29{fill:#5E4194;}
	.st30{fill:#755AC1;}
	.st31{fill:#A8A3D2;}
	.st32{fill:#5D75C2;}
	.st33{fill:#6D85CF;}
	.st34{fill:#89C7DE;}
	.st35{opacity:0.5;}
	.st36{fill:#FF001F;}
	.st37{fill:#97C1FF;}
	.st38{fill:#FFF203;}
	.st39{fill:#0086FF;}
	.st40{display:none;}
	.st41{display:inline;fill:#370C45;}
	.st42{display:inline;fill:#FE9867;}
	.st43{display:inline;fill:#FA559F;}
	.st44{display:inline;fill:#EF3A65;}
	.st45{display:inline;fill:#CC3154;}
	.st46{display:inline;fill:#FF7261;}
	.st47{display:inline;fill:#8B0975;}
	.st48{display:inline;fill:#380762;}
	.st49{display:inline;fill:#B947C0;}
	.st50{display:inline;fill:#BD3151;}
	.st51{display:inline;fill:#BF2C4E;}
	.st52{display:inline;fill:#FFAD6E;}
	.st53{fill:#FCEB6A;}
	.st54{fill:#F2C50F;}
	.st55{fill:#8ADD8A;}
	.st56{fill:#00FF00;}
	.st57{fill:#07D607;}
	.st58{fill:#05CC0A;}
	.st59{fill:#482A63;}
	.st60{fill:#DE990E;}
	.st61{fill:#009DFF;}
	.st62{fill:#E8AB0E;}
	.st63{fill:#72A614;}
	.st64{fill:#A7E007;}
	.st65{fill:#699C18;}
	.st66{fill:#6D9E16;}
	.st67{fill:#84BF15;}
	.st68{fill:#3A4F93;}
	.st69{fill:#2D3B70;}
	.st70{fill:none;stroke:#1B2442;stroke-miterlimit:10;}
	.st71{opacity:0;fill:#171A33;}
	.st72{fill:#FFFB00;}
	.st73{opacity:0.2;}
	.st74{fill:#42061A;}
</style>
<g>
	<rect x="38.9449005" y="25.2074509" class="st16" width="2.0599" height="2.0599"/>
	<rect x="38.9449005" y="23.0476494" class="st14" width="2.0599" height="2.1598001"/>
	<rect x="38.9449005" y="20.9928493" class="st16" width="2.0599" height="2.0548"/>
	<rect x="38.9449005" y="18.8331509" class="st16" width="2.0599" height="2.1596999"/>
	<rect x="38.9449005" y="16.7732506" class="st14" width="2.0599" height="2.0599"/>
	<rect x="38.9449005" y="14.6134501" class="st14" width="2.0599" height="2.1598001"/>
	<rect x="38.9449005" y="12.5535498" class="st14" width="2.0599" height="2.0599"/>
	<rect x="36.7840996" y="29.4281502" class="st16" width="2.1608" height="2.0589001"/>
	<rect x="36.7840996" y="27.2673492" class="st17" width="2.1608" height="2.1608"/>
	<rect x="36.7840996" y="25.2074509" class="st18" width="2.1608" height="2.0599"/>
	<rect x="36.7840996" y="23.0476494" class="st19" width="2.1608" height="2.1598001"/>
	<rect x="36.7840996" y="20.9928493" class="st18" width="2.1608" height="2.0548"/>
	<rect x="36.7840996" y="18.8331509" class="st19" width="2.1608" height="2.1596999"/>
	<rect x="36.7840996" y="16.7732506" class="st19" width="2.1608" height="2.0599"/>
	<rect x="36.7840996" y="14.6134501" class="st19" width="2.1608" height="2.1598001"/>
	<rect x="36.7840996" y="12.5535498" class="st20" width="2.1608" height="2.0599"/>
	<rect x="36.7840996" y="10.3937502" class="st16" width="2.1608" height="2.1598001"/>
	<rect x="36.7840996" y="8.3338499" class="st16" width="2.1608" height="2.0599"/>
	<rect x="34.7252007" y="31.4870491" class="st14" width="2.0589001" height="2.1608"/>
	<rect x="34.7252007" y="29.4281502" class="st18" width="2.0589001" height="2.0589001"/>
	<rect x="34.7252007" y="27.2673492" class="st18" width="2.0589001" height="2.1608"/>
	<rect x="34.7252007" y="25.2074509" class="st19" width="2.0589001" height="2.0599"/>
	<rect x="34.7252007" y="23.0476494" class="st18" width="2.0589001" height="2.1598001"/>
	<rect x="34.7252007" y="20.9928493" class="st18" width="2.0589001" height="2.0548"/>
	<rect x="34.7252007" y="18.8331509" class="st19" width="2.0589001" height="2.1596999"/>
	<rect x="34.7252007" y="16.7732506" class="st19" width="2.0589001" height="2.0599"/>
	<rect x="34.7252007" y="14.6134501" class="st19" width="2.0589001" height="2.1598001"/>
	<rect x="34.7252007" y="12.5535498" class="st18" width="2.0589001" height="2.0599"/>
	<rect x="34.7252007" y="10.3937502" class="st18" width="2.0589001" height="2.1598001"/>
	<rect x="34.7252007" y="8.3338499" class="st18" width="2.0589001" height="2.0599"/>
	<rect x="34.7252007" y="6.1740499" class="st14" width="2.0589001" height="2.1598001"/>
	<rect x="32.5643997" y="33.64785" class="st16" width="2.1608" height="2.0599"/>
	<rect x="32.5643997" y="31.4870491" class="st18" width="2.1608" height="2.1608"/>
	<rect x="32.5643997" y="29.4281502" class="st19" width="2.1608" height="2.0589001"/>
	<rect x="32.5643997" y="27.2673492" class="st18" width="2.1608" height="2.1608"/>
	<rect x="32.5643997" y="25.2074509" class="st21" width="2.1608" height="2.0599"/>
	<rect x="32.5643997" y="23.0476494" class="st22" width="2.1608" height="2.1598001"/>
	<rect x="32.5643997" y="20.9928493" class="st22" width="2.1608" height="2.0548"/>
	<rect x="32.5643997" y="18.8331509" class="st21" width="2.1608" height="2.1596999"/>
	<rect x="32.5643997" y="16.7732506" class="st21" width="2.1608" height="2.0599"/>
	<rect x="32.5643997" y="14.6134501" class="st21" width="2.1608" height="2.1598001"/>
	<rect x="32.5643997" y="12.5535498" class="st22" width="2.1608" height="2.0599"/>
	<rect x="32.5643997" y="10.3937502" class="st18" width="2.1608" height="2.1598001"/>
	<rect x="32.5643997" y="8.3338499" class="st19" width="2.1608" height="2.0599"/>
	<rect x="32.5643997" y="6.1740499" class="st18" width="2.1608" height="2.1598001"/>
	<rect x="32.5643997" y="4.1192498" class="st16" width="2.1608" height="2.0548"/>
	<rect x="30.5044994" y="35.7077484" class="st16" width="2.0599" height="2.1598001"/>
	<rect x="30.5044994" y="33.64785" class="st18" width="2.0599" height="2.0599"/>
	<rect x="30.5044994" y="31.4870491" class="st19" width="2.0599" height="2.1608"/>
	<rect x="30.5044994" y="29.4281502" class="st18" width="2.0599" height="2.0589001"/>
	<rect x="30.5044994" y="27.2673492" class="st22" width="2.0599" height="2.1608"/>
	<rect x="30.5044994" y="25.2074509" class="st22" width="2.0599" height="2.0599"/>
	<rect x="30.5044994" y="23.0476494" class="st21" width="2.0599" height="2.1598001"/>
	<rect x="30.5044994" y="20.9928493" class="st22" width="2.0599" height="2.0548"/>
	<rect x="30.5044994" y="18.8331509" class="st22" width="2.0599" height="2.1596999"/>
	<rect x="30.5044994" y="16.7732506" class="st21" width="2.0599" height="2.0599"/>
	<rect x="30.5044994" y="14.6134501" class="st21" width="2.0599" height="2.1598001"/>
	<rect x="30.5044994" y="12.5535498" class="st22" width="2.0599" height="2.0599"/>
	<rect x="30.5044994" y="10.3937502" class="st22" width="2.0599" height="2.1598001"/>
	<rect x="30.5044994" y="8.3338499" class="st21" width="2.0599" height="2.0599"/>
	<rect x="30.5044994" y="6.1740499" class="st18" width="2.0599" height="2.1598001"/>
	<rect x="30.5044994" y="4.1192498" class="st18" width="2.0599" height="2.0548"/>
	<rect x="30.5044994" y="2.05935" class="st16" width="2.0599" height="2.0599"/>
	<rect x="28.3446999" y="35.7077484" class="st18" width="2.1598001" height="2.1598001"/>
	<rect x="28.3446999" y="33.64785" class="st18" width="2.1598001" height="2.0599"/>
	<rect x="28.3446999" y="31.4870491" class="st21" width="2.1598001" height="2.1608"/>
	<rect x="28.3446999" y="29.4281502" class="st22" width="2.1598001" height="2.0589001"/>
	<rect x="28.3446999" y="27.2673492" class="st22" width="2.1598001" height="2.1608"/>
	<rect x="28.3446999" y="25.2074509" class="st22" width="2.1598001" height="2.0599"/>
	<rect x="28.3446999" y="23.0476494" class="st21" width="2.1598001" height="2.1598001"/>
	<rect x="28.3446999" y="20.9928493" class="st22" width="2.1598001" height="2.0548"/>
	<rect x="28.3446999" y="18.8331509" class="st22" width="2.1598001" height="2.1596999"/>
	<rect x="28.3446999" y="16.7732506" class="st21" width="2.1598001" height="2.0599"/>
	<rect x="28.3446999" y="14.6134501" class="st22" width="2.1598001" height="2.1598001"/>
	<rect x="28.3446999" y="12.5535498" class="st22" width="2.1598001" height="2.0599"/>
	<rect x="28.3446999" y="10.3937502" class="st21" width="2.1598001" height="2.1598001"/>
	<rect x="28.3446999" y="8.3338499" class="st22" width="2.1598001" height="2.0599"/>
	<rect x="28.3446999" y="6.1740499" class="st22" width="2.1598001" height="2.1598001"/>
	<rect x="28.3446999" y="4.1192498" class="st18" width="2.1598001" height="2.0548"/>
	<rect x="28.3446999" y="2.05935" class="st19" width="2.1598001" height="2.0599"/>
	<rect x="26.2898998" y="37.8675499" class="st16" width="2.0548" height="2.0548"/>
	<rect x="26.2898998" y="35.7077484" class="st18" width="2.0548" height="2.1598001"/>
	<rect x="26.2898998" y="33.64785" class="st19" width="2.0548" height="2.0599"/>
	<rect x="26.2898998" y="31.4870491" class="st22" width="2.0548" height="2.1608"/>
	<rect x="26.2898998" y="29.4281502" class="st22" width="2.0548" height="2.0589001"/>
	<rect x="26.2898998" y="27.2673492" class="st22" width="2.0548" height="2.1608"/>
	<rect x="26.2898998" y="25.2074509" class="st21" width="2.0548" height="2.0599"/>
	<rect x="26.2898998" y="23.0476494" class="st18" width="2.0548" height="2.1598001"/>
	<rect x="26.2898998" y="20.9928493" class="st22" width="2.0548" height="2.0548"/>
	<rect x="26.2898998" y="18.8331509" class="st21" width="2.0548" height="2.1596999"/>
	<rect x="26.2898998" y="16.7732506" class="st21" width="2.0548" height="2.0599"/>
	<rect x="26.2898998" y="14.6134501" class="st22" width="2.0548" height="2.1598001"/>
	<rect x="26.2898998" y="12.5535498" class="st18" width="2.0548" height="2.0599"/>
	<rect x="26.2898998" y="10.3937502" class="st21" width="2.0548" height="2.1598001"/>
	<rect x="26.2898998" y="8.3338499" class="st22" width="2.0548" height="2.0599"/>
	<rect x="26.2898998" y="6.1740499" class="st22" width="2.0548" height="2.1598001"/>
	<rect x="26.2898998" y="4.1192498" class="st21" width="2.0548" height="2.0548"/>
	<rect x="26.2898998" y="2.05935" class="st19" width="2.0548" height="2.0599"/>
	<rect x="26.2898998" y="-0.10035" class="st14" width="2.0548" height="2.1596999"/>
	<rect x="24.125" y="37.8675499" class="st18" width="2.1649001" height="2.0548"/>
	<rect x="24.125" y="35.7077484" class="st18" width="2.1649001" height="2.1598001"/>
	<rect x="24.125" y="33.64785" class="st21" width="2.1649001" height="2.0599"/>
	<rect x="24.125" y="31.4870491" class="st22" width="2.1649001" height="2.1608"/>
	<rect x="24.125" y="29.4281502" class="st22" width="2.1649001" height="2.0589001"/>
	<rect x="24.125" y="27.2673492" class="st21" width="2.1649001" height="2.1608"/>
	<rect x="24.125" y="25.2074509" class="st21" width="2.1649001" height="2.0599"/>
	<rect x="24.125" y="23.0476494" class="st22" width="2.1649001" height="2.1598001"/>
	<rect x="24.125" y="20.9928493" class="st22" width="2.1649001" height="2.0548"/>
	<rect x="24.125" y="18.8331509" class="st22" width="2.1649001" height="2.1596999"/>
	<rect x="24.125" y="16.7732506" class="st22" width="2.1649001" height="2.0599"/>
	<rect x="24.125" y="14.6134501" class="st18" width="2.1649001" height="2.1598001"/>
	<rect x="24.125" y="12.5535498" class="st22" width="2.1649001" height="2.0599"/>
	<rect x="24.125" y="10.3937502" class="st21" width="2.1649001" height="2.1598001"/>
	<rect x="24.125" y="8.3338499" class="st22" width="2.1649001" height="2.0599"/>
	<rect x="24.125" y="6.1740499" class="st22" width="2.1649001" height="2.1598001"/>
	<rect x="24.125" y="4.1192498" class="st21" width="2.1649001" height="2.0548"/>
	<rect x="24.125" y="2.05935" class="st22" width="2.1649001" height="2.0599"/>
	<rect x="24.125" y="-0.10035" class="st16" width="2.1649001" height="2.1596999"/>
	<rect x="22.0702991" y="37.8675499" class="st18" width="2.0546999" height="2.0548"/>
	<rect x="22.0702991" y="35.7077484" class="st22" width="2.0546999" height="2.1598001"/>
	<rect x="22.0702991" y="33.64785" class="st22" width="2.0546999" height="2.0599"/>
	<rect x="22.0702991" y="31.4870491" class="st21" width="2.0546999" height="2.1608"/>
	<rect x="22.0702991" y="29.4281502" class="st22" width="2.0546999" height="2.0589001"/>
	<rect x="22.0702991" y="27.2673492" class="st22" width="2.0546999" height="2.1608"/>
	<rect x="22.0702991" y="25.2074509" class="st21" width="2.0546999" height="2.0599"/>
	<rect x="22.0702991" y="23.0476494" class="st22" width="2.0546999" height="2.1598001"/>
	<rect x="22.0702991" y="20.9928493" class="st22" width="2.0546999" height="2.0548"/>
	<rect x="22.0702991" y="18.8331509" class="st22" width="2.0546999" height="2.1596999"/>
	<rect x="22.0702991" y="16.7732506" class="st22" width="2.0546999" height="2.0599"/>
	<rect x="22.0702991" y="14.6134501" class="st22" width="2.0546999" height="2.1598001"/>
	<rect x="22.0702991" y="12.5535498" class="st21" width="2.0546999" height="2.0599"/>
	<rect x="22.0702991" y="10.3937502" class="st22" width="2.0546999" height="2.1598001"/>
	<rect x="22.0702991" y="8.3338499" class="st22" width="2.0546999" height="2.0599"/>
	<rect x="22.0702991" y="6.1740499" class="st21" width="2.0546999" height="2.1598001"/>
	<rect x="22.0702991" y="4.1192498" class="st21" width="2.0546999" height="2.0548"/>
	<rect x="22.0702991" y="2.05935" class="st22" width="2.0546999" height="2.0599"/>
	<rect x="22.0702991" y="-0.10035" class="st18" width="2.0546999" height="2.1596999"/>
	<rect x="19.9104996" y="37.8675499" class="st18" width="2.1598001" height="2.0548"/>
	<rect x="19.9104996" y="35.7077484" class="st22" width="2.1598001" height="2.1598001"/>
	<rect x="19.9104996" y="33.64785" class="st22" width="2.1598001" height="2.0599"/>
	<rect x="19.9104996" y="31.4870491" class="st21" width="2.1598001" height="2.1608"/>
	<rect x="19.9104996" y="29.4281502" class="st22" width="2.1598001" height="2.0589001"/>
	<rect x="19.9104996" y="27.2673492" class="st21" width="2.1598001" height="2.1608"/>
	<rect x="19.9104996" y="25.2074509" class="st22" width="2.1598001" height="2.0599"/>
	<rect x="19.9104996" y="23.0476494" class="st22" width="2.1598001" height="2.1598001"/>
	<rect x="19.9104996" y="20.9928493" class="st22" width="2.1598001" height="2.0548"/>
	<rect x="19.9104996" y="18.8331509" class="st21" width="2.1598001" height="2.1596999"/>
	<rect x="19.9104996" y="16.7732506" class="st22" width="2.1598001" height="2.0599"/>
	<rect x="19.9104996" y="14.6134501" class="st21" width="2.1598001" height="2.1598001"/>
	<rect x="19.9104996" y="12.5535498" class="st22" width="2.1598001" height="2.0599"/>
	<rect x="19.9104996" y="10.3937502" class="st22" width="2.1598001" height="2.1598001"/>
	<rect x="19.9104996" y="8.3338499" class="st21" width="2.1598001" height="2.0599"/>
	<rect x="19.9104996" y="6.1740499" class="st21" width="2.1598001" height="2.1598001"/>
	<rect x="19.9104996" y="4.1192498" class="st18" width="2.1598001" height="2.0548"/>
	<rect x="19.9104996" y="2.05935" class="st22" width="2.1598001" height="2.0599"/>
	<rect x="19.9104996" y="-0.10035" class="st22" width="2.1598001" height="2.1596999"/>
	<rect x="17.8505993" y="37.8675499" class="st22" width="2.0599" height="2.0548"/>
	<rect x="17.8505993" y="35.7077484" class="st22" width="2.0599" height="2.1598001"/>
	<rect x="17.8505993" y="33.64785" class="st21" width="2.0599" height="2.0599"/>
	<rect x="17.8505993" y="31.4870491" class="st22" width="2.0599" height="2.1608"/>
	<rect x="17.8505993" y="29.4281502" class="st22" width="2.0599" height="2.0589001"/>
	<rect x="17.8505993" y="27.2673492" class="st21" width="2.0599" height="2.1608"/>
	<rect x="17.8505993" y="25.2074509" class="st22" width="2.0599" height="2.0599"/>
	<rect x="17.8505993" y="23.0476494" class="st22" width="2.0599" height="2.1598001"/>
	<rect x="17.8505993" y="20.9928493" class="st21" width="2.0599" height="2.0548"/>
	<rect x="17.8505993" y="18.8331509" class="st21" width="2.0599" height="2.1596999"/>
	<rect x="17.8505993" y="16.7732506" class="st22" width="2.0599" height="2.0599"/>
	<rect x="17.8505993" y="14.6134501" class="st22" width="2.0599" height="2.1598001"/>
	<rect x="17.8505993" y="12.5535498" class="st21" width="2.0599" height="2.0599"/>
	<rect x="17.8505993" y="10.3937502" class="st22" width="2.0599" height="2.1598001"/>
	<rect x="17.8505993" y="8.3338499" class="st21" width="2.0599" height="2.0599"/>
	<rect x="17.8505993" y="6.1740499" class="st21" width="2.0599" height="2.1598001"/>
	<rect x="17.8505993" y="4.1192498" class="st22" width="2.0599" height="2.0548"/>
	<rect x="17.8505993" y="2.05935" class="st22" width="2.0599" height="2.0599"/>
	<rect x="17.8505993" y="-0.10035" class="st21" width="2.0599" height="2.1596999"/>
	<rect x="15.6908998" y="37.8675499" class="st22" width="2.1596999" height="2.0548"/>
	<rect x="15.6908998" y="35.7077484" class="st21" width="2.1596999" height="2.1598001"/>
	<rect x="15.6908998" y="33.64785" class="st22" width="2.1596999" height="2.0599"/>
	<rect x="15.6908998" y="31.4870491" class="st22" width="2.1596999" height="2.1608"/>
	<rect x="15.6908998" y="29.4281502" class="st21" width="2.1596999" height="2.0589001"/>
	<rect x="15.6908998" y="27.2673492" class="st22" width="2.1596999" height="2.1608"/>
	<rect x="15.6908998" y="25.2074509" class="st18" width="2.1596999" height="2.0599"/>
	<rect x="15.6908998" y="23.0476494" class="st18" width="2.1596999" height="2.1598001"/>
	<rect x="15.6908998" y="20.9928493" class="st21" width="2.1596999" height="2.0548"/>
	<rect x="15.6908998" y="18.8331509" class="st21" width="2.1596999" height="2.1596999"/>
	<rect x="15.6908998" y="16.7732506" class="st22" width="2.1596999" height="2.0599"/>
	<rect x="15.6908998" y="14.6134501" class="st22" width="2.1596999" height="2.1598001"/>
	<rect x="15.6908998" y="12.5535498" class="st21" width="2.1596999" height="2.0599"/>
	<rect x="15.6908998" y="10.3937502" class="st22" width="2.1596999" height="2.1598001"/>
	<rect x="15.6908998" y="8.3338499" class="st22" width="2.1596999" height="2.0599"/>
	<rect x="15.6908998" y="6.1740499" class="st21" width="2.1596999" height="2.1598001"/>
	<rect x="15.6908998" y="4.1192498" class="st22" width="2.1596999" height="2.0548"/>
	<rect x="15.6908998" y="2.05935" class="st22" width="2.1596999" height="2.0599"/>
	<rect x="15.6908998" y="-0.10035" class="st23" width="2.1596999" height="2.1596999"/>
	<rect x="13.6309004" y="37.8675499" class="st24" width="2.0599999" height="2.0548"/>
	<rect x="13.6309004" y="35.7077484" class="st21" width="2.0599999" height="2.1598001"/>
	<rect x="13.6309004" y="33.64785" class="st18" width="2.0599999" height="2.0599"/>
	<rect x="13.6309004" y="31.4870491" class="st22" width="2.0599999" height="2.1608"/>
	<rect x="13.6309004" y="29.4281502" class="st21" width="2.0599999" height="2.0589001"/>
	<rect x="13.6309004" y="27.2673492" class="st22" width="2.0599999" height="2.1608"/>
	<rect x="13.6309004" y="25.2074509" class="st22" width="2.0599999" height="2.0599"/>
	<rect x="13.6309004" y="23.0476494" class="st18" width="2.0599999" height="2.1598001"/>
	<rect x="13.6309004" y="20.9928493" class="st21" width="2.0599999" height="2.0548"/>
	<rect x="13.6309004" y="18.8331509" class="st21" width="2.0599999" height="2.1596999"/>
	<rect x="13.6309004" y="16.7732506" class="st22" width="2.0599999" height="2.0599"/>
	<rect x="13.6309004" y="14.6134501" class="st22" width="2.0599999" height="2.1598001"/>
	<rect x="13.6309004" y="12.5535498" class="st22" width="2.0599999" height="2.0599"/>
	<rect x="13.6309004" y="10.3937502" class="st21" width="2.0599999" height="2.1598001"/>
	<rect x="13.6309004" y="8.3338499" class="st22" width="2.0599999" height="2.0599"/>
	<rect x="13.6309004" y="6.1740499" class="st22" width="2.0599999" height="2.1598001"/>
	<rect x="13.6309004" y="4.1192498" class="st22" width="2.0599999" height="2.0548"/>
	<rect x="13.6309004" y="2.05935" class="st22" width="2.0599999" height="2.0599"/>
	<rect x="13.6309004" y="-0.10035" class="st24" width="2.0599999" height="2.1596999"/>
	<rect x="11.5761003" y="35.7077484" class="st22" width="2.0548" height="2.1598001"/>
	<rect x="11.5761003" y="33.64785" class="st21" width="2.0548" height="2.0599"/>
	<rect x="11.5761003" y="31.4870491" class="st18" width="2.0548" height="2.1608"/>
	<rect x="11.5761003" y="29.4281502" class="st21" width="2.0548" height="2.0589001"/>
	<rect x="11.5761003" y="27.2673492" class="st22" width="2.0548" height="2.1608"/>
	<rect x="11.5761003" y="25.2074509" class="st22" width="2.0548" height="2.0599"/>
	<rect x="11.5761003" y="23.0476494" class="st21" width="2.0548" height="2.1598001"/>
	<rect x="11.5761003" y="20.9928493" class="st21" width="2.0548" height="2.0548"/>
	<rect x="11.5761003" y="18.8331509" class="st21" width="2.0548" height="2.1596999"/>
	<rect x="11.5761003" y="16.7732506" class="st22" width="2.0548" height="2.0599"/>
	<rect x="11.5761003" y="14.6134501" class="st18" width="2.0548" height="2.1598001"/>
	<rect x="11.5761003" y="12.5535498" class="st18" width="2.0548" height="2.0599"/>
	<rect x="11.5761003" y="10.3937502" class="st21" width="2.0548" height="2.1598001"/>
	<rect x="11.5761003" y="8.3338499" class="st22" width="2.0548" height="2.0599"/>
	<rect x="11.5761003" y="6.1740499" class="st22" width="2.0548" height="2.1598001"/>
	<rect x="11.5761003" y="4.1192498" class="st21" width="2.0548" height="2.0548"/>
	<rect x="11.5761003" y="2.05935" class="st24" width="2.0548" height="2.0599"/>
	<rect x="9.4111996" y="35.7077484" class="st24" width="2.1649001" height="2.1598001"/>
	<rect x="9.4111996" y="33.64785" class="st21" width="2.1649001" height="2.0599"/>
	<rect x="9.4111996" y="31.4870491" class="st22" width="2.1649001" height="2.1608"/>
	<rect x="9.4111996" y="29.4281502" class="st21" width="2.1649001" height="2.0589001"/>
	<rect x="9.4111996" y="27.2673492" class="st22" width="2.1649001" height="2.1608"/>
	<rect x="9.4111996" y="25.2074509" class="st22" width="2.1649001" height="2.0599"/>
	<rect x="9.4111996" y="23.0476494" class="st21" width="2.1649001" height="2.1598001"/>
	<rect x="9.4111996" y="20.9928493" class="st21" width="2.1649001" height="2.0548"/>
	<rect x="9.4111996" y="18.8331509" class="st21" width="2.1649001" height="2.1596999"/>
	<rect x="9.4111996" y="16.7732506" class="st22" width="2.1649001" height="2.0599"/>
	<rect x="9.4111996" y="14.6134501" class="st22" width="2.1649001" height="2.1598001"/>
	<rect x="9.4111996" y="12.5535498" class="st18" width="2.1649001" height="2.0599"/>
	<rect x="9.4111996" y="10.3937502" class="st18" width="2.1649001" height="2.1598001"/>
	<rect x="9.4111996" y="8.3338499" class="st21" width="2.1649001" height="2.0599"/>
	<rect x="9.4111996" y="6.1740499" class="st22" width="2.1649001" height="2.1598001"/>
	<rect x="9.4111996" y="4.1192498" class="st23" width="2.1649001" height="2.0548"/>
	<rect x="9.4111996" y="2.05935" class="st23" width="2.1649001" height="2.0599"/>
	<rect x="7.3565001" y="33.64785" class="st23" width="2.0546999" height="2.0599"/>
	<rect x="7.3565001" y="31.4870491" class="st22" width="2.0546999" height="2.1608"/>
	<rect x="7.3565001" y="29.4281502" class="st21" width="2.0546999" height="2.0589001"/>
	<rect x="7.3565001" y="27.2673492" class="st22" width="2.0546999" height="2.1608"/>
	<rect x="7.3565001" y="25.2074509" class="st22" width="2.0546999" height="2.0599"/>
	<rect x="7.3565001" y="23.0476494" class="st21" width="2.0546999" height="2.1598001"/>
	<rect x="7.3565001" y="20.9928493" class="st21" width="2.0546999" height="2.0548"/>
	<rect x="7.3565001" y="18.8331509" class="st21" width="2.0546999" height="2.1596999"/>
	<rect x="7.3565001" y="16.7732506" class="st21" width="2.0546999" height="2.0599"/>
	<rect x="7.3565001" y="14.6134501" class="st22" width="2.0546999" height="2.1598001"/>
	<rect x="7.3565001" y="12.5535498" class="st22" width="2.0546999" height="2.0599"/>
	<rect x="7.3565001" y="10.3937502" class="st22" width="2.0546999" height="2.1598001"/>
	<rect x="7.3565001" y="8.3338499" class="st21" width="2.0546999" height="2.0599"/>
	<rect x="7.3565001" y="6.1740499" class="st22" width="2.0546999" height="2.1598001"/>
	<rect x="7.3565001" y="4.1192498" class="st23" width="2.0546999" height="2.0548"/>
	<rect x="5.1967001" y="31.4870491" class="st24" width="2.1598001" height="2.1608"/>
	<rect x="5.1967001" y="29.4281502" class="st21" width="2.1598001" height="2.0589001"/>
	<rect x="5.1967001" y="27.2673492" class="st23" width="2.1598001" height="2.1608"/>
	<rect x="5.1967001" y="25.2074509" class="st18" width="2.1598001" height="2.0599"/>
	<rect x="5.1967001" y="23.0476494" class="st21" width="2.1598001" height="2.1598001"/>
	<rect x="5.1967001" y="20.9928493" class="st21" width="2.1598001" height="2.0548"/>
	<rect x="5.1967001" y="18.8331509" class="st21" width="2.1598001" height="2.1596999"/>
	<rect x="5.1967001" y="16.7732506" class="st21" width="2.1598001" height="2.0599"/>
	<rect x="5.1967001" y="14.6134501" class="st21" width="2.1598001" height="2.1598001"/>
	<rect x="5.1967001" y="12.5535498" class="st22" width="2.1598001" height="2.0599"/>
	<rect x="5.1967001" y="10.3937502" class="st23" width="2.1598001" height="2.1598001"/>
	<rect x="5.1967001" y="8.3338499" class="st22" width="2.1598001" height="2.0599"/>
	<rect x="5.1967001" y="6.1740499" class="st24" width="2.1598001" height="2.1598001"/>
	<rect x="3.1368001" y="29.4281502" class="st23" width="2.0599" height="2.0589001"/>
	<rect x="3.1368001" y="27.2673492" class="st23" width="2.0599" height="2.1608"/>
	<rect x="3.1368001" y="25.2074509" class="st22" width="2.0599" height="2.0599"/>
	<rect x="3.1368001" y="23.0476494" class="st22" width="2.0599" height="2.1598001"/>
	<rect x="3.1368001" y="20.9928493" class="st23" width="2.0599" height="2.0548"/>
	<rect x="3.1368001" y="18.8331509" class="st23" width="2.0599" height="2.1596999"/>
	<rect x="3.1368001" y="16.7732506" class="st23" width="2.0599" height="2.0599"/>
	<rect x="3.1368001" y="14.6134501" class="st23" width="2.0599" height="2.1598001"/>
	<rect x="3.1368001" y="12.5535498" class="st22" width="2.0599" height="2.0599"/>
	<rect x="3.1368001" y="10.3937502" class="st23" width="2.0599" height="2.1598001"/>
	<rect x="3.1368001" y="8.3338499" class="st24" width="2.0599" height="2.0599"/>
	<rect x="0.977" y="25.2074509" class="st24" width="2.1598001" height="2.0599"/>
	<rect x="0.977" y="23.0476494" class="st24" width="2.1598001" height="2.1598001"/>
	<rect x="0.977" y="20.9928493" class="st23" width="2.1598001" height="2.0548"/>
	<rect x="0.977" y="18.8331509" class="st23" width="2.1598001" height="2.1596999"/>
	<rect x="0.977" y="16.7732506" class="st23" width="2.1598001" height="2.0599"/>
	<rect x="0.977" y="14.6134501" class="st23" width="2.1598001" height="2.1598001"/>
	<rect x="0.977" y="12.5535498" class="st24" width="2.1598001" height="2.0599"/>
</g>
<g>
	<rect x="39.7644501" y="60.9106483" class="st9" width="2.1649001" height="2.0599"/>
	<rect x="39.7644501" y="58.7504501" class="st9" width="2.1649001" height="2.1602001"/>
	<rect x="39.7644501" y="56.6961517" class="st9" width="2.1649001" height="2.0543001"/>
	<rect x="37.7096481" y="65.1303482" class="st9" width="2.0548" height="2.0599"/>
	<rect x="37.7096481" y="62.9705505" class="st9" width="2.0548" height="2.1598001"/>
	<rect x="37.7096481" y="60.9106483" class="st16" width="2.0548" height="2.0599"/>
	<rect x="37.7096481" y="58.7504501" class="st16" width="2.0548" height="2.1602001"/>
	<rect x="37.7096481" y="56.6961517" class="st16" width="2.0548" height="2.0543001"/>
	<rect x="37.7096481" y="54.6361504" class="st9" width="2.0548" height="2.0599999"/>
	<rect x="37.7096481" y="52.4759483" class="st9" width="2.0548" height="2.1602001"/>
	<rect x="35.6497498" y="67.1902466" class="st9" width="2.0599" height="2.0543001"/>
	<rect x="35.6497498" y="65.1303482" class="st16" width="2.0599" height="2.0599"/>
	<rect x="35.6497498" y="62.9705505" class="st16" width="2.0599" height="2.1598001"/>
	<rect x="35.6497498" y="60.9106483" class="st22" width="2.0599" height="2.0599"/>
	<rect x="35.6497498" y="58.7504501" class="st16" width="2.0599" height="2.1602001"/>
	<rect x="35.6497498" y="56.6961517" class="st22" width="2.0599" height="2.0543001"/>
	<rect x="35.6497498" y="54.6361504" class="st16" width="2.0599" height="2.0599999"/>
	<rect x="35.6497498" y="52.4759483" class="st16" width="2.0599" height="2.1602001"/>
	<rect x="35.6497498" y="50.4165497" class="st9" width="2.0599" height="2.0594001"/>
	<rect x="33.4900513" y="71.4099503" class="st9" width="2.1596999" height="2.0548"/>
	<rect x="33.4900513" y="69.2445526" class="st9" width="2.1596999" height="2.1654"/>
	<rect x="33.4900513" y="67.1902466" class="st16" width="2.1596999" height="2.0543001"/>
	<rect x="33.4900513" y="65.1303482" class="st19" width="2.1596999" height="2.0599"/>
	<rect x="33.4900513" y="62.9705505" class="st22" width="2.1596999" height="2.1598001"/>
	<rect x="33.4900513" y="60.9106483" class="st16" width="2.1596999" height="2.0599"/>
	<rect x="33.4900513" y="58.7504501" class="st22" width="2.1596999" height="2.1602001"/>
	<rect x="33.4900513" y="56.6961517" class="st16" width="2.1596999" height="2.0543001"/>
	<rect x="33.4900513" y="54.6361504" class="st22" width="2.1596999" height="2.0599999"/>
	<rect x="33.4900513" y="52.4759483" class="st16" width="2.1596999" height="2.1602001"/>
	<rect x="33.4900513" y="50.4165497" class="st22" width="2.1596999" height="2.0594001"/>
	<rect x="33.4900513" y="48.3617516" class="st9" width="2.1596999" height="2.0548"/>
	<rect x="31.4300499" y="71.4099503" class="st9" width="2.0599999" height="2.0548"/>
	<rect x="31.4300499" y="69.2445526" class="st16" width="2.0599999" height="2.1654"/>
	<rect x="31.4300499" y="67.1902466" class="st22" width="2.0599999" height="2.0543001"/>
	<rect x="31.4300499" y="65.1303482" class="st22" width="2.0599999" height="2.0599"/>
	<rect x="31.4300499" y="62.9705505" class="st19" width="2.0599999" height="2.1598001"/>
	<rect x="31.4300499" y="60.9106483" class="st22" width="2.0599999" height="2.0599"/>
	<rect x="31.4300499" y="58.7504501" class="st22" width="2.0599999" height="2.1602001"/>
	<rect x="31.4300499" y="56.6961517" class="st22" width="2.0599999" height="2.0543001"/>
	<rect x="31.4300499" y="54.6361504" class="st22" width="2.0599999" height="2.0599999"/>
	<rect x="31.4300499" y="52.4759483" class="st25" width="2.0599999" height="2.1602001"/>
	<rect x="31.4300499" y="50.4165497" class="st16" width="2.0599999" height="2.0594001"/>
	<rect x="31.4300499" y="48.3617516" class="st16" width="2.0599999" height="2.0548"/>
	<rect x="31.4300499" y="46.1962509" class="st9" width="2.0599999" height="2.1654999"/>
	<rect x="29.3752499" y="73.4647522" class="st9" width="2.0548" height="2.0595"/>
	<rect x="29.3752499" y="71.4099503" class="st16" width="2.0548" height="2.0548"/>
	<rect x="29.3752499" y="69.2445526" class="st22" width="2.0548" height="2.1654"/>
	<rect x="29.3752499" y="67.1902466" class="st22" width="2.0548" height="2.0543001"/>
	<rect x="29.3752499" y="65.1303482" class="st19" width="2.0548" height="2.0599"/>
	<rect x="29.3752499" y="62.9705505" class="st22" width="2.0548" height="2.1598001"/>
	<rect x="29.3752499" y="60.9106483" class="st25" width="2.0548" height="2.0599"/>
	<rect x="29.3752499" y="58.7504501" class="st19" width="2.0548" height="2.1602001"/>
	<rect x="29.3752499" y="56.6961517" class="st22" width="2.0548" height="2.0543001"/>
	<rect x="29.3752499" y="54.6361504" class="st19" width="2.0548" height="2.0599999"/>
	<rect x="29.3752499" y="52.4759483" class="st22" width="2.0548" height="2.1602001"/>
	<rect x="29.3752499" y="50.4165497" class="st22" width="2.0548" height="2.0594001"/>
	<rect x="29.3752499" y="48.3617516" class="st16" width="2.0548" height="2.0548"/>
	<rect x="29.3752499" y="46.1962509" class="st22" width="2.0548" height="2.1654999"/>
	<rect x="29.3752499" y="44.1420517" class="st9" width="2.0548" height="2.0541999"/>
	<rect x="27.2155495" y="75.5242462" class="st9" width="2.1596999" height="2.1602001"/>
	<rect x="27.2155495" y="73.4647522" class="st16" width="2.1596999" height="2.0595"/>
	<rect x="27.2155495" y="71.4099503" class="st16" width="2.1596999" height="2.0548"/>
	<rect x="27.2155495" y="69.2445526" class="st19" width="2.1596999" height="2.1654"/>
	<rect x="27.2155495" y="67.1902466" class="st22" width="2.1596999" height="2.0543001"/>
	<rect x="27.2155495" y="65.1303482" class="st19" width="2.1596999" height="2.0599"/>
	<rect x="27.2155495" y="62.9705505" class="st25" width="2.1596999" height="2.1598001"/>
	<rect x="27.2155495" y="60.9106483" class="st19" width="2.1596999" height="2.0599"/>
	<rect x="27.2155495" y="58.7504501" class="st25" width="2.1596999" height="2.1602001"/>
	<rect x="27.2155495" y="56.6961517" class="st19" width="2.1596999" height="2.0543001"/>
	<rect x="27.2155495" y="54.6361504" class="st22" width="2.1596999" height="2.0599999"/>
	<rect x="27.2155495" y="52.4759483" class="st22" width="2.1596999" height="2.1602001"/>
	<rect x="27.2155495" y="50.4165497" class="st25" width="2.1596999" height="2.0594001"/>
	<rect x="27.2155495" y="48.3617516" class="st22" width="2.1596999" height="2.0548"/>
	<rect x="27.2155495" y="46.1962509" class="st16" width="2.1596999" height="2.1654999"/>
	<rect x="27.2155495" y="44.1420517" class="st16" width="2.1596999" height="2.0541999"/>
	<rect x="27.2155495" y="41.9817505" class="st9" width="2.1596999" height="2.1603"/>
	<rect x="25.15555" y="75.5242462" class="st9" width="2.0599999" height="2.1602001"/>
	<rect x="25.15555" y="73.4647522" class="st22" width="2.0599999" height="2.0595"/>
	<rect x="25.15555" y="71.4099503" class="st19" width="2.0599999" height="2.0548"/>
	<rect x="25.15555" y="69.2445526" class="st13" width="2.0599999" height="2.1654"/>
	<rect x="25.15555" y="67.1902466" class="st19" width="2.0599999" height="2.0543001"/>
	<rect x="25.15555" y="65.1303482" class="st22" width="2.0599999" height="2.0599"/>
	<rect x="25.15555" y="62.9705505" class="st25" width="2.0599999" height="2.1598001"/>
	<rect x="25.15555" y="60.9106483" class="st25" width="2.0599999" height="2.0599"/>
	<rect x="25.15555" y="58.7504501" class="st25" width="2.0599999" height="2.1602001"/>
	<rect x="25.15555" y="56.6961517" class="st25" width="2.0599999" height="2.0543001"/>
	<rect x="25.15555" y="54.6361504" class="st19" width="2.0599999" height="2.0599999"/>
	<rect x="25.15555" y="52.4759483" class="st19" width="2.0599999" height="2.1602001"/>
	<rect x="25.15555" y="50.4165497" class="st22" width="2.0599999" height="2.0594001"/>
	<rect x="25.15555" y="48.3617516" class="st22" width="2.0599999" height="2.0548"/>
	<rect x="25.15555" y="46.1962509" class="st22" width="2.0599999" height="2.1654999"/>
	<rect x="25.15555" y="44.1420517" class="st16" width="2.0599999" height="2.0541999"/>
	<rect x="25.15555" y="41.9817505" class="st9" width="2.0599999" height="2.1603"/>
	<rect x="22.9958496" y="77.6844482" class="st9" width="2.1596999" height="2.0599"/>
	<rect x="22.9958496" y="75.5242462" class="st16" width="2.1596999" height="2.1602001"/>
	<rect x="22.9958496" y="73.4647522" class="st16" width="2.1596999" height="2.0595"/>
	<rect x="22.9958496" y="71.4099503" class="st19" width="2.1596999" height="2.0548"/>
	<rect x="22.9958496" y="69.2445526" class="st25" width="2.1596999" height="2.1654"/>
	<rect x="22.9958496" y="67.1902466" class="st25" width="2.1596999" height="2.0543001"/>
	<rect x="22.9958496" y="65.1303482" class="st25" width="2.1596999" height="2.0599"/>
	<rect x="22.9958496" y="62.9705505" class="st25" width="2.1596999" height="2.1598001"/>
	<rect x="22.9958496" y="60.9106483" class="st13" width="2.1596999" height="2.0599"/>
	<rect x="22.9958496" y="58.7504501" class="st19" width="2.1596999" height="2.1602001"/>
	<rect x="22.9958496" y="56.6961517" class="st25" width="2.1596999" height="2.0543001"/>
	<rect x="22.9958496" y="54.6361504" class="st22" width="2.1596999" height="2.0599999"/>
	<rect x="22.9958496" y="52.4759483" class="st22" width="2.1596999" height="2.1602001"/>
	<rect x="22.9958496" y="50.4165497" class="st19" width="2.1596999" height="2.0594001"/>
	<rect x="22.9958496" y="48.3617516" class="st22" width="2.1596999" height="2.0548"/>
	<rect x="22.9958496" y="46.1962509" class="st19" width="2.1596999" height="2.1654999"/>
	<rect x="22.9958496" y="44.1420517" class="st22" width="2.1596999" height="2.0541999"/>
	<rect x="22.9958496" y="41.9817505" class="st16" width="2.1596999" height="2.1603"/>
	<rect x="22.9958496" y="39.9223518" class="st9" width="2.1596999" height="2.0594001"/>
	<rect x="20.9359493" y="77.6844482" class="st9" width="2.0599" height="2.0599"/>
	<rect x="20.9359493" y="75.5242462" class="st16" width="2.0599" height="2.1602001"/>
	<rect x="20.9359493" y="73.4647522" class="st22" width="2.0599" height="2.0595"/>
	<rect x="20.9359493" y="71.4099503" class="st22" width="2.0599" height="2.0548"/>
	<rect x="20.9359493" y="69.2445526" class="st19" width="2.0599" height="2.1654"/>
	<rect x="20.9359493" y="67.1902466" class="st19" width="2.0599" height="2.0543001"/>
	<rect x="20.9359493" y="65.1303482" class="st25" width="2.0599" height="2.0599"/>
	<rect x="20.9359493" y="62.9705505" class="st25" width="2.0599" height="2.1598001"/>
	<rect x="20.9359493" y="60.9106483" class="st13" width="2.0599" height="2.0599"/>
	<rect x="20.9359493" y="58.7504501" class="st25" width="2.0599" height="2.1602001"/>
	<rect x="20.9359493" y="56.6961517" class="st25" width="2.0599" height="2.0543001"/>
	<rect x="20.9359493" y="54.6361504" class="st19" width="2.0599" height="2.0599999"/>
	<rect x="20.9359493" y="52.4759483" class="st19" width="2.0599" height="2.1602001"/>
	<rect x="20.9359493" y="50.4165497" class="st25" width="2.0599" height="2.0594001"/>
	<rect x="20.9359493" y="48.3617516" class="st19" width="2.0599" height="2.0548"/>
	<rect x="20.9359493" y="46.1962509" class="st22" width="2.0599" height="2.1654999"/>
	<rect x="20.9359493" y="44.1420517" class="st16" width="2.0599" height="2.0541999"/>
	<rect x="20.9359493" y="41.9817505" class="st16" width="2.0599" height="2.1603"/>
	<rect x="20.9359493" y="39.9223518" class="st9" width="2.0599" height="2.0594001"/>
	<rect x="18.8811493" y="75.5242462" class="st9" width="2.0548" height="2.1602001"/>
	<rect x="18.8811493" y="73.4647522" class="st25" width="2.0548" height="2.0595"/>
	<rect x="18.8811493" y="71.4099503" class="st22" width="2.0548" height="2.0548"/>
	<rect x="18.8811493" y="69.2445526" class="st19" width="2.0548" height="2.1654"/>
	<rect x="18.8811493" y="67.1902466" class="st25" width="2.0548" height="2.0543001"/>
	<rect x="18.8811493" y="65.1303482" class="st13" width="2.0548" height="2.0599"/>
	<rect x="18.8811493" y="62.9705505" class="st13" width="2.0548" height="2.1598001"/>
	<rect x="18.8811493" y="60.9106483" class="st13" width="2.0548" height="2.0599"/>
	<rect x="18.8811493" y="58.7504501" class="st13" width="2.0548" height="2.1602001"/>
	<rect x="18.8811493" y="56.6961517" class="st25" width="2.0548" height="2.0543001"/>
	<rect x="18.8811493" y="54.6361504" class="st13" width="2.0548" height="2.0599999"/>
	<rect x="18.8811493" y="52.4759483" class="st25" width="2.0548" height="2.1602001"/>
	<rect x="18.8811493" y="50.4165497" class="st13" width="2.0548" height="2.0594001"/>
	<rect x="18.8811493" y="48.3617516" class="st25" width="2.0548" height="2.0548"/>
	<rect x="18.8811493" y="46.1962509" class="st19" width="2.0548" height="2.1654999"/>
	<rect x="18.8811493" y="44.1420517" class="st22" width="2.0548" height="2.0541999"/>
	<rect x="18.8811493" y="41.9817505" class="st16" width="2.0548" height="2.1603"/>
	<rect x="18.8811493" y="39.9223518" class="st9" width="2.0548" height="2.0594001"/>
	<rect x="16.7162495" y="75.5242462" class="st9" width="2.1649001" height="2.1602001"/>
	<rect x="16.7162495" y="73.4647522" class="st16" width="2.1649001" height="2.0595"/>
	<rect x="16.7162495" y="71.4099503" class="st19" width="2.1649001" height="2.0548"/>
	<rect x="16.7162495" y="69.2445526" class="st22" width="2.1649001" height="2.1654"/>
	<rect x="16.7162495" y="67.1902466" class="st19" width="2.1649001" height="2.0543001"/>
	<rect x="16.7162495" y="65.1303482" class="st25" width="2.1649001" height="2.0599"/>
	<rect x="16.7162495" y="62.9705505" class="st25" width="2.1649001" height="2.1598001"/>
	<rect x="16.7162495" y="60.9106483" class="st13" width="2.1649001" height="2.0599"/>
	<rect x="16.7162495" y="58.7504501" class="st25" width="2.1649001" height="2.1602001"/>
	<rect x="16.7162495" y="56.6961517" class="st25" width="2.1649001" height="2.0543001"/>
	<rect x="16.7162495" y="54.6361504" class="st22" width="2.1649001" height="2.0599999"/>
	<rect x="16.7162495" y="52.4759483" class="st19" width="2.1649001" height="2.1602001"/>
	<rect x="16.7162495" y="50.4165497" class="st22" width="2.1649001" height="2.0594001"/>
	<rect x="16.7162495" y="48.3617516" class="st19" width="2.1649001" height="2.0548"/>
	<rect x="16.7162495" y="46.1962509" class="st22" width="2.1649001" height="2.1654999"/>
	<rect x="16.7162495" y="44.1420517" class="st22" width="2.1649001" height="2.0541999"/>
	<rect x="16.7162495" y="41.9817505" class="st22" width="2.1649001" height="2.1603"/>
	<rect x="16.7162495" y="39.9223518" class="st9" width="2.1649001" height="2.0594001"/>
	<rect x="14.6614504" y="75.5242462" class="st9" width="2.0548" height="2.1602001"/>
	<rect x="14.6614504" y="73.4647522" class="st22" width="2.0548" height="2.0595"/>
	<rect x="14.6614504" y="71.4099503" class="st16" width="2.0548" height="2.0548"/>
	<rect x="14.6614504" y="69.2445526" class="st22" width="2.0548" height="2.1654"/>
	<rect x="14.6614504" y="67.1902466" class="st19" width="2.0548" height="2.0543001"/>
	<rect x="14.6614504" y="65.1303482" class="st25" width="2.0548" height="2.0599"/>
	<rect x="14.6614504" y="62.9705505" class="st25" width="2.0548" height="2.1598001"/>
	<rect x="14.6614504" y="60.9106483" class="st25" width="2.0548" height="2.0599"/>
	<rect x="14.6614504" y="58.7504501" class="st25" width="2.0548" height="2.1602001"/>
	<rect x="14.6614504" y="56.6961517" class="st19" width="2.0548" height="2.0543001"/>
	<rect x="14.6614504" y="54.6361504" class="st19" width="2.0548" height="2.0599999"/>
	<rect x="14.6614504" y="52.4759483" class="st25" width="2.0548" height="2.1602001"/>
	<rect x="14.6614504" y="50.4165497" class="st19" width="2.0548" height="2.0594001"/>
	<rect x="14.6614504" y="48.3617516" class="st22" width="2.0548" height="2.0548"/>
	<rect x="14.6614504" y="46.1962509" class="st22" width="2.0548" height="2.1654999"/>
	<rect x="14.6614504" y="44.1420517" class="st16" width="2.0548" height="2.0541999"/>
	<rect x="14.6614504" y="41.9817505" class="st16" width="2.0548" height="2.1603"/>
	<rect x="14.6614504" y="39.9223518" class="st9" width="2.0548" height="2.0594001"/>
	<rect x="12.60145" y="73.4647522" class="st9" width="2.0599999" height="2.0595"/>
	<rect x="12.60145" y="71.4099503" class="st16" width="2.0599999" height="2.0548"/>
	<rect x="12.60145" y="69.2445526" class="st22" width="2.0599999" height="2.1654"/>
	<rect x="12.60145" y="67.1902466" class="st19" width="2.0599999" height="2.0543001"/>
	<rect x="12.60145" y="65.1303482" class="st13" width="2.0599999" height="2.0599"/>
	<rect x="12.60145" y="62.9705505" class="st19" width="2.0599999" height="2.1598001"/>
	<rect x="12.60145" y="60.9106483" class="st25" width="2.0599999" height="2.0599"/>
	<rect x="12.60145" y="58.7504501" class="st19" width="2.0599999" height="2.1602001"/>
	<rect x="12.60145" y="56.6961517" class="st25" width="2.0599999" height="2.0543001"/>
	<rect x="12.60145" y="54.6361504" class="st19" width="2.0599999" height="2.0599999"/>
	<rect x="12.60145" y="52.4759483" class="st22" width="2.0599999" height="2.1602001"/>
	<rect x="12.60145" y="50.4165497" class="st22" width="2.0599999" height="2.0594001"/>
	<rect x="12.60145" y="48.3617516" class="st22" width="2.0599999" height="2.0548"/>
	<rect x="12.60145" y="46.1962509" class="st16" width="2.0599999" height="2.1654999"/>
	<rect x="12.60145" y="44.1420517" class="st16" width="2.0599999" height="2.0541999"/>
	<rect x="12.60145" y="41.9817505" class="st9" width="2.0599999" height="2.1603"/>
	<rect x="10.4417496" y="73.4647522" class="st9" width="2.1596999" height="2.0595"/>
	<rect x="10.4417496" y="71.4099503" class="st16" width="2.1596999" height="2.0548"/>
	<rect x="10.4417496" y="69.2445526" class="st25" width="2.1596999" height="2.1654"/>
	<rect x="10.4417496" y="67.1902466" class="st22" width="2.1596999" height="2.0543001"/>
	<rect x="10.4417496" y="65.1303482" class="st19" width="2.1596999" height="2.0599"/>
	<rect x="10.4417496" y="62.9705505" class="st19" width="2.1596999" height="2.1598001"/>
	<rect x="10.4417496" y="60.9106483" class="st13" width="2.1596999" height="2.0599"/>
	<rect x="10.4417496" y="58.7504501" class="st22" width="2.1596999" height="2.1602001"/>
	<rect x="10.4417496" y="56.6961517" class="st19" width="2.1596999" height="2.0543001"/>
	<rect x="10.4417496" y="54.6361504" class="st22" width="2.1596999" height="2.0599999"/>
	<rect x="10.4417496" y="52.4759483" class="st25" width="2.1596999" height="2.1602001"/>
	<rect x="10.4417496" y="50.4165497" class="st22" width="2.1596999" height="2.0594001"/>
	<rect x="10.4417496" y="48.3617516" class="st16" width="2.1596999" height="2.0548"/>
	<rect x="10.4417496" y="46.1962509" class="st16" width="2.1596999" height="2.1654999"/>
	<rect x="10.4417496" y="44.1420517" class="st22" width="2.1596999" height="2.0541999"/>
	<rect x="10.4417496" y="41.9817505" class="st9" width="2.1596999" height="2.1603"/>
	<rect x="8.3818502" y="73.4647522" class="st9" width="2.0599" height="2.0595"/>
	<rect x="8.3818502" y="71.4099503" class="st22" width="2.0599" height="2.0548"/>
	<rect x="8.3818502" y="69.2445526" class="st16" width="2.0599" height="2.1654"/>
	<rect x="8.3818502" y="67.1902466" class="st22" width="2.0599" height="2.0543001"/>
	<rect x="8.3818502" y="65.1303482" class="st19" width="2.0599" height="2.0599"/>
	<rect x="8.3818502" y="62.9705505" class="st22" width="2.0599" height="2.1598001"/>
	<rect x="8.3818502" y="60.9106483" class="st25" width="2.0599" height="2.0599"/>
	<rect x="8.3818502" y="58.7504501" class="st19" width="2.0599" height="2.1602001"/>
	<rect x="8.3818502" y="56.6961517" class="st22" width="2.0599" height="2.0543001"/>
	<rect x="8.3818502" y="54.6361504" class="st22" width="2.0599" height="2.0599999"/>
	<rect x="8.3818502" y="52.4759483" class="st16" width="2.0599" height="2.1602001"/>
	<rect x="8.3818502" y="50.4165497" class="st16" width="2.0599" height="2.0594001"/>
	<rect x="8.3818502" y="48.3617516" class="st22" width="2.0599" height="2.0548"/>
	<rect x="8.3818502" y="46.1962509" class="st16" width="2.0599" height="2.1654999"/>
	<rect x="8.3818502" y="44.1420517" class="st9" width="2.0599" height="2.0541999"/>
	<rect x="6.2220502" y="71.4099503" class="st9" width="2.1598001" height="2.0548"/>
	<rect x="6.2220502" y="69.2445526" class="st16" width="2.1598001" height="2.1654"/>
	<rect x="6.2220502" y="67.1902466" class="st16" width="2.1598001" height="2.0543001"/>
	<rect x="6.2220502" y="65.1303482" class="st22" width="2.1598001" height="2.0599"/>
	<rect x="6.2220502" y="62.9705505" class="st22" width="2.1598001" height="2.1598001"/>
	<rect x="6.2220502" y="60.9106483" class="st19" width="2.1598001" height="2.0599"/>
	<rect x="6.2220502" y="58.7504501" class="st22" width="2.1598001" height="2.1602001"/>
	<rect x="6.2220502" y="56.6961517" class="st19" width="2.1598001" height="2.0543001"/>
	<rect x="6.2220502" y="54.6361504" class="st16" width="2.1598001" height="2.0599999"/>
	<rect x="6.2220502" y="52.4759483" class="st22" width="2.1598001" height="2.1602001"/>
	<rect x="6.2220502" y="50.4165497" class="st16" width="2.1598001" height="2.0594001"/>
	<rect x="6.2220502" y="48.3617516" class="st16" width="2.1598001" height="2.0548"/>
	<rect x="6.2220502" y="46.1962509" class="st9" width="2.1598001" height="2.1654999"/>
	<rect x="4.1672502" y="69.2445526" class="st9" width="2.0548" height="2.1654"/>
	<rect x="4.1672502" y="67.1902466" class="st16" width="2.0548" height="2.0543001"/>
	<rect x="4.1672502" y="65.1303482" class="st16" width="2.0548" height="2.0599"/>
	<rect x="4.1672502" y="62.9705505" class="st16" width="2.0548" height="2.1598001"/>
	<rect x="4.1672502" y="60.9106483" class="st22" width="2.0548" height="2.0599"/>
	<rect x="4.1672502" y="58.7504501" class="st22" width="2.0548" height="2.1602001"/>
	<rect x="4.1672502" y="56.6961517" class="st22" width="2.0548" height="2.0543001"/>
	<rect x="4.1672502" y="54.6361504" class="st16" width="2.0548" height="2.0599999"/>
	<rect x="4.1672502" y="52.4759483" class="st16" width="2.0548" height="2.1602001"/>
	<rect x="4.1672502" y="50.4165497" class="st9" width="2.0548" height="2.0594001"/>
	<rect x="4.1672502" y="48.3617516" class="st9" width="2.0548" height="2.0548"/>
	<rect x="2.1073501" y="67.1902466" class="st9" width="2.0599" height="2.0543001"/>
	<rect x="2.1073501" y="65.1303482" class="st9" width="2.0599" height="2.0599"/>
	<rect x="2.1073501" y="62.9705505" class="st16" width="2.0599" height="2.1598001"/>
	<rect x="2.1073501" y="60.9106483" class="st22" width="2.0599" height="2.0599"/>
	<rect x="2.1073501" y="58.7504501" class="st16" width="2.0599" height="2.1602001"/>
	<rect x="2.1073501" y="56.6961517" class="st16" width="2.0599" height="2.0543001"/>
	<rect x="2.1073501" y="54.6361504" class="st9" width="2.0599" height="2.0599999"/>
	<rect x="2.1073501" y="52.4759483" class="st9" width="2.0599" height="2.1602001"/>
	<rect x="-0.05245" y="62.9705505" class="st9" width="2.1598001" height="2.1598001"/>
	<rect x="-0.05245" y="60.9106483" class="st9" width="2.1598001" height="2.0599"/>
	<rect x="-0.05245" y="58.7504501" class="st9" width="2.1598001" height="2.1602001"/>
	<rect x="-0.05245" y="56.6961517" class="st9" width="2.1598001" height="2.0543001"/>
</g>
</svg>
