<?xml version="1.0" encoding="utf-8"?>
<!-- Generator: Adobe Illustrator 26.0.1, SVG Export Plug-In . SVG Version: 6.00 Build 0)  -->
<svg version="1.1" id="Layer_1" xmlns="http://www.w3.org/2000/svg" xmlns:xlink="http://www.w3.org/1999/xlink" x="0px" y="0px"
	 width="41.9818001px" height="86.3295517px" viewBox="0 0 41.9818001 86.3295517"
	 style="enable-background:new 0 0 41.9818001 86.3295517;" xml:space="preserve">
<style type="text/css">
	.st0{fill:#1E2235;}
	.st1{fill:url(#SVGID_1_);}
	.st2{fill:#1B2162;}
	.st3{fill:#252D88;}
	.st4{fill:#2D37A3;}
	.st5{fill:#424DCB;}
	.st6{fill:#00B7FF;}
	.st7{fill:#0261CC;}
	.st8{fill:#380762;}
	.st9{fill:#370C45;}
	.st10{fill:#703991;}
	.st11{fill:#A046C2;}
	.st12{fill:#543175;}
	.st13{fill:#FFFFFF;}
	.st14{fill:#B947C0;}
	.st15{fill:#DB8EE3;}
	.st16{fill:#8B0975;}
	.st17{fill:#BD3151;}
	.st18{fill:#CC3154;}
	.st19{fill:#FF7261;}
	.st20{fill:#BF2C4E;}
	.st21{fill:#FE9867;}
	.st22{fill:#EF3A65;}
	.st23{fill:#FFAD6E;}
	.st24{fill:#FA559F;}
	.st25{fill:#FCE00A;}
	.st26{fill:#837CC2;}
	.st27{fill:#0284DB;}
	.st28{fill:#BFBAF0;}
	.st29{fill:#5E4194;}
	.st30{fill:#755AC1;}
	.st31{fill:#A8A3D2;}
	.st32{fill:#5D75C2;}
	.st33{fill:#6D85CF;}
	.st34{fill:#89C7DE;}
	.st35{opacity:0.5;}
	.st36{fill:#FF001F;}
	.st37{fill:#97C1FF;}
	.st38{fill:#FFF203;}
	.st39{fill:#0086FF;}
	.st40{display:none;}
	.st41{display:inline;fill:#370C45;}
	.st42{display:inline;fill:#FE9867;}
	.st43{display:inline;fill:#FA559F;}
	.st44{display:inline;fill:#EF3A65;}
	.st45{display:inline;fill:#CC3154;}
	.st46{display:inline;fill:#FF7261;}
	.st47{display:inline;fill:#8B0975;}
	.st48{display:inline;fill:#380762;}
	.st49{display:inline;fill:#B947C0;}
	.st50{display:inline;fill:#BD3151;}
	.st51{display:inline;fill:#BF2C4E;}
	.st52{display:inline;fill:#FFAD6E;}
	.st53{fill:#FCEB6A;}
	.st54{fill:#F2C50F;}
	.st55{fill:#8ADD8A;}
	.st56{fill:#00FF00;}
	.st57{fill:#07D607;}
	.st58{fill:#05CC0A;}
	.st59{fill:#482A63;}
	.st60{fill:#DE990E;}
	.st61{fill:#009DFF;}
	.st62{fill:#E8AB0E;}
	.st63{fill:#72A614;}
	.st64{fill:#A7E007;}
	.st65{fill:#699C18;}
	.st66{fill:#6D9E16;}
	.st67{fill:#84BF15;}
	.st68{fill:#3A4F93;}
	.st69{fill:#2D3B70;}
	.st70{fill:none;stroke:#1B2442;stroke-miterlimit:10;}
	.st71{opacity:0;fill:#171A33;}
	.st72{fill:#FFFB00;}
	.st73{opacity:0.2;}
	.st74{fill:#42061A;}
</style>
<g>
	<rect x="16.7181492" y="44.2473984" class="st9" width="2.1649001" height="2.1598001"/>
	<rect x="18.8830509" y="44.2473984" class="st9" width="2.0548" height="2.1598001"/>
	<rect x="20.937851" y="44.2473984" class="st9" width="2.1598001" height="2.1598001"/>
	<rect x="23.0976505" y="44.2473984" class="st9" width="2.0599" height="2.1598001"/>
	<rect x="14.6633501" y="42.1875" class="st9" width="2.0548" height="2.0599"/>
	<rect x="16.7181492" y="42.1875" class="st21" width="2.1649001" height="2.0599"/>
	<rect x="18.8830509" y="42.1875" class="st21" width="2.0548" height="2.0599"/>
	<rect x="20.937851" y="42.1875" class="st21" width="2.1598001" height="2.0599"/>
	<rect x="23.0976505" y="42.1875" class="st21" width="2.0599" height="2.0599"/>
	<rect x="25.1575508" y="42.1875" class="st9" width="2.1608" height="2.0599"/>
	<rect x="12.5036497" y="40.0276985" class="st9" width="2.1596999" height="2.1598001"/>
	<rect x="14.6633501" y="40.0276985" class="st21" width="2.0548" height="2.1598001"/>
	<rect x="16.7181492" y="40.0276985" class="st24" width="2.1649001" height="2.1598001"/>
	<rect x="18.8830509" y="40.0276985" class="st24" width="2.0548" height="2.1598001"/>
	<rect x="20.937851" y="40.0276985" class="st24" width="2.1598001" height="2.1598001"/>
	<rect x="23.0976505" y="40.0276985" class="st24" width="2.0599" height="2.1598001"/>
	<rect x="25.1575508" y="40.0276985" class="st21" width="2.1608" height="2.1598001"/>
	<rect x="27.3183498" y="40.0276985" class="st9" width="2.0589001" height="2.1598001"/>
	<rect x="10.4437504" y="37.9678001" class="st9" width="2.0599" height="2.0599"/>
	<rect x="12.5036497" y="37.9678001" class="st21" width="2.1596999" height="2.0599"/>
	<rect x="14.6633501" y="37.9678001" class="st24" width="2.0548" height="2.0599"/>
	<rect x="16.7181492" y="37.9678001" class="st22" width="2.1649001" height="2.0599"/>
	<rect x="18.8830509" y="37.9678001" class="st22" width="2.0548" height="2.0599"/>
	<rect x="20.937851" y="37.9678001" class="st22" width="2.1598001" height="2.0599"/>
	<rect x="23.0976505" y="37.9678001" class="st22" width="2.0599" height="2.0599"/>
	<rect x="25.1575508" y="37.9678001" class="st24" width="2.1608" height="2.0599"/>
	<rect x="27.3183498" y="37.9678001" class="st21" width="2.0589001" height="2.0599"/>
	<rect x="29.3772507" y="37.9678001" class="st9" width="2.1608" height="2.0599"/>
	<rect x="8.2839499" y="35.9129982" class="st9" width="2.1598001" height="2.0548"/>
	<rect x="10.4437504" y="35.9129982" class="st21" width="2.0599" height="2.0548"/>
	<rect x="12.5036497" y="35.9129982" class="st24" width="2.1596999" height="2.0548"/>
	<rect x="14.6633501" y="35.9129982" class="st22" width="2.0548" height="2.0548"/>
	<rect x="16.7181492" y="35.9129982" class="st22" width="2.1649001" height="2.0548"/>
	<rect x="18.8830509" y="35.9129982" class="st22" width="2.0548" height="2.0548"/>
	<rect x="20.937851" y="35.9129982" class="st22" width="2.1598001" height="2.0548"/>
	<rect x="23.0976505" y="35.9129982" class="st22" width="2.0599" height="2.0548"/>
	<rect x="25.1575508" y="35.9129982" class="st22" width="2.1608" height="2.0548"/>
	<rect x="27.3183498" y="35.9129982" class="st24" width="2.0589001" height="2.0548"/>
	<rect x="29.3772507" y="35.9129982" class="st21" width="2.1608" height="2.0548"/>
	<rect x="31.5380497" y="35.9129982" class="st9" width="2.0599" height="2.0548"/>
	<rect x="6.22405" y="33.7481003" class="st9" width="2.0599" height="2.1649001"/>
	<rect x="8.2839499" y="33.7481003" class="st21" width="2.1598001" height="2.1649001"/>
	<rect x="10.4437504" y="33.7481003" class="st24" width="2.0599" height="2.1649001"/>
	<rect x="12.5036497" y="33.7481003" class="st22" width="2.1596999" height="2.1649001"/>
	<rect x="14.6633501" y="33.7481003" class="st22" width="2.0548" height="2.1649001"/>
	<rect x="16.7181492" y="33.7481003" class="st22" width="2.1649001" height="2.1649001"/>
	<rect x="18.8830509" y="33.7481003" class="st22" width="2.0548" height="2.1649001"/>
	<rect x="20.937851" y="33.7481003" class="st22" width="2.1598001" height="2.1649001"/>
	<rect x="23.0976505" y="33.7481003" class="st18" width="2.0599" height="2.1649001"/>
	<rect x="25.1575508" y="33.7481003" class="st22" width="2.1608" height="2.1649001"/>
	<rect x="27.3183498" y="33.7481003" class="st22" width="2.0589001" height="2.1649001"/>
	<rect x="29.3772507" y="33.7481003" class="st24" width="2.1608" height="2.1649001"/>
	<rect x="31.5380497" y="33.7481003" class="st21" width="2.0599" height="2.1649001"/>
	<rect x="33.59795" y="33.7481003" class="st9" width="2.1598001" height="2.1649001"/>
	<rect x="6.22405" y="31.6933994" class="st9" width="2.0599" height="2.0546999"/>
	<rect x="8.2839499" y="31.6933994" class="st21" width="2.1598001" height="2.0546999"/>
	<rect x="10.4437504" y="31.6933994" class="st18" width="2.0599" height="2.0546999"/>
	<rect x="12.5036497" y="31.6933994" class="st22" width="2.1596999" height="2.0546999"/>
	<rect x="14.6633501" y="31.6933994" class="st22" width="2.0548" height="2.0546999"/>
	<rect x="16.7181492" y="31.6933994" class="st18" width="2.1649001" height="2.0546999"/>
	<rect x="18.8830509" y="31.6933994" class="st22" width="2.0548" height="2.0546999"/>
	<rect x="20.937851" y="31.6933994" class="st22" width="2.1598001" height="2.0546999"/>
	<rect x="23.0976505" y="31.6933994" class="st22" width="2.0599" height="2.0546999"/>
	<rect x="25.1575508" y="31.6933994" class="st22" width="2.1608" height="2.0546999"/>
	<rect x="27.3183498" y="31.6933994" class="st18" width="2.0589001" height="2.0546999"/>
	<rect x="29.3772507" y="31.6933994" class="st18" width="2.1608" height="2.0546999"/>
	<rect x="31.5380497" y="31.6933994" class="st21" width="2.0599" height="2.0546999"/>
	<rect x="33.59795" y="31.6933994" class="st9" width="2.1598001" height="2.0546999"/>
	<rect x="6.22405" y="29.5335999" class="st9" width="2.0599" height="2.1598001"/>
	<rect x="8.2839499" y="29.5335999" class="st21" width="2.1598001" height="2.1598001"/>
	<rect x="10.4437504" y="29.5335999" class="st18" width="2.0599" height="2.1598001"/>
	<rect x="12.5036497" y="29.5335999" class="st18" width="2.1596999" height="2.1598001"/>
	<rect x="14.6633501" y="29.5335999" class="st22" width="2.0548" height="2.1598001"/>
	<rect x="16.7181492" y="29.5335999" class="st22" width="2.1649001" height="2.1598001"/>
	<rect x="18.8830509" y="29.5335999" class="st22" width="2.0548" height="2.1598001"/>
	<rect x="20.937851" y="29.5335999" class="st22" width="2.1598001" height="2.1598001"/>
	<rect x="23.0976505" y="29.5335999" class="st22" width="2.0599" height="2.1598001"/>
	<rect x="25.1575508" y="29.5335999" class="st18" width="2.1608" height="2.1598001"/>
	<rect x="27.3183498" y="29.5335999" class="st22" width="2.0589001" height="2.1598001"/>
	<rect x="29.3772507" y="29.5335999" class="st18" width="2.1608" height="2.1598001"/>
	<rect x="31.5380497" y="29.5335999" class="st21" width="2.0599" height="2.1598001"/>
	<rect x="33.59795" y="29.5335999" class="st9" width="2.1598001" height="2.1598001"/>
	<rect x="6.22405" y="27.4736996" class="st9" width="2.0599" height="2.0599"/>
	<rect x="8.2839499" y="27.4736996" class="st21" width="2.1598001" height="2.0599"/>
	<rect x="10.4437504" y="27.4736996" class="st18" width="2.0599" height="2.0599"/>
	<rect x="12.5036497" y="27.4736996" class="st22" width="2.1596999" height="2.0599"/>
	<rect x="14.6633501" y="27.4736996" class="st18" width="2.0548" height="2.0599"/>
	<rect x="16.7181492" y="27.4736996" class="st22" width="2.1649001" height="2.0599"/>
	<rect x="18.8830509" y="27.4736996" class="st18" width="2.0548" height="2.0599"/>
	<rect x="20.937851" y="27.4736996" class="st22" width="2.1598001" height="2.0599"/>
	<rect x="23.0976505" y="27.4736996" class="st18" width="2.0599" height="2.0599"/>
	<rect x="25.1575508" y="27.4736996" class="st22" width="2.1608" height="2.0599"/>
	<rect x="27.3183498" y="27.4736996" class="st18" width="2.0589001" height="2.0599"/>
	<rect x="29.3772507" y="27.4736996" class="st18" width="2.1608" height="2.0599"/>
	<rect x="31.5380497" y="27.4736996" class="st21" width="2.0599" height="2.0599"/>
	<rect x="33.59795" y="27.4736996" class="st9" width="2.1598001" height="2.0599"/>
	<rect x="6.22405" y="25.3139992" class="st9" width="2.0599" height="2.1596999"/>
	<rect x="8.2839499" y="25.3139992" class="st19" width="2.1598001" height="2.1596999"/>
	<rect x="10.4437504" y="25.3139992" class="st19" width="2.0599" height="2.1596999"/>
	<rect x="12.5036497" y="25.3139992" class="st18" width="2.1596999" height="2.1596999"/>
	<rect x="14.6633501" y="25.3139992" class="st22" width="2.0548" height="2.1596999"/>
	<rect x="16.7181492" y="25.3139992" class="st18" width="2.1649001" height="2.1596999"/>
	<rect x="18.8830509" y="25.3139992" class="st22" width="2.0548" height="2.1596999"/>
	<rect x="20.937851" y="25.3139992" class="st18" width="2.1598001" height="2.1596999"/>
	<rect x="23.0976505" y="25.3139992" class="st22" width="2.0599" height="2.1596999"/>
	<rect x="25.1575508" y="25.3139992" class="st18" width="2.1608" height="2.1596999"/>
	<rect x="27.3183498" y="25.3139992" class="st18" width="2.0589001" height="2.1596999"/>
	<rect x="29.3772507" y="25.3139992" class="st19" width="2.1608" height="2.1596999"/>
	<rect x="31.5380497" y="25.3139992" class="st19" width="2.0599" height="2.1596999"/>
	<rect x="33.59795" y="25.3139992" class="st9" width="2.1598001" height="2.1596999"/>
	<rect x="6.22405" y="23.2539997" class="st9" width="2.0599" height="2.0599999"/>
	<rect x="8.2839499" y="23.2539997" class="st19" width="2.1598001" height="2.0599999"/>
	<rect x="10.4437504" y="23.2539997" class="st19" width="2.0599" height="2.0599999"/>
	<rect x="12.5036497" y="23.2539997" class="st19" width="2.1596999" height="2.0599999"/>
	<rect x="14.6633501" y="23.2539997" class="st18" width="2.0548" height="2.0599999"/>
	<rect x="16.7181492" y="23.2539997" class="st18" width="2.1649001" height="2.0599999"/>
	<rect x="18.8830509" y="23.2539997" class="st18" width="2.0548" height="2.0599999"/>
	<rect x="20.937851" y="23.2539997" class="st18" width="2.1598001" height="2.0599999"/>
	<rect x="23.0976505" y="23.2539997" class="st18" width="2.0599" height="2.0599999"/>
	<rect x="25.1575508" y="23.2539997" class="st18" width="2.1608" height="2.0599999"/>
	<rect x="27.3183498" y="23.2539997" class="st19" width="2.0589001" height="2.0599999"/>
	<rect x="29.3772507" y="23.2539997" class="st19" width="2.1608" height="2.0599999"/>
	<rect x="31.5380497" y="23.2539997" class="st19" width="2.0599" height="2.0599999"/>
	<rect x="33.59795" y="23.2539997" class="st9" width="2.1598001" height="2.0599999"/>
	<rect x="6.22405" y="21.0942993" class="st9" width="2.0599" height="2.1596999"/>
	<rect x="8.2839499" y="21.0942993" class="st19" width="2.1598001" height="2.1596999"/>
	<rect x="10.4437504" y="21.0942993" class="st24" width="2.0599" height="2.1596999"/>
	<rect x="12.5036497" y="21.0942993" class="st19" width="2.1596999" height="2.1596999"/>
	<rect x="14.6633501" y="21.0942993" class="st19" width="2.0548" height="2.1596999"/>
	<rect x="16.7181492" y="21.0942993" class="st18" width="2.1649001" height="2.1596999"/>
	<rect x="18.8830509" y="21.0942993" class="st18" width="2.0548" height="2.1596999"/>
	<rect x="20.937851" y="21.0942993" class="st18" width="2.1598001" height="2.1596999"/>
	<rect x="23.0976505" y="21.0942993" class="st18" width="2.0599" height="2.1596999"/>
	<rect x="25.1575508" y="21.0942993" class="st19" width="2.1608" height="2.1596999"/>
	<rect x="27.3183498" y="21.0942993" class="st19" width="2.0589001" height="2.1596999"/>
	<rect x="29.3772507" y="21.0942993" class="st19" width="2.1608" height="2.1596999"/>
	<rect x="31.5380497" y="21.0942993" class="st24" width="2.0599" height="2.1596999"/>
	<rect x="33.59795" y="21.0942993" class="st9" width="2.1598001" height="2.1596999"/>
	<rect x="6.22405" y="19.0342999" class="st9" width="2.0599" height="2.0599999"/>
	<rect x="8.2839499" y="19.0342999" class="st24" width="2.1598001" height="2.0599999"/>
	<rect x="10.4437504" y="19.0342999" class="st24" width="2.0599" height="2.0599999"/>
	<rect x="12.5036497" y="19.0342999" class="st19" width="2.1596999" height="2.0599999"/>
	<rect x="14.6633501" y="19.0342999" class="st24" width="2.0548" height="2.0599999"/>
	<rect x="16.7181492" y="19.0342999" class="st19" width="2.1649001" height="2.0599999"/>
	<rect x="18.8830509" y="19.0342999" class="st19" width="2.0548" height="2.0599999"/>
	<rect x="20.937851" y="19.0342999" class="st19" width="2.1598001" height="2.0599999"/>
	<rect x="23.0976505" y="19.0342999" class="st19" width="2.0599" height="2.0599999"/>
	<rect x="25.1575508" y="19.0342999" class="st19" width="2.1608" height="2.0599999"/>
	<rect x="27.3183498" y="19.0342999" class="st24" width="2.0589001" height="2.0599999"/>
	<rect x="29.3772507" y="19.0342999" class="st19" width="2.1608" height="2.0599999"/>
	<rect x="31.5380497" y="19.0342999" class="st24" width="2.0599" height="2.0599999"/>
	<rect x="33.59795" y="19.0342999" class="st9" width="2.1598001" height="2.0599999"/>
	<rect x="6.22405" y="16.8745995" class="st9" width="2.0599" height="2.1596999"/>
	<rect x="8.2839499" y="16.8745995" class="st24" width="2.1598001" height="2.1596999"/>
	<rect x="10.4437504" y="16.8745995" class="st16" width="2.0599" height="2.1596999"/>
	<rect x="12.5036497" y="16.8745995" class="st24" width="2.1596999" height="2.1596999"/>
	<rect x="14.6633501" y="16.8745995" class="st24" width="2.0548" height="2.1596999"/>
	<rect x="16.7181492" y="16.8745995" class="st19" width="2.1649001" height="2.1596999"/>
	<rect x="18.8830509" y="16.8745995" class="st19" width="2.0548" height="2.1596999"/>
	<rect x="20.937851" y="16.8745995" class="st19" width="2.1598001" height="2.1596999"/>
	<rect x="23.0976505" y="16.8745995" class="st24" width="2.0599" height="2.1596999"/>
	<rect x="25.1575508" y="16.8745995" class="st19" width="2.1608" height="2.1596999"/>
	<rect x="27.3183498" y="16.8745995" class="st24" width="2.0589001" height="2.1596999"/>
	<rect x="29.3772507" y="16.8745995" class="st24" width="2.1608" height="2.1596999"/>
	<rect x="31.5380497" y="16.8745995" class="st16" width="2.0599" height="2.1596999"/>
	<rect x="33.59795" y="16.8745995" class="st9" width="2.1598001" height="2.1596999"/>
	<rect x="6.22405" y="14.8198004" class="st9" width="2.0599" height="2.0548"/>
	<rect x="8.2839499" y="14.8198004" class="st24" width="2.1598001" height="2.0548"/>
	<rect x="10.4437504" y="14.8198004" class="st16" width="2.0599" height="2.0548"/>
	<rect x="12.5036497" y="14.8198004" class="st24" width="2.1596999" height="2.0548"/>
	<rect x="14.6633501" y="14.8198004" class="st24" width="2.0548" height="2.0548"/>
	<rect x="16.7181492" y="14.8198004" class="st24" width="2.1649001" height="2.0548"/>
	<rect x="18.8830509" y="14.8198004" class="st19" width="2.0548" height="2.0548"/>
	<rect x="20.937851" y="14.8198004" class="st24" width="2.1598001" height="2.0548"/>
	<rect x="23.0976505" y="14.8198004" class="st24" width="2.0599" height="2.0548"/>
	<rect x="25.1575508" y="14.8198004" class="st24" width="2.1608" height="2.0548"/>
	<rect x="27.3183498" y="14.8198004" class="st16" width="2.0589001" height="2.0548"/>
	<rect x="29.3772507" y="14.8198004" class="st24" width="2.1608" height="2.0548"/>
	<rect x="31.5380497" y="14.8198004" class="st16" width="2.0599" height="2.0548"/>
	<rect x="33.59795" y="14.8198004" class="st9" width="2.1598001" height="2.0548"/>
	<rect x="6.22405" y="12.6599998" class="st9" width="2.0599" height="2.1598001"/>
	<rect x="8.2839499" y="12.6599998" class="st16" width="2.1598001" height="2.1598001"/>
	<rect x="10.4437504" y="12.6599998" class="st8" width="2.0599" height="2.1598001"/>
	<rect x="12.5036497" y="12.6599998" class="st24" width="2.1596999" height="2.1598001"/>
	<rect x="14.6633501" y="12.6599998" class="st16" width="2.0548" height="2.1598001"/>
	<rect x="16.7181492" y="12.6599998" class="st24" width="2.1649001" height="2.1598001"/>
	<rect x="18.8830509" y="12.6599998" class="st24" width="2.0548" height="2.1598001"/>
	<rect x="20.937851" y="12.6599998" class="st24" width="2.1598001" height="2.1598001"/>
	<rect x="23.0976505" y="12.6599998" class="st16" width="2.0599" height="2.1598001"/>
	<rect x="25.1575508" y="12.6599998" class="st24" width="2.1608" height="2.1598001"/>
	<rect x="27.3183498" y="12.6599998" class="st16" width="2.0589001" height="2.1598001"/>
	<rect x="29.3772507" y="12.6599998" class="st16" width="2.1608" height="2.1598001"/>
	<rect x="31.5380497" y="12.6599998" class="st8" width="2.0599" height="2.1598001"/>
	<rect x="33.59795" y="12.6599998" class="st9" width="2.1598001" height="2.1598001"/>
	<rect x="6.22405" y="10.6000996" class="st9" width="2.0599" height="2.0599"/>
	<rect x="8.2839499" y="10.6000996" class="st16" width="2.1598001" height="2.0599"/>
	<rect x="10.4437504" y="10.6000996" class="st8" width="2.0599" height="2.0599"/>
	<rect x="12.5036497" y="10.6000996" class="st16" width="2.1596999" height="2.0599"/>
	<rect x="14.6633501" y="10.6000996" class="st16" width="2.0548" height="2.0599"/>
	<rect x="16.7181492" y="10.6000996" class="st16" width="2.1649001" height="2.0599"/>
	<rect x="18.8830509" y="10.6000996" class="st24" width="2.0548" height="2.0599"/>
	<rect x="20.937851" y="10.6000996" class="st16" width="2.1598001" height="2.0599"/>
	<rect x="23.0976505" y="10.6000996" class="st16" width="2.0599" height="2.0599"/>
	<rect x="25.1575508" y="10.6000996" class="st24" width="2.1608" height="2.0599"/>
	<rect x="27.3183498" y="10.6000996" class="st8" width="2.0589001" height="2.0599"/>
	<rect x="29.3772507" y="10.6000996" class="st16" width="2.1608" height="2.0599"/>
	<rect x="31.5380497" y="10.6000996" class="st8" width="2.0599" height="2.0599"/>
	<rect x="33.59795" y="10.6000996" class="st9" width="2.1598001" height="2.0599"/>
	<rect x="6.22405" y="8.4392996" class="st9" width="2.0599" height="2.1608"/>
	<rect x="8.2839499" y="8.4392996" class="st8" width="2.1598001" height="2.1608"/>
	<rect x="10.4437504" y="8.4392996" class="st9" width="2.0599" height="2.1608"/>
	<rect x="12.5036497" y="8.4392996" class="st16" width="2.1596999" height="2.1608"/>
	<rect x="14.6633501" y="8.4392996" class="st8" width="2.0548" height="2.1608"/>
	<rect x="16.7181492" y="8.4392996" class="st16" width="2.1649001" height="2.1608"/>
	<rect x="18.8830509" y="8.4392996" class="st16" width="2.0548" height="2.1608"/>
	<rect x="20.937851" y="8.4392996" class="st16" width="2.1598001" height="2.1608"/>
	<rect x="23.0976505" y="8.4392996" class="st8" width="2.0599" height="2.1608"/>
	<rect x="25.1575508" y="8.4392996" class="st16" width="2.1608" height="2.1608"/>
	<rect x="27.3183498" y="8.4392996" class="st8" width="2.0589001" height="2.1608"/>
	<rect x="29.3772507" y="8.4392996" class="st8" width="2.1608" height="2.1608"/>
	<rect x="31.5380497" y="8.4392996" class="st9" width="2.0599" height="2.1608"/>
	<rect x="6.22405" y="6.3804002" class="st9" width="2.0599" height="2.0589001"/>
	<rect x="8.2839499" y="6.3804002" class="st8" width="2.1598001" height="2.0589001"/>
	<rect x="12.5036497" y="6.3804002" class="st8" width="2.1596999" height="2.0589001"/>
	<rect x="14.6633501" y="6.3804002" class="st8" width="2.0548" height="2.0589001"/>
	<rect x="16.7181492" y="6.3804002" class="st8" width="2.1649001" height="2.0589001"/>
	<rect x="18.8830509" y="6.3804002" class="st16" width="2.0548" height="2.0589001"/>
	<rect x="20.937851" y="6.3804002" class="st8" width="2.1598001" height="2.0589001"/>
	<rect x="23.0976505" y="6.3804002" class="st8" width="2.0599" height="2.0589001"/>
	<rect x="25.1575508" y="6.3804002" class="st16" width="2.1608" height="2.0589001"/>
	<rect x="27.3183498" y="6.3804002" class="st9" width="2.0589001" height="2.0589001"/>
	<rect x="29.3772507" y="6.3804002" class="st8" width="2.1608" height="2.0589001"/>
	<rect x="8.2839499" y="4.2196002" class="st9" width="2.1598001" height="2.1608"/>
	<rect x="12.5036497" y="4.2196002" class="st8" width="2.1596999" height="2.1608"/>
	<rect x="14.6633501" y="4.2196002" class="st9" width="2.0548" height="2.1608"/>
	<rect x="16.7181492" y="4.2196002" class="st8" width="2.1649001" height="2.1608"/>
	<rect x="18.8830509" y="4.2196002" class="st8" width="2.0548" height="2.1608"/>
	<rect x="20.937851" y="4.2196002" class="st8" width="2.1598001" height="2.1608"/>
	<rect x="23.0976505" y="4.2196002" class="st9" width="2.0599" height="2.1608"/>
	<rect x="25.1575508" y="4.2196002" class="st8" width="2.1608" height="2.1608"/>
	<rect x="29.3772507" y="4.2196002" class="st9" width="2.1608" height="2.1608"/>
	<rect x="12.5036497" y="2.1596999" class="st9" width="2.1596999" height="2.0599"/>
	<rect x="16.7181492" y="2.1596999" class="st9" width="2.1649001" height="2.0599"/>
	<rect x="18.8830509" y="2.1596999" class="st8" width="2.0548" height="2.0599"/>
	<rect x="20.937851" y="2.1596999" class="st9" width="2.1598001" height="2.0599"/>
	<rect x="25.1575508" y="2.1596999" class="st8" width="2.1608" height="2.0599"/>
	<rect x="18.8830509" class="st9" width="2.0548" height="2.1596999"/>
	<rect x="25.1575508" class="st9" width="2.1608" height="2.1596999"/>
</g>
<g>
	<rect x="39.8168983" y="67.3375015" class="st9" width="2.1649001" height="2.0599"/>
	<rect x="39.8168983" y="65.1772995" class="st9" width="2.1649001" height="2.1602001"/>
	<rect x="39.8168983" y="63.1230011" class="st9" width="2.1649001" height="2.0543001"/>
	<rect x="37.7621002" y="71.5571976" class="st9" width="2.0548" height="2.0599"/>
	<rect x="37.7621002" y="69.3973999" class="st9" width="2.0548" height="2.1598001"/>
	<rect x="37.7621002" y="67.3375015" class="st16" width="2.0548" height="2.0599"/>
	<rect x="37.7621002" y="65.1772995" class="st16" width="2.0548" height="2.1602001"/>
	<rect x="37.7621002" y="63.1230011" class="st16" width="2.0548" height="2.0543001"/>
	<rect x="37.7621002" y="61.0629997" class="st9" width="2.0548" height="2.0599999"/>
	<rect x="37.7621002" y="58.9028015" class="st9" width="2.0548" height="2.1602001"/>
	<rect x="35.7022018" y="73.6171036" class="st9" width="2.0599" height="2.0543001"/>
	<rect x="35.7022018" y="71.5571976" class="st16" width="2.0599" height="2.0599"/>
	<rect x="35.7022018" y="69.3973999" class="st16" width="2.0599" height="2.1598001"/>
	<rect x="35.7022018" y="67.3375015" class="st22" width="2.0599" height="2.0599"/>
	<rect x="35.7022018" y="65.1772995" class="st16" width="2.0599" height="2.1602001"/>
	<rect x="35.7022018" y="63.1230011" class="st22" width="2.0599" height="2.0543001"/>
	<rect x="35.7022018" y="61.0629997" class="st16" width="2.0599" height="2.0599999"/>
	<rect x="35.7022018" y="58.9028015" class="st16" width="2.0599" height="2.1602001"/>
	<rect x="35.7022018" y="56.843399" class="st9" width="2.0599" height="2.0594001"/>
	<rect x="33.5424995" y="77.8367996" class="st9" width="2.1596999" height="2.0548"/>
	<rect x="33.5424995" y="75.671402" class="st9" width="2.1596999" height="2.1654"/>
	<rect x="33.5424995" y="73.6171036" class="st16" width="2.1596999" height="2.0543001"/>
	<rect x="33.5424995" y="71.5571976" class="st19" width="2.1596999" height="2.0599"/>
	<rect x="33.5424995" y="69.3973999" class="st22" width="2.1596999" height="2.1598001"/>
	<rect x="33.5424995" y="67.3375015" class="st16" width="2.1596999" height="2.0599"/>
	<rect x="33.5424995" y="65.1772995" class="st22" width="2.1596999" height="2.1602001"/>
	<rect x="33.5424995" y="63.1230011" class="st16" width="2.1596999" height="2.0543001"/>
	<rect x="33.5424995" y="61.0629997" class="st22" width="2.1596999" height="2.0599999"/>
	<rect x="33.5424995" y="58.9028015" class="st16" width="2.1596999" height="2.1602001"/>
	<rect x="33.5424995" y="56.843399" class="st22" width="2.1596999" height="2.0594001"/>
	<rect x="33.5424995" y="54.7886009" class="st9" width="2.1596999" height="2.0548"/>
	<rect x="31.4825001" y="77.8367996" class="st9" width="2.0599999" height="2.0548"/>
	<rect x="31.4825001" y="75.671402" class="st16" width="2.0599999" height="2.1654"/>
	<rect x="31.4825001" y="73.6171036" class="st22" width="2.0599999" height="2.0543001"/>
	<rect x="31.4825001" y="71.5571976" class="st22" width="2.0599999" height="2.0599"/>
	<rect x="31.4825001" y="69.3973999" class="st19" width="2.0599999" height="2.1598001"/>
	<rect x="31.4825001" y="67.3375015" class="st22" width="2.0599999" height="2.0599"/>
	<rect x="31.4825001" y="65.1772995" class="st22" width="2.0599999" height="2.1602001"/>
	<rect x="31.4825001" y="63.1230011" class="st22" width="2.0599999" height="2.0543001"/>
	<rect x="31.4825001" y="61.0629997" class="st22" width="2.0599999" height="2.0599999"/>
	<rect x="31.4825001" y="58.9028015" class="st25" width="2.0599999" height="2.1602001"/>
	<rect x="31.4825001" y="56.843399" class="st16" width="2.0599999" height="2.0594001"/>
	<rect x="31.4825001" y="54.7886009" class="st16" width="2.0599999" height="2.0548"/>
	<rect x="31.4825001" y="52.6231003" class="st9" width="2.0599999" height="2.1654999"/>
	<rect x="29.4277" y="79.8916016" class="st9" width="2.0548" height="2.0595"/>
	<rect x="29.4277" y="77.8367996" class="st16" width="2.0548" height="2.0548"/>
	<rect x="29.4277" y="75.671402" class="st22" width="2.0548" height="2.1654"/>
	<rect x="29.4277" y="73.6171036" class="st22" width="2.0548" height="2.0543001"/>
	<rect x="29.4277" y="71.5571976" class="st19" width="2.0548" height="2.0599"/>
	<rect x="29.4277" y="69.3973999" class="st22" width="2.0548" height="2.1598001"/>
	<rect x="29.4277" y="67.3375015" class="st25" width="2.0548" height="2.0599"/>
	<rect x="29.4277" y="65.1772995" class="st19" width="2.0548" height="2.1602001"/>
	<rect x="29.4277" y="63.1230011" class="st22" width="2.0548" height="2.0543001"/>
	<rect x="29.4277" y="61.0629997" class="st19" width="2.0548" height="2.0599999"/>
	<rect x="29.4277" y="58.9028015" class="st22" width="2.0548" height="2.1602001"/>
	<rect x="29.4277" y="56.843399" class="st22" width="2.0548" height="2.0594001"/>
	<rect x="29.4277" y="54.7886009" class="st16" width="2.0548" height="2.0548"/>
	<rect x="29.4277" y="52.6231003" class="st22" width="2.0548" height="2.1654999"/>
	<rect x="29.4277" y="50.5689011" class="st9" width="2.0548" height="2.0541999"/>
	<rect x="27.2679996" y="81.9511032" class="st9" width="2.1596999" height="2.1602001"/>
	<rect x="27.2679996" y="79.8916016" class="st16" width="2.1596999" height="2.0595"/>
	<rect x="27.2679996" y="77.8367996" class="st16" width="2.1596999" height="2.0548"/>
	<rect x="27.2679996" y="75.671402" class="st19" width="2.1596999" height="2.1654"/>
	<rect x="27.2679996" y="73.6171036" class="st22" width="2.1596999" height="2.0543001"/>
	<rect x="27.2679996" y="71.5571976" class="st19" width="2.1596999" height="2.0599"/>
	<rect x="27.2679996" y="69.3973999" class="st25" width="2.1596999" height="2.1598001"/>
	<rect x="27.2679996" y="67.3375015" class="st19" width="2.1596999" height="2.0599"/>
	<rect x="27.2679996" y="65.1772995" class="st25" width="2.1596999" height="2.1602001"/>
	<rect x="27.2679996" y="63.1230011" class="st19" width="2.1596999" height="2.0543001"/>
	<rect x="27.2679996" y="61.0629997" class="st22" width="2.1596999" height="2.0599999"/>
	<rect x="27.2679996" y="58.9028015" class="st22" width="2.1596999" height="2.1602001"/>
	<rect x="27.2679996" y="56.843399" class="st25" width="2.1596999" height="2.0594001"/>
	<rect x="27.2679996" y="54.7886009" class="st22" width="2.1596999" height="2.0548"/>
	<rect x="27.2679996" y="52.6231003" class="st16" width="2.1596999" height="2.1654999"/>
	<rect x="27.2679996" y="50.5689011" class="st16" width="2.1596999" height="2.0541999"/>
	<rect x="27.2679996" y="48.4085999" class="st9" width="2.1596999" height="2.1603"/>
	<rect x="25.2080002" y="81.9511032" class="st9" width="2.0599999" height="2.1602001"/>
	<rect x="25.2080002" y="79.8916016" class="st22" width="2.0599999" height="2.0595"/>
	<rect x="25.2080002" y="77.8367996" class="st19" width="2.0599999" height="2.0548"/>
	<rect x="25.2080002" y="75.671402" class="st13" width="2.0599999" height="2.1654"/>
	<rect x="25.2080002" y="73.6171036" class="st19" width="2.0599999" height="2.0543001"/>
	<rect x="25.2080002" y="71.5571976" class="st22" width="2.0599999" height="2.0599"/>
	<rect x="25.2080002" y="69.3973999" class="st25" width="2.0599999" height="2.1598001"/>
	<rect x="25.2080002" y="67.3375015" class="st25" width="2.0599999" height="2.0599"/>
	<rect x="25.2080002" y="65.1772995" class="st25" width="2.0599999" height="2.1602001"/>
	<rect x="25.2080002" y="63.1230011" class="st25" width="2.0599999" height="2.0543001"/>
	<rect x="25.2080002" y="61.0629997" class="st19" width="2.0599999" height="2.0599999"/>
	<rect x="25.2080002" y="58.9028015" class="st19" width="2.0599999" height="2.1602001"/>
	<rect x="25.2080002" y="56.843399" class="st22" width="2.0599999" height="2.0594001"/>
	<rect x="25.2080002" y="54.7886009" class="st22" width="2.0599999" height="2.0548"/>
	<rect x="25.2080002" y="52.6231003" class="st22" width="2.0599999" height="2.1654999"/>
	<rect x="25.2080002" y="50.5689011" class="st16" width="2.0599999" height="2.0541999"/>
	<rect x="25.2080002" y="48.4085999" class="st9" width="2.0599999" height="2.1603"/>
	<rect x="23.0482998" y="84.1112976" class="st9" width="2.1596999" height="2.0599"/>
	<rect x="23.0482998" y="81.9511032" class="st16" width="2.1596999" height="2.1602001"/>
	<rect x="23.0482998" y="79.8916016" class="st16" width="2.1596999" height="2.0595"/>
	<rect x="23.0482998" y="77.8367996" class="st19" width="2.1596999" height="2.0548"/>
	<rect x="23.0482998" y="75.671402" class="st25" width="2.1596999" height="2.1654"/>
	<rect x="23.0482998" y="73.6171036" class="st25" width="2.1596999" height="2.0543001"/>
	<rect x="23.0482998" y="71.5571976" class="st25" width="2.1596999" height="2.0599"/>
	<rect x="23.0482998" y="69.3973999" class="st25" width="2.1596999" height="2.1598001"/>
	<rect x="23.0482998" y="67.3375015" class="st13" width="2.1596999" height="2.0599"/>
	<rect x="23.0482998" y="65.1772995" class="st19" width="2.1596999" height="2.1602001"/>
	<rect x="23.0482998" y="63.1230011" class="st25" width="2.1596999" height="2.0543001"/>
	<rect x="23.0482998" y="61.0629997" class="st22" width="2.1596999" height="2.0599999"/>
	<rect x="23.0482998" y="58.9028015" class="st22" width="2.1596999" height="2.1602001"/>
	<rect x="23.0482998" y="56.843399" class="st19" width="2.1596999" height="2.0594001"/>
	<rect x="23.0482998" y="54.7886009" class="st22" width="2.1596999" height="2.0548"/>
	<rect x="23.0482998" y="52.6231003" class="st19" width="2.1596999" height="2.1654999"/>
	<rect x="23.0482998" y="50.5689011" class="st22" width="2.1596999" height="2.0541999"/>
	<rect x="23.0482998" y="48.4085999" class="st16" width="2.1596999" height="2.1603"/>
	<rect x="23.0482998" y="46.3492012" class="st9" width="2.1596999" height="2.0594001"/>
	<rect x="20.9883995" y="84.1112976" class="st9" width="2.0599" height="2.0599"/>
	<rect x="20.9883995" y="81.9511032" class="st16" width="2.0599" height="2.1602001"/>
	<rect x="20.9883995" y="79.8916016" class="st22" width="2.0599" height="2.0595"/>
	<rect x="20.9883995" y="77.8367996" class="st22" width="2.0599" height="2.0548"/>
	<rect x="20.9883995" y="75.671402" class="st19" width="2.0599" height="2.1654"/>
	<rect x="20.9883995" y="73.6171036" class="st19" width="2.0599" height="2.0543001"/>
	<rect x="20.9883995" y="71.5571976" class="st25" width="2.0599" height="2.0599"/>
	<rect x="20.9883995" y="69.3973999" class="st25" width="2.0599" height="2.1598001"/>
	<rect x="20.9883995" y="67.3375015" class="st13" width="2.0599" height="2.0599"/>
	<rect x="20.9883995" y="65.1772995" class="st25" width="2.0599" height="2.1602001"/>
	<rect x="20.9883995" y="63.1230011" class="st25" width="2.0599" height="2.0543001"/>
	<rect x="20.9883995" y="61.0629997" class="st19" width="2.0599" height="2.0599999"/>
	<rect x="20.9883995" y="58.9028015" class="st19" width="2.0599" height="2.1602001"/>
	<rect x="20.9883995" y="56.843399" class="st25" width="2.0599" height="2.0594001"/>
	<rect x="20.9883995" y="54.7886009" class="st19" width="2.0599" height="2.0548"/>
	<rect x="20.9883995" y="52.6231003" class="st22" width="2.0599" height="2.1654999"/>
	<rect x="20.9883995" y="50.5689011" class="st16" width="2.0599" height="2.0541999"/>
	<rect x="20.9883995" y="48.4085999" class="st16" width="2.0599" height="2.1603"/>
	<rect x="20.9883995" y="46.3492012" class="st9" width="2.0599" height="2.0594001"/>
	<rect x="18.9335995" y="81.9511032" class="st9" width="2.0548" height="2.1602001"/>
	<rect x="18.9335995" y="79.8916016" class="st25" width="2.0548" height="2.0595"/>
	<rect x="18.9335995" y="77.8367996" class="st22" width="2.0548" height="2.0548"/>
	<rect x="18.9335995" y="75.671402" class="st19" width="2.0548" height="2.1654"/>
	<rect x="18.9335995" y="73.6171036" class="st25" width="2.0548" height="2.0543001"/>
	<rect x="18.9335995" y="71.5571976" class="st13" width="2.0548" height="2.0599"/>
	<rect x="18.9335995" y="69.3973999" class="st13" width="2.0548" height="2.1598001"/>
	<rect x="18.9335995" y="67.3375015" class="st13" width="2.0548" height="2.0599"/>
	<rect x="18.9335995" y="65.1772995" class="st13" width="2.0548" height="2.1602001"/>
	<rect x="18.9335995" y="63.1230011" class="st25" width="2.0548" height="2.0543001"/>
	<rect x="18.9335995" y="61.0629997" class="st13" width="2.0548" height="2.0599999"/>
	<rect x="18.9335995" y="58.9028015" class="st25" width="2.0548" height="2.1602001"/>
	<rect x="18.9335995" y="56.843399" class="st13" width="2.0548" height="2.0594001"/>
	<rect x="18.9335995" y="54.7886009" class="st25" width="2.0548" height="2.0548"/>
	<rect x="18.9335995" y="52.6231003" class="st19" width="2.0548" height="2.1654999"/>
	<rect x="18.9335995" y="50.5689011" class="st22" width="2.0548" height="2.0541999"/>
	<rect x="18.9335995" y="48.4085999" class="st16" width="2.0548" height="2.1603"/>
	<rect x="18.9335995" y="46.3492012" class="st9" width="2.0548" height="2.0594001"/>
	<rect x="16.7686996" y="81.9511032" class="st9" width="2.1649001" height="2.1602001"/>
	<rect x="16.7686996" y="79.8916016" class="st16" width="2.1649001" height="2.0595"/>
	<rect x="16.7686996" y="77.8367996" class="st19" width="2.1649001" height="2.0548"/>
	<rect x="16.7686996" y="75.671402" class="st22" width="2.1649001" height="2.1654"/>
	<rect x="16.7686996" y="73.6171036" class="st19" width="2.1649001" height="2.0543001"/>
	<rect x="16.7686996" y="71.5571976" class="st25" width="2.1649001" height="2.0599"/>
	<rect x="16.7686996" y="69.3973999" class="st25" width="2.1649001" height="2.1598001"/>
	<rect x="16.7686996" y="67.3375015" class="st13" width="2.1649001" height="2.0599"/>
	<rect x="16.7686996" y="65.1772995" class="st25" width="2.1649001" height="2.1602001"/>
	<rect x="16.7686996" y="63.1230011" class="st25" width="2.1649001" height="2.0543001"/>
	<rect x="16.7686996" y="61.0629997" class="st22" width="2.1649001" height="2.0599999"/>
	<rect x="16.7686996" y="58.9028015" class="st19" width="2.1649001" height="2.1602001"/>
	<rect x="16.7686996" y="56.843399" class="st22" width="2.1649001" height="2.0594001"/>
	<rect x="16.7686996" y="54.7886009" class="st19" width="2.1649001" height="2.0548"/>
	<rect x="16.7686996" y="52.6231003" class="st22" width="2.1649001" height="2.1654999"/>
	<rect x="16.7686996" y="50.5689011" class="st22" width="2.1649001" height="2.0541999"/>
	<rect x="16.7686996" y="48.4085999" class="st22" width="2.1649001" height="2.1603"/>
	<rect x="16.7686996" y="46.3492012" class="st9" width="2.1649001" height="2.0594001"/>
	<rect x="14.7138996" y="81.9511032" class="st9" width="2.0548" height="2.1602001"/>
	<rect x="14.7138996" y="79.8916016" class="st22" width="2.0548" height="2.0595"/>
	<rect x="14.7138996" y="77.8367996" class="st16" width="2.0548" height="2.0548"/>
	<rect x="14.7138996" y="75.671402" class="st22" width="2.0548" height="2.1654"/>
	<rect x="14.7138996" y="73.6171036" class="st19" width="2.0548" height="2.0543001"/>
	<rect x="14.7138996" y="71.5571976" class="st25" width="2.0548" height="2.0599"/>
	<rect x="14.7138996" y="69.3973999" class="st25" width="2.0548" height="2.1598001"/>
	<rect x="14.7138996" y="67.3375015" class="st25" width="2.0548" height="2.0599"/>
	<rect x="14.7138996" y="65.1772995" class="st25" width="2.0548" height="2.1602001"/>
	<rect x="14.7138996" y="63.1230011" class="st19" width="2.0548" height="2.0543001"/>
	<rect x="14.7138996" y="61.0629997" class="st19" width="2.0548" height="2.0599999"/>
	<rect x="14.7138996" y="58.9028015" class="st25" width="2.0548" height="2.1602001"/>
	<rect x="14.7138996" y="56.843399" class="st19" width="2.0548" height="2.0594001"/>
	<rect x="14.7138996" y="54.7886009" class="st22" width="2.0548" height="2.0548"/>
	<rect x="14.7138996" y="52.6231003" class="st22" width="2.0548" height="2.1654999"/>
	<rect x="14.7138996" y="50.5689011" class="st16" width="2.0548" height="2.0541999"/>
	<rect x="14.7138996" y="48.4085999" class="st16" width="2.0548" height="2.1603"/>
	<rect x="14.7138996" y="46.3492012" class="st9" width="2.0548" height="2.0594001"/>
	<rect x="12.6539001" y="79.8916016" class="st9" width="2.0599999" height="2.0595"/>
	<rect x="12.6539001" y="77.8367996" class="st16" width="2.0599999" height="2.0548"/>
	<rect x="12.6539001" y="75.671402" class="st22" width="2.0599999" height="2.1654"/>
	<rect x="12.6539001" y="73.6171036" class="st19" width="2.0599999" height="2.0543001"/>
	<rect x="12.6539001" y="71.5571976" class="st13" width="2.0599999" height="2.0599"/>
	<rect x="12.6539001" y="69.3973999" class="st19" width="2.0599999" height="2.1598001"/>
	<rect x="12.6539001" y="67.3375015" class="st25" width="2.0599999" height="2.0599"/>
	<rect x="12.6539001" y="65.1772995" class="st19" width="2.0599999" height="2.1602001"/>
	<rect x="12.6539001" y="63.1230011" class="st25" width="2.0599999" height="2.0543001"/>
	<rect x="12.6539001" y="61.0629997" class="st19" width="2.0599999" height="2.0599999"/>
	<rect x="12.6539001" y="58.9028015" class="st22" width="2.0599999" height="2.1602001"/>
	<rect x="12.6539001" y="56.843399" class="st22" width="2.0599999" height="2.0594001"/>
	<rect x="12.6539001" y="54.7886009" class="st22" width="2.0599999" height="2.0548"/>
	<rect x="12.6539001" y="52.6231003" class="st16" width="2.0599999" height="2.1654999"/>
	<rect x="12.6539001" y="50.5689011" class="st16" width="2.0599999" height="2.0541999"/>
	<rect x="12.6539001" y="48.4085999" class="st9" width="2.0599999" height="2.1603"/>
	<rect x="10.4941998" y="79.8916016" class="st9" width="2.1596999" height="2.0595"/>
	<rect x="10.4941998" y="77.8367996" class="st16" width="2.1596999" height="2.0548"/>
	<rect x="10.4941998" y="75.671402" class="st25" width="2.1596999" height="2.1654"/>
	<rect x="10.4941998" y="73.6171036" class="st22" width="2.1596999" height="2.0543001"/>
	<rect x="10.4941998" y="71.5571976" class="st19" width="2.1596999" height="2.0599"/>
	<rect x="10.4941998" y="69.3973999" class="st19" width="2.1596999" height="2.1598001"/>
	<rect x="10.4941998" y="67.3375015" class="st13" width="2.1596999" height="2.0599"/>
	<rect x="10.4941998" y="65.1772995" class="st22" width="2.1596999" height="2.1602001"/>
	<rect x="10.4941998" y="63.1230011" class="st19" width="2.1596999" height="2.0543001"/>
	<rect x="10.4941998" y="61.0629997" class="st22" width="2.1596999" height="2.0599999"/>
	<rect x="10.4941998" y="58.9028015" class="st25" width="2.1596999" height="2.1602001"/>
	<rect x="10.4941998" y="56.843399" class="st22" width="2.1596999" height="2.0594001"/>
	<rect x="10.4941998" y="54.7886009" class="st16" width="2.1596999" height="2.0548"/>
	<rect x="10.4941998" y="52.6231003" class="st16" width="2.1596999" height="2.1654999"/>
	<rect x="10.4941998" y="50.5689011" class="st22" width="2.1596999" height="2.0541999"/>
	<rect x="10.4941998" y="48.4085999" class="st9" width="2.1596999" height="2.1603"/>
	<rect x="8.4343004" y="79.8916016" class="st9" width="2.0599" height="2.0595"/>
	<rect x="8.4343004" y="77.8367996" class="st22" width="2.0599" height="2.0548"/>
	<rect x="8.4343004" y="75.671402" class="st16" width="2.0599" height="2.1654"/>
	<rect x="8.4343004" y="73.6171036" class="st22" width="2.0599" height="2.0543001"/>
	<rect x="8.4343004" y="71.5571976" class="st19" width="2.0599" height="2.0599"/>
	<rect x="8.4343004" y="69.3973999" class="st22" width="2.0599" height="2.1598001"/>
	<rect x="8.4343004" y="67.3375015" class="st25" width="2.0599" height="2.0599"/>
	<rect x="8.4343004" y="65.1772995" class="st19" width="2.0599" height="2.1602001"/>
	<rect x="8.4343004" y="63.1230011" class="st22" width="2.0599" height="2.0543001"/>
	<rect x="8.4343004" y="61.0629997" class="st22" width="2.0599" height="2.0599999"/>
	<rect x="8.4343004" y="58.9028015" class="st16" width="2.0599" height="2.1602001"/>
	<rect x="8.4343004" y="56.843399" class="st16" width="2.0599" height="2.0594001"/>
	<rect x="8.4343004" y="54.7886009" class="st22" width="2.0599" height="2.0548"/>
	<rect x="8.4343004" y="52.6231003" class="st16" width="2.0599" height="2.1654999"/>
	<rect x="8.4343004" y="50.5689011" class="st9" width="2.0599" height="2.0541999"/>
	<rect x="6.2744999" y="77.8367996" class="st9" width="2.1598001" height="2.0548"/>
	<rect x="6.2744999" y="75.671402" class="st16" width="2.1598001" height="2.1654"/>
	<rect x="6.2744999" y="73.6171036" class="st16" width="2.1598001" height="2.0543001"/>
	<rect x="6.2744999" y="71.5571976" class="st22" width="2.1598001" height="2.0599"/>
	<rect x="6.2744999" y="69.3973999" class="st22" width="2.1598001" height="2.1598001"/>
	<rect x="6.2744999" y="67.3375015" class="st19" width="2.1598001" height="2.0599"/>
	<rect x="6.2744999" y="65.1772995" class="st22" width="2.1598001" height="2.1602001"/>
	<rect x="6.2744999" y="63.1230011" class="st19" width="2.1598001" height="2.0543001"/>
	<rect x="6.2744999" y="61.0629997" class="st16" width="2.1598001" height="2.0599999"/>
	<rect x="6.2744999" y="58.9028015" class="st22" width="2.1598001" height="2.1602001"/>
	<rect x="6.2744999" y="56.843399" class="st16" width="2.1598001" height="2.0594001"/>
	<rect x="6.2744999" y="54.7886009" class="st16" width="2.1598001" height="2.0548"/>
	<rect x="6.2744999" y="52.6231003" class="st9" width="2.1598001" height="2.1654999"/>
	<rect x="4.2196999" y="75.671402" class="st9" width="2.0548" height="2.1654"/>
	<rect x="4.2196999" y="73.6171036" class="st16" width="2.0548" height="2.0543001"/>
	<rect x="4.2196999" y="71.5571976" class="st16" width="2.0548" height="2.0599"/>
	<rect x="4.2196999" y="69.3973999" class="st16" width="2.0548" height="2.1598001"/>
	<rect x="4.2196999" y="67.3375015" class="st22" width="2.0548" height="2.0599"/>
	<rect x="4.2196999" y="65.1772995" class="st22" width="2.0548" height="2.1602001"/>
	<rect x="4.2196999" y="63.1230011" class="st22" width="2.0548" height="2.0543001"/>
	<rect x="4.2196999" y="61.0629997" class="st16" width="2.0548" height="2.0599999"/>
	<rect x="4.2196999" y="58.9028015" class="st16" width="2.0548" height="2.1602001"/>
	<rect x="4.2196999" y="56.843399" class="st9" width="2.0548" height="2.0594001"/>
	<rect x="4.2196999" y="54.7886009" class="st9" width="2.0548" height="2.0548"/>
	<rect x="2.1598001" y="73.6171036" class="st9" width="2.0599" height="2.0543001"/>
	<rect x="2.1598001" y="71.5571976" class="st9" width="2.0599" height="2.0599"/>
	<rect x="2.1598001" y="69.3973999" class="st16" width="2.0599" height="2.1598001"/>
	<rect x="2.1598001" y="67.3375015" class="st22" width="2.0599" height="2.0599"/>
	<rect x="2.1598001" y="65.1772995" class="st16" width="2.0599" height="2.1602001"/>
	<rect x="2.1598001" y="63.1230011" class="st16" width="2.0599" height="2.0543001"/>
	<rect x="2.1598001" y="61.0629997" class="st9" width="2.0599" height="2.0599999"/>
	<rect x="2.1598001" y="58.9028015" class="st9" width="2.0599" height="2.1602001"/>
	<rect y="69.3973999" class="st9" width="2.1598001" height="2.1598001"/>
	<rect y="67.3375015" class="st9" width="2.1598001" height="2.0599"/>
	<rect y="65.1772995" class="st9" width="2.1598001" height="2.1602001"/>
	<rect y="63.1230011" class="st9" width="2.1598001" height="2.0543001"/>
</g>
</svg>
