<?xml version="1.0" encoding="utf-8"?>
<!-- Generator: Adobe Illustrator 26.0.1, SVG Export Plug-In . SVG Version: 6.00 Build 0)  -->
<svg version="1.1" id="Layer_1" xmlns="http://www.w3.org/2000/svg" xmlns:xlink="http://www.w3.org/1999/xlink" x="0px" y="0px"
	 width="47px" height="45px" viewBox="0 0 47 45" style="enable-background:new 0 0 47 45;" xml:space="preserve">
<style type="text/css">
	.st0{fill:#1E2235;}
	.st1{fill:url(#SVGID_1_);}
	.st2{fill:#1B2162;}
	.st3{fill:#252D88;}
	.st4{fill:#2D37A3;}
	.st5{fill:#424DCB;}
	.st6{fill:#00B7FF;}
	.st7{fill:#0261CC;}
	.st8{fill:#380762;}
	.st9{fill:#370C45;}
	.st10{fill:#703991;}
	.st11{fill:#A046C2;}
	.st12{fill:#543175;}
	.st13{fill:#FFFFFF;}
	.st14{fill:#B947C0;}
	.st15{fill:#DB8EE3;}
	.st16{fill:#8B0975;}
	.st17{fill:#BD3151;}
	.st18{fill:#CC3154;}
	.st19{fill:#FF7261;}
	.st20{fill:#BF2C4E;}
	.st21{fill:#FE9867;}
	.st22{fill:#EF3A65;}
	.st23{fill:#FFAD6E;}
	.st24{fill:#FA559F;}
	.st25{fill:#FCE00A;}
	.st26{fill:#837CC2;}
	.st27{fill:#0284DB;}
	.st28{fill:#BFBAF0;}
	.st29{fill:#5E4194;}
	.st30{fill:#755AC1;}
	.st31{fill:#A8A3D2;}
	.st32{fill:#5D75C2;}
	.st33{fill:#6D85CF;}
	.st34{fill:#89C7DE;}
	.st35{opacity:0.5;}
	.st36{fill:#FF001F;}
	.st37{fill:#97C1FF;}
	.st38{fill:#FFF203;}
	.st39{fill:#0086FF;}
	.st40{display:none;}
	.st41{display:inline;fill:#370C45;}
	.st42{display:inline;fill:#FE9867;}
	.st43{display:inline;fill:#FA559F;}
	.st44{display:inline;fill:#EF3A65;}
	.st45{display:inline;fill:#CC3154;}
	.st46{display:inline;fill:#FF7261;}
	.st47{display:inline;fill:#8B0975;}
	.st48{display:inline;fill:#380762;}
	.st49{display:inline;fill:#B947C0;}
	.st50{display:inline;fill:#BD3151;}
	.st51{display:inline;fill:#BF2C4E;}
	.st52{display:inline;fill:#FFAD6E;}
	.st53{fill:#FCEB6A;}
	.st54{fill:#F2C50F;}
	.st55{fill:#8ADD8A;}
	.st56{fill:#00FF00;}
	.st57{fill:#07D607;}
	.st58{fill:#05CC0A;}
	.st59{fill:#482A63;}
	.st60{fill:#DE990E;}
	.st61{fill:#009DFF;}
	.st62{fill:#E8AB0E;}
	.st63{fill:#72A614;}
	.st64{fill:#A7E007;}
	.st65{fill:#699C18;}
	.st66{fill:#6D9E16;}
	.st67{fill:#84BF15;}
	.st68{fill:#3A4F93;}
	.st69{fill:#2D3B70;}
	.st70{fill:none;stroke:#1B2442;stroke-miterlimit:10;}
	.st71{opacity:0;fill:#171A33;}
	.st72{fill:#FFFB00;}
	.st73{opacity:0.2;}
	.st74{fill:#42061A;}
</style>
<g id="XMLID_27_">
	<rect x="44.5438499" y="25.6925507" class="st9" width="2.1598001" height="2.0543001"/>
	<rect x="44.5438499" y="23.5271492" class="st10" width="2.1598001" height="2.1654"/>
	<rect x="44.5438499" y="21.4728508" class="st9" width="2.1598001" height="2.0543001"/>
	<rect x="44.5438499" y="19.3125496" class="st11" width="2.1598001" height="2.1603"/>
	<rect x="44.5438499" y="17.2526493" class="st10" width="2.1598001" height="2.0599"/>
	<rect x="44.5438499" y="15.0929499" class="st12" width="2.1598001" height="2.1596999"/>
	<rect x="44.5438499" y="13.0329504" class="st9" width="2.1598001" height="2.0599999"/>
	<rect x="42.4839516" y="34.1267509" class="st9" width="2.0599" height="2.0599"/>
	<rect x="42.4839516" y="31.9669495" class="st9" width="2.0599" height="2.1598001"/>
	<rect x="42.4839516" y="29.9070492" class="st9" width="2.0599" height="2.0599"/>
	<rect x="42.4839516" y="27.7468491" class="st9" width="2.0599" height="2.1602001"/>
	<rect x="42.4839516" y="25.6925507" class="st9" width="2.0599" height="2.0543001"/>
	<rect x="42.4839516" y="21.4728508" class="st9" width="2.0599" height="2.0543001"/>
	<rect x="42.4839516" y="19.3125496" class="st9" width="2.0599" height="2.1603"/>
	<rect x="42.4839516" y="17.2526493" class="st9" width="2.0599" height="2.0599"/>
	<rect x="42.4839516" y="15.0929499" class="st12" width="2.0599" height="2.1596999"/>
	<rect x="42.4839516" y="13.0329504" class="st11" width="2.0599" height="2.0599999"/>
	<rect x="42.4839516" y="10.87325" class="st12" width="2.0599" height="2.1596999"/>
	<rect x="42.4839516" y="8.8132496" class="st9" width="2.0599" height="2.0599999"/>
	<rect x="40.3241501" y="36.1866493" class="st9" width="2.1598001" height="2.1598001"/>
	<rect x="40.3241501" y="34.1267509" class="st10" width="2.1598001" height="2.0599"/>
	<rect x="40.3241501" y="31.9669495" class="st13" width="2.1598001" height="2.1598001"/>
	<rect x="40.3241501" y="29.9070492" class="st14" width="2.1598001" height="2.0599"/>
	<rect x="40.3241501" y="27.7468491" class="st15" width="2.1598001" height="2.1602001"/>
	<rect x="40.3241501" y="25.6925507" class="st10" width="2.1598001" height="2.0543001"/>
	<rect x="40.3241501" y="23.5271492" class="st12" width="2.1598001" height="2.1654"/>
	<rect x="40.3241501" y="21.4728508" class="st9" width="2.1598001" height="2.0543001"/>
	<rect x="40.3241501" y="19.3125496" class="st9" width="2.1598001" height="2.1603"/>
	<rect x="40.3241501" y="15.0929499" class="st9" width="2.1598001" height="2.1596999"/>
	<rect x="40.3241501" y="13.0329504" class="st14" width="2.1598001" height="2.0599999"/>
	<rect x="40.3241501" y="10.87325" class="st11" width="2.1598001" height="2.1596999"/>
	<rect x="40.3241501" y="8.8132496" class="st10" width="2.1598001" height="2.0599999"/>
	<rect x="40.3241501" y="6.6530499" class="st9" width="2.1598001" height="2.1602001"/>
	<rect x="40.3241501" y="4.5987501" class="st9" width="2.1598001" height="2.0543001"/>
	<rect x="38.2642517" y="38.3464508" class="st9" width="2.0599" height="2.0599"/>
	<rect x="38.2642517" y="36.1866493" class="st11" width="2.0599" height="2.1598001"/>
	<rect x="38.2642517" y="34.1267509" class="st11" width="2.0599" height="2.0599"/>
	<rect x="38.2642517" y="31.9669495" class="st10" width="2.0599" height="2.1598001"/>
	<rect x="38.2642517" y="29.9070492" class="st11" width="2.0599" height="2.0599"/>
	<rect x="38.2642517" y="27.7468491" class="st12" width="2.0599" height="2.1602001"/>
	<rect x="38.2642517" y="25.6925507" class="st15" width="2.0599" height="2.0543001"/>
	<rect x="38.2642517" y="23.5271492" class="st14" width="2.0599" height="2.1654"/>
	<rect x="38.2642517" y="21.4728508" class="st11" width="2.0599" height="2.0543001"/>
	<rect x="38.2642517" y="19.3125496" class="st9" width="2.0599" height="2.1603"/>
	<rect x="38.2642517" y="17.2526493" class="st9" width="2.0599" height="2.0599"/>
	<rect x="38.2642517" y="15.0929499" class="st9" width="2.0599" height="2.1596999"/>
	<rect x="38.2642517" y="13.0329504" class="st12" width="2.0599" height="2.0599999"/>
	<rect x="38.2642517" y="10.87325" class="st15" width="2.0599" height="2.1596999"/>
	<rect x="38.2642517" y="8.8132496" class="st11" width="2.0599" height="2.0599999"/>
	<rect x="38.2642517" y="6.6530499" class="st9" width="2.0599" height="2.1602001"/>
	<rect x="38.2642517" y="4.5987501" class="st9" width="2.0599" height="2.0543001"/>
	<rect x="36.1039505" y="40.4063492" class="st9" width="2.1603" height="2.0548"/>
	<rect x="36.1039505" y="38.3464508" class="st15" width="2.1603" height="2.0599"/>
	<rect x="36.1039505" y="36.1866493" class="st14" width="2.1603" height="2.1598001"/>
	<rect x="36.1039505" y="34.1267509" class="st9" width="2.1603" height="2.0599"/>
	<rect x="36.1039505" y="31.9669495" class="st9" width="2.1603" height="2.1598001"/>
	<rect x="36.1039505" y="29.9070492" class="st9" width="2.1603" height="2.0599"/>
	<rect x="36.1039505" y="27.7468491" class="st14" width="2.1603" height="2.1602001"/>
	<rect x="36.1039505" y="25.6925507" class="st15" width="2.1603" height="2.0543001"/>
	<rect x="36.1039505" y="23.5271492" class="st13" width="2.1603" height="2.1654"/>
	<rect x="36.1039505" y="21.4728508" class="st14" width="2.1603" height="2.0543001"/>
	<rect x="36.1039505" y="19.3125496" class="st12" width="2.1603" height="2.1603"/>
	<rect x="36.1039505" y="17.2526493" class="st9" width="2.1603" height="2.0599"/>
	<rect x="36.1039505" y="15.0929499" class="st9" width="2.1603" height="2.1596999"/>
	<rect x="36.1039505" y="13.0329504" class="st9" width="2.1603" height="2.0599999"/>
	<rect x="36.1039505" y="10.87325" class="st14" width="2.1603" height="2.1596999"/>
	<rect x="36.1039505" y="8.8132496" class="st13" width="2.1603" height="2.0599999"/>
	<rect x="36.1039505" y="6.6530499" class="st12" width="2.1603" height="2.1602001"/>
	<rect x="36.1039505" y="4.5987501" class="st9" width="2.1603" height="2.0543001"/>
	<rect x="36.1039505" y="2.43855" class="st9" width="2.1603" height="2.1602001"/>
	<rect x="34.0497513" y="42.4611511" class="st9" width="2.0541999" height="2.1598001"/>
	<rect x="34.0497513" y="40.4063492" class="st10" width="2.0541999" height="2.0548"/>
	<rect x="34.0497513" y="38.3464508" class="st12" width="2.0541999" height="2.0599"/>
	<rect x="34.0497513" y="34.1267509" class="st9" width="2.0541999" height="2.0599"/>
	<rect x="34.0497513" y="31.9669495" class="st9" width="2.0541999" height="2.1598001"/>
	<rect x="34.0497513" y="29.9070492" class="st9" width="2.0541999" height="2.0599"/>
	<rect x="34.0497513" y="27.7468491" class="st9" width="2.0541999" height="2.1602001"/>
	<rect x="34.0497513" y="25.6925507" class="st12" width="2.0541999" height="2.0543001"/>
	<rect x="34.0497513" y="23.5271492" class="st14" width="2.0541999" height="2.1654"/>
	<rect x="34.0497513" y="21.4728508" class="st15" width="2.0541999" height="2.0543001"/>
	<rect x="34.0497513" y="19.3125496" class="st11" width="2.0541999" height="2.1603"/>
	<rect x="34.0497513" y="17.2526493" class="st9" width="2.0541999" height="2.0599"/>
	<rect x="34.0497513" y="15.0929499" class="st9" width="2.0541999" height="2.1596999"/>
	<rect x="34.0497513" y="13.0329504" class="st9" width="2.0541999" height="2.0599999"/>
	<rect x="34.0497513" y="10.87325" class="st10" width="2.0541999" height="2.1596999"/>
	<rect x="34.0497513" y="8.8132496" class="st14" width="2.0541999" height="2.0599999"/>
	<rect x="34.0497513" y="6.6530499" class="st11" width="2.0541999" height="2.1602001"/>
	<rect x="34.0497513" y="4.5987501" class="st9" width="2.0541999" height="2.0543001"/>
	<rect x="31.8894501" y="40.4063492" class="st12" width="2.1603" height="2.0548"/>
	<rect x="31.8894501" y="36.1866493" class="st9" width="2.1603" height="2.1598001"/>
	<rect x="31.8894501" y="34.1267509" class="st9" width="2.1603" height="2.0599"/>
	<rect x="31.8894501" y="31.9669495" class="st9" width="2.1603" height="2.1598001"/>
	<rect x="31.8894501" y="29.9070492" class="st12" width="2.1603" height="2.0599"/>
	<rect x="31.8894501" y="27.7468491" class="st9" width="2.1603" height="2.1602001"/>
	<rect x="31.8894501" y="25.6925507" class="st9" width="2.1603" height="2.0543001"/>
	<rect x="31.8894501" y="23.5271492" class="st10" width="2.1603" height="2.1654"/>
	<rect x="31.8894501" y="21.4728508" class="st14" width="2.1603" height="2.0543001"/>
	<rect x="31.8894501" y="19.3125496" class="st10" width="2.1603" height="2.1603"/>
	<rect x="31.8894501" y="17.2526493" class="st9" width="2.1603" height="2.0599"/>
	<rect x="31.8894501" y="15.0929499" class="st9" width="2.1603" height="2.1596999"/>
	<rect x="31.8894501" y="13.0329504" class="st9" width="2.1603" height="2.0599999"/>
	<rect x="31.8894501" y="10.87325" class="st12" width="2.1603" height="2.1596999"/>
	<rect x="31.8894501" y="8.8132496" class="st15" width="2.1603" height="2.0599999"/>
	<rect x="31.8894501" y="6.6530499" class="st12" width="2.1603" height="2.1602001"/>
	<rect x="31.8894501" y="4.5987501" class="st12" width="2.1603" height="2.0543001"/>
	<rect x="31.8894501" y="2.43855" class="st9" width="2.1603" height="2.1602001"/>
	<rect x="29.8300495" y="40.4063492" class="st9" width="2.0594001" height="2.0548"/>
	<rect x="29.8300495" y="38.3464508" class="st9" width="2.0594001" height="2.0599"/>
	<rect x="29.8300495" y="36.1866493" class="st9" width="2.0594001" height="2.1598001"/>
	<rect x="29.8300495" y="31.9669495" class="st9" width="2.0594001" height="2.1598001"/>
	<rect x="29.8300495" y="29.9070492" class="st9" width="2.0594001" height="2.0599"/>
	<rect x="29.8300495" y="27.7468491" class="st9" width="2.0594001" height="2.1602001"/>
	<rect x="29.8300495" y="25.6925507" class="st12" width="2.0594001" height="2.0543001"/>
	<rect x="29.8300495" y="23.5271492" class="st12" width="2.0594001" height="2.1654"/>
	<rect x="29.8300495" y="21.4728508" class="st15" width="2.0594001" height="2.0543001"/>
	<rect x="29.8300495" y="19.3125496" class="st14" width="2.0594001" height="2.1603"/>
	<rect x="29.8300495" y="17.2526493" class="st12" width="2.0594001" height="2.0599"/>
	<rect x="29.8300495" y="15.0929499" class="st9" width="2.0594001" height="2.1596999"/>
	<rect x="29.8300495" y="13.0329504" class="st12" width="2.0594001" height="2.0599999"/>
	<rect x="29.8300495" y="10.87325" class="st14" width="2.0594001" height="2.1596999"/>
	<rect x="29.8300495" y="8.8132496" class="st12" width="2.0594001" height="2.0599999"/>
	<rect x="29.8300495" y="6.6530499" class="st11" width="2.0594001" height="2.1602001"/>
	<rect x="29.8300495" y="4.5987501" class="st9" width="2.0594001" height="2.0543001"/>
	<rect x="29.8300495" y="2.43855" class="st9" width="2.0594001" height="2.1602001"/>
	<rect x="29.8300495" y="0.37905" class="st9" width="2.0594001" height="2.0595"/>
	<rect x="27.6697502" y="42.4611511" class="st9" width="2.1603" height="2.1598001"/>
	<rect x="27.6697502" y="40.4063492" class="st9" width="2.1603" height="2.0548"/>
	<rect x="27.6697502" y="38.3464508" class="st12" width="2.1603" height="2.0599"/>
	<rect x="27.6697502" y="34.1267509" class="st9" width="2.1603" height="2.0599"/>
	<rect x="27.6697502" y="31.9669495" class="st9" width="2.1603" height="2.1598001"/>
	<rect x="27.6697502" y="29.9070492" class="st9" width="2.1603" height="2.0599"/>
	<rect x="27.6697502" y="27.7468491" class="st9" width="2.1603" height="2.1602001"/>
	<rect x="27.6697502" y="25.6925507" class="st10" width="2.1603" height="2.0543001"/>
	<rect x="27.6697502" y="23.5271492" class="st11" width="2.1603" height="2.1654"/>
	<rect x="27.6697502" y="21.4728508" class="st14" width="2.1603" height="2.0543001"/>
	<rect x="27.6697502" y="19.3125496" class="st11" width="2.1603" height="2.1603"/>
	<rect x="27.6697502" y="17.2526493" class="st11" width="2.1603" height="2.0599"/>
	<rect x="27.6697502" y="15.0929499" class="st12" width="2.1603" height="2.1596999"/>
	<rect x="27.6697502" y="13.0329504" class="st14" width="2.1603" height="2.0599999"/>
	<rect x="27.6697502" y="10.87325" class="st10" width="2.1603" height="2.1596999"/>
	<rect x="27.6697502" y="8.8132496" class="st14" width="2.1603" height="2.0599999"/>
	<rect x="27.6697502" y="6.6530499" class="st10" width="2.1603" height="2.1602001"/>
	<rect x="27.6697502" y="4.5987501" class="st9" width="2.1603" height="2.0543001"/>
	<rect x="27.6697502" y="2.43855" class="st9" width="2.1603" height="2.1602001"/>
	<rect x="25.6098499" y="40.4063492" class="st12" width="2.0599" height="2.0548"/>
	<rect x="25.6098499" y="36.1866493" class="st9" width="2.0599" height="2.1598001"/>
	<rect x="25.6098499" y="34.1267509" class="st9" width="2.0599" height="2.0599"/>
	<rect x="25.6098499" y="31.9669495" class="st10" width="2.0599" height="2.1598001"/>
	<rect x="25.6098499" y="29.9070492" class="st11" width="2.0599" height="2.0599"/>
	<rect x="25.6098499" y="27.7468491" class="st10" width="2.0599" height="2.1602001"/>
	<rect x="25.6098499" y="25.6925507" class="st14" width="2.0599" height="2.0543001"/>
	<rect x="25.6098499" y="23.5271492" class="st14" width="2.0599" height="2.1654"/>
	<rect x="25.6098499" y="21.4728508" class="st15" width="2.0599" height="2.0543001"/>
	<rect x="25.6098499" y="19.3125496" class="st14" width="2.0599" height="2.1603"/>
	<rect x="25.6098499" y="17.2526493" class="st10" width="2.0599" height="2.0599"/>
	<rect x="25.6098499" y="15.0929499" class="st15" width="2.0599" height="2.1596999"/>
	<rect x="25.6098499" y="13.0329504" class="st13" width="2.0599" height="2.0599999"/>
	<rect x="25.6098499" y="10.87325" class="st11" width="2.0599" height="2.1596999"/>
	<rect x="25.6098499" y="8.8132496" class="st12" width="2.0599" height="2.0599999"/>
	<rect x="25.6098499" y="6.6530499" class="st9" width="2.0599" height="2.1602001"/>
	<rect x="25.6098499" y="2.43855" class="st11" width="2.0599" height="2.1602001"/>
	<rect x="25.6098499" y="0.37905" class="st9" width="2.0599" height="2.0595"/>
	<rect x="23.4501495" y="38.3464508" class="st9" width="2.1596999" height="2.0599"/>
	<rect x="23.4501495" y="36.1866493" class="st12" width="2.1596999" height="2.1598001"/>
	<rect x="23.4501495" y="34.1267509" class="st10" width="2.1596999" height="2.0599"/>
	<rect x="23.4501495" y="31.9669495" class="st11" width="2.1596999" height="2.1598001"/>
	<rect x="23.4501495" y="29.9070492" class="st15" width="2.1596999" height="2.0599"/>
	<rect x="23.4501495" y="27.7468491" class="st14" width="2.1596999" height="2.1602001"/>
	<rect x="23.4501495" y="25.6925507" class="st15" width="2.1596999" height="2.0543001"/>
	<rect x="23.4501495" y="23.5271492" class="st13" width="2.1596999" height="2.1654"/>
	<rect x="23.4501495" y="21.4728508" class="st14" width="2.1596999" height="2.0543001"/>
	<rect x="23.4501495" y="19.3125496" class="st15" width="2.1596999" height="2.1603"/>
	<rect x="23.4501495" y="17.2526493" class="st15" width="2.1596999" height="2.0599"/>
	<rect x="23.4501495" y="15.0929499" class="st14" width="2.1596999" height="2.1596999"/>
	<rect x="23.4501495" y="13.0329504" class="st14" width="2.1596999" height="2.0599999"/>
	<rect x="23.4501495" y="10.87325" class="st12" width="2.1596999" height="2.1596999"/>
	<rect x="23.4501495" y="8.8132496" class="st10" width="2.1596999" height="2.0599999"/>
	<rect x="23.4501495" y="6.6530499" class="st9" width="2.1596999" height="2.1602001"/>
	<rect x="23.4501495" y="4.5987501" class="st9" width="2.1596999" height="2.0543001"/>
	<rect x="21.3901501" y="42.4611511" class="st11" width="2.0599999" height="2.1598001"/>
	<rect x="21.3901501" y="40.4063492" class="st9" width="2.0599999" height="2.0548"/>
	<rect x="21.3901501" y="38.3464508" class="st9" width="2.0599999" height="2.0599"/>
	<rect x="21.3901501" y="36.1866493" class="st15" width="2.0599999" height="2.1598001"/>
	<rect x="21.3901501" y="34.1267509" class="st14" width="2.0599999" height="2.0599"/>
	<rect x="21.3901501" y="31.9669495" class="st14" width="2.0599999" height="2.1598001"/>
	<rect x="21.3901501" y="29.9070492" class="st14" width="2.0599999" height="2.0599"/>
	<rect x="21.3901501" y="27.7468491" class="st11" width="2.0599999" height="2.1602001"/>
	<rect x="21.3901501" y="25.6925507" class="st11" width="2.0599999" height="2.0543001"/>
	<rect x="21.3901501" y="23.5271492" class="st14" width="2.0599999" height="2.1654"/>
	<rect x="21.3901501" y="21.4728508" class="st15" width="2.0599999" height="2.0543001"/>
	<rect x="21.3901501" y="19.3125496" class="st11" width="2.0599999" height="2.1603"/>
	<rect x="21.3901501" y="17.2526493" class="st14" width="2.0599999" height="2.0599"/>
	<rect x="21.3901501" y="15.0929499" class="st10" width="2.0599999" height="2.1596999"/>
	<rect x="21.3901501" y="13.0329504" class="st12" width="2.0599999" height="2.0599999"/>
	<rect x="21.3901501" y="10.87325" class="st9" width="2.0599999" height="2.1596999"/>
	<rect x="21.3901501" y="8.8132496" class="st9" width="2.0599999" height="2.0599999"/>
	<rect x="21.3901501" y="6.6530499" class="st9" width="2.0599999" height="2.1602001"/>
	<rect x="21.3901501" y="2.43855" class="st12" width="2.0599999" height="2.1602001"/>
	<rect x="19.2304497" y="40.4063492" class="st9" width="2.1596999" height="2.0548"/>
	<rect x="19.2304497" y="38.3464508" class="st12" width="2.1596999" height="2.0599"/>
	<rect x="19.2304497" y="36.1866493" class="st10" width="2.1596999" height="2.1598001"/>
	<rect x="19.2304497" y="34.1267509" class="st14" width="2.1596999" height="2.0599"/>
	<rect x="19.2304497" y="31.9669495" class="st10" width="2.1596999" height="2.1598001"/>
	<rect x="19.2304497" y="29.9070492" class="st9" width="2.1596999" height="2.0599"/>
	<rect x="19.2304497" y="27.7468491" class="st12" width="2.1596999" height="2.1602001"/>
	<rect x="19.2304497" y="25.6925507" class="st12" width="2.1596999" height="2.0543001"/>
	<rect x="19.2304497" y="23.5271492" class="st10" width="2.1596999" height="2.1654"/>
	<rect x="19.2304497" y="21.4728508" class="st11" width="2.1596999" height="2.0543001"/>
	<rect x="19.2304497" y="19.3125496" class="st14" width="2.1596999" height="2.1603"/>
	<rect x="19.2304497" y="17.2526493" class="st10" width="2.1596999" height="2.0599"/>
	<rect x="19.2304497" y="15.0929499" class="st9" width="2.1596999" height="2.1596999"/>
	<rect x="19.2304497" y="13.0329504" class="st9" width="2.1596999" height="2.0599999"/>
	<rect x="19.2304497" y="10.87325" class="st9" width="2.1596999" height="2.1596999"/>
	<rect x="19.2304497" y="8.8132496" class="st9" width="2.1596999" height="2.0599999"/>
	<rect x="19.2304497" y="4.5987501" class="st12" width="2.1596999" height="2.0543001"/>
	<rect x="19.2304497" y="2.43855" class="st9" width="2.1596999" height="2.1602001"/>
	<rect x="19.2304497" y="0.37905" class="st9" width="2.1596999" height="2.0595"/>
	<rect x="17.1756496" y="42.4611511" class="st9" width="2.0548" height="2.1598001"/>
	<rect x="17.1756496" y="40.4063492" class="st9" width="2.0548" height="2.0548"/>
	<rect x="17.1756496" y="38.3464508" class="st12" width="2.0548" height="2.0599"/>
	<rect x="17.1756496" y="36.1866493" class="st15" width="2.0548" height="2.1598001"/>
	<rect x="17.1756496" y="34.1267509" class="st13" width="2.0548" height="2.0599"/>
	<rect x="17.1756496" y="31.9669495" class="st12" width="2.0548" height="2.1598001"/>
	<rect x="17.1756496" y="29.9070492" class="st9" width="2.0548" height="2.0599"/>
	<rect x="17.1756496" y="27.7468491" class="st9" width="2.0548" height="2.1602001"/>
	<rect x="17.1756496" y="25.6925507" class="st9" width="2.0548" height="2.0543001"/>
	<rect x="17.1756496" y="23.5271492" class="st11" width="2.0548" height="2.1654"/>
	<rect x="17.1756496" y="21.4728508" class="st15" width="2.0548" height="2.0543001"/>
	<rect x="17.1756496" y="19.3125496" class="st12" width="2.0548" height="2.1603"/>
	<rect x="17.1756496" y="17.2526493" class="st12" width="2.0548" height="2.0599"/>
	<rect x="17.1756496" y="15.0929499" class="st9" width="2.0548" height="2.1596999"/>
	<rect x="17.1756496" y="13.0329504" class="st9" width="2.0548" height="2.0599999"/>
	<rect x="17.1756496" y="10.87325" class="st9" width="2.0548" height="2.1596999"/>
	<rect x="17.1756496" y="6.6530499" class="st9" width="2.0548" height="2.1602001"/>
	<rect x="17.1756496" y="4.5987501" class="st9" width="2.0548" height="2.0543001"/>
	<rect x="17.1756496" y="2.43855" class="st9" width="2.0548" height="2.1602001"/>
	<rect x="15.01015" y="40.4063492" class="st9" width="2.1654999" height="2.0548"/>
	<rect x="15.01015" y="38.3464508" class="st9" width="2.1654999" height="2.0599"/>
	<rect x="15.01015" y="36.1866493" class="st13" width="2.1654999" height="2.1598001"/>
	<rect x="15.01015" y="34.1267509" class="st14" width="2.1654999" height="2.0599"/>
	<rect x="15.01015" y="31.9669495" class="st9" width="2.1654999" height="2.1598001"/>
	<rect x="15.01015" y="29.9070492" class="st9" width="2.1654999" height="2.0599"/>
	<rect x="15.01015" y="27.7468491" class="st9" width="2.1654999" height="2.1602001"/>
	<rect x="15.01015" y="25.6925507" class="st9" width="2.1654999" height="2.0543001"/>
	<rect x="15.01015" y="23.5271492" class="st12" width="2.1654999" height="2.1654"/>
	<rect x="15.01015" y="21.4728508" class="st14" width="2.1654999" height="2.0543001"/>
	<rect x="15.01015" y="19.3125496" class="st10" width="2.1654999" height="2.1603"/>
	<rect x="15.01015" y="17.2526493" class="st9" width="2.1654999" height="2.0599"/>
	<rect x="15.01015" y="15.0929499" class="st9" width="2.1654999" height="2.1596999"/>
	<rect x="15.01015" y="13.0329504" class="st12" width="2.1654999" height="2.0599999"/>
	<rect x="15.01015" y="10.87325" class="st9" width="2.1654999" height="2.1596999"/>
	<rect x="15.01015" y="8.8132496" class="st9" width="2.1654999" height="2.0599999"/>
	<rect x="15.01015" y="6.6530499" class="st9" width="2.1654999" height="2.1602001"/>
	<rect x="15.01015" y="2.43855" class="st12" width="2.1654999" height="2.1602001"/>
	<rect x="12.9559498" y="38.3464508" class="st9" width="2.0541999" height="2.0599"/>
	<rect x="12.9559498" y="36.1866493" class="st14" width="2.0541999" height="2.1598001"/>
	<rect x="12.9559498" y="34.1267509" class="st12" width="2.0541999" height="2.0599"/>
	<rect x="12.9559498" y="31.9669495" class="st9" width="2.0541999" height="2.1598001"/>
	<rect x="12.9559498" y="29.9070492" class="st9" width="2.0541999" height="2.0599"/>
	<rect x="12.9559498" y="27.7468491" class="st9" width="2.0541999" height="2.1602001"/>
	<rect x="12.9559498" y="25.6925507" class="st9" width="2.0541999" height="2.0543001"/>
	<rect x="12.9559498" y="23.5271492" class="st9" width="2.0541999" height="2.1654"/>
	<rect x="12.9559498" y="21.4728508" class="st15" width="2.0541999" height="2.0543001"/>
	<rect x="12.9559498" y="19.3125496" class="st14" width="2.0541999" height="2.1603"/>
	<rect x="12.9559498" y="17.2526493" class="st12" width="2.0541999" height="2.0599"/>
	<rect x="12.9559498" y="15.0929499" class="st9" width="2.0541999" height="2.1596999"/>
	<rect x="12.9559498" y="13.0329504" class="st9" width="2.0541999" height="2.0599999"/>
	<rect x="12.9559498" y="10.87325" class="st9" width="2.0541999" height="2.1596999"/>
	<rect x="12.9559498" y="8.8132496" class="st9" width="2.0541999" height="2.0599999"/>
	<rect x="12.9559498" y="4.5987501" class="st12" width="2.0541999" height="2.0543001"/>
	<rect x="12.9559498" y="2.43855" class="st10" width="2.0541999" height="2.1602001"/>
	<rect x="12.9559498" y="0.37905" class="st9" width="2.0541999" height="2.0595"/>
	<rect x="10.7956495" y="40.4063492" class="st9" width="2.1603" height="2.0548"/>
	<rect x="10.7956495" y="38.3464508" class="st9" width="2.1603" height="2.0599"/>
	<rect x="10.7956495" y="36.1866493" class="st12" width="2.1603" height="2.1598001"/>
	<rect x="10.7956495" y="34.1267509" class="st15" width="2.1603" height="2.0599"/>
	<rect x="10.7956495" y="31.9669495" class="st12" width="2.1603" height="2.1598001"/>
	<rect x="10.7956495" y="29.9070492" class="st9" width="2.1603" height="2.0599"/>
	<rect x="10.7956495" y="27.7468491" class="st12" width="2.1603" height="2.1602001"/>
	<rect x="10.7956495" y="25.6925507" class="st9" width="2.1603" height="2.0543001"/>
	<rect x="10.7956495" y="23.5271492" class="st9" width="2.1603" height="2.1654"/>
	<rect x="10.7956495" y="21.4728508" class="st14" width="2.1603" height="2.0543001"/>
	<rect x="10.7956495" y="19.3125496" class="st13" width="2.1603" height="2.1603"/>
	<rect x="10.7956495" y="17.2526493" class="st10" width="2.1603" height="2.0599"/>
	<rect x="10.7956495" y="15.0929499" class="st14" width="2.1603" height="2.1596999"/>
	<rect x="10.7956495" y="13.0329504" class="st9" width="2.1603" height="2.0599999"/>
	<rect x="10.7956495" y="10.87325" class="st9" width="2.1603" height="2.1596999"/>
	<rect x="10.7956495" y="8.8132496" class="st9" width="2.1603" height="2.0599999"/>
	<rect x="10.7956495" y="6.6530499" class="st14" width="2.1603" height="2.1602001"/>
	<rect x="10.7956495" y="4.5987501" class="st15" width="2.1603" height="2.0543001"/>
	<rect x="10.7956495" y="2.43855" class="st9" width="2.1603" height="2.1602001"/>
	<rect x="8.7362499" y="38.3464508" class="st9" width="2.0594001" height="2.0599"/>
	<rect x="8.7362499" y="36.1866493" class="st9" width="2.0594001" height="2.1598001"/>
	<rect x="8.7362499" y="34.1267509" class="st12" width="2.0594001" height="2.0599"/>
	<rect x="8.7362499" y="31.9669495" class="st11" width="2.0594001" height="2.1598001"/>
	<rect x="8.7362499" y="29.9070492" class="st9" width="2.0594001" height="2.0599"/>
	<rect x="8.7362499" y="27.7468491" class="st9" width="2.0594001" height="2.1602001"/>
	<rect x="8.7362499" y="25.6925507" class="st9" width="2.0594001" height="2.0543001"/>
	<rect x="8.7362499" y="23.5271492" class="st9" width="2.0594001" height="2.1654"/>
	<rect x="8.7362499" y="21.4728508" class="st10" width="2.0594001" height="2.0543001"/>
	<rect x="8.7362499" y="19.3125496" class="st14" width="2.0594001" height="2.1603"/>
	<rect x="8.7362499" y="17.2526493" class="st15" width="2.0594001" height="2.0599"/>
	<rect x="8.7362499" y="15.0929499" class="st12" width="2.0594001" height="2.1596999"/>
	<rect x="8.7362499" y="13.0329504" class="st11" width="2.0594001" height="2.0599999"/>
	<rect x="8.7362499" y="10.87325" class="st10" width="2.0594001" height="2.1596999"/>
	<rect x="8.7362499" y="8.8132496" class="st11" width="2.0594001" height="2.0599999"/>
	<rect x="8.7362499" y="6.6530499" class="st11" width="2.0594001" height="2.1602001"/>
	<rect x="8.7362499" y="4.5987501" class="st9" width="2.0594001" height="2.0543001"/>
	<rect x="6.5760498" y="36.1866493" class="st9" width="2.1602001" height="2.1598001"/>
	<rect x="6.5760498" y="34.1267509" class="st9" width="2.1602001" height="2.0599"/>
	<rect x="6.5760498" y="31.9669495" class="st12" width="2.1602001" height="2.1598001"/>
	<rect x="6.5760498" y="29.9070492" class="st14" width="2.1602001" height="2.0599"/>
	<rect x="6.5760498" y="27.7468491" class="st9" width="2.1602001" height="2.1602001"/>
	<rect x="6.5760498" y="25.6925507" class="st9" width="2.1602001" height="2.0543001"/>
	<rect x="6.5760498" y="23.5271492" class="st9" width="2.1602001" height="2.1654"/>
	<rect x="6.5760498" y="21.4728508" class="st9" width="2.1602001" height="2.0543001"/>
	<rect x="6.5760498" y="19.3125496" class="st12" width="2.1602001" height="2.1603"/>
	<rect x="6.5760498" y="17.2526493" class="st10" width="2.1602001" height="2.0599"/>
	<rect x="6.5760498" y="15.0929499" class="st15" width="2.1602001" height="2.1596999"/>
	<rect x="6.5760498" y="13.0329504" class="st14" width="2.1602001" height="2.0599999"/>
	<rect x="6.5760498" y="10.87325" class="st13" width="2.1602001" height="2.1596999"/>
	<rect x="6.5760498" y="8.8132496" class="st10" width="2.1602001" height="2.0599999"/>
	<rect x="6.5760498" y="6.6530499" class="st9" width="2.1602001" height="2.1602001"/>
	<rect x="4.5160499" y="34.1267509" class="st9" width="2.0599999" height="2.0599"/>
	<rect x="4.5160499" y="31.9669495" class="st9" width="2.0599999" height="2.1598001"/>
	<rect x="4.5160499" y="29.9070492" class="st12" width="2.0599999" height="2.0599"/>
	<rect x="4.5160499" y="27.7468491" class="st10" width="2.0599999" height="2.1602001"/>
	<rect x="4.5160499" y="25.6925507" class="st12" width="2.0599999" height="2.0543001"/>
	<rect x="4.5160499" y="23.5271492" class="st9" width="2.0599999" height="2.1654"/>
	<rect x="4.5160499" y="21.4728508" class="st9" width="2.0599999" height="2.0543001"/>
	<rect x="4.5160499" y="19.3125496" class="st9" width="2.0599999" height="2.1603"/>
	<rect x="4.5160499" y="17.2526493" class="st9" width="2.0599999" height="2.0599"/>
	<rect x="4.5160499" y="15.0929499" class="st9" width="2.0599999" height="2.1596999"/>
	<rect x="4.5160499" y="13.0329504" class="st9" width="2.0599999" height="2.0599999"/>
	<rect x="4.5160499" y="10.87325" class="st9" width="2.0599999" height="2.1596999"/>
	<rect x="4.5160499" y="8.8132496" class="st9" width="2.0599999" height="2.0599999"/>
	<rect x="4.5160499" y="6.6530499" class="st9" width="2.0599999" height="2.1602001"/>
	<rect x="2.46175" y="29.9070492" class="st9" width="2.0543001" height="2.0599"/>
	<rect x="2.46175" y="27.7468491" class="st9" width="2.0543001" height="2.1602001"/>
	<rect x="2.46175" y="25.6925507" class="st9" width="2.0543001" height="2.0543001"/>
	<rect x="2.46175" y="23.5271492" class="st9" width="2.0543001" height="2.1654"/>
	<rect x="2.46175" y="19.3125496" class="st12" width="2.0543001" height="2.1603"/>
	<rect x="2.46175" y="17.2526493" class="st9" width="2.0543001" height="2.0599"/>
	<rect x="2.46175" y="15.0929499" class="st9" width="2.0543001" height="2.1596999"/>
	<rect x="2.46175" y="13.0329504" class="st9" width="2.0543001" height="2.0599999"/>
	<rect x="0.29635" y="23.5271492" class="st9" width="2.1654" height="2.1654"/>
	<rect x="0.29635" y="17.2526493" class="st9" width="2.1654" height="2.0599"/>
</g>
</svg>
