<?xml version="1.0" encoding="utf-8"?>
<!-- Generator: Adobe Illustrator 26.0.1, SVG Export Plug-In . SVG Version: 6.00 Build 0)  -->
<svg version="1.1" id="Layer_1" xmlns="http://www.w3.org/2000/svg" xmlns:xlink="http://www.w3.org/1999/xlink" x="0px" y="0px"
	 width="23.1490993px" height="46.2980995px" viewBox="0 0 23.1490993 46.2980995"
	 style="enable-background:new 0 0 23.1490993 46.2980995;" xml:space="preserve">
<style type="text/css">
	.st0{fill:#370C45;}
	.st1{fill:#380762;}
	.st2{fill:#8B0975;}
	.st3{fill:#EF3A65;}
	.st4{fill:#FF7261;}
	.st5{fill:#FE9867;}
	.st6{fill:#FCE00A;}
	.st7{fill:#FFFFFF;}
	.st8{fill:#000CA8;}
	.st9{fill:#0007C5;}
	.st10{fill:#1D09D8;}
	.st11{fill:#813AC8;}
	.st12{fill:#9172C4;}
	.st13{fill:#9098CA;}
</style>
<g>
	<g>
		<rect x="21.0942993" y="33.644249" class="st0" width="2.0548" height="2.1596985"/>
		<rect x="18.9284" y="35.8039513" class="st0" width="2.1658993" height="2.0600014"/>
		<rect x="18.9284" y="33.644249" class="st1" width="2.1658993" height="2.1596985"/>
		<rect x="18.9284" y="31.5842495" class="st0" width="2.1658993" height="2.0599995"/>
		<rect x="16.8745995" y="37.8639488" class="st0" width="2.0538006" height="2.1596985"/>
		<rect x="16.8745995" y="35.8039513" class="st1" width="2.0538006" height="2.0600014"/>
		<rect x="16.8745995" y="33.644249" class="st2" width="2.0538006" height="2.1596985"/>
		<rect x="16.8745995" y="31.5842495" class="st1" width="2.0538006" height="2.0599995"/>
		<rect x="16.8745995" y="29.4235497" class="st0" width="2.0538006" height="2.1606998"/>
		<rect x="14.7138996" y="40.0236511" class="st0" width="2.1606998" height="2.0598984"/>
		<rect x="14.7138996" y="37.8639488" class="st1" width="2.1606998" height="2.1596985"/>
		<rect x="14.7138996" y="35.8039513" class="st2" width="2.1606998" height="2.0600014"/>
		<rect x="14.7138996" y="33.644249" class="st3" width="2.1606998" height="2.1596985"/>
		<rect x="14.7138996" y="31.5842495" class="st2" width="2.1606998" height="2.0599995"/>
		<rect x="14.7138996" y="29.4235497" class="st1" width="2.1606998" height="2.1606998"/>
		<rect x="14.7138996" y="27.3697491" class="st0" width="2.1606998" height="2.0538006"/>
		<rect x="12.6549997" y="42.0835495" class="st0" width="2.0588999" height="2.0548019"/>
		<rect x="12.6549997" y="40.0236511" class="st1" width="2.0588999" height="2.0598984"/>
		<rect x="12.6549997" y="37.8639488" class="st2" width="2.0588999" height="2.1596985"/>
		<rect x="12.6549997" y="35.8039513" class="st3" width="2.0588999" height="2.0600014"/>
		<rect x="12.6549997" y="33.644249" class="st4" width="2.0588999" height="2.1596985"/>
		<rect x="12.6549997" y="31.5842495" class="st3" width="2.0588999" height="2.0599995"/>
		<rect x="12.6549997" y="29.4235497" class="st2" width="2.0588999" height="2.1606998"/>
		<rect x="12.6549997" y="27.3697491" class="st1" width="2.0588999" height="2.0538006"/>
		<rect x="12.6549997" y="25.2038498" class="st0" width="2.0588999" height="2.1658993"/>
		<rect x="10.4941998" y="44.1383514" class="st0" width="2.1608" height="2.1596985"/>
		<rect x="10.4941998" y="42.0835495" class="st1" width="2.1608" height="2.0548019"/>
		<rect x="10.4941998" y="40.0236511" class="st2" width="2.1608" height="2.0598984"/>
		<rect x="10.4941998" y="37.8639488" class="st3" width="2.1608" height="2.1596985"/>
		<rect x="10.4941998" y="35.8039513" class="st4" width="2.1608" height="2.0600014"/>
		<rect x="10.4941998" y="33.644249" class="st5" width="2.1608" height="2.1596985"/>
		<rect x="10.4941998" y="31.5842495" class="st4" width="2.1608" height="2.0599995"/>
		<rect x="10.4941998" y="29.4235497" class="st3" width="2.1608" height="2.1606998"/>
		<rect x="10.4941998" y="27.3697491" class="st2" width="2.1608" height="2.0538006"/>
		<rect x="10.4941998" y="25.2038498" class="st1" width="2.1608" height="2.1658993"/>
		<rect x="10.4941998" y="23.1490498" class="st0" width="2.1608" height="2.0548"/>
		<rect x="8.4342003" y="42.0835495" class="st0" width="2.0599995" height="2.0548019"/>
		<rect x="8.4342003" y="40.0236511" class="st1" width="2.0599995" height="2.0598984"/>
		<rect x="8.4342003" y="37.8639488" class="st2" width="2.0599995" height="2.1596985"/>
		<rect x="8.4342003" y="35.8039513" class="st3" width="2.0599995" height="2.0600014"/>
		<rect x="8.4342003" y="33.644249" class="st4" width="2.0599995" height="2.1596985"/>
		<rect x="8.4342003" y="31.5842495" class="st3" width="2.0599995" height="2.0599995"/>
		<rect x="8.4342003" y="29.4235497" class="st2" width="2.0599995" height="2.1606998"/>
		<rect x="8.4342003" y="27.3697491" class="st1" width="2.0599995" height="2.0538006"/>
		<rect x="8.4342003" y="25.2038498" class="st0" width="2.0599995" height="2.1658993"/>
		<rect x="6.2744999" y="40.0236511" class="st0" width="2.1597004" height="2.0598984"/>
		<rect x="6.2744999" y="37.8639488" class="st1" width="2.1597004" height="2.1596985"/>
		<rect x="6.2744999" y="35.8039513" class="st2" width="2.1597004" height="2.0600014"/>
		<rect x="6.2744999" y="33.644249" class="st3" width="2.1597004" height="2.1596985"/>
		<rect x="6.2744999" y="31.5842495" class="st2" width="2.1597004" height="2.0599995"/>
		<rect x="6.2744999" y="29.4235497" class="st1" width="2.1597004" height="2.1606998"/>
		<rect x="6.2744999" y="27.3697491" class="st0" width="2.1597004" height="2.0538006"/>
		<rect x="4.2146001" y="37.8639488" class="st0" width="2.0598998" height="2.1596985"/>
		<rect x="4.2146001" y="35.8039513" class="st1" width="2.0598998" height="2.0600014"/>
		<rect x="4.2146001" y="33.644249" class="st2" width="2.0598998" height="2.1596985"/>
		<rect x="4.2146001" y="31.5842495" class="st1" width="2.0598998" height="2.0599995"/>
		<rect x="4.2146001" y="29.4235497" class="st0" width="2.0598998" height="2.1606998"/>
		<rect x="2.0548" y="35.8039513" class="st0" width="2.1598001" height="2.0600014"/>
		<rect x="2.0548" y="33.644249" class="st1" width="2.1598001" height="2.1596985"/>
		<rect x="2.0548" y="31.5842495" class="st0" width="2.1598001" height="2.0599995"/>
		<rect y="33.644249" class="st0" width="2.0548" height="2.1596985"/>
	</g>
	<rect x="10.5445995" y="33.6935501" class="st0" width="2.0599003" height="2.0600014"/>
	<rect x="10.5445995" y="33.6436996" class="st0" width="2.0599003" height="2.1596985"/>
	<rect x="10.5445995" y="33.6935997" class="st0" width="2.0599003" height="2.0598984"/>
	<rect x="10.5445995" y="33.6433983" class="st0" width="2.0599003" height="2.1603012"/>
	<rect x="10.4946499" y="33.6964493" class="st0" width="2.1597996" height="2.0541992"/>
	<rect x="10.4946499" y="33.6935501" class="st2" width="2.1597996" height="2.0600014"/>
	<rect x="10.4946499" y="33.6436996" class="st2" width="2.1597996" height="2.1596985"/>
	<rect x="10.4946499" y="33.6935997" class="st3" width="2.1597996" height="2.0598984"/>
	<rect x="10.4946499" y="33.6433983" class="st2" width="2.1597996" height="2.1603012"/>
	<rect x="10.4946499" y="33.6963997" class="st0" width="2.1597996" height="2.0542984"/>
	<rect x="10.5445995" y="33.6964493" class="st0" width="2.0599003" height="2.0541992"/>
	<rect x="10.5445995" y="33.6935501" class="st4" width="2.0599003" height="2.0600014"/>
	<rect x="10.5445995" y="33.6436996" class="st2" width="2.0599003" height="2.1596985"/>
	<rect x="10.5445995" y="33.6935997" class="st4" width="2.0599003" height="2.0598984"/>
	<rect x="10.5445995" y="33.6433983" class="st2" width="2.0599003" height="2.1603012"/>
	<rect x="10.5445995" y="33.6963997" class="st2" width="2.0599003" height="2.0542984"/>
	<rect x="10.5445995" y="33.6935997" class="st0" width="2.0599003" height="2.0598984"/>
	<rect x="10.4947004" y="33.6408501" class="st0" width="2.1596994" height="2.1654015"/>
	<rect x="10.4947004" y="33.6964493" class="st3" width="2.1596994" height="2.0541992"/>
	<rect x="10.4947004" y="33.6935501" class="st6" width="2.1596994" height="2.0600014"/>
	<rect x="10.4947004" y="33.6436996" class="st3" width="2.1596994" height="2.1596985"/>
	<rect x="10.4947004" y="33.6935997" class="st4" width="2.1596994" height="2.0598984"/>
	<rect x="10.4947004" y="33.6433983" class="st3" width="2.1596994" height="2.1603012"/>
	<rect x="10.4947004" y="33.6963997" class="st2" width="2.1596994" height="2.0542984"/>
	<rect x="10.4947004" y="33.6935997" class="st0" width="2.1596994" height="2.0598984"/>
	<rect x="10.5445499" y="33.6408501" class="st0" width="2.0599995" height="2.1654015"/>
	<rect x="10.5445499" y="33.6964493" class="st2" width="2.0599995" height="2.0541992"/>
	<rect x="10.5445499" y="33.6935501" class="st4" width="2.0599995" height="2.0600014"/>
	<rect x="10.5445499" y="33.6436996" class="st4" width="2.0599995" height="2.1596985"/>
	<rect x="10.5445499" y="33.6935997" class="st6" width="2.0599995" height="2.0598984"/>
	<rect x="10.5445499" y="33.6433983" class="st4" width="2.0599995" height="2.1603012"/>
	<rect x="10.5445499" y="33.6963997" class="st4" width="2.0599995" height="2.0542984"/>
	<rect x="10.5445499" y="33.6935997" class="st2" width="2.0599995" height="2.0598984"/>
	<rect x="10.5445499" y="33.6433983" class="st0" width="2.0599995" height="2.1603012"/>
	<rect x="10.5471497" y="33.6408501" class="st0" width="2.0548" height="2.1654015"/>
	<rect x="10.5471497" y="33.6964493" class="st2" width="2.0548" height="2.0541992"/>
	<rect x="10.5471497" y="33.6935501" class="st4" width="2.0548" height="2.0600014"/>
	<rect x="10.5471497" y="33.6436996" class="st6" width="2.0548" height="2.1596985"/>
	<rect x="10.5471497" y="33.6935997" class="st7" width="2.0548" height="2.0598984"/>
	<rect x="10.5471497" y="33.6433983" class="st6" width="2.0548" height="2.1603012"/>
	<rect x="10.5471497" y="33.6963997" class="st3" width="2.0548" height="2.0542984"/>
	<rect x="10.5471497" y="33.6935997" class="st3" width="2.0548" height="2.0598984"/>
	<rect x="10.5471497" y="33.6433983" class="st0" width="2.0548" height="2.1603012"/>
	<rect x="10.4947004" y="33.6408501" class="st0" width="2.1596994" height="2.1654015"/>
	<rect x="10.4947004" y="33.6964493" class="st2" width="2.1596994" height="2.0541992"/>
	<rect x="10.4947004" y="33.6935501" class="st3" width="2.1596994" height="2.0600014"/>
	<rect x="10.4947004" y="33.6436996" class="st4" width="2.1596994" height="2.1596985"/>
	<rect x="10.4947004" y="33.6935997" class="st6" width="2.1596994" height="2.0598984"/>
	<rect x="10.4947004" y="33.6433983" class="st4" width="2.1596994" height="2.1603012"/>
	<rect x="10.4947004" y="33.6963997" class="st4" width="2.1596994" height="2.0542984"/>
	<rect x="10.4947004" y="33.6935997" class="st2" width="2.1596994" height="2.0598984"/>
	<rect x="10.4947004" y="33.6433983" class="st0" width="2.1596994" height="2.1603012"/>
	<rect x="10.5445995" y="33.6964493" class="st0" width="2.0599003" height="2.0541992"/>
	<rect x="10.5445995" y="33.6935501" class="st2" width="2.0599003" height="2.0600014"/>
	<rect x="10.5445995" y="33.6436996" class="st3" width="2.0599003" height="2.1596985"/>
	<rect x="10.5445995" y="33.6935997" class="st4" width="2.0599003" height="2.0598984"/>
	<rect x="10.5445995" y="33.6433983" class="st3" width="2.0599003" height="2.1603012"/>
	<rect x="10.5445995" y="33.6963997" class="st2" width="2.0599003" height="2.0542984"/>
	<rect x="10.5445995" y="33.6935997" class="st2" width="2.0599003" height="2.0598984"/>
	<rect x="10.5445995" y="33.6433983" class="st0" width="2.0599003" height="2.1603012"/>
	<rect x="10.5445499" y="33.6964493" class="st0" width="2.0599995" height="2.0541992"/>
	<rect x="10.5445499" y="33.6935501" class="st2" width="2.0599995" height="2.0600014"/>
	<rect x="10.5445499" y="33.6436996" class="st2" width="2.0599995" height="2.1596985"/>
	<rect x="10.5445499" y="33.6935997" class="st4" width="2.0599995" height="2.0598984"/>
	<rect x="10.5445499" y="33.6433983" class="st2" width="2.0599995" height="2.1603012"/>
	<rect x="10.5445499" y="33.6963997" class="st0" width="2.0599995" height="2.0542984"/>
	<rect x="10.5445499" y="33.6935997" class="st0" width="2.0599995" height="2.0598984"/>
	<rect x="10.4947004" y="33.6436996" class="st0" width="2.1596994" height="2.1596985"/>
	<rect x="10.4947004" y="33.6935997" class="st0" width="2.1596994" height="2.0598984"/>
	<rect x="10.4947004" y="33.6433983" class="st0" width="2.1596994" height="2.1603012"/>
</g>
<g>
	<rect x="20.0113506" y="37.9109497" class="st0" width="2.0599003" height="2.0600014"/>
	<rect x="20.0113506" y="35.7512512" class="st0" width="2.0599003" height="2.1596985"/>
	<rect x="20.0113506" y="33.691349" class="st0" width="2.0599003" height="2.0598984"/>
	<rect x="20.0113506" y="31.5310497" class="st0" width="2.0599003" height="2.1602993"/>
	<rect x="17.8515491" y="39.9709511" class="st0" width="2.1597996" height="2.0541992"/>
	<rect x="17.8515491" y="37.9109497" class="st2" width="2.1597996" height="2.0600014"/>
	<rect x="17.8515491" y="35.7512512" class="st2" width="2.1597996" height="2.1596985"/>
	<rect x="17.8515491" y="33.691349" class="st3" width="2.1597996" height="2.0598984"/>
	<rect x="17.8515491" y="31.5310497" class="st2" width="2.1597996" height="2.1602993"/>
	<rect x="17.8515491" y="29.4767494" class="st0" width="2.1597996" height="2.0543003"/>
	<rect x="15.7916498" y="39.9709511" class="st0" width="2.0598993" height="2.0541992"/>
	<rect x="15.7916498" y="37.9109497" class="st4" width="2.0598993" height="2.0600014"/>
	<rect x="15.7916498" y="35.7512512" class="st2" width="2.0598993" height="2.1596985"/>
	<rect x="15.7916498" y="33.691349" class="st4" width="2.0598993" height="2.0598984"/>
	<rect x="15.7916498" y="31.5310497" class="st2" width="2.0598993" height="2.1602993"/>
	<rect x="15.7916498" y="29.4767494" class="st2" width="2.0598993" height="2.0543003"/>
	<rect x="15.7916498" y="27.4168491" class="st0" width="2.0598993" height="2.0599003"/>
	<rect x="13.6319504" y="42.0251503" class="st0" width="2.1597004" height="2.1654015"/>
	<rect x="13.6319504" y="39.9709511" class="st3" width="2.1597004" height="2.0541992"/>
	<rect x="13.6319504" y="37.9109497" class="st6" width="2.1597004" height="2.0600014"/>
	<rect x="13.6319504" y="35.7512512" class="st3" width="2.1597004" height="2.1596985"/>
	<rect x="13.6319504" y="33.691349" class="st4" width="2.1597004" height="2.0598984"/>
	<rect x="13.6319504" y="31.5310497" class="st3" width="2.1597004" height="2.1602993"/>
	<rect x="13.6319504" y="29.4767494" class="st2" width="2.1597004" height="2.0543003"/>
	<rect x="13.6319504" y="27.4168491" class="st0" width="2.1597004" height="2.0599003"/>
	<rect x="11.57195" y="42.0251503" class="st0" width="2.0600004" height="2.1654015"/>
	<rect x="11.57195" y="39.9709511" class="st2" width="2.0600004" height="2.0541992"/>
	<rect x="11.57195" y="37.9109497" class="st4" width="2.0600004" height="2.0600014"/>
	<rect x="11.57195" y="35.7512512" class="st4" width="2.0600004" height="2.1596985"/>
	<rect x="11.57195" y="33.691349" class="st6" width="2.0600004" height="2.0598984"/>
	<rect x="11.57195" y="31.5310497" class="st4" width="2.0600004" height="2.1602993"/>
	<rect x="11.57195" y="29.4767494" class="st4" width="2.0600004" height="2.0543003"/>
	<rect x="11.57195" y="27.4168491" class="st2" width="2.0600004" height="2.0599003"/>
	<rect x="11.57195" y="25.2565498" class="st0" width="2.0600004" height="2.1602993"/>
	<rect x="9.5171499" y="42.0251503" class="st0" width="2.0548" height="2.1654015"/>
	<rect x="9.5171499" y="39.9709511" class="st2" width="2.0548" height="2.0541992"/>
	<rect x="9.5171499" y="37.9109497" class="st4" width="2.0548" height="2.0600014"/>
	<rect x="9.5171499" y="35.7512512" class="st6" width="2.0548" height="2.1596985"/>
	<rect x="9.5171499" y="33.691349" class="st7" width="2.0548" height="2.0598984"/>
	<rect x="9.5171499" y="31.5310497" class="st6" width="2.0548" height="2.1602993"/>
	<rect x="9.5171499" y="29.4767494" class="st3" width="2.0548" height="2.0543003"/>
	<rect x="9.5171499" y="27.4168491" class="st3" width="2.0548" height="2.0599003"/>
	<rect x="9.5171499" y="25.2565498" class="st0" width="2.0548" height="2.1602993"/>
	<rect x="7.35745" y="42.0251503" class="st0" width="2.1596999" height="2.1654015"/>
	<rect x="7.35745" y="39.9709511" class="st2" width="2.1596999" height="2.0541992"/>
	<rect x="7.35745" y="37.9109497" class="st3" width="2.1596999" height="2.0600014"/>
	<rect x="7.35745" y="35.7512512" class="st4" width="2.1596999" height="2.1596985"/>
	<rect x="7.35745" y="33.691349" class="st6" width="2.1596999" height="2.0598984"/>
	<rect x="7.35745" y="31.5310497" class="st4" width="2.1596999" height="2.1602993"/>
	<rect x="7.35745" y="29.4767494" class="st4" width="2.1596999" height="2.0543003"/>
	<rect x="7.35745" y="27.4168491" class="st2" width="2.1596999" height="2.0599003"/>
	<rect x="7.35745" y="25.2565498" class="st0" width="2.1596999" height="2.1602993"/>
	<rect x="5.2975502" y="39.9709511" class="st0" width="2.0599003" height="2.0541992"/>
	<rect x="5.2975502" y="37.9109497" class="st2" width="2.0599003" height="2.0600014"/>
	<rect x="5.2975502" y="35.7512512" class="st3" width="2.0599003" height="2.1596985"/>
	<rect x="5.2975502" y="33.691349" class="st4" width="2.0599003" height="2.0598984"/>
	<rect x="5.2975502" y="31.5310497" class="st3" width="2.0599003" height="2.1602993"/>
	<rect x="5.2975502" y="29.4767494" class="st2" width="2.0599003" height="2.0543003"/>
	<rect x="5.2975502" y="27.4168491" class="st2" width="2.0599003" height="2.0599003"/>
	<rect x="5.2975502" y="25.2565498" class="st0" width="2.0599003" height="2.1602993"/>
	<rect x="3.23755" y="39.9709511" class="st0" width="2.0600002" height="2.0541992"/>
	<rect x="3.23755" y="37.9109497" class="st2" width="2.0600002" height="2.0600014"/>
	<rect x="3.23755" y="35.7512512" class="st2" width="2.0600002" height="2.1596985"/>
	<rect x="3.23755" y="33.691349" class="st4" width="2.0600002" height="2.0598984"/>
	<rect x="3.23755" y="31.5310497" class="st2" width="2.0600002" height="2.1602993"/>
	<rect x="3.23755" y="29.4767494" class="st0" width="2.0600002" height="2.0543003"/>
	<rect x="3.23755" y="27.4168491" class="st0" width="2.0600002" height="2.0599003"/>
	<rect x="1.07785" y="35.7512512" class="st0" width="2.1596999" height="2.1596985"/>
	<rect x="1.07785" y="33.691349" class="st0" width="2.1596999" height="2.0598984"/>
	<rect x="1.07785" y="31.5310497" class="st0" width="2.1596999" height="2.1602993"/>
</g>
<g>
	<g>
		<rect x="21.0943489" y="10.4952002" class="st8" width="2.0548" height="2.1596999"/>
		<rect x="18.9284496" y="12.6548996" class="st8" width="2.1659" height="2.0599999"/>
		<rect x="18.9284496" y="10.4952002" class="st9" width="2.1659" height="2.1596999"/>
		<rect x="18.9284496" y="8.4351997" class="st8" width="2.1659" height="2.0599999"/>
		<rect x="16.874649" y="14.7149" class="st8" width="2.0538001" height="2.1596999"/>
		<rect x="16.874649" y="12.6548996" class="st9" width="2.0538001" height="2.0599999"/>
		<rect x="16.874649" y="10.4952002" class="st10" width="2.0538001" height="2.1596999"/>
		<rect x="16.874649" y="8.4351997" class="st9" width="2.0538001" height="2.0599999"/>
		<rect x="16.874649" y="6.2744999" class="st8" width="2.0538001" height="2.1607001"/>
		<rect x="14.7139502" y="16.8745995" class="st8" width="2.1607001" height="2.0599"/>
		<rect x="14.7139502" y="14.7149" class="st9" width="2.1607001" height="2.1596999"/>
		<rect x="14.7139502" y="12.6548996" class="st10" width="2.1607001" height="2.0599999"/>
		<rect x="14.7139502" y="10.4952002" class="st11" width="2.1607001" height="2.1596999"/>
		<rect x="14.7139502" y="8.4351997" class="st10" width="2.1607001" height="2.0599999"/>
		<rect x="14.7139502" y="6.2744999" class="st9" width="2.1607001" height="2.1607001"/>
		<rect x="14.7139502" y="4.2206998" class="st8" width="2.1607001" height="2.0538001"/>
		<rect x="12.6550493" y="18.9344997" class="st8" width="2.0589001" height="2.0548"/>
		<rect x="12.6550493" y="16.8745995" class="st9" width="2.0589001" height="2.0599"/>
		<rect x="12.6550493" y="14.7149" class="st10" width="2.0589001" height="2.1596999"/>
		<rect x="12.6550493" y="12.6548996" class="st11" width="2.0589001" height="2.0599999"/>
		<rect x="12.6550493" y="10.4952002" class="st12" width="2.0589001" height="2.1596999"/>
		<rect x="12.6550493" y="8.4351997" class="st11" width="2.0589001" height="2.0599999"/>
		<rect x="12.6550493" y="6.2744999" class="st10" width="2.0589001" height="2.1607001"/>
		<rect x="12.6550493" y="4.2206998" class="st9" width="2.0589001" height="2.0538001"/>
		<rect x="12.6550493" y="2.0548" class="st8" width="2.0589001" height="2.1659"/>
		<rect x="10.4942493" y="20.9892998" class="st8" width="2.1608" height="2.1596999"/>
		<rect x="10.4942493" y="18.9344997" class="st9" width="2.1608" height="2.0548"/>
		<rect x="10.4942493" y="16.8745995" class="st10" width="2.1608" height="2.0599"/>
		<rect x="10.4942493" y="14.7149" class="st11" width="2.1608" height="2.1596999"/>
		<rect x="10.4942493" y="12.6548996" class="st12" width="2.1608" height="2.0599999"/>
		<rect x="10.4942493" y="10.4952002" class="st13" width="2.1608" height="2.1596999"/>
		<rect x="10.4942493" y="8.4351997" class="st12" width="2.1608" height="2.0599999"/>
		<rect x="10.4942493" y="6.2744999" class="st11" width="2.1608" height="2.1607001"/>
		<rect x="10.4942493" y="4.2206998" class="st10" width="2.1608" height="2.0538001"/>
		<rect x="10.4942493" y="2.0548" class="st9" width="2.1608" height="2.1659"/>
		<rect x="10.4942493" class="st8" width="2.1608" height="2.0548"/>
		<rect x="8.4342499" y="18.9344997" class="st8" width="2.0599999" height="2.0548"/>
		<rect x="8.4342499" y="16.8745995" class="st9" width="2.0599999" height="2.0599"/>
		<rect x="8.4342499" y="14.7149" class="st10" width="2.0599999" height="2.1596999"/>
		<rect x="8.4342499" y="12.6548996" class="st11" width="2.0599999" height="2.0599999"/>
		<rect x="8.4342499" y="10.4952002" class="st12" width="2.0599999" height="2.1596999"/>
		<rect x="8.4342499" y="8.4351997" class="st11" width="2.0599999" height="2.0599999"/>
		<rect x="8.4342499" y="6.2744999" class="st10" width="2.0599999" height="2.1607001"/>
		<rect x="8.4342499" y="4.2206998" class="st9" width="2.0599999" height="2.0538001"/>
		<rect x="8.4342499" y="2.0548" class="st8" width="2.0599999" height="2.1659"/>
		<rect x="6.27455" y="16.8745995" class="st8" width="2.1596999" height="2.0599"/>
		<rect x="6.27455" y="14.7149" class="st9" width="2.1596999" height="2.1596999"/>
		<rect x="6.27455" y="12.6548996" class="st10" width="2.1596999" height="2.0599999"/>
		<rect x="6.27455" y="10.4952002" class="st11" width="2.1596999" height="2.1596999"/>
		<rect x="6.27455" y="8.4351997" class="st10" width="2.1596999" height="2.0599999"/>
		<rect x="6.27455" y="6.2744999" class="st9" width="2.1596999" height="2.1607001"/>
		<rect x="6.27455" y="4.2206998" class="st8" width="2.1596999" height="2.0538001"/>
		<rect x="4.2146497" y="14.7149" class="st8" width="2.0599" height="2.1596999"/>
		<rect x="4.2146497" y="12.6548996" class="st9" width="2.0599" height="2.0599999"/>
		<rect x="4.2146497" y="10.4952002" class="st10" width="2.0599" height="2.1596999"/>
		<rect x="4.2146497" y="8.4351997" class="st9" width="2.0599" height="2.0599999"/>
		<rect x="4.2146497" y="6.2744999" class="st8" width="2.0599" height="2.1607001"/>
		<rect x="2.0548496" y="12.6548996" class="st8" width="2.1598001" height="2.0599999"/>
		<rect x="2.0548496" y="10.4952002" class="st9" width="2.1598001" height="2.1596999"/>
		<rect x="2.0548496" y="8.4351997" class="st8" width="2.1598001" height="2.0599999"/>
		<rect x="0.0000497" y="10.4952002" class="st8" width="2.0548" height="2.1596999"/>
	</g>
	<rect x="10.5446501" y="10.5445004" class="st0" width="2.0599" height="2.0599999"/>
	<rect x="10.5446501" y="10.4946499" class="st0" width="2.0599" height="2.1596999"/>
	<rect x="10.5446501" y="10.5445499" class="st0" width="2.0599" height="2.0599"/>
	<rect x="10.5446501" y="10.4943504" class="st0" width="2.0599" height="2.1603"/>
	<rect x="10.4946995" y="10.5474005" class="st0" width="2.1598001" height="2.0541999"/>
	<rect x="10.4946995" y="10.5445004" class="st2" width="2.1598001" height="2.0599999"/>
	<rect x="10.4946995" y="10.4946499" class="st2" width="2.1598001" height="2.1596999"/>
	<rect x="10.4946995" y="10.5445499" class="st3" width="2.1598001" height="2.0599"/>
	<rect x="10.4946995" y="10.4943504" class="st2" width="2.1598001" height="2.1603"/>
	<rect x="10.4946995" y="10.5473499" class="st0" width="2.1598001" height="2.0543001"/>
	<rect x="10.5446501" y="10.5474005" class="st0" width="2.0599" height="2.0541999"/>
	<rect x="10.5446501" y="10.5445004" class="st4" width="2.0599" height="2.0599999"/>
	<rect x="10.5446501" y="10.4946499" class="st2" width="2.0599" height="2.1596999"/>
	<rect x="10.5446501" y="10.5445499" class="st4" width="2.0599" height="2.0599"/>
	<rect x="10.5446501" y="10.4943504" class="st2" width="2.0599" height="2.1603"/>
	<rect x="10.5446501" y="10.5473499" class="st2" width="2.0599" height="2.0543001"/>
	<rect x="10.5446501" y="10.5445499" class="st0" width="2.0599" height="2.0599"/>
	<rect x="10.49475" y="10.4918003" class="st0" width="2.1596999" height="2.1654"/>
	<rect x="10.49475" y="10.5474005" class="st3" width="2.1596999" height="2.0541999"/>
	<rect x="10.49475" y="10.5445004" class="st6" width="2.1596999" height="2.0599999"/>
	<rect x="10.49475" y="10.4946499" class="st3" width="2.1596999" height="2.1596999"/>
	<rect x="10.49475" y="10.5445499" class="st4" width="2.1596999" height="2.0599"/>
	<rect x="10.49475" y="10.4943504" class="st3" width="2.1596999" height="2.1603"/>
	<rect x="10.49475" y="10.5473499" class="st2" width="2.1596999" height="2.0543001"/>
	<rect x="10.49475" y="10.5445499" class="st0" width="2.1596999" height="2.0599"/>
	<rect x="10.5445995" y="10.4918003" class="st0" width="2.0599999" height="2.1654"/>
	<rect x="10.5445995" y="10.5474005" class="st2" width="2.0599999" height="2.0541999"/>
	<rect x="10.5445995" y="10.5445004" class="st4" width="2.0599999" height="2.0599999"/>
	<rect x="10.5445995" y="10.4946499" class="st4" width="2.0599999" height="2.1596999"/>
	<rect x="10.5445995" y="10.5445499" class="st6" width="2.0599999" height="2.0599"/>
	<rect x="10.5445995" y="10.4943504" class="st4" width="2.0599999" height="2.1603"/>
	<rect x="10.5445995" y="10.5473499" class="st4" width="2.0599999" height="2.0543001"/>
	<rect x="10.5445995" y="10.5445499" class="st2" width="2.0599999" height="2.0599"/>
	<rect x="10.5445995" y="10.4943504" class="st0" width="2.0599999" height="2.1603"/>
	<rect x="10.5472002" y="10.4918003" class="st0" width="2.0548" height="2.1654"/>
	<rect x="10.5472002" y="10.5474005" class="st2" width="2.0548" height="2.0541999"/>
	<rect x="10.5472002" y="10.5445004" class="st4" width="2.0548" height="2.0599999"/>
	<rect x="10.5472002" y="10.4946499" class="st6" width="2.0548" height="2.1596999"/>
	<rect x="10.5472002" y="10.5445499" class="st7" width="2.0548" height="2.0599"/>
	<rect x="10.5472002" y="10.4943504" class="st6" width="2.0548" height="2.1603"/>
	<rect x="10.5472002" y="10.5473499" class="st3" width="2.0548" height="2.0543001"/>
	<rect x="10.5472002" y="10.5445499" class="st3" width="2.0548" height="2.0599"/>
	<rect x="10.5472002" y="10.4943504" class="st0" width="2.0548" height="2.1603"/>
	<rect x="10.49475" y="10.4918003" class="st0" width="2.1596999" height="2.1654"/>
	<rect x="10.49475" y="10.5474005" class="st2" width="2.1596999" height="2.0541999"/>
	<rect x="10.49475" y="10.5445004" class="st3" width="2.1596999" height="2.0599999"/>
	<rect x="10.49475" y="10.4946499" class="st4" width="2.1596999" height="2.1596999"/>
	<rect x="10.49475" y="10.5445499" class="st6" width="2.1596999" height="2.0599"/>
	<rect x="10.49475" y="10.4943504" class="st4" width="2.1596999" height="2.1603"/>
	<rect x="10.49475" y="10.5473499" class="st4" width="2.1596999" height="2.0543001"/>
	<rect x="10.49475" y="10.5445499" class="st2" width="2.1596999" height="2.0599"/>
	<rect x="10.49475" y="10.4943504" class="st0" width="2.1596999" height="2.1603"/>
	<rect x="10.5446501" y="10.5474005" class="st0" width="2.0599" height="2.0541999"/>
	<rect x="10.5446501" y="10.5445004" class="st2" width="2.0599" height="2.0599999"/>
	<rect x="10.5446501" y="10.4946499" class="st3" width="2.0599" height="2.1596999"/>
	<rect x="10.5446501" y="10.5445499" class="st4" width="2.0599" height="2.0599"/>
	<rect x="10.5446501" y="10.4943504" class="st3" width="2.0599" height="2.1603"/>
	<rect x="10.5446501" y="10.5473499" class="st2" width="2.0599" height="2.0543001"/>
	<rect x="10.5446501" y="10.5445499" class="st2" width="2.0599" height="2.0599"/>
	<rect x="10.5446501" y="10.4943504" class="st0" width="2.0599" height="2.1603"/>
	<rect x="10.5445995" y="10.5474005" class="st0" width="2.0599999" height="2.0541999"/>
	<rect x="10.5445995" y="10.5445004" class="st2" width="2.0599999" height="2.0599999"/>
	<rect x="10.5445995" y="10.4946499" class="st2" width="2.0599999" height="2.1596999"/>
	<rect x="10.5445995" y="10.5445499" class="st4" width="2.0599999" height="2.0599"/>
	<rect x="10.5445995" y="10.4943504" class="st2" width="2.0599999" height="2.1603"/>
	<rect x="10.5445995" y="10.5473499" class="st0" width="2.0599999" height="2.0543001"/>
	<rect x="10.5445995" y="10.5445499" class="st0" width="2.0599999" height="2.0599"/>
	<rect x="10.49475" y="10.4946499" class="st0" width="2.1596999" height="2.1596999"/>
	<rect x="10.49475" y="10.5445499" class="st0" width="2.1596999" height="2.0599"/>
	<rect x="10.49475" y="10.4943504" class="st0" width="2.1596999" height="2.1603"/>
</g>
</svg>
