<?xml version="1.0" encoding="utf-8"?>
<!-- Generator: Adobe Illustrator 26.0.1, SVG Export Plug-In . SVG Version: 6.00 Build 0)  -->
<svg version="1.1" id="Layer_1" xmlns="http://www.w3.org/2000/svg" xmlns:xlink="http://www.w3.org/1999/xlink" x="0px" y="0px"
	 width="37.8619003px" height="80.0513992px" viewBox="0 0 37.8619003 80.0513992"
	 style="enable-background:new 0 0 37.8619003 80.0513992;" xml:space="preserve">
<style type="text/css">
	.st0{fill:#1E2235;}
	.st1{fill:url(#SVGID_1_);}
	.st2{fill:#1B2162;}
	.st3{fill:#252D88;}
	.st4{fill:#2D37A3;}
	.st5{fill:#424DCB;}
	.st6{fill:#00B7FF;}
	.st7{fill:#0261CC;}
	.st8{fill:#380762;}
	.st9{fill:#370C45;}
	.st10{fill:#703991;}
	.st11{fill:#A046C2;}
	.st12{fill:#543175;}
	.st13{fill:#FFFFFF;}
	.st14{fill:#B947C0;}
	.st15{fill:#DB8EE3;}
	.st16{fill:#8B0975;}
	.st17{fill:#BD3151;}
	.st18{fill:#CC3154;}
	.st19{fill:#FF7261;}
	.st20{fill:#BF2C4E;}
	.st21{fill:#FE9867;}
	.st22{fill:#EF3A65;}
	.st23{fill:#FFAD6E;}
	.st24{fill:#FA559F;}
	.st25{fill:#FCE00A;}
	.st26{fill:#837CC2;}
	.st27{fill:#0284DB;}
	.st28{fill:#BFBAF0;}
	.st29{fill:#5E4194;}
	.st30{fill:#755AC1;}
	.st31{fill:#A8A3D2;}
	.st32{fill:#5D75C2;}
	.st33{fill:#6D85CF;}
	.st34{fill:#89C7DE;}
	.st35{opacity:0.5;}
	.st36{fill:#FF001F;}
	.st37{fill:#97C1FF;}
	.st38{fill:#FFF203;}
	.st39{fill:#0086FF;}
	.st40{display:none;}
	.st41{display:inline;fill:#370C45;}
	.st42{display:inline;fill:#FE9867;}
	.st43{display:inline;fill:#FA559F;}
	.st44{display:inline;fill:#EF3A65;}
	.st45{display:inline;fill:#CC3154;}
	.st46{display:inline;fill:#FF7261;}
	.st47{display:inline;fill:#8B0975;}
	.st48{display:inline;fill:#380762;}
	.st49{display:inline;fill:#B947C0;}
	.st50{display:inline;fill:#BD3151;}
	.st51{display:inline;fill:#BF2C4E;}
	.st52{display:inline;fill:#FFAD6E;}
	.st53{fill:#FCEB6A;}
	.st54{fill:#F2C50F;}
	.st55{fill:#8ADD8A;}
	.st56{fill:#00FF00;}
	.st57{fill:#07D607;}
	.st58{fill:#05CC0A;}
	.st59{fill:#482A63;}
	.st60{fill:#DE990E;}
	.st61{fill:#009DFF;}
	.st62{fill:#E8AB0E;}
	.st63{fill:#72A614;}
	.st64{fill:#A7E007;}
	.st65{fill:#699C18;}
	.st66{fill:#6D9E16;}
	.st67{fill:#84BF15;}
	.st68{fill:#3A4F93;}
	.st69{fill:#2D3B70;}
	.st70{fill:none;stroke:#1B2442;stroke-miterlimit:10;}
	.st71{opacity:0;fill:#171A33;}
	.st72{fill:#FFFB00;}
	.st73{opacity:0.2;}
	.st74{fill:#42061A;}
</style>
<g>
	<rect x="36.2774429" y="58.3011856" class="st8" width="1.6527084" height="1.7375637"/>
	<rect x="34.5403595" y="60.0387497" class="st8" width="1.7370812" height="1.6568104"/>
	<rect x="34.5403595" y="58.3011856" class="st26" width="1.7370812" height="1.7375637"/>
	<rect x="34.5403595" y="56.6489601" class="st8" width="1.7370812" height="1.6522259"/>
	<rect x="35.4259109" y="66.7844696" class="st9" width="1.6568104" height="1.6523063"/>
	<rect x="32.8835487" y="58.3011856" class="st8" width="1.6568104" height="1.7375637"/>
	<rect x="33.8843498" y="51.5980988" class="st9" width="1.6568104" height="1.6564888"/>
	<rect x="33.7690201" y="68.4367752" class="st9" width="1.6568909" height="1.7415854"/>
	<rect x="33.7690201" y="66.7844696" class="st13" width="1.6568909" height="1.6523063"/>
	<rect x="33.7690201" y="65.1275787" class="st9" width="1.6568909" height="1.6568909"/>
	<rect x="32.227459" y="53.2545891" class="st9" width="1.6568909" height="1.7374834"/>
	<rect x="32.227459" y="51.5980988" class="st27" width="1.6568909" height="1.6564888"/>
	<rect x="32.227459" y="49.9453888" class="st9" width="1.6568909" height="1.6527084"/>
	<rect x="32.0319405" y="66.7844696" class="st9" width="1.7370812" height="1.6523063"/>
	<rect x="30.4903774" y="51.5980988" class="st9" width="1.7370812" height="1.6564888"/>
	<rect x="29.6850967" y="73.9497147" class="st8" width="1.6527084" height="1.6564888"/>
	<rect x="28.0282059" y="75.6062088" class="st8" width="1.6568909" height="1.7374834"/>
	<rect x="28.0282059" y="73.9497147" class="st26" width="1.6568909" height="1.6564888"/>
	<rect x="28.0282059" y="72.2970123" class="st8" width="1.6568909" height="1.6527084"/>
	<rect x="25.9096375" y="64.7038651" class="st9" width="1.6568104" height="1.6568909"/>
	<rect x="25.9096375" y="62.9667816" class="st9" width="1.6568104" height="1.7370812"/>
	<rect x="25.9096375" y="61.3099709" class="st9" width="1.6568104" height="1.6568104"/>
	<rect x="25.9096375" y="59.5724106" class="st9" width="1.6568104" height="1.7375637"/>
	<rect x="25.9096375" y="46.5514984" class="st9" width="1.6568104" height="1.6522259"/>
	<rect x="26.2911243" y="73.9497147" class="st8" width="1.7370812" height="1.6564888"/>
	<rect x="24.1724758" y="66.3607559" class="st9" width="1.7371616" height="1.6522259"/>
	<rect x="24.1724758" y="64.7038651" class="st16" width="1.7371616" height="1.6568909"/>
	<rect x="24.1724758" y="62.9667816" class="st16" width="1.7371616" height="1.7370812"/>
	<rect x="24.1724758" y="61.3099709" class="st22" width="1.7371616" height="1.6568104"/>
	<rect x="24.1724758" y="59.5724106" class="st16" width="1.7371616" height="1.7375637"/>
	<rect x="24.1724758" y="57.9201012" class="st9" width="1.7371616" height="1.6523063"/>
	<rect x="24.1724758" y="48.2037239" class="st9" width="1.7371616" height="1.7416657"/>
	<rect x="24.1724758" y="46.5514984" class="st27" width="1.7371616" height="1.6522259"/>
	<rect x="24.1724758" y="44.8139343" class="st9" width="1.7371616" height="1.7375637"/>
	<rect x="22.5156651" y="66.3607559" class="st9" width="1.6568104" height="1.6522259"/>
	<rect x="22.5156651" y="64.7038651" class="st19" width="1.6568104" height="1.6568909"/>
	<rect x="22.5156651" y="62.9667816" class="st16" width="1.6568104" height="1.7370812"/>
	<rect x="22.5156651" y="61.3099709" class="st19" width="1.6568104" height="1.6568104"/>
	<rect x="22.5156651" y="59.5724106" class="st16" width="1.6568104" height="1.7375637"/>
	<rect x="22.5156651" y="57.9201012" class="st16" width="1.6568104" height="1.6523063"/>
	<rect x="22.5156651" y="56.2632904" class="st9" width="1.6568104" height="1.6568104"/>
	<rect x="22.5156651" y="46.5514984" class="st9" width="1.6568104" height="1.6522259"/>
	<rect x="20.7785835" y="68.0129776" class="st9" width="1.7370812" height="1.7416657"/>
	<rect x="20.7785835" y="66.3607559" class="st22" width="1.7370812" height="1.6522259"/>
	<rect x="20.7785835" y="64.7038651" class="st25" width="1.7370812" height="1.6568909"/>
	<rect x="20.7785835" y="62.9667816" class="st22" width="1.7370812" height="1.7370812"/>
	<rect x="20.7785835" y="61.3099709" class="st19" width="1.7370812" height="1.6568104"/>
	<rect x="20.7785835" y="59.5724106" class="st22" width="1.7370812" height="1.7375637"/>
	<rect x="20.7785835" y="57.9201012" class="st16" width="1.7370812" height="1.6523063"/>
	<rect x="20.7785835" y="56.2632904" class="st9" width="1.7370812" height="1.6568104"/>
	<rect x="19.1216927" y="75.1824112" class="st8" width="1.6568909" height="1.6568909"/>
	<rect x="19.1216927" y="68.0129776" class="st9" width="1.6568909" height="1.7416657"/>
	<rect x="19.1216927" y="66.3607559" class="st16" width="1.6568909" height="1.6522259"/>
	<rect x="19.1216927" y="64.7038651" class="st19" width="1.6568909" height="1.6568909"/>
	<rect x="19.1216927" y="62.9667816" class="st19" width="1.6568909" height="1.7370812"/>
	<rect x="19.1216927" y="61.3099709" class="st25" width="1.6568909" height="1.6568104"/>
	<rect x="19.1216927" y="59.5724106" class="st19" width="1.6568909" height="1.7375637"/>
	<rect x="19.1216927" y="57.9201012" class="st19" width="1.6568909" height="1.6523063"/>
	<rect x="19.1216927" y="56.2632904" class="st16" width="1.6568909" height="1.6568104"/>
	<rect x="19.1216927" y="54.5257263" class="st9" width="1.6568909" height="1.7375637"/>
	<rect x="17.4689846" y="76.8393021" class="st8" width="1.6527084" height="1.7370812"/>
	<rect x="17.4689846" y="75.1824112" class="st26" width="1.6527084" height="1.6568909"/>
	<rect x="17.4689846" y="73.4448471" class="st8" width="1.6527084" height="1.7375637"/>
	<rect x="17.4689846" y="68.0129776" class="st9" width="1.6527084" height="1.7416657"/>
	<rect x="17.4689846" y="66.3607559" class="st16" width="1.6527084" height="1.6522259"/>
	<rect x="17.4689846" y="64.7038651" class="st19" width="1.6527084" height="1.6568909"/>
	<rect x="17.4689846" y="62.9667816" class="st25" width="1.6527084" height="1.7370812"/>
	<rect x="17.4689846" y="61.3099709" class="st13" width="1.6527084" height="1.6568104"/>
	<rect x="17.4689846" y="59.5724106" class="st25" width="1.6527084" height="1.7375637"/>
	<rect x="17.4689846" y="57.9201012" class="st22" width="1.6527084" height="1.6523063"/>
	<rect x="17.4689846" y="56.2632904" class="st22" width="1.6527084" height="1.6568104"/>
	<rect x="17.4689846" y="54.5257263" class="st9" width="1.6527084" height="1.7375637"/>
	<rect x="15.731904" y="75.1824112" class="st8" width="1.7370812" height="1.6568909"/>
	<rect x="15.731904" y="68.0129776" class="st9" width="1.7370812" height="1.7416657"/>
	<rect x="15.731904" y="66.3607559" class="st16" width="1.7370812" height="1.6522259"/>
	<rect x="15.731904" y="64.7038651" class="st22" width="1.7370812" height="1.6568909"/>
	<rect x="15.731904" y="62.9667816" class="st19" width="1.7370812" height="1.7370812"/>
	<rect x="15.731904" y="61.3099709" class="st25" width="1.7370812" height="1.6568104"/>
	<rect x="15.731904" y="59.5724106" class="st19" width="1.7370812" height="1.7375637"/>
	<rect x="15.731904" y="57.9201012" class="st19" width="1.7370812" height="1.6523063"/>
	<rect x="15.731904" y="56.2632904" class="st16" width="1.7370812" height="1.6568104"/>
	<rect x="15.731904" y="54.5257263" class="st9" width="1.7370812" height="1.7375637"/>
	<rect x="14.0750933" y="66.3607559" class="st9" width="1.6568104" height="1.6522259"/>
	<rect x="14.0750933" y="64.7038651" class="st16" width="1.6568104" height="1.6568909"/>
	<rect x="14.0750933" y="62.9667816" class="st22" width="1.6568104" height="1.7370812"/>
	<rect x="14.0750933" y="61.3099709" class="st19" width="1.6568104" height="1.6568104"/>
	<rect x="14.0750933" y="59.5724106" class="st22" width="1.6568104" height="1.7375637"/>
	<rect x="14.0750933" y="57.9201012" class="st16" width="1.6568104" height="1.6523063"/>
	<rect x="14.0750933" y="56.2632904" class="st16" width="1.6568104" height="1.6568104"/>
	<rect x="14.0750933" y="54.5257263" class="st9" width="1.6568104" height="1.7375637"/>
	<rect x="16.6174564" y="44.8139343" class="st8" width="1.6568104" height="1.7375637"/>
	<rect x="12.4182024" y="66.3607559" class="st9" width="1.6568909" height="1.6522259"/>
	<rect x="12.4182024" y="64.7038651" class="st16" width="1.6568909" height="1.6568909"/>
	<rect x="12.4182024" y="62.9667816" class="st16" width="1.6568909" height="1.7370812"/>
	<rect x="12.4182024" y="61.3099709" class="st19" width="1.6568909" height="1.6568104"/>
	<rect x="12.4182024" y="59.5724106" class="st16" width="1.6568909" height="1.7375637"/>
	<rect x="12.4182024" y="57.9201012" class="st9" width="1.6568909" height="1.6523063"/>
	<rect x="12.4182024" y="56.2632904" class="st9" width="1.6568909" height="1.6568104"/>
	<rect x="14.9605646" y="46.5514984" class="st8" width="1.6568909" height="1.6522259"/>
	<rect x="14.9605646" y="44.8139343" class="st26" width="1.6568909" height="1.7375637"/>
	<rect x="14.9605646" y="43.1575279" class="st8" width="1.6568909" height="1.6564083"/>
	<rect x="8.1387587" y="72.2970123" class="st9" width="1.7370812" height="1.6527084"/>
	<rect x="10.6811218" y="62.9667816" class="st9" width="1.7370812" height="1.7370812"/>
	<rect x="10.6811218" y="61.3099709" class="st9" width="1.7370812" height="1.6568104"/>
	<rect x="10.6811218" y="59.5724106" class="st9" width="1.7370812" height="1.7375637"/>
	<rect x="13.223484" y="44.8139343" class="st8" width="1.7370812" height="1.7375637"/>
	<rect x="13.223484" y="43.1575279" class="st28" width="1.7370812" height="1.6564083"/>
	<rect x="13.223484" y="41.5007172" class="st8" width="1.7370812" height="1.6568104"/>
	<rect x="6.4860506" y="73.9497147" class="st9" width="1.6527084" height="1.6564888"/>
	<rect x="6.4860506" y="72.2970123" class="st19" width="1.6527084" height="1.6527084"/>
	<rect x="6.4860506" y="70.5553436" class="st9" width="1.6527084" height="1.7416657"/>
	<rect x="11.570775" y="43.1575279" class="st8" width="1.6527084" height="1.6564083"/>
	<rect x="4.748889" y="75.6062088" class="st9" width="1.7371616" height="1.7374834"/>
	<rect x="4.748889" y="73.9497147" class="st22" width="1.7371616" height="1.6564888"/>
	<rect x="4.748889" y="72.2970123" class="st25" width="1.7371616" height="1.6527084"/>
	<rect x="4.748889" y="70.5553436" class="st22" width="1.7371616" height="1.7416657"/>
	<rect x="4.748889" y="68.9031143" class="st9" width="1.7371616" height="1.6522259"/>
	<rect x="6.0201106" y="49.9453888" class="st9" width="1.7370812" height="1.6527084"/>
	<rect x="3.0920787" y="73.9497147" class="st9" width="1.6568104" height="1.6564888"/>
	<rect x="3.0920787" y="72.2970123" class="st19" width="1.6568104" height="1.6527084"/>
	<rect x="3.0920787" y="70.5553436" class="st9" width="1.6568104" height="1.7416657"/>
	<rect x="4.3632197" y="51.5980988" class="st9" width="1.6568909" height="1.6564888"/>
	<rect x="4.3632197" y="49.9453888" class="st13" width="1.6568909" height="1.6527084"/>
	<rect x="4.3632197" y="48.2037239" class="st9" width="1.6568909" height="1.7416657"/>
	<rect x="1.4352682" y="72.2970123" class="st9" width="1.6568104" height="1.6527084"/>
	<rect x="5.9792304" y="59.5724106" class="st8" width="1.6568104" height="1.7375637"/>
	<rect x="2.7064092" y="49.9453888" class="st9" width="1.6568104" height="1.6527084"/>
	<rect x="4.2420688" y="61.3099709" class="st8" width="1.7371616" height="1.6568104"/>
	<rect x="4.2420688" y="59.5724106" class="st26" width="1.7371616" height="1.7375637"/>
	<rect x="4.2420688" y="57.9201012" class="st8" width="1.7371616" height="1.6523063"/>
	<rect x="2.5852585" y="61.3099709" class="st8" width="1.6568104" height="1.6568104"/>
	<rect x="2.5852585" y="59.5724106" class="st28" width="1.6568104" height="1.7375637"/>
	<rect x="2.5852585" y="57.9201012" class="st8" width="1.6568104" height="1.6523063"/>
	<rect x="0.93255" y="59.5724106" class="st8" width="1.6527084" height="1.7375637"/>
</g>
<g>
	<rect x="35.8081017" y="19.0384998" class="st28" width="2.0538001" height="2.0548"/>
	<rect x="35.8081017" y="16.8736" class="st28" width="2.0538001" height="2.1649001"/>
	<rect x="35.8081017" y="14.8188" class="st28" width="2.0538001" height="2.0548"/>
	<rect x="35.8081017" y="12.6590996" class="st28" width="2.0538001" height="2.1596999"/>
	<rect x="33.6422005" y="29.531601" class="st30" width="2.1659" height="2.1608"/>
	<rect x="33.6422005" y="21.0932999" class="st28" width="2.1659" height="2.1592"/>
	<rect x="33.6422005" y="19.0384998" class="st12" width="2.1659" height="2.0548"/>
	<rect x="33.6422005" y="16.8736" class="st12" width="2.1659" height="2.1649001"/>
	<rect x="33.6422005" y="14.8188" class="st12" width="2.1659" height="2.0548"/>
	<rect x="33.6422005" y="12.6590996" class="st12" width="2.1659" height="2.1596999"/>
	<rect x="33.6422005" y="10.5991001" class="st28" width="2.1659" height="2.0599999"/>
	<rect x="33.6422005" y="8.4393997" class="st28" width="2.1659" height="2.1596999"/>
	<rect x="31.5883999" y="29.531601" class="st30" width="2.0538001" height="2.1608"/>
	<rect x="31.5883999" y="27.4722004" class="st29" width="2.0538001" height="2.0594001"/>
	<rect x="31.5883999" y="23.2525005" class="st28" width="2.0538001" height="2.0599"/>
	<rect x="31.5883999" y="21.0932999" class="st12" width="2.0538001" height="2.1592"/>
	<rect x="31.5883999" y="19.0384998" class="st12" width="2.0538001" height="2.0548"/>
	<rect x="31.5883999" y="16.8736" class="st60" width="2.0538001" height="2.1649001"/>
	<rect x="31.5883999" y="14.8188" class="st12" width="2.0538001" height="2.0548"/>
	<rect x="31.5883999" y="12.6590996" class="st12" width="2.0538001" height="2.1596999"/>
	<rect x="31.5883999" y="10.5991001" class="st12" width="2.0538001" height="2.0599999"/>
	<rect x="31.5883999" y="8.4393997" class="st12" width="2.0538001" height="2.1596999"/>
	<rect x="31.5883999" y="6.3793998" class="st28" width="2.0538001" height="2.0599999"/>
	<rect x="29.4277" y="37.9668007" class="st10" width="2.1607001" height="2.0589001"/>
	<rect x="29.4277" y="31.6924" class="st30" width="2.1607001" height="2.0599"/>
	<rect x="29.4277" y="29.531601" class="st22" width="2.1607001" height="2.1608"/>
	<rect x="29.4277" y="27.4722004" class="st30" width="2.1607001" height="2.0594001"/>
	<rect x="29.4277" y="25.3124008" class="st28" width="2.1607001" height="2.1598001"/>
	<rect x="29.4277" y="23.2525005" class="st12" width="2.1607001" height="2.0599"/>
	<rect x="29.4277" y="21.0932999" class="st12" width="2.1607001" height="2.1592"/>
	<rect x="29.4277" y="19.0384998" class="st60" width="2.1607001" height="2.0548"/>
	<rect x="29.4277" y="16.8736" class="st54" width="2.1607001" height="2.1649001"/>
	<rect x="29.4277" y="14.8188" class="st12" width="2.1607001" height="2.0548"/>
	<rect x="29.4277" y="12.6590996" class="st12" width="2.1607001" height="2.1596999"/>
	<rect x="29.4277" y="10.5991001" class="st12" width="2.1607001" height="2.0599999"/>
	<rect x="29.4277" y="8.4393997" class="st12" width="2.1607001" height="2.1596999"/>
	<rect x="29.4277" y="6.3793998" class="st12" width="2.1607001" height="2.0599999"/>
	<rect x="29.4277" y="4.2196999" class="st28" width="2.1607001" height="2.1596999"/>
	<rect x="27.3677006" y="35.8060989" class="st10" width="2.0599999" height="2.1607001"/>
	<rect x="27.3677006" y="31.6924" class="st30" width="2.0599999" height="2.0599"/>
	<rect x="27.3677006" y="29.531601" class="st24" width="2.0599999" height="2.1608"/>
	<rect x="27.3677006" y="27.4722004" class="st28" width="2.0599999" height="2.0594001"/>
	<rect x="27.3677006" y="25.3124008" class="st60" width="2.0599999" height="2.1598001"/>
	<rect x="27.3677006" y="23.2525005" class="st60" width="2.0599999" height="2.0599"/>
	<rect x="27.3677006" y="21.0932999" class="st60" width="2.0599999" height="2.1592"/>
	<rect x="27.3677006" y="19.0384998" class="st60" width="2.0599999" height="2.0548"/>
	<rect x="27.3677006" y="16.8736" class="st60" width="2.0599999" height="2.1649001"/>
	<rect x="27.3677006" y="14.8188" class="st60" width="2.0599999" height="2.0548"/>
	<rect x="27.3677006" y="12.6590996" class="st60" width="2.0599999" height="2.1596999"/>
	<rect x="27.3677006" y="10.5991001" class="st60" width="2.0599999" height="2.0599999"/>
	<rect x="27.3677006" y="8.4393997" class="st12" width="2.0599999" height="2.1596999"/>
	<rect x="27.3677006" y="6.3793998" class="st12" width="2.0599999" height="2.0599999"/>
	<rect x="27.3677006" y="4.2196999" class="st12" width="2.0599999" height="2.1596999"/>
	<rect x="27.3677006" y="2.1598001" class="st28" width="2.0599999" height="2.0599"/>
	<rect x="25.2080002" y="33.7523003" class="st10" width="2.1596999" height="2.0538001"/>
	<rect x="25.2080002" y="31.6924" class="st26" width="2.1596999" height="2.0599"/>
	<rect x="25.2080002" y="29.531601" class="st26" width="2.1596999" height="2.1608"/>
	<rect x="25.2080002" y="27.4722004" class="st28" width="2.1596999" height="2.0594001"/>
	<rect x="25.2080002" y="25.3124008" class="st54" width="2.1596999" height="2.1598001"/>
	<rect x="25.2080002" y="23.2525005" class="st54" width="2.1596999" height="2.0599"/>
	<rect x="25.2080002" y="21.0932999" class="st54" width="2.1596999" height="2.1592"/>
	<rect x="25.2080002" y="19.0384998" class="st54" width="2.1596999" height="2.0548"/>
	<rect x="25.2080002" y="16.8736" class="st54" width="2.1596999" height="2.1649001"/>
	<rect x="25.2080002" y="14.8188" class="st54" width="2.1596999" height="2.0548"/>
	<rect x="25.2080002" y="12.6590996" class="st54" width="2.1596999" height="2.1596999"/>
	<rect x="25.2080002" y="10.5991001" class="st54" width="2.1596999" height="2.0599999"/>
	<rect x="25.2080002" y="8.4393997" class="st60" width="2.1596999" height="2.1596999"/>
	<rect x="25.2080002" y="6.3793998" class="st12" width="2.1596999" height="2.0599999"/>
	<rect x="25.2080002" y="4.2196999" class="st12" width="2.1596999" height="2.1596999"/>
	<rect x="25.2080002" y="2.1598001" class="st28" width="2.1596999" height="2.0599"/>
	<rect x="23.1480999" y="33.7523003" class="st30" width="2.0599" height="2.0538001"/>
	<rect x="23.1480999" y="31.6924" class="st26" width="2.0599" height="2.0599"/>
	<rect x="23.1480999" y="29.531601" class="st26" width="2.0599" height="2.1608"/>
	<rect x="23.1480999" y="27.4722004" class="st28" width="2.0599" height="2.0594001"/>
	<rect x="23.1480999" y="25.3124008" class="st54" width="2.0599" height="2.1598001"/>
	<rect x="23.1480999" y="23.2525005" class="st54" width="2.0599" height="2.0599"/>
	<rect x="23.1480999" y="21.0932999" class="st13" width="2.0599" height="2.1592"/>
	<rect x="23.1480999" y="19.0384998" class="st54" width="2.0599" height="2.0548"/>
	<rect x="23.1480999" y="16.8736" class="st54" width="2.0599" height="2.1649001"/>
	<rect x="23.1480999" y="14.8188" class="st54" width="2.0599" height="2.0548"/>
	<rect x="23.1480999" y="12.6590996" class="st13" width="2.0599" height="2.1596999"/>
	<rect x="23.1480999" y="10.5991001" class="st54" width="2.0599" height="2.0599999"/>
	<rect x="23.1480999" y="8.4393997" class="st54" width="2.0599" height="2.1596999"/>
	<rect x="23.1480999" y="6.3793998" class="st60" width="2.0599" height="2.0599999"/>
	<rect x="23.1480999" y="4.2196999" class="st12" width="2.0599" height="2.1596999"/>
	<rect x="23.1480999" y="2.1598001" class="st12" width="2.0599" height="2.0599"/>
	<rect x="23.1480999" class="st28" width="2.0599" height="2.1598001"/>
	<rect x="21.0942993" y="33.7523003" class="st26" width="2.0538001" height="2.0538001"/>
	<rect x="21.0942993" y="31.6924" class="st31" width="2.0538001" height="2.0599"/>
	<rect x="21.0942993" y="29.531601" class="st26" width="2.0538001" height="2.1608"/>
	<rect x="21.0942993" y="27.4722004" class="st28" width="2.0538001" height="2.0594001"/>
	<rect x="21.0942993" y="25.3124008" class="st54" width="2.0538001" height="2.1598001"/>
	<rect x="21.0942993" y="23.2525005" class="st13" width="2.0538001" height="2.0599"/>
	<rect x="21.0942993" y="21.0932999" class="st13" width="2.0538001" height="2.1592"/>
	<rect x="21.0942993" y="19.0384998" class="st13" width="2.0538001" height="2.0548"/>
	<rect x="21.0942993" y="16.8736" class="st54" width="2.0538001" height="2.1649001"/>
	<rect x="21.0942993" y="14.8188" class="st13" width="2.0538001" height="2.0548"/>
	<rect x="21.0942993" y="12.6590996" class="st13" width="2.0538001" height="2.1596999"/>
	<rect x="21.0942993" y="10.5991001" class="st13" width="2.0538001" height="2.0599999"/>
	<rect x="21.0942993" y="8.4393997" class="st54" width="2.0538001" height="2.1596999"/>
	<rect x="21.0942993" y="6.3793998" class="st54" width="2.0538001" height="2.0599999"/>
	<rect x="21.0942993" y="4.2196999" class="st60" width="2.0538001" height="2.1596999"/>
	<rect x="21.0942993" y="2.1598001" class="st12" width="2.0538001" height="2.0599"/>
	<rect x="21.0942993" class="st28" width="2.0538001" height="2.1598001"/>
	<rect x="18.9284" y="37.9668007" class="st10" width="2.1659" height="2.0589001"/>
	<rect x="18.9284" y="35.8060989" class="st10" width="2.1659" height="2.1607001"/>
	<rect x="18.9284" y="33.7523003" class="st26" width="2.1659" height="2.0538001"/>
	<rect x="18.9284" y="31.6924" class="st22" width="2.1659" height="2.0599"/>
	<rect x="18.9284" y="29.531601" class="st31" width="2.1659" height="2.1608"/>
	<rect x="18.9284" y="27.4722004" class="st28" width="2.1659" height="2.0594001"/>
	<rect x="18.9284" y="25.3124008" class="st54" width="2.1659" height="2.1598001"/>
	<rect x="18.9284" y="23.2525005" class="st13" width="2.1659" height="2.0599"/>
	<rect x="18.9284" y="21.0932999" class="st9" width="2.1659" height="2.1592"/>
	<rect x="18.9284" y="19.0384998" class="st13" width="2.1659" height="2.0548"/>
	<rect x="18.9284" y="16.8736" class="st54" width="2.1659" height="2.1649001"/>
	<rect x="18.9284" y="14.8188" class="st13" width="2.1659" height="2.0548"/>
	<rect x="18.9284" y="12.6590996" class="st9" width="2.1659" height="2.1596999"/>
	<rect x="18.9284" y="10.5991001" class="st13" width="2.1659" height="2.0599999"/>
	<rect x="18.9284" y="8.4393997" class="st54" width="2.1659" height="2.1596999"/>
	<rect x="18.9284" y="6.3793998" class="st54" width="2.1659" height="2.0599999"/>
	<rect x="18.9284" y="4.2196999" class="st54" width="2.1659" height="2.1596999"/>
	<rect x="18.9284" y="2.1598001" class="st12" width="2.1659" height="2.0599"/>
	<rect x="18.9284" class="st28" width="2.1659" height="2.1598001"/>
	<rect x="16.8736" y="33.7523003" class="st31" width="2.0548" height="2.0538001"/>
	<rect x="16.8736" y="31.6924" class="st24" width="2.0548" height="2.0599"/>
	<rect x="16.8736" y="29.531601" class="st31" width="2.0548" height="2.1608"/>
	<rect x="16.8736" y="27.4722004" class="st28" width="2.0548" height="2.0594001"/>
	<rect x="16.8736" y="25.3124008" class="st54" width="2.0548" height="2.1598001"/>
	<rect x="16.8736" y="23.2525005" class="st13" width="2.0548" height="2.0599"/>
	<rect x="16.8736" y="21.0932999" class="st9" width="2.0548" height="2.1592"/>
	<rect x="16.8736" y="19.0384998" class="st13" width="2.0548" height="2.0548"/>
	<rect x="16.8736" y="16.8736" class="st54" width="2.0548" height="2.1649001"/>
	<rect x="16.8736" y="14.8188" class="st13" width="2.0548" height="2.0548"/>
	<rect x="16.8736" y="12.6590996" class="st9" width="2.0548" height="2.1596999"/>
	<rect x="16.8736" y="10.5991001" class="st13" width="2.0548" height="2.0599999"/>
	<rect x="16.8736" y="8.4393997" class="st54" width="2.0548" height="2.1596999"/>
	<rect x="16.8736" y="6.3793998" class="st54" width="2.0548" height="2.0599999"/>
	<rect x="16.8736" y="4.2196999" class="st54" width="2.0548" height="2.1596999"/>
	<rect x="16.8736" y="2.1598001" class="st12" width="2.0548" height="2.0599"/>
	<rect x="16.8736" class="st28" width="2.0548" height="2.1598001"/>
	<rect x="14.7138996" y="33.7523003" class="st31" width="2.1596999" height="2.0538001"/>
	<rect x="14.7138996" y="31.6924" class="st31" width="2.1596999" height="2.0599"/>
	<rect x="14.7138996" y="29.531601" class="st31" width="2.1596999" height="2.1608"/>
	<rect x="14.7138996" y="27.4722004" class="st28" width="2.1596999" height="2.0594001"/>
	<rect x="14.7138996" y="25.3124008" class="st54" width="2.1596999" height="2.1598001"/>
	<rect x="14.7138996" y="23.2525005" class="st13" width="2.1596999" height="2.0599"/>
	<rect x="14.7138996" y="21.0932999" class="st13" width="2.1596999" height="2.1592"/>
	<rect x="14.7138996" y="19.0384998" class="st13" width="2.1596999" height="2.0548"/>
	<rect x="14.7138996" y="16.8736" class="st54" width="2.1596999" height="2.1649001"/>
	<rect x="14.7138996" y="14.8188" class="st13" width="2.1596999" height="2.0548"/>
	<rect x="14.7138996" y="12.6590996" class="st13" width="2.1596999" height="2.1596999"/>
	<rect x="14.7138996" y="10.5991001" class="st13" width="2.1596999" height="2.0599999"/>
	<rect x="14.7138996" y="8.4393997" class="st54" width="2.1596999" height="2.1596999"/>
	<rect x="14.7138996" y="6.3793998" class="st54" width="2.1596999" height="2.0599999"/>
	<rect x="14.7138996" y="4.2196999" class="st25" width="2.1596999" height="2.1596999"/>
	<rect x="14.7138996" y="2.1598001" class="st12" width="2.1596999" height="2.0599"/>
	<rect x="14.7138996" class="st28" width="2.1596999" height="2.1598001"/>
	<rect x="12.6539001" y="33.7523003" class="st28" width="2.0599999" height="2.0538001"/>
	<rect x="12.6539001" y="31.6924" class="st31" width="2.0599999" height="2.0599"/>
	<rect x="12.6539001" y="29.531601" class="st31" width="2.0599999" height="2.1608"/>
	<rect x="12.6539001" y="27.4722004" class="st28" width="2.0599999" height="2.0594001"/>
	<rect x="12.6539001" y="25.3124008" class="st54" width="2.0599999" height="2.1598001"/>
	<rect x="12.6539001" y="23.2525005" class="st54" width="2.0599999" height="2.0599"/>
	<rect x="12.6539001" y="21.0932999" class="st13" width="2.0599999" height="2.1592"/>
	<rect x="12.6539001" y="19.0384998" class="st54" width="2.0599999" height="2.0548"/>
	<rect x="12.6539001" y="16.8736" class="st54" width="2.0599999" height="2.1649001"/>
	<rect x="12.6539001" y="14.8188" class="st54" width="2.0599999" height="2.0548"/>
	<rect x="12.6539001" y="12.6590996" class="st13" width="2.0599999" height="2.1596999"/>
	<rect x="12.6539001" y="10.5991001" class="st54" width="2.0599999" height="2.0599999"/>
	<rect x="12.6539001" y="8.4393997" class="st54" width="2.0599999" height="2.1596999"/>
	<rect x="12.6539001" y="6.3793998" class="st25" width="2.0599999" height="2.0599999"/>
	<rect x="12.6539001" y="4.2196999" class="st12" width="2.0599999" height="2.1596999"/>
	<rect x="12.6539001" y="2.1598001" class="st12" width="2.0599999" height="2.0599"/>
	<rect x="12.6539001" class="st28" width="2.0599999" height="2.1598001"/>
	<rect x="10.4941998" y="33.7523003" class="st10" width="2.1596999" height="2.0538001"/>
	<rect x="10.4941998" y="31.6924" class="st31" width="2.1596999" height="2.0599"/>
	<rect x="10.4941998" y="29.531601" class="st22" width="2.1596999" height="2.1608"/>
	<rect x="10.4941998" y="27.4722004" class="st28" width="2.1596999" height="2.0594001"/>
	<rect x="10.4941998" y="25.3124008" class="st54" width="2.1596999" height="2.1598001"/>
	<rect x="10.4941998" y="23.2525005" class="st54" width="2.1596999" height="2.0599"/>
	<rect x="10.4941998" y="21.0932999" class="st54" width="2.1596999" height="2.1592"/>
	<rect x="10.4941998" y="19.0384998" class="st54" width="2.1596999" height="2.0548"/>
	<rect x="10.4941998" y="16.8736" class="st54" width="2.1596999" height="2.1649001"/>
	<rect x="10.4941998" y="14.8188" class="st54" width="2.1596999" height="2.0548"/>
	<rect x="10.4941998" y="12.6590996" class="st54" width="2.1596999" height="2.1596999"/>
	<rect x="10.4941998" y="10.5991001" class="st54" width="2.1596999" height="2.0599999"/>
	<rect x="10.4941998" y="8.4393997" class="st25" width="2.1596999" height="2.1596999"/>
	<rect x="10.4941998" y="6.3793998" class="st12" width="2.1596999" height="2.0599999"/>
	<rect x="10.4941998" y="4.2196999" class="st12" width="2.1596999" height="2.1596999"/>
	<rect x="10.4941998" y="2.1598001" class="st28" width="2.1596999" height="2.0599"/>
	<rect x="8.4343004" y="35.8060989" class="st10" width="2.0599" height="2.1607001"/>
	<rect x="8.4343004" y="31.6924" class="st28" width="2.0599" height="2.0599"/>
	<rect x="8.4343004" y="29.531601" class="st24" width="2.0599" height="2.1608"/>
	<rect x="8.4343004" y="27.4722004" class="st28" width="2.0599" height="2.0594001"/>
	<rect x="8.4343004" y="25.3124008" class="st25" width="2.0599" height="2.1598001"/>
	<rect x="8.4343004" y="23.2525005" class="st25" width="2.0599" height="2.0599"/>
	<rect x="8.4343004" y="21.0932999" class="st25" width="2.0599" height="2.1592"/>
	<rect x="8.4343004" y="19.0384998" class="st25" width="2.0599" height="2.0548"/>
	<rect x="8.4343004" y="16.8736" class="st25" width="2.0599" height="2.1649001"/>
	<rect x="8.4343004" y="14.8188" class="st25" width="2.0599" height="2.0548"/>
	<rect x="8.4343004" y="12.6590996" class="st25" width="2.0599" height="2.1596999"/>
	<rect x="8.4343004" y="10.5991001" class="st25" width="2.0599" height="2.0599999"/>
	<rect x="8.4343004" y="8.4393997" class="st12" width="2.0599" height="2.1596999"/>
	<rect x="8.4343004" y="6.3793998" class="st12" width="2.0599" height="2.0599999"/>
	<rect x="8.4343004" y="4.2196999" class="st13" width="2.0599" height="2.1596999"/>
	<rect x="8.4343004" y="2.1598001" class="st28" width="2.0599" height="2.0599"/>
	<rect x="6.2744999" y="37.9668007" class="st10" width="2.1598001" height="2.0589001"/>
	<rect x="6.2744999" y="31.6924" class="st28" width="2.1598001" height="2.0599"/>
	<rect x="6.2744999" y="29.531601" class="st31" width="2.1598001" height="2.1608"/>
	<rect x="6.2744999" y="27.4722004" class="st31" width="2.1598001" height="2.0594001"/>
	<rect x="6.2744999" y="25.3124008" class="st28" width="2.1598001" height="2.1598001"/>
	<rect x="6.2744999" y="23.2525005" class="st12" width="2.1598001" height="2.0599"/>
	<rect x="6.2744999" y="21.0932999" class="st12" width="2.1598001" height="2.1592"/>
	<rect x="6.2744999" y="19.0384998" class="st60" width="2.1598001" height="2.0548"/>
	<rect x="6.2744999" y="16.8736" class="st54" width="2.1598001" height="2.1649001"/>
	<rect x="6.2744999" y="14.8188" class="st12" width="2.1598001" height="2.0548"/>
	<rect x="6.2744999" y="12.6590996" class="st12" width="2.1598001" height="2.1596999"/>
	<rect x="6.2744999" y="10.5991001" class="st12" width="2.1598001" height="2.0599999"/>
	<rect x="6.2744999" y="8.4393997" class="st12" width="2.1598001" height="2.1596999"/>
	<rect x="6.2744999" y="6.3793998" class="st13" width="2.1598001" height="2.0599999"/>
	<rect x="6.2744999" y="4.2196999" class="st28" width="2.1598001" height="2.1596999"/>
	<rect x="4.2146001" y="29.531601" class="st31" width="2.0599" height="2.1608"/>
	<rect x="4.2146001" y="27.4722004" class="st28" width="2.0599" height="2.0594001"/>
	<rect x="4.2146001" y="23.2525005" class="st28" width="2.0599" height="2.0599"/>
	<rect x="4.2146001" y="21.0932999" class="st12" width="2.0599" height="2.1592"/>
	<rect x="4.2146001" y="19.0384998" class="st12" width="2.0599" height="2.0548"/>
	<rect x="4.2146001" y="16.8736" class="st25" width="2.0599" height="2.1649001"/>
	<rect x="4.2146001" y="14.8188" class="st12" width="2.0599" height="2.0548"/>
	<rect x="4.2146001" y="12.6590996" class="st12" width="2.0599" height="2.1596999"/>
	<rect x="4.2146001" y="10.5991001" class="st12" width="2.0599" height="2.0599999"/>
	<rect x="4.2146001" y="8.4393997" class="st12" width="2.0599" height="2.1596999"/>
	<rect x="4.2146001" y="6.3793998" class="st28" width="2.0599" height="2.0599999"/>
	<rect x="2.0548" y="29.531601" class="st28" width="2.1598001" height="2.1608"/>
	<rect x="2.0548" y="21.0932999" class="st28" width="2.1598001" height="2.1592"/>
	<rect x="2.0548" y="19.0384998" class="st12" width="2.1598001" height="2.0548"/>
	<rect x="2.0548" y="16.8736" class="st12" width="2.1598001" height="2.1649001"/>
	<rect x="2.0548" y="14.8188" class="st12" width="2.1598001" height="2.0548"/>
	<rect x="2.0548" y="12.6590996" class="st12" width="2.1598001" height="2.1596999"/>
	<rect x="2.0548" y="10.5991001" class="st28" width="2.1598001" height="2.0599999"/>
	<rect x="2.0548" y="8.4393997" class="st28" width="2.1598001" height="2.1596999"/>
	<rect y="19.0384998" class="st28" width="2.0548" height="2.0548"/>
	<rect y="16.8736" class="st28" width="2.0548" height="2.1649001"/>
	<rect y="14.8188" class="st28" width="2.0548" height="2.0548"/>
	<rect y="12.6590996" class="st28" width="2.0548" height="2.1596999"/>
</g>
</svg>
