<?xml version="1.0" encoding="utf-8"?>
<!-- Generator: Adobe Illustrator 26.0.1, SVG Export Plug-In . SVG Version: 6.00 Build 0)  -->
<svg version="1.1" id="Layer_1" xmlns="http://www.w3.org/2000/svg" xmlns:xlink="http://www.w3.org/1999/xlink" x="0px" y="0px"
	 width="41.9818001px" height="79.7443466px" viewBox="0 0 41.9818001 79.7443466"
	 style="enable-background:new 0 0 41.9818001 79.7443466;" xml:space="preserve">
<style type="text/css">
	.st0{fill:#72706B;}
	.st1{fill:#A7A5A1;}
	.st2{fill:#A4A29B;}
	.st3{fill:#B3B0A9;}
	.st4{fill:#E6E4DB;}
	.st5{fill:#A6A49D;}
	.st6{fill:#E5E4DA;}
	.st7{fill:#D6D3CC;}
	.st8{fill:#E6E6DC;}
	.st9{fill:#E1DED8;}
	.st10{fill:#370C45;}
	.st11{fill:#8B0975;}
	.st12{fill:#EF3A65;}
	.st13{fill:#FF7261;}
	.st14{fill:#FCE00A;}
	.st15{fill:#FFFFFF;}
</style>
<g>
	<rect x="38.9449005" y="25.2074509" class="st0" width="2.0598984" height="2.0599003"/>
	<rect x="38.9449005" y="23.0476494" class="st1" width="2.0598984" height="2.1597996"/>
	<rect x="38.9449005" y="20.9928493" class="st0" width="2.0598984" height="2.0548"/>
	<rect x="38.9449005" y="18.8331509" class="st0" width="2.0598984" height="2.1597004"/>
	<rect x="38.9449005" y="16.7732506" class="st1" width="2.0598984" height="2.0599003"/>
	<rect x="38.9449005" y="14.6134501" class="st1" width="2.0598984" height="2.1598005"/>
	<rect x="38.9449005" y="12.5535498" class="st1" width="2.0598984" height="2.0599003"/>
	<rect x="36.7840996" y="29.4281502" class="st0" width="2.1608009" height="2.0589008"/>
	<rect x="36.7840996" y="27.2673492" class="st2" width="2.1608009" height="2.1608009"/>
	<rect x="36.7840996" y="25.2074509" class="st3" width="2.1608009" height="2.0599003"/>
	<rect x="36.7840996" y="23.0476494" class="st4" width="2.1608009" height="2.1597996"/>
	<rect x="36.7840996" y="20.9928493" class="st3" width="2.1608009" height="2.0548"/>
	<rect x="36.7840996" y="18.8331509" class="st4" width="2.1608009" height="2.1597004"/>
	<rect x="36.7840996" y="16.7732506" class="st4" width="2.1608009" height="2.0599003"/>
	<rect x="36.7840996" y="14.6134501" class="st4" width="2.1608009" height="2.1598005"/>
	<rect x="36.7840996" y="12.5535498" class="st5" width="2.1608009" height="2.0599003"/>
	<rect x="36.7840996" y="10.3937502" class="st0" width="2.1608009" height="2.1598005"/>
	<rect x="36.7840996" y="8.3338499" class="st0" width="2.1608009" height="2.0599003"/>
	<rect x="34.7252007" y="31.4870491" class="st1" width="2.0588989" height="2.1608009"/>
	<rect x="34.7252007" y="29.4281502" class="st3" width="2.0588989" height="2.0589008"/>
	<rect x="34.7252007" y="27.2673492" class="st3" width="2.0588989" height="2.1608009"/>
	<rect x="34.7252007" y="25.2074509" class="st4" width="2.0588989" height="2.0599003"/>
	<rect x="34.7252007" y="23.0476494" class="st3" width="2.0588989" height="2.1597996"/>
	<rect x="34.7252007" y="20.9928493" class="st3" width="2.0588989" height="2.0548"/>
	<rect x="34.7252007" y="18.8331509" class="st4" width="2.0588989" height="2.1597004"/>
	<rect x="34.7252007" y="16.7732506" class="st4" width="2.0588989" height="2.0599003"/>
	<rect x="34.7252007" y="14.6134501" class="st4" width="2.0588989" height="2.1598005"/>
	<rect x="34.7252007" y="12.5535498" class="st3" width="2.0588989" height="2.0599003"/>
	<rect x="34.7252007" y="10.3937502" class="st3" width="2.0588989" height="2.1598005"/>
	<rect x="34.7252007" y="8.3338499" class="st3" width="2.0588989" height="2.0599003"/>
	<rect x="34.7252007" y="6.1740499" class="st1" width="2.0588989" height="2.1598001"/>
	<rect x="32.5643997" y="33.64785" class="st0" width="2.1608009" height="2.0598984"/>
	<rect x="32.5643997" y="31.4870491" class="st3" width="2.1608009" height="2.1608009"/>
	<rect x="32.5643997" y="29.4281502" class="st4" width="2.1608009" height="2.0589008"/>
	<rect x="32.5643997" y="27.2673492" class="st3" width="2.1608009" height="2.1608009"/>
	<rect x="32.5643997" y="25.2074509" class="st6" width="2.1608009" height="2.0599003"/>
	<rect x="32.5643997" y="23.0476494" class="st7" width="2.1608009" height="2.1597996"/>
	<rect x="32.5643997" y="20.9928493" class="st7" width="2.1608009" height="2.0548"/>
	<rect x="32.5643997" y="18.8331509" class="st6" width="2.1608009" height="2.1597004"/>
	<rect x="32.5643997" y="16.7732506" class="st6" width="2.1608009" height="2.0599003"/>
	<rect x="32.5643997" y="14.6134501" class="st6" width="2.1608009" height="2.1598005"/>
	<rect x="32.5643997" y="12.5535498" class="st7" width="2.1608009" height="2.0599003"/>
	<rect x="32.5643997" y="10.3937502" class="st3" width="2.1608009" height="2.1598005"/>
	<rect x="32.5643997" y="8.3338499" class="st4" width="2.1608009" height="2.0599003"/>
	<rect x="32.5643997" y="6.1740499" class="st3" width="2.1608009" height="2.1598001"/>
	<rect x="32.5643997" y="4.1192498" class="st0" width="2.1608009" height="2.0548"/>
	<rect x="30.5044994" y="35.7077484" class="st0" width="2.0599003" height="2.1598015"/>
	<rect x="30.5044994" y="33.64785" class="st3" width="2.0599003" height="2.0598984"/>
	<rect x="30.5044994" y="31.4870491" class="st4" width="2.0599003" height="2.1608009"/>
	<rect x="30.5044994" y="29.4281502" class="st3" width="2.0599003" height="2.0589008"/>
	<rect x="30.5044994" y="27.2673492" class="st7" width="2.0599003" height="2.1608009"/>
	<rect x="30.5044994" y="25.2074509" class="st7" width="2.0599003" height="2.0599003"/>
	<rect x="30.5044994" y="23.0476494" class="st6" width="2.0599003" height="2.1597996"/>
	<rect x="30.5044994" y="20.9928493" class="st7" width="2.0599003" height="2.0548"/>
	<rect x="30.5044994" y="18.8331509" class="st7" width="2.0599003" height="2.1597004"/>
	<rect x="30.5044994" y="16.7732506" class="st6" width="2.0599003" height="2.0599003"/>
	<rect x="30.5044994" y="14.6134501" class="st6" width="2.0599003" height="2.1598005"/>
	<rect x="30.5044994" y="12.5535498" class="st7" width="2.0599003" height="2.0599003"/>
	<rect x="30.5044994" y="10.3937502" class="st7" width="2.0599003" height="2.1598005"/>
	<rect x="30.5044994" y="8.3338499" class="st6" width="2.0599003" height="2.0599003"/>
	<rect x="30.5044994" y="6.1740499" class="st3" width="2.0599003" height="2.1598001"/>
	<rect x="30.5044994" y="4.1192498" class="st3" width="2.0599003" height="2.0548"/>
	<rect x="30.5044994" y="2.05935" class="st0" width="2.0599003" height="2.0599003"/>
	<rect x="28.3446999" y="35.7077484" class="st3" width="2.1597996" height="2.1598015"/>
	<rect x="28.3446999" y="33.64785" class="st3" width="2.1597996" height="2.0598984"/>
	<rect x="28.3446999" y="31.4870491" class="st6" width="2.1597996" height="2.1608009"/>
	<rect x="28.3446999" y="29.4281502" class="st7" width="2.1597996" height="2.0589008"/>
	<rect x="28.3446999" y="27.2673492" class="st7" width="2.1597996" height="2.1608009"/>
	<rect x="28.3446999" y="25.2074509" class="st7" width="2.1597996" height="2.0599003"/>
	<rect x="28.3446999" y="23.0476494" class="st6" width="2.1597996" height="2.1597996"/>
	<rect x="28.3446999" y="20.9928493" class="st7" width="2.1597996" height="2.0548"/>
	<rect x="28.3446999" y="18.8331509" class="st7" width="2.1597996" height="2.1597004"/>
	<rect x="28.3446999" y="16.7732506" class="st6" width="2.1597996" height="2.0599003"/>
	<rect x="28.3446999" y="14.6134501" class="st7" width="2.1597996" height="2.1598005"/>
	<rect x="28.3446999" y="12.5535498" class="st7" width="2.1597996" height="2.0599003"/>
	<rect x="28.3446999" y="10.3937502" class="st6" width="2.1597996" height="2.1598005"/>
	<rect x="28.3446999" y="8.3338499" class="st7" width="2.1597996" height="2.0599003"/>
	<rect x="28.3446999" y="6.1740499" class="st7" width="2.1597996" height="2.1598001"/>
	<rect x="28.3446999" y="4.1192498" class="st3" width="2.1597996" height="2.0548"/>
	<rect x="28.3446999" y="2.05935" class="st4" width="2.1597996" height="2.0599003"/>
	<rect x="26.2898998" y="37.8675499" class="st0" width="2.0548" height="2.0547981"/>
	<rect x="26.2898998" y="35.7077484" class="st3" width="2.0548" height="2.1598015"/>
	<rect x="26.2898998" y="33.64785" class="st4" width="2.0548" height="2.0598984"/>
	<rect x="26.2898998" y="31.4870491" class="st7" width="2.0548" height="2.1608009"/>
	<rect x="26.2898998" y="29.4281502" class="st7" width="2.0548" height="2.0589008"/>
	<rect x="26.2898998" y="27.2673492" class="st7" width="2.0548" height="2.1608009"/>
	<rect x="26.2898998" y="25.2074509" class="st6" width="2.0548" height="2.0599003"/>
	<rect x="26.2898998" y="23.0476494" class="st3" width="2.0548" height="2.1597996"/>
	<rect x="26.2898998" y="20.9928493" class="st7" width="2.0548" height="2.0548"/>
	<rect x="26.2898998" y="18.8331509" class="st6" width="2.0548" height="2.1597004"/>
	<rect x="26.2898998" y="16.7732506" class="st6" width="2.0548" height="2.0599003"/>
	<rect x="26.2898998" y="14.6134501" class="st7" width="2.0548" height="2.1598005"/>
	<rect x="26.2898998" y="12.5535498" class="st3" width="2.0548" height="2.0599003"/>
	<rect x="26.2898998" y="10.3937502" class="st6" width="2.0548" height="2.1598005"/>
	<rect x="26.2898998" y="8.3338499" class="st7" width="2.0548" height="2.0599003"/>
	<rect x="26.2898998" y="6.1740499" class="st7" width="2.0548" height="2.1598001"/>
	<rect x="26.2898998" y="4.1192498" class="st6" width="2.0548" height="2.0548"/>
	<rect x="26.2898998" y="2.05935" class="st4" width="2.0548" height="2.0599003"/>
	<rect x="26.2898998" y="-0.10035" class="st1" width="2.0548" height="2.1596999"/>
	<rect x="24.125" y="37.8675499" class="st3" width="2.1648998" height="2.0547981"/>
	<rect x="24.125" y="35.7077484" class="st3" width="2.1648998" height="2.1598015"/>
	<rect x="24.125" y="33.64785" class="st6" width="2.1648998" height="2.0598984"/>
	<rect x="24.125" y="31.4870491" class="st7" width="2.1648998" height="2.1608009"/>
	<rect x="24.125" y="29.4281502" class="st7" width="2.1648998" height="2.0589008"/>
	<rect x="24.125" y="27.2673492" class="st6" width="2.1648998" height="2.1608009"/>
	<rect x="24.125" y="25.2074509" class="st6" width="2.1648998" height="2.0599003"/>
	<rect x="24.125" y="23.0476494" class="st7" width="2.1648998" height="2.1597996"/>
	<rect x="24.125" y="20.9928493" class="st7" width="2.1648998" height="2.0548"/>
	<rect x="24.125" y="18.8331509" class="st7" width="2.1648998" height="2.1597004"/>
	<rect x="24.125" y="16.7732506" class="st7" width="2.1648998" height="2.0599003"/>
	<rect x="24.125" y="14.6134501" class="st3" width="2.1648998" height="2.1598005"/>
	<rect x="24.125" y="12.5535498" class="st7" width="2.1648998" height="2.0599003"/>
	<rect x="24.125" y="10.3937502" class="st6" width="2.1648998" height="2.1598005"/>
	<rect x="24.125" y="8.3338499" class="st7" width="2.1648998" height="2.0599003"/>
	<rect x="24.125" y="6.1740499" class="st7" width="2.1648998" height="2.1598001"/>
	<rect x="24.125" y="4.1192498" class="st6" width="2.1648998" height="2.0548"/>
	<rect x="24.125" y="2.05935" class="st7" width="2.1648998" height="2.0599003"/>
	<rect x="24.125" y="-0.10035" class="st0" width="2.1648998" height="2.1596999"/>
	<rect x="22.0702991" y="37.8675499" class="st3" width="2.0547009" height="2.0547981"/>
	<rect x="22.0702991" y="35.7077484" class="st7" width="2.0547009" height="2.1598015"/>
	<rect x="22.0702991" y="33.64785" class="st7" width="2.0547009" height="2.0598984"/>
	<rect x="22.0702991" y="31.4870491" class="st6" width="2.0547009" height="2.1608009"/>
	<rect x="22.0702991" y="29.4281502" class="st7" width="2.0547009" height="2.0589008"/>
	<rect x="22.0702991" y="27.2673492" class="st7" width="2.0547009" height="2.1608009"/>
	<rect x="22.0702991" y="25.2074509" class="st6" width="2.0547009" height="2.0599003"/>
	<rect x="22.0702991" y="23.0476494" class="st7" width="2.0547009" height="2.1597996"/>
	<rect x="22.0702991" y="20.9928493" class="st7" width="2.0547009" height="2.0548"/>
	<rect x="22.0702991" y="18.8331509" class="st7" width="2.0547009" height="2.1597004"/>
	<rect x="22.0702991" y="16.7732506" class="st7" width="2.0547009" height="2.0599003"/>
	<rect x="22.0702991" y="14.6134501" class="st7" width="2.0547009" height="2.1598005"/>
	<rect x="22.0702991" y="12.5535498" class="st6" width="2.0547009" height="2.0599003"/>
	<rect x="22.0702991" y="10.3937502" class="st7" width="2.0547009" height="2.1598005"/>
	<rect x="22.0702991" y="8.3338499" class="st7" width="2.0547009" height="2.0599003"/>
	<rect x="22.0702991" y="6.1740499" class="st6" width="2.0547009" height="2.1598001"/>
	<rect x="22.0702991" y="4.1192498" class="st6" width="2.0547009" height="2.0548"/>
	<rect x="22.0702991" y="2.05935" class="st7" width="2.0547009" height="2.0599003"/>
	<rect x="22.0702991" y="-0.10035" class="st3" width="2.0547009" height="2.1596999"/>
	<rect x="19.9104996" y="37.8675499" class="st3" width="2.1597996" height="2.0547981"/>
	<rect x="19.9104996" y="35.7077484" class="st7" width="2.1597996" height="2.1598015"/>
	<rect x="19.9104996" y="33.64785" class="st7" width="2.1597996" height="2.0598984"/>
	<rect x="19.9104996" y="31.4870491" class="st6" width="2.1597996" height="2.1608009"/>
	<rect x="19.9104996" y="29.4281502" class="st7" width="2.1597996" height="2.0589008"/>
	<rect x="19.9104996" y="27.2673492" class="st6" width="2.1597996" height="2.1608009"/>
	<rect x="19.9104996" y="25.2074509" class="st7" width="2.1597996" height="2.0599003"/>
	<rect x="19.9104996" y="23.0476494" class="st7" width="2.1597996" height="2.1597996"/>
	<rect x="19.9104996" y="20.9928493" class="st7" width="2.1597996" height="2.0548"/>
	<rect x="19.9104996" y="18.8331509" class="st6" width="2.1597996" height="2.1597004"/>
	<rect x="19.9104996" y="16.7732506" class="st7" width="2.1597996" height="2.0599003"/>
	<rect x="19.9104996" y="14.6134501" class="st6" width="2.1597996" height="2.1598005"/>
	<rect x="19.9104996" y="12.5535498" class="st7" width="2.1597996" height="2.0599003"/>
	<rect x="19.9104996" y="10.3937502" class="st7" width="2.1597996" height="2.1598005"/>
	<rect x="19.9104996" y="8.3338499" class="st6" width="2.1597996" height="2.0599003"/>
	<rect x="19.9104996" y="6.1740499" class="st6" width="2.1597996" height="2.1598001"/>
	<rect x="19.9104996" y="4.1192498" class="st3" width="2.1597996" height="2.0548"/>
	<rect x="19.9104996" y="2.05935" class="st7" width="2.1597996" height="2.0599003"/>
	<rect x="19.9104996" y="-0.10035" class="st7" width="2.1597996" height="2.1596999"/>
	<rect x="17.8505993" y="37.8675499" class="st7" width="2.0599003" height="2.0547981"/>
	<rect x="17.8505993" y="35.7077484" class="st7" width="2.0599003" height="2.1598015"/>
	<rect x="17.8505993" y="33.64785" class="st6" width="2.0599003" height="2.0598984"/>
	<rect x="17.8505993" y="31.4870491" class="st7" width="2.0599003" height="2.1608009"/>
	<rect x="17.8505993" y="29.4281502" class="st7" width="2.0599003" height="2.0589008"/>
	<rect x="17.8505993" y="27.2673492" class="st6" width="2.0599003" height="2.1608009"/>
	<rect x="17.8505993" y="25.2074509" class="st7" width="2.0599003" height="2.0599003"/>
	<rect x="17.8505993" y="23.0476494" class="st7" width="2.0599003" height="2.1597996"/>
	<rect x="17.8505993" y="20.9928493" class="st6" width="2.0599003" height="2.0548"/>
	<rect x="17.8505993" y="18.8331509" class="st6" width="2.0599003" height="2.1597004"/>
	<rect x="17.8505993" y="16.7732506" class="st7" width="2.0599003" height="2.0599003"/>
	<rect x="17.8505993" y="14.6134501" class="st7" width="2.0599003" height="2.1598005"/>
	<rect x="17.8505993" y="12.5535498" class="st6" width="2.0599003" height="2.0599003"/>
	<rect x="17.8505993" y="10.3937502" class="st7" width="2.0599003" height="2.1598005"/>
	<rect x="17.8505993" y="8.3338499" class="st6" width="2.0599003" height="2.0599003"/>
	<rect x="17.8505993" y="6.1740499" class="st6" width="2.0599003" height="2.1598001"/>
	<rect x="17.8505993" y="4.1192498" class="st7" width="2.0599003" height="2.0548"/>
	<rect x="17.8505993" y="2.05935" class="st7" width="2.0599003" height="2.0599003"/>
	<rect x="17.8505993" y="-0.10035" class="st6" width="2.0599003" height="2.1596999"/>
	<rect x="15.6908998" y="37.8675499" class="st7" width="2.1596994" height="2.0547981"/>
	<rect x="15.6908998" y="35.7077484" class="st6" width="2.1596994" height="2.1598015"/>
	<rect x="15.6908998" y="33.64785" class="st7" width="2.1596994" height="2.0598984"/>
	<rect x="15.6908998" y="31.4870491" class="st7" width="2.1596994" height="2.1608009"/>
	<rect x="15.6908998" y="29.4281502" class="st6" width="2.1596994" height="2.0589008"/>
	<rect x="15.6908998" y="27.2673492" class="st7" width="2.1596994" height="2.1608009"/>
	<rect x="15.6908998" y="25.2074509" class="st3" width="2.1596994" height="2.0599003"/>
	<rect x="15.6908998" y="23.0476494" class="st3" width="2.1596994" height="2.1597996"/>
	<rect x="15.6908998" y="20.9928493" class="st6" width="2.1596994" height="2.0548"/>
	<rect x="15.6908998" y="18.8331509" class="st6" width="2.1596994" height="2.1597004"/>
	<rect x="15.6908998" y="16.7732506" class="st7" width="2.1596994" height="2.0599003"/>
	<rect x="15.6908998" y="14.6134501" class="st7" width="2.1596994" height="2.1598005"/>
	<rect x="15.6908998" y="12.5535498" class="st6" width="2.1596994" height="2.0599003"/>
	<rect x="15.6908998" y="10.3937502" class="st7" width="2.1596994" height="2.1598005"/>
	<rect x="15.6908998" y="8.3338499" class="st7" width="2.1596994" height="2.0599003"/>
	<rect x="15.6908998" y="6.1740499" class="st6" width="2.1596994" height="2.1598001"/>
	<rect x="15.6908998" y="4.1192498" class="st7" width="2.1596994" height="2.0548"/>
	<rect x="15.6908998" y="2.05935" class="st7" width="2.1596994" height="2.0599003"/>
	<rect x="15.6908998" y="-0.10035" class="st8" width="2.1596994" height="2.1596999"/>
	<rect x="13.6309004" y="37.8675499" class="st9" width="2.0600004" height="2.0547981"/>
	<rect x="13.6309004" y="35.7077484" class="st6" width="2.0600004" height="2.1598015"/>
	<rect x="13.6309004" y="33.64785" class="st3" width="2.0600004" height="2.0598984"/>
	<rect x="13.6309004" y="31.4870491" class="st7" width="2.0600004" height="2.1608009"/>
	<rect x="13.6309004" y="29.4281502" class="st6" width="2.0600004" height="2.0589008"/>
	<rect x="13.6309004" y="27.2673492" class="st7" width="2.0600004" height="2.1608009"/>
	<rect x="13.6309004" y="25.2074509" class="st7" width="2.0600004" height="2.0599003"/>
	<rect x="13.6309004" y="23.0476494" class="st3" width="2.0600004" height="2.1597996"/>
	<rect x="13.6309004" y="20.9928493" class="st6" width="2.0600004" height="2.0548"/>
	<rect x="13.6309004" y="18.8331509" class="st6" width="2.0600004" height="2.1597004"/>
	<rect x="13.6309004" y="16.7732506" class="st7" width="2.0600004" height="2.0599003"/>
	<rect x="13.6309004" y="14.6134501" class="st7" width="2.0600004" height="2.1598005"/>
	<rect x="13.6309004" y="12.5535498" class="st7" width="2.0600004" height="2.0599003"/>
	<rect x="13.6309004" y="10.3937502" class="st6" width="2.0600004" height="2.1598005"/>
	<rect x="13.6309004" y="8.3338499" class="st7" width="2.0600004" height="2.0599003"/>
	<rect x="13.6309004" y="6.1740499" class="st7" width="2.0600004" height="2.1598001"/>
	<rect x="13.6309004" y="4.1192498" class="st7" width="2.0600004" height="2.0548"/>
	<rect x="13.6309004" y="2.05935" class="st7" width="2.0600004" height="2.0599003"/>
	<rect x="13.6309004" y="-0.10035" class="st9" width="2.0600004" height="2.1596999"/>
	<rect x="11.5761003" y="35.7077484" class="st7" width="2.0548" height="2.1598015"/>
	<rect x="11.5761003" y="33.64785" class="st6" width="2.0548" height="2.0598984"/>
	<rect x="11.5761003" y="31.4870491" class="st3" width="2.0548" height="2.1608009"/>
	<rect x="11.5761003" y="29.4281502" class="st6" width="2.0548" height="2.0589008"/>
	<rect x="11.5761003" y="27.2673492" class="st7" width="2.0548" height="2.1608009"/>
	<rect x="11.5761003" y="25.2074509" class="st7" width="2.0548" height="2.0599003"/>
	<rect x="11.5761003" y="23.0476494" class="st6" width="2.0548" height="2.1597996"/>
	<rect x="11.5761003" y="20.9928493" class="st6" width="2.0548" height="2.0548"/>
	<rect x="11.5761003" y="18.8331509" class="st6" width="2.0548" height="2.1597004"/>
	<rect x="11.5761003" y="16.7732506" class="st7" width="2.0548" height="2.0599003"/>
	<rect x="11.5761003" y="14.6134501" class="st3" width="2.0548" height="2.1598005"/>
	<rect x="11.5761003" y="12.5535498" class="st3" width="2.0548" height="2.0599003"/>
	<rect x="11.5761003" y="10.3937502" class="st6" width="2.0548" height="2.1598005"/>
	<rect x="11.5761003" y="8.3338499" class="st7" width="2.0548" height="2.0599003"/>
	<rect x="11.5761003" y="6.1740499" class="st7" width="2.0548" height="2.1598001"/>
	<rect x="11.5761003" y="4.1192498" class="st6" width="2.0548" height="2.0548"/>
	<rect x="11.5761003" y="2.05935" class="st9" width="2.0548" height="2.0599003"/>
	<rect x="9.4111996" y="35.7077484" class="st9" width="2.1648998" height="2.1598015"/>
	<rect x="9.4111996" y="33.64785" class="st6" width="2.1648998" height="2.0598984"/>
	<rect x="9.4111996" y="31.4870491" class="st7" width="2.1648998" height="2.1608009"/>
	<rect x="9.4111996" y="29.4281502" class="st6" width="2.1648998" height="2.0589008"/>
	<rect x="9.4111996" y="27.2673492" class="st7" width="2.1648998" height="2.1608009"/>
	<rect x="9.4111996" y="25.2074509" class="st7" width="2.1648998" height="2.0599003"/>
	<rect x="9.4111996" y="23.0476494" class="st6" width="2.1648998" height="2.1597996"/>
	<rect x="9.4111996" y="20.9928493" class="st6" width="2.1648998" height="2.0548"/>
	<rect x="9.4111996" y="18.8331509" class="st6" width="2.1648998" height="2.1597004"/>
	<rect x="9.4111996" y="16.7732506" class="st7" width="2.1648998" height="2.0599003"/>
	<rect x="9.4111996" y="14.6134501" class="st7" width="2.1648998" height="2.1598005"/>
	<rect x="9.4111996" y="12.5535498" class="st3" width="2.1648998" height="2.0599003"/>
	<rect x="9.4111996" y="10.3937502" class="st3" width="2.1648998" height="2.1598005"/>
	<rect x="9.4111996" y="8.3338499" class="st6" width="2.1648998" height="2.0599003"/>
	<rect x="9.4111996" y="6.1740499" class="st7" width="2.1648998" height="2.1598001"/>
	<rect x="9.4111996" y="4.1192498" class="st8" width="2.1648998" height="2.0548"/>
	<rect x="9.4111996" y="2.05935" class="st8" width="2.1648998" height="2.0599003"/>
	<rect x="7.3565001" y="33.64785" class="st8" width="2.0546994" height="2.0598984"/>
	<rect x="7.3565001" y="31.4870491" class="st7" width="2.0546994" height="2.1608009"/>
	<rect x="7.3565001" y="29.4281502" class="st6" width="2.0546994" height="2.0589008"/>
	<rect x="7.3565001" y="27.2673492" class="st7" width="2.0546994" height="2.1608009"/>
	<rect x="7.3565001" y="25.2074509" class="st7" width="2.0546994" height="2.0599003"/>
	<rect x="7.3565001" y="23.0476494" class="st6" width="2.0546994" height="2.1597996"/>
	<rect x="7.3565001" y="20.9928493" class="st6" width="2.0546994" height="2.0548"/>
	<rect x="7.3565001" y="18.8331509" class="st6" width="2.0546994" height="2.1597004"/>
	<rect x="7.3565001" y="16.7732506" class="st6" width="2.0546994" height="2.0599003"/>
	<rect x="7.3565001" y="14.6134501" class="st7" width="2.0546994" height="2.1598005"/>
	<rect x="7.3565001" y="12.5535498" class="st7" width="2.0546994" height="2.0599003"/>
	<rect x="7.3565001" y="10.3937502" class="st7" width="2.0546994" height="2.1598005"/>
	<rect x="7.3565001" y="8.3338499" class="st6" width="2.0546994" height="2.0599003"/>
	<rect x="7.3565001" y="6.1740499" class="st7" width="2.0546994" height="2.1598001"/>
	<rect x="7.3565001" y="4.1192498" class="st8" width="2.0546994" height="2.0548"/>
	<rect x="5.1967001" y="31.4870491" class="st9" width="2.1598001" height="2.1608009"/>
	<rect x="5.1967001" y="29.4281502" class="st6" width="2.1598001" height="2.0589008"/>
	<rect x="5.1967001" y="27.2673492" class="st8" width="2.1598001" height="2.1608009"/>
	<rect x="5.1967001" y="25.2074509" class="st3" width="2.1598001" height="2.0599003"/>
	<rect x="5.1967001" y="23.0476494" class="st6" width="2.1598001" height="2.1597996"/>
	<rect x="5.1967001" y="20.9928493" class="st6" width="2.1598001" height="2.0548"/>
	<rect x="5.1967001" y="18.8331509" class="st6" width="2.1598001" height="2.1597004"/>
	<rect x="5.1967001" y="16.7732506" class="st6" width="2.1598001" height="2.0599003"/>
	<rect x="5.1967001" y="14.6134501" class="st6" width="2.1598001" height="2.1598005"/>
	<rect x="5.1967001" y="12.5535498" class="st7" width="2.1598001" height="2.0599003"/>
	<rect x="5.1967001" y="10.3937502" class="st8" width="2.1598001" height="2.1598005"/>
	<rect x="5.1967001" y="8.3338499" class="st7" width="2.1598001" height="2.0599003"/>
	<rect x="5.1967001" y="6.1740499" class="st9" width="2.1598001" height="2.1598001"/>
	<rect x="3.1368001" y="29.4281502" class="st8" width="2.0599" height="2.0589008"/>
	<rect x="3.1368001" y="27.2673492" class="st8" width="2.0599" height="2.1608009"/>
	<rect x="3.1368001" y="25.2074509" class="st7" width="2.0599" height="2.0599003"/>
	<rect x="3.1368001" y="23.0476494" class="st7" width="2.0599" height="2.1597996"/>
	<rect x="3.1368001" y="20.9928493" class="st8" width="2.0599" height="2.0548"/>
	<rect x="3.1368001" y="18.8331509" class="st8" width="2.0599" height="2.1597004"/>
	<rect x="3.1368001" y="16.7732506" class="st8" width="2.0599" height="2.0599003"/>
	<rect x="3.1368001" y="14.6134501" class="st8" width="2.0599" height="2.1598005"/>
	<rect x="3.1368001" y="12.5535498" class="st7" width="2.0599" height="2.0599003"/>
	<rect x="3.1368001" y="10.3937502" class="st8" width="2.0599" height="2.1598005"/>
	<rect x="3.1368001" y="8.3338499" class="st9" width="2.0599" height="2.0599003"/>
	<rect x="0.977" y="25.2074509" class="st9" width="2.1598001" height="2.0599003"/>
	<rect x="0.977" y="23.0476494" class="st9" width="2.1598001" height="2.1597996"/>
	<rect x="0.977" y="20.9928493" class="st8" width="2.1598001" height="2.0548"/>
	<rect x="0.977" y="18.8331509" class="st8" width="2.1598001" height="2.1597004"/>
	<rect x="0.977" y="16.7732506" class="st8" width="2.1598001" height="2.0599003"/>
	<rect x="0.977" y="14.6134501" class="st8" width="2.1598001" height="2.1598005"/>
	<rect x="0.977" y="12.5535498" class="st9" width="2.1598001" height="2.0599003"/>
</g>
<g>
	<rect x="39.7644501" y="60.9106483" class="st10" width="2.1649017" height="2.0598984"/>
	<rect x="39.7644501" y="58.7504501" class="st10" width="2.1649017" height="2.160202"/>
	<rect x="39.7644501" y="56.6961517" class="st10" width="2.1649017" height="2.0542984"/>
	<rect x="37.7096481" y="65.1303482" class="st10" width="2.0548019" height="2.0598984"/>
	<rect x="37.7096481" y="62.9705505" class="st10" width="2.0548019" height="2.1597977"/>
	<rect x="37.7096481" y="60.9106483" class="st11" width="2.0548019" height="2.0598984"/>
	<rect x="37.7096481" y="58.7504501" class="st11" width="2.0548019" height="2.160202"/>
	<rect x="37.7096481" y="56.6961517" class="st11" width="2.0548019" height="2.0542984"/>
	<rect x="37.7096481" y="54.6361504" class="st10" width="2.0548019" height="2.0600014"/>
	<rect x="37.7096481" y="52.4759483" class="st10" width="2.0548019" height="2.1601982"/>
	<rect x="35.6497498" y="67.1902466" class="st10" width="2.0598984" height="2.0542984"/>
	<rect x="35.6497498" y="65.1303482" class="st11" width="2.0598984" height="2.0598984"/>
	<rect x="35.6497498" y="62.9705505" class="st11" width="2.0598984" height="2.1597977"/>
	<rect x="35.6497498" y="60.9106483" class="st12" width="2.0598984" height="2.0598984"/>
	<rect x="35.6497498" y="58.7504501" class="st11" width="2.0598984" height="2.160202"/>
	<rect x="35.6497498" y="56.6961517" class="st12" width="2.0598984" height="2.0542984"/>
	<rect x="35.6497498" y="54.6361504" class="st11" width="2.0598984" height="2.0600014"/>
	<rect x="35.6497498" y="52.4759483" class="st11" width="2.0598984" height="2.1601982"/>
	<rect x="35.6497498" y="50.4165497" class="st10" width="2.0598984" height="2.0593987"/>
	<rect x="33.4900513" y="71.4099503" class="st10" width="2.1596985" height="2.0548019"/>
	<rect x="33.4900513" y="69.2445526" class="st10" width="2.1596985" height="2.1653976"/>
	<rect x="33.4900513" y="67.1902466" class="st11" width="2.1596985" height="2.0542984"/>
	<rect x="33.4900513" y="65.1303482" class="st13" width="2.1596985" height="2.0598984"/>
	<rect x="33.4900513" y="62.9705505" class="st12" width="2.1596985" height="2.1597977"/>
	<rect x="33.4900513" y="60.9106483" class="st11" width="2.1596985" height="2.0598984"/>
	<rect x="33.4900513" y="58.7504501" class="st12" width="2.1596985" height="2.160202"/>
	<rect x="33.4900513" y="56.6961517" class="st11" width="2.1596985" height="2.0542984"/>
	<rect x="33.4900513" y="54.6361504" class="st12" width="2.1596985" height="2.0600014"/>
	<rect x="33.4900513" y="52.4759483" class="st11" width="2.1596985" height="2.1601982"/>
	<rect x="33.4900513" y="50.4165497" class="st12" width="2.1596985" height="2.0593987"/>
	<rect x="33.4900513" y="48.3617516" class="st10" width="2.1596985" height="2.0547981"/>
	<rect x="31.4300499" y="71.4099503" class="st10" width="2.0600014" height="2.0548019"/>
	<rect x="31.4300499" y="69.2445526" class="st11" width="2.0600014" height="2.1653976"/>
	<rect x="31.4300499" y="67.1902466" class="st12" width="2.0600014" height="2.0542984"/>
	<rect x="31.4300499" y="65.1303482" class="st12" width="2.0600014" height="2.0598984"/>
	<rect x="31.4300499" y="62.9705505" class="st13" width="2.0600014" height="2.1597977"/>
	<rect x="31.4300499" y="60.9106483" class="st12" width="2.0600014" height="2.0598984"/>
	<rect x="31.4300499" y="58.7504501" class="st12" width="2.0600014" height="2.160202"/>
	<rect x="31.4300499" y="56.6961517" class="st12" width="2.0600014" height="2.0542984"/>
	<rect x="31.4300499" y="54.6361504" class="st12" width="2.0600014" height="2.0600014"/>
	<rect x="31.4300499" y="52.4759483" class="st14" width="2.0600014" height="2.1601982"/>
	<rect x="31.4300499" y="50.4165497" class="st11" width="2.0600014" height="2.0593987"/>
	<rect x="31.4300499" y="48.3617516" class="st11" width="2.0600014" height="2.0547981"/>
	<rect x="31.4300499" y="46.1962509" class="st10" width="2.0600014" height="2.1655006"/>
	<rect x="29.3752499" y="73.4647522" class="st10" width="2.0548" height="2.0595016"/>
	<rect x="29.3752499" y="71.4099503" class="st11" width="2.0548" height="2.0548019"/>
	<rect x="29.3752499" y="69.2445526" class="st12" width="2.0548" height="2.1653976"/>
	<rect x="29.3752499" y="67.1902466" class="st12" width="2.0548" height="2.0542984"/>
	<rect x="29.3752499" y="65.1303482" class="st13" width="2.0548" height="2.0598984"/>
	<rect x="29.3752499" y="62.9705505" class="st12" width="2.0548" height="2.1597977"/>
	<rect x="29.3752499" y="60.9106483" class="st14" width="2.0548" height="2.0598984"/>
	<rect x="29.3752499" y="58.7504501" class="st13" width="2.0548" height="2.160202"/>
	<rect x="29.3752499" y="56.6961517" class="st12" width="2.0548" height="2.0542984"/>
	<rect x="29.3752499" y="54.6361504" class="st13" width="2.0548" height="2.0600014"/>
	<rect x="29.3752499" y="52.4759483" class="st12" width="2.0548" height="2.1601982"/>
	<rect x="29.3752499" y="50.4165497" class="st12" width="2.0548" height="2.0593987"/>
	<rect x="29.3752499" y="48.3617516" class="st11" width="2.0548" height="2.0547981"/>
	<rect x="29.3752499" y="46.1962509" class="st12" width="2.0548" height="2.1655006"/>
	<rect x="29.3752499" y="44.1420517" class="st10" width="2.0548" height="2.0541992"/>
	<rect x="27.2155495" y="75.5242462" class="st10" width="2.1597004" height="2.160202"/>
	<rect x="27.2155495" y="73.4647522" class="st11" width="2.1597004" height="2.0595016"/>
	<rect x="27.2155495" y="71.4099503" class="st11" width="2.1597004" height="2.0548019"/>
	<rect x="27.2155495" y="69.2445526" class="st13" width="2.1597004" height="2.1653976"/>
	<rect x="27.2155495" y="67.1902466" class="st12" width="2.1597004" height="2.0542984"/>
	<rect x="27.2155495" y="65.1303482" class="st13" width="2.1597004" height="2.0598984"/>
	<rect x="27.2155495" y="62.9705505" class="st14" width="2.1597004" height="2.1597977"/>
	<rect x="27.2155495" y="60.9106483" class="st13" width="2.1597004" height="2.0598984"/>
	<rect x="27.2155495" y="58.7504501" class="st14" width="2.1597004" height="2.160202"/>
	<rect x="27.2155495" y="56.6961517" class="st13" width="2.1597004" height="2.0542984"/>
	<rect x="27.2155495" y="54.6361504" class="st12" width="2.1597004" height="2.0600014"/>
	<rect x="27.2155495" y="52.4759483" class="st12" width="2.1597004" height="2.1601982"/>
	<rect x="27.2155495" y="50.4165497" class="st14" width="2.1597004" height="2.0593987"/>
	<rect x="27.2155495" y="48.3617516" class="st12" width="2.1597004" height="2.0547981"/>
	<rect x="27.2155495" y="46.1962509" class="st11" width="2.1597004" height="2.1655006"/>
	<rect x="27.2155495" y="44.1420517" class="st11" width="2.1597004" height="2.0541992"/>
	<rect x="27.2155495" y="41.9817505" class="st10" width="2.1597004" height="2.1603012"/>
	<rect x="25.15555" y="75.5242462" class="st10" width="2.0599995" height="2.160202"/>
	<rect x="25.15555" y="73.4647522" class="st12" width="2.0599995" height="2.0595016"/>
	<rect x="25.15555" y="71.4099503" class="st13" width="2.0599995" height="2.0548019"/>
	<rect x="25.15555" y="69.2445526" class="st15" width="2.0599995" height="2.1653976"/>
	<rect x="25.15555" y="67.1902466" class="st13" width="2.0599995" height="2.0542984"/>
	<rect x="25.15555" y="65.1303482" class="st12" width="2.0599995" height="2.0598984"/>
	<rect x="25.15555" y="62.9705505" class="st14" width="2.0599995" height="2.1597977"/>
	<rect x="25.15555" y="60.9106483" class="st14" width="2.0599995" height="2.0598984"/>
	<rect x="25.15555" y="58.7504501" class="st14" width="2.0599995" height="2.160202"/>
	<rect x="25.15555" y="56.6961517" class="st14" width="2.0599995" height="2.0542984"/>
	<rect x="25.15555" y="54.6361504" class="st13" width="2.0599995" height="2.0600014"/>
	<rect x="25.15555" y="52.4759483" class="st13" width="2.0599995" height="2.1601982"/>
	<rect x="25.15555" y="50.4165497" class="st12" width="2.0599995" height="2.0593987"/>
	<rect x="25.15555" y="48.3617516" class="st12" width="2.0599995" height="2.0547981"/>
	<rect x="25.15555" y="46.1962509" class="st12" width="2.0599995" height="2.1655006"/>
	<rect x="25.15555" y="44.1420517" class="st11" width="2.0599995" height="2.0541992"/>
	<rect x="25.15555" y="41.9817505" class="st10" width="2.0599995" height="2.1603012"/>
	<rect x="22.9958496" y="77.6844482" class="st10" width="2.1597004" height="2.0598984"/>
	<rect x="22.9958496" y="75.5242462" class="st11" width="2.1597004" height="2.160202"/>
	<rect x="22.9958496" y="73.4647522" class="st11" width="2.1597004" height="2.0595016"/>
	<rect x="22.9958496" y="71.4099503" class="st13" width="2.1597004" height="2.0548019"/>
	<rect x="22.9958496" y="69.2445526" class="st14" width="2.1597004" height="2.1653976"/>
	<rect x="22.9958496" y="67.1902466" class="st14" width="2.1597004" height="2.0542984"/>
	<rect x="22.9958496" y="65.1303482" class="st14" width="2.1597004" height="2.0598984"/>
	<rect x="22.9958496" y="62.9705505" class="st14" width="2.1597004" height="2.1597977"/>
	<rect x="22.9958496" y="60.9106483" class="st15" width="2.1597004" height="2.0598984"/>
	<rect x="22.9958496" y="58.7504501" class="st13" width="2.1597004" height="2.160202"/>
	<rect x="22.9958496" y="56.6961517" class="st14" width="2.1597004" height="2.0542984"/>
	<rect x="22.9958496" y="54.6361504" class="st12" width="2.1597004" height="2.0600014"/>
	<rect x="22.9958496" y="52.4759483" class="st12" width="2.1597004" height="2.1601982"/>
	<rect x="22.9958496" y="50.4165497" class="st13" width="2.1597004" height="2.0593987"/>
	<rect x="22.9958496" y="48.3617516" class="st12" width="2.1597004" height="2.0547981"/>
	<rect x="22.9958496" y="46.1962509" class="st13" width="2.1597004" height="2.1655006"/>
	<rect x="22.9958496" y="44.1420517" class="st12" width="2.1597004" height="2.0541992"/>
	<rect x="22.9958496" y="41.9817505" class="st11" width="2.1597004" height="2.1603012"/>
	<rect x="22.9958496" y="39.9223518" class="st10" width="2.1597004" height="2.0593987"/>
	<rect x="20.9359493" y="77.6844482" class="st10" width="2.0599003" height="2.0598984"/>
	<rect x="20.9359493" y="75.5242462" class="st11" width="2.0599003" height="2.160202"/>
	<rect x="20.9359493" y="73.4647522" class="st12" width="2.0599003" height="2.0595016"/>
	<rect x="20.9359493" y="71.4099503" class="st12" width="2.0599003" height="2.0548019"/>
	<rect x="20.9359493" y="69.2445526" class="st13" width="2.0599003" height="2.1653976"/>
	<rect x="20.9359493" y="67.1902466" class="st13" width="2.0599003" height="2.0542984"/>
	<rect x="20.9359493" y="65.1303482" class="st14" width="2.0599003" height="2.0598984"/>
	<rect x="20.9359493" y="62.9705505" class="st14" width="2.0599003" height="2.1597977"/>
	<rect x="20.9359493" y="60.9106483" class="st15" width="2.0599003" height="2.0598984"/>
	<rect x="20.9359493" y="58.7504501" class="st14" width="2.0599003" height="2.160202"/>
	<rect x="20.9359493" y="56.6961517" class="st14" width="2.0599003" height="2.0542984"/>
	<rect x="20.9359493" y="54.6361504" class="st13" width="2.0599003" height="2.0600014"/>
	<rect x="20.9359493" y="52.4759483" class="st13" width="2.0599003" height="2.1601982"/>
	<rect x="20.9359493" y="50.4165497" class="st14" width="2.0599003" height="2.0593987"/>
	<rect x="20.9359493" y="48.3617516" class="st13" width="2.0599003" height="2.0547981"/>
	<rect x="20.9359493" y="46.1962509" class="st12" width="2.0599003" height="2.1655006"/>
	<rect x="20.9359493" y="44.1420517" class="st11" width="2.0599003" height="2.0541992"/>
	<rect x="20.9359493" y="41.9817505" class="st11" width="2.0599003" height="2.1603012"/>
	<rect x="20.9359493" y="39.9223518" class="st10" width="2.0599003" height="2.0593987"/>
	<rect x="18.8811493" y="75.5242462" class="st10" width="2.0548" height="2.160202"/>
	<rect x="18.8811493" y="73.4647522" class="st14" width="2.0548" height="2.0595016"/>
	<rect x="18.8811493" y="71.4099503" class="st12" width="2.0548" height="2.0548019"/>
	<rect x="18.8811493" y="69.2445526" class="st13" width="2.0548" height="2.1653976"/>
	<rect x="18.8811493" y="67.1902466" class="st14" width="2.0548" height="2.0542984"/>
	<rect x="18.8811493" y="65.1303482" class="st15" width="2.0548" height="2.0598984"/>
	<rect x="18.8811493" y="62.9705505" class="st15" width="2.0548" height="2.1597977"/>
	<rect x="18.8811493" y="60.9106483" class="st15" width="2.0548" height="2.0598984"/>
	<rect x="18.8811493" y="58.7504501" class="st15" width="2.0548" height="2.160202"/>
	<rect x="18.8811493" y="56.6961517" class="st14" width="2.0548" height="2.0542984"/>
	<rect x="18.8811493" y="54.6361504" class="st15" width="2.0548" height="2.0600014"/>
	<rect x="18.8811493" y="52.4759483" class="st14" width="2.0548" height="2.1601982"/>
	<rect x="18.8811493" y="50.4165497" class="st15" width="2.0548" height="2.0593987"/>
	<rect x="18.8811493" y="48.3617516" class="st14" width="2.0548" height="2.0547981"/>
	<rect x="18.8811493" y="46.1962509" class="st13" width="2.0548" height="2.1655006"/>
	<rect x="18.8811493" y="44.1420517" class="st12" width="2.0548" height="2.0541992"/>
	<rect x="18.8811493" y="41.9817505" class="st11" width="2.0548" height="2.1603012"/>
	<rect x="18.8811493" y="39.9223518" class="st10" width="2.0548" height="2.0593987"/>
	<rect x="16.7162495" y="75.5242462" class="st10" width="2.1648998" height="2.160202"/>
	<rect x="16.7162495" y="73.4647522" class="st11" width="2.1648998" height="2.0595016"/>
	<rect x="16.7162495" y="71.4099503" class="st13" width="2.1648998" height="2.0548019"/>
	<rect x="16.7162495" y="69.2445526" class="st12" width="2.1648998" height="2.1653976"/>
	<rect x="16.7162495" y="67.1902466" class="st13" width="2.1648998" height="2.0542984"/>
	<rect x="16.7162495" y="65.1303482" class="st14" width="2.1648998" height="2.0598984"/>
	<rect x="16.7162495" y="62.9705505" class="st14" width="2.1648998" height="2.1597977"/>
	<rect x="16.7162495" y="60.9106483" class="st15" width="2.1648998" height="2.0598984"/>
	<rect x="16.7162495" y="58.7504501" class="st14" width="2.1648998" height="2.160202"/>
	<rect x="16.7162495" y="56.6961517" class="st14" width="2.1648998" height="2.0542984"/>
	<rect x="16.7162495" y="54.6361504" class="st12" width="2.1648998" height="2.0600014"/>
	<rect x="16.7162495" y="52.4759483" class="st13" width="2.1648998" height="2.1601982"/>
	<rect x="16.7162495" y="50.4165497" class="st12" width="2.1648998" height="2.0593987"/>
	<rect x="16.7162495" y="48.3617516" class="st13" width="2.1648998" height="2.0547981"/>
	<rect x="16.7162495" y="46.1962509" class="st12" width="2.1648998" height="2.1655006"/>
	<rect x="16.7162495" y="44.1420517" class="st12" width="2.1648998" height="2.0541992"/>
	<rect x="16.7162495" y="41.9817505" class="st12" width="2.1648998" height="2.1603012"/>
	<rect x="16.7162495" y="39.9223518" class="st10" width="2.1648998" height="2.0593987"/>
	<rect x="14.6614504" y="75.5242462" class="st10" width="2.054801" height="2.160202"/>
	<rect x="14.6614504" y="73.4647522" class="st12" width="2.054801" height="2.0595016"/>
	<rect x="14.6614504" y="71.4099503" class="st11" width="2.054801" height="2.0548019"/>
	<rect x="14.6614504" y="69.2445526" class="st12" width="2.054801" height="2.1653976"/>
	<rect x="14.6614504" y="67.1902466" class="st13" width="2.054801" height="2.0542984"/>
	<rect x="14.6614504" y="65.1303482" class="st14" width="2.054801" height="2.0598984"/>
	<rect x="14.6614504" y="62.9705505" class="st14" width="2.054801" height="2.1597977"/>
	<rect x="14.6614504" y="60.9106483" class="st14" width="2.054801" height="2.0598984"/>
	<rect x="14.6614504" y="58.7504501" class="st14" width="2.054801" height="2.160202"/>
	<rect x="14.6614504" y="56.6961517" class="st13" width="2.054801" height="2.0542984"/>
	<rect x="14.6614504" y="54.6361504" class="st13" width="2.054801" height="2.0600014"/>
	<rect x="14.6614504" y="52.4759483" class="st14" width="2.054801" height="2.1601982"/>
	<rect x="14.6614504" y="50.4165497" class="st13" width="2.054801" height="2.0593987"/>
	<rect x="14.6614504" y="48.3617516" class="st12" width="2.054801" height="2.0547981"/>
	<rect x="14.6614504" y="46.1962509" class="st12" width="2.054801" height="2.1655006"/>
	<rect x="14.6614504" y="44.1420517" class="st11" width="2.054801" height="2.0541992"/>
	<rect x="14.6614504" y="41.9817505" class="st11" width="2.054801" height="2.1603012"/>
	<rect x="14.6614504" y="39.9223518" class="st10" width="2.054801" height="2.0593987"/>
	<rect x="12.60145" y="73.4647522" class="st10" width="2.0599995" height="2.0595016"/>
	<rect x="12.60145" y="71.4099503" class="st11" width="2.0599995" height="2.0548019"/>
	<rect x="12.60145" y="69.2445526" class="st12" width="2.0599995" height="2.1653976"/>
	<rect x="12.60145" y="67.1902466" class="st13" width="2.0599995" height="2.0542984"/>
	<rect x="12.60145" y="65.1303482" class="st15" width="2.0599995" height="2.0598984"/>
	<rect x="12.60145" y="62.9705505" class="st13" width="2.0599995" height="2.1597977"/>
	<rect x="12.60145" y="60.9106483" class="st14" width="2.0599995" height="2.0598984"/>
	<rect x="12.60145" y="58.7504501" class="st13" width="2.0599995" height="2.160202"/>
	<rect x="12.60145" y="56.6961517" class="st14" width="2.0599995" height="2.0542984"/>
	<rect x="12.60145" y="54.6361504" class="st13" width="2.0599995" height="2.0600014"/>
	<rect x="12.60145" y="52.4759483" class="st12" width="2.0599995" height="2.1601982"/>
	<rect x="12.60145" y="50.4165497" class="st12" width="2.0599995" height="2.0593987"/>
	<rect x="12.60145" y="48.3617516" class="st12" width="2.0599995" height="2.0547981"/>
	<rect x="12.60145" y="46.1962509" class="st11" width="2.0599995" height="2.1655006"/>
	<rect x="12.60145" y="44.1420517" class="st11" width="2.0599995" height="2.0541992"/>
	<rect x="12.60145" y="41.9817505" class="st10" width="2.0599995" height="2.1603012"/>
	<rect x="10.4417496" y="73.4647522" class="st10" width="2.1597004" height="2.0595016"/>
	<rect x="10.4417496" y="71.4099503" class="st11" width="2.1597004" height="2.0548019"/>
	<rect x="10.4417496" y="69.2445526" class="st14" width="2.1597004" height="2.1653976"/>
	<rect x="10.4417496" y="67.1902466" class="st12" width="2.1597004" height="2.0542984"/>
	<rect x="10.4417496" y="65.1303482" class="st13" width="2.1597004" height="2.0598984"/>
	<rect x="10.4417496" y="62.9705505" class="st13" width="2.1597004" height="2.1597977"/>
	<rect x="10.4417496" y="60.9106483" class="st15" width="2.1597004" height="2.0598984"/>
	<rect x="10.4417496" y="58.7504501" class="st12" width="2.1597004" height="2.160202"/>
	<rect x="10.4417496" y="56.6961517" class="st13" width="2.1597004" height="2.0542984"/>
	<rect x="10.4417496" y="54.6361504" class="st12" width="2.1597004" height="2.0600014"/>
	<rect x="10.4417496" y="52.4759483" class="st14" width="2.1597004" height="2.1601982"/>
	<rect x="10.4417496" y="50.4165497" class="st12" width="2.1597004" height="2.0593987"/>
	<rect x="10.4417496" y="48.3617516" class="st11" width="2.1597004" height="2.0547981"/>
	<rect x="10.4417496" y="46.1962509" class="st11" width="2.1597004" height="2.1655006"/>
	<rect x="10.4417496" y="44.1420517" class="st12" width="2.1597004" height="2.0541992"/>
	<rect x="10.4417496" y="41.9817505" class="st10" width="2.1597004" height="2.1603012"/>
	<rect x="8.3818502" y="73.4647522" class="st10" width="2.0599003" height="2.0595016"/>
	<rect x="8.3818502" y="71.4099503" class="st12" width="2.0599003" height="2.0548019"/>
	<rect x="8.3818502" y="69.2445526" class="st11" width="2.0599003" height="2.1653976"/>
	<rect x="8.3818502" y="67.1902466" class="st12" width="2.0599003" height="2.0542984"/>
	<rect x="8.3818502" y="65.1303482" class="st13" width="2.0599003" height="2.0598984"/>
	<rect x="8.3818502" y="62.9705505" class="st12" width="2.0599003" height="2.1597977"/>
	<rect x="8.3818502" y="60.9106483" class="st14" width="2.0599003" height="2.0598984"/>
	<rect x="8.3818502" y="58.7504501" class="st13" width="2.0599003" height="2.160202"/>
	<rect x="8.3818502" y="56.6961517" class="st12" width="2.0599003" height="2.0542984"/>
	<rect x="8.3818502" y="54.6361504" class="st12" width="2.0599003" height="2.0600014"/>
	<rect x="8.3818502" y="52.4759483" class="st11" width="2.0599003" height="2.1601982"/>
	<rect x="8.3818502" y="50.4165497" class="st11" width="2.0599003" height="2.0593987"/>
	<rect x="8.3818502" y="48.3617516" class="st12" width="2.0599003" height="2.0547981"/>
	<rect x="8.3818502" y="46.1962509" class="st11" width="2.0599003" height="2.1655006"/>
	<rect x="8.3818502" y="44.1420517" class="st10" width="2.0599003" height="2.0541992"/>
	<rect x="6.2220502" y="71.4099503" class="st10" width="2.1598001" height="2.0548019"/>
	<rect x="6.2220502" y="69.2445526" class="st11" width="2.1598001" height="2.1653976"/>
	<rect x="6.2220502" y="67.1902466" class="st11" width="2.1598001" height="2.0542984"/>
	<rect x="6.2220502" y="65.1303482" class="st12" width="2.1598001" height="2.0598984"/>
	<rect x="6.2220502" y="62.9705505" class="st12" width="2.1598001" height="2.1597977"/>
	<rect x="6.2220502" y="60.9106483" class="st13" width="2.1598001" height="2.0598984"/>
	<rect x="6.2220502" y="58.7504501" class="st12" width="2.1598001" height="2.160202"/>
	<rect x="6.2220502" y="56.6961517" class="st13" width="2.1598001" height="2.0542984"/>
	<rect x="6.2220502" y="54.6361504" class="st11" width="2.1598001" height="2.0600014"/>
	<rect x="6.2220502" y="52.4759483" class="st12" width="2.1598001" height="2.1601982"/>
	<rect x="6.2220502" y="50.4165497" class="st11" width="2.1598001" height="2.0593987"/>
	<rect x="6.2220502" y="48.3617516" class="st11" width="2.1598001" height="2.0547981"/>
	<rect x="6.2220502" y="46.1962509" class="st10" width="2.1598001" height="2.1655006"/>
	<rect x="4.1672502" y="69.2445526" class="st10" width="2.0548" height="2.1653976"/>
	<rect x="4.1672502" y="67.1902466" class="st11" width="2.0548" height="2.0542984"/>
	<rect x="4.1672502" y="65.1303482" class="st11" width="2.0548" height="2.0598984"/>
	<rect x="4.1672502" y="62.9705505" class="st11" width="2.0548" height="2.1597977"/>
	<rect x="4.1672502" y="60.9106483" class="st12" width="2.0548" height="2.0598984"/>
	<rect x="4.1672502" y="58.7504501" class="st12" width="2.0548" height="2.160202"/>
	<rect x="4.1672502" y="56.6961517" class="st12" width="2.0548" height="2.0542984"/>
	<rect x="4.1672502" y="54.6361504" class="st11" width="2.0548" height="2.0600014"/>
	<rect x="4.1672502" y="52.4759483" class="st11" width="2.0548" height="2.1601982"/>
	<rect x="4.1672502" y="50.4165497" class="st10" width="2.0548" height="2.0593987"/>
	<rect x="4.1672502" y="48.3617516" class="st10" width="2.0548" height="2.0547981"/>
	<rect x="2.1073501" y="67.1902466" class="st10" width="2.0599" height="2.0542984"/>
	<rect x="2.1073501" y="65.1303482" class="st10" width="2.0599" height="2.0598984"/>
	<rect x="2.1073501" y="62.9705505" class="st11" width="2.0599" height="2.1597977"/>
	<rect x="2.1073501" y="60.9106483" class="st12" width="2.0599" height="2.0598984"/>
	<rect x="2.1073501" y="58.7504501" class="st11" width="2.0599" height="2.160202"/>
	<rect x="2.1073501" y="56.6961517" class="st11" width="2.0599" height="2.0542984"/>
	<rect x="2.1073501" y="54.6361504" class="st10" width="2.0599" height="2.0600014"/>
	<rect x="2.1073501" y="52.4759483" class="st10" width="2.0599" height="2.1601982"/>
	<rect x="-0.05245" y="62.9705505" class="st10" width="2.1598001" height="2.1597977"/>
	<rect x="-0.05245" y="60.9106483" class="st10" width="2.1598001" height="2.0598984"/>
	<rect x="-0.05245" y="58.7504501" class="st10" width="2.1598001" height="2.160202"/>
	<rect x="-0.05245" y="56.6961517" class="st10" width="2.1598001" height="2.0542984"/>
</g>
</svg>
