<?xml version="1.0" encoding="utf-8"?>
<!-- Generator: Adobe Illustrator 26.0.1, SVG Export Plug-In . SVG Version: 6.00 Build 0)  -->
<svg version="1.1" id="Layer_1" xmlns="http://www.w3.org/2000/svg" xmlns:xlink="http://www.w3.org/1999/xlink" x="0px" y="0px"
	 width="42px" height="80px" viewBox="0 0 42 80" style="enable-background:new 0 0 42 80;" xml:space="preserve">
<style type="text/css">
	.st0{fill:#72706B;}
	.st1{fill:#A7A5A1;}
	.st2{fill:#A4A29B;}
	.st3{fill:#B3B0A9;}
	.st4{fill:#E6E4DB;}
	.st5{fill:#A6A49D;}
	.st6{fill:#E5E4DA;}
	.st7{fill:#D6D3CC;}
	.st8{fill:#E6E6DC;}
	.st9{fill:#E1DED8;}
	.st10{fill:#370C45;}
	.st11{fill:#8B0975;}
	.st12{fill:#EF3A65;}
	.st13{fill:#FF7261;}
	.st14{fill:#FCE00A;}
	.st15{fill:#FFFFFF;}
</style>
<g>
	<rect x="38.9" y="25.3" class="st0" width="2.1" height="2.1"/>
	<rect x="38.9" y="23.1" class="st1" width="2.1" height="2.2"/>
	<rect x="38.9" y="21.1" class="st0" width="2.1" height="2.1"/>
	<rect x="38.9" y="18.9" class="st0" width="2.1" height="2.2"/>
	<rect x="38.9" y="16.9" class="st1" width="2.1" height="2.1"/>
	<rect x="38.9" y="14.7" class="st1" width="2.1" height="2.2"/>
	<rect x="38.9" y="12.6" class="st1" width="2.1" height="2.1"/>
	<rect x="36.7" y="29.5" class="st0" width="2.2" height="2.1"/>
	<rect x="36.7" y="27.3" class="st2" width="2.2" height="2.2"/>
	<rect x="36.7" y="25.3" class="st3" width="2.2" height="2.1"/>
	<rect x="36.7" y="23.1" class="st4" width="2.2" height="2.2"/>
	<rect x="36.7" y="21.1" class="st3" width="2.2" height="2.1"/>
	<rect x="36.7" y="18.9" class="st4" width="2.2" height="2.2"/>
	<rect x="36.7" y="16.9" class="st4" width="2.2" height="2.1"/>
	<rect x="36.7" y="14.7" class="st4" width="2.2" height="2.2"/>
	<rect x="36.7" y="12.6" class="st5" width="2.2" height="2.1"/>
	<rect x="36.7" y="10.5" class="st0" width="2.2" height="2.2"/>
	<rect x="36.7" y="8.4" class="st0" width="2.2" height="2.1"/>
	<rect x="34.6" y="31.6" class="st1" width="2.1" height="2.2"/>
	<rect x="34.6" y="29.5" class="st3" width="2.1" height="2.1"/>
	<rect x="34.6" y="27.3" class="st3" width="2.1" height="2.2"/>
	<rect x="34.6" y="25.3" class="st4" width="2.1" height="2.1"/>
	<rect x="34.6" y="23.1" class="st3" width="2.1" height="2.2"/>
	<rect x="34.6" y="21.1" class="st3" width="2.1" height="2.1"/>
	<rect x="34.6" y="18.9" class="st4" width="2.1" height="2.2"/>
	<rect x="34.6" y="16.9" class="st4" width="2.1" height="2.1"/>
	<rect x="34.6" y="14.7" class="st4" width="2.1" height="2.2"/>
	<rect x="34.6" y="12.6" class="st3" width="2.1" height="2.1"/>
	<rect x="34.6" y="10.5" class="st3" width="2.1" height="2.2"/>
	<rect x="34.6" y="8.4" class="st3" width="2.1" height="2.1"/>
	<rect x="34.6" y="6.3" class="st1" width="2.1" height="2.2"/>
	<rect x="32.5" y="33.7" class="st0" width="2.2" height="2.1"/>
	<rect x="32.5" y="31.6" class="st3" width="2.2" height="2.2"/>
	<rect x="32.5" y="29.5" class="st4" width="2.2" height="2.1"/>
	<rect x="32.5" y="27.3" class="st3" width="2.2" height="2.2"/>
	<rect x="32.5" y="25.3" class="st6" width="2.2" height="2.1"/>
	<rect x="32.5" y="23.1" class="st7" width="2.2" height="2.2"/>
	<rect x="32.5" y="21.1" class="st7" width="2.2" height="2.1"/>
	<rect x="32.5" y="18.9" class="st6" width="2.2" height="2.2"/>
	<rect x="32.5" y="16.9" class="st6" width="2.2" height="2.1"/>
	<rect x="32.5" y="14.7" class="st6" width="2.2" height="2.2"/>
	<rect x="32.5" y="12.6" class="st7" width="2.2" height="2.1"/>
	<rect x="32.5" y="10.5" class="st3" width="2.2" height="2.2"/>
	<rect x="32.5" y="8.4" class="st4" width="2.2" height="2.1"/>
	<rect x="32.5" y="6.3" class="st3" width="2.2" height="2.2"/>
	<rect x="32.5" y="4.2" class="st0" width="2.2" height="2.1"/>
	<rect x="30.4" y="35.8" class="st0" width="2.1" height="2.2"/>
	<rect x="30.4" y="33.7" class="st3" width="2.1" height="2.1"/>
	<rect x="30.4" y="31.6" class="st4" width="2.1" height="2.2"/>
	<rect x="30.4" y="29.5" class="st3" width="2.1" height="2.1"/>
	<rect x="30.4" y="27.3" class="st7" width="2.1" height="2.2"/>
	<rect x="30.4" y="25.3" class="st7" width="2.1" height="2.1"/>
	<rect x="30.4" y="23.1" class="st6" width="2.1" height="2.2"/>
	<rect x="30.4" y="21.1" class="st7" width="2.1" height="2.1"/>
	<rect x="30.4" y="18.9" class="st7" width="2.1" height="2.2"/>
	<rect x="30.4" y="16.9" class="st6" width="2.1" height="2.1"/>
	<rect x="30.4" y="14.7" class="st6" width="2.1" height="2.2"/>
	<rect x="30.4" y="12.6" class="st7" width="2.1" height="2.1"/>
	<rect x="30.4" y="10.5" class="st7" width="2.1" height="2.2"/>
	<rect x="30.4" y="8.4" class="st6" width="2.1" height="2.1"/>
	<rect x="30.4" y="6.3" class="st3" width="2.1" height="2.2"/>
	<rect x="30.4" y="4.2" class="st3" width="2.1" height="2.1"/>
	<rect x="30.4" y="2.1" class="st0" width="2.1" height="2.1"/>
	<rect x="28.3" y="35.8" class="st3" width="2.2" height="2.2"/>
	<rect x="28.3" y="33.7" class="st3" width="2.2" height="2.1"/>
	<rect x="28.3" y="31.6" class="st6" width="2.2" height="2.2"/>
	<rect x="28.3" y="29.5" class="st7" width="2.2" height="2.1"/>
	<rect x="28.3" y="27.3" class="st7" width="2.2" height="2.2"/>
	<rect x="28.3" y="25.3" class="st7" width="2.2" height="2.1"/>
	<rect x="28.3" y="23.1" class="st6" width="2.2" height="2.2"/>
	<rect x="28.3" y="21.1" class="st7" width="2.2" height="2.1"/>
	<rect x="28.3" y="18.9" class="st7" width="2.2" height="2.2"/>
	<rect x="28.3" y="16.9" class="st6" width="2.2" height="2.1"/>
	<rect x="28.3" y="14.7" class="st7" width="2.2" height="2.2"/>
	<rect x="28.3" y="12.6" class="st7" width="2.2" height="2.1"/>
	<rect x="28.3" y="10.5" class="st6" width="2.2" height="2.2"/>
	<rect x="28.3" y="8.4" class="st7" width="2.2" height="2.1"/>
	<rect x="28.3" y="6.3" class="st7" width="2.2" height="2.2"/>
	<rect x="28.3" y="4.2" class="st3" width="2.2" height="2.1"/>
	<rect x="28.3" y="2.1" class="st4" width="2.2" height="2.1"/>
	<rect x="26.2" y="37.9" class="st0" width="2.1" height="2.1"/>
	<rect x="26.2" y="35.8" class="st3" width="2.1" height="2.2"/>
	<rect x="26.2" y="33.7" class="st4" width="2.1" height="2.1"/>
	<rect x="26.2" y="31.6" class="st7" width="2.1" height="2.2"/>
	<rect x="26.2" y="29.5" class="st7" width="2.1" height="2.1"/>
	<rect x="26.2" y="27.3" class="st7" width="2.1" height="2.2"/>
	<rect x="26.2" y="25.3" class="st6" width="2.1" height="2.1"/>
	<rect x="26.2" y="23.1" class="st3" width="2.1" height="2.2"/>
	<rect x="26.2" y="21.1" class="st7" width="2.1" height="2.1"/>
	<rect x="26.2" y="18.9" class="st6" width="2.1" height="2.2"/>
	<rect x="26.2" y="16.9" class="st6" width="2.1" height="2.1"/>
	<rect x="26.2" y="14.7" class="st7" width="2.1" height="2.2"/>
	<rect x="26.2" y="12.6" class="st3" width="2.1" height="2.1"/>
	<rect x="26.2" y="10.5" class="st6" width="2.1" height="2.2"/>
	<rect x="26.2" y="8.4" class="st7" width="2.1" height="2.1"/>
	<rect x="26.2" y="6.3" class="st7" width="2.1" height="2.2"/>
	<rect x="26.2" y="4.2" class="st6" width="2.1" height="2.1"/>
	<rect x="26.2" y="2.1" class="st4" width="2.1" height="2.1"/>
	<rect x="26.2" y="0" class="st1" width="2.1" height="2.2"/>
	<rect x="24.1" y="37.9" class="st3" width="2.2" height="2.1"/>
	<rect x="24.1" y="35.8" class="st3" width="2.2" height="2.2"/>
	<rect x="24.1" y="33.7" class="st6" width="2.2" height="2.1"/>
	<rect x="24.1" y="31.6" class="st7" width="2.2" height="2.2"/>
	<rect x="24.1" y="29.5" class="st7" width="2.2" height="2.1"/>
	<rect x="24.1" y="27.3" class="st6" width="2.2" height="2.2"/>
	<rect x="24.1" y="25.3" class="st6" width="2.2" height="2.1"/>
	<rect x="24.1" y="23.1" class="st7" width="2.2" height="2.2"/>
	<rect x="24.1" y="21.1" class="st7" width="2.2" height="2.1"/>
	<rect x="24.1" y="18.9" class="st7" width="2.2" height="2.2"/>
	<rect x="24.1" y="16.9" class="st7" width="2.2" height="2.1"/>
	<rect x="24.1" y="14.7" class="st3" width="2.2" height="2.2"/>
	<rect x="24.1" y="12.6" class="st7" width="2.2" height="2.1"/>
	<rect x="24.1" y="10.5" class="st6" width="2.2" height="2.2"/>
	<rect x="24.1" y="8.4" class="st7" width="2.2" height="2.1"/>
	<rect x="24.1" y="6.3" class="st7" width="2.2" height="2.2"/>
	<rect x="24.1" y="4.2" class="st6" width="2.2" height="2.1"/>
	<rect x="24.1" y="2.1" class="st7" width="2.2" height="2.1"/>
	<rect x="24.1" y="0" class="st0" width="2.2" height="2.2"/>
	<rect x="22" y="37.9" class="st3" width="2.1" height="2.1"/>
	<rect x="22" y="35.8" class="st7" width="2.1" height="2.2"/>
	<rect x="22" y="33.7" class="st7" width="2.1" height="2.1"/>
	<rect x="22" y="31.6" class="st6" width="2.1" height="2.2"/>
	<rect x="22" y="29.5" class="st7" width="2.1" height="2.1"/>
	<rect x="22" y="27.3" class="st7" width="2.1" height="2.2"/>
	<rect x="22" y="25.3" class="st6" width="2.1" height="2.1"/>
	<rect x="22" y="23.1" class="st7" width="2.1" height="2.2"/>
	<rect x="22" y="21.1" class="st7" width="2.1" height="2.1"/>
	<rect x="22" y="18.9" class="st7" width="2.1" height="2.2"/>
	<rect x="22" y="16.9" class="st7" width="2.1" height="2.1"/>
	<rect x="22" y="14.7" class="st7" width="2.1" height="2.2"/>
	<rect x="22" y="12.6" class="st6" width="2.1" height="2.1"/>
	<rect x="22" y="10.5" class="st7" width="2.1" height="2.2"/>
	<rect x="22" y="8.4" class="st7" width="2.1" height="2.1"/>
	<rect x="22" y="6.3" class="st6" width="2.1" height="2.2"/>
	<rect x="22" y="4.2" class="st6" width="2.1" height="2.1"/>
	<rect x="22" y="2.1" class="st7" width="2.1" height="2.1"/>
	<rect x="22" y="0" class="st3" width="2.1" height="2.2"/>
	<rect x="19.8" y="37.9" class="st3" width="2.2" height="2.1"/>
	<rect x="19.8" y="35.8" class="st7" width="2.2" height="2.2"/>
	<rect x="19.8" y="33.7" class="st7" width="2.2" height="2.1"/>
	<rect x="19.8" y="31.6" class="st6" width="2.2" height="2.2"/>
	<rect x="19.8" y="29.5" class="st7" width="2.2" height="2.1"/>
	<rect x="19.8" y="27.3" class="st6" width="2.2" height="2.2"/>
	<rect x="19.8" y="25.3" class="st7" width="2.2" height="2.1"/>
	<rect x="19.8" y="23.1" class="st7" width="2.2" height="2.2"/>
	<rect x="19.8" y="21.1" class="st7" width="2.2" height="2.1"/>
	<rect x="19.8" y="18.9" class="st6" width="2.2" height="2.2"/>
	<rect x="19.8" y="16.9" class="st7" width="2.2" height="2.1"/>
	<rect x="19.8" y="14.7" class="st6" width="2.2" height="2.2"/>
	<rect x="19.8" y="12.6" class="st7" width="2.2" height="2.1"/>
	<rect x="19.8" y="10.5" class="st7" width="2.2" height="2.2"/>
	<rect x="19.8" y="8.4" class="st6" width="2.2" height="2.1"/>
	<rect x="19.8" y="6.3" class="st6" width="2.2" height="2.2"/>
	<rect x="19.8" y="4.2" class="st3" width="2.2" height="2.1"/>
	<rect x="19.8" y="2.1" class="st7" width="2.2" height="2.1"/>
	<rect x="19.8" y="0" class="st7" width="2.2" height="2.2"/>
	<rect x="17.8" y="37.9" class="st7" width="2.1" height="2.1"/>
	<rect x="17.8" y="35.8" class="st7" width="2.1" height="2.2"/>
	<rect x="17.8" y="33.7" class="st6" width="2.1" height="2.1"/>
	<rect x="17.8" y="31.6" class="st7" width="2.1" height="2.2"/>
	<rect x="17.8" y="29.5" class="st7" width="2.1" height="2.1"/>
	<rect x="17.8" y="27.3" class="st6" width="2.1" height="2.2"/>
	<rect x="17.8" y="25.3" class="st7" width="2.1" height="2.1"/>
	<rect x="17.8" y="23.1" class="st7" width="2.1" height="2.2"/>
	<rect x="17.8" y="21.1" class="st6" width="2.1" height="2.1"/>
	<rect x="17.8" y="18.9" class="st6" width="2.1" height="2.2"/>
	<rect x="17.8" y="16.9" class="st7" width="2.1" height="2.1"/>
	<rect x="17.8" y="14.7" class="st7" width="2.1" height="2.2"/>
	<rect x="17.8" y="12.6" class="st6" width="2.1" height="2.1"/>
	<rect x="17.8" y="10.5" class="st7" width="2.1" height="2.2"/>
	<rect x="17.8" y="8.4" class="st6" width="2.1" height="2.1"/>
	<rect x="17.8" y="6.3" class="st6" width="2.1" height="2.2"/>
	<rect x="17.8" y="4.2" class="st7" width="2.1" height="2.1"/>
	<rect x="17.8" y="2.1" class="st7" width="2.1" height="2.1"/>
	<rect x="17.8" y="0" class="st6" width="2.1" height="2.2"/>
	<rect x="15.6" y="37.9" class="st7" width="2.2" height="2.1"/>
	<rect x="15.6" y="35.8" class="st6" width="2.2" height="2.2"/>
	<rect x="15.6" y="33.7" class="st7" width="2.2" height="2.1"/>
	<rect x="15.6" y="31.6" class="st7" width="2.2" height="2.2"/>
	<rect x="15.6" y="29.5" class="st6" width="2.2" height="2.1"/>
	<rect x="15.6" y="27.3" class="st7" width="2.2" height="2.2"/>
	<rect x="15.6" y="25.3" class="st3" width="2.2" height="2.1"/>
	<rect x="15.6" y="23.1" class="st3" width="2.2" height="2.2"/>
	<rect x="15.6" y="21.1" class="st6" width="2.2" height="2.1"/>
	<rect x="15.6" y="18.9" class="st6" width="2.2" height="2.2"/>
	<rect x="15.6" y="16.9" class="st7" width="2.2" height="2.1"/>
	<rect x="15.6" y="14.7" class="st7" width="2.2" height="2.2"/>
	<rect x="15.6" y="12.6" class="st6" width="2.2" height="2.1"/>
	<rect x="15.6" y="10.5" class="st7" width="2.2" height="2.2"/>
	<rect x="15.6" y="8.4" class="st7" width="2.2" height="2.1"/>
	<rect x="15.6" y="6.3" class="st6" width="2.2" height="2.2"/>
	<rect x="15.6" y="4.2" class="st7" width="2.2" height="2.1"/>
	<rect x="15.6" y="2.1" class="st7" width="2.2" height="2.1"/>
	<rect x="15.6" y="0" class="st8" width="2.2" height="2.2"/>
	<rect x="13.6" y="37.9" class="st9" width="2.1" height="2.1"/>
	<rect x="13.6" y="35.8" class="st6" width="2.1" height="2.2"/>
	<rect x="13.6" y="33.7" class="st3" width="2.1" height="2.1"/>
	<rect x="13.6" y="31.6" class="st7" width="2.1" height="2.2"/>
	<rect x="13.6" y="29.5" class="st6" width="2.1" height="2.1"/>
	<rect x="13.6" y="27.3" class="st7" width="2.1" height="2.2"/>
	<rect x="13.6" y="25.3" class="st7" width="2.1" height="2.1"/>
	<rect x="13.6" y="23.1" class="st3" width="2.1" height="2.2"/>
	<rect x="13.6" y="21.1" class="st6" width="2.1" height="2.1"/>
	<rect x="13.6" y="18.9" class="st6" width="2.1" height="2.2"/>
	<rect x="13.6" y="16.9" class="st7" width="2.1" height="2.1"/>
	<rect x="13.6" y="14.7" class="st7" width="2.1" height="2.2"/>
	<rect x="13.6" y="12.6" class="st7" width="2.1" height="2.1"/>
	<rect x="13.6" y="10.5" class="st6" width="2.1" height="2.2"/>
	<rect x="13.6" y="8.4" class="st7" width="2.1" height="2.1"/>
	<rect x="13.6" y="6.3" class="st7" width="2.1" height="2.2"/>
	<rect x="13.6" y="4.2" class="st7" width="2.1" height="2.1"/>
	<rect x="13.6" y="2.1" class="st7" width="2.1" height="2.1"/>
	<rect x="13.6" y="0" class="st9" width="2.1" height="2.2"/>
	<rect x="11.5" y="35.8" class="st7" width="2.1" height="2.2"/>
	<rect x="11.5" y="33.7" class="st6" width="2.1" height="2.1"/>
	<rect x="11.5" y="31.6" class="st3" width="2.1" height="2.2"/>
	<rect x="11.5" y="29.5" class="st6" width="2.1" height="2.1"/>
	<rect x="11.5" y="27.3" class="st7" width="2.1" height="2.2"/>
	<rect x="11.5" y="25.3" class="st7" width="2.1" height="2.1"/>
	<rect x="11.5" y="23.1" class="st6" width="2.1" height="2.2"/>
	<rect x="11.5" y="21.1" class="st6" width="2.1" height="2.1"/>
	<rect x="11.5" y="18.9" class="st6" width="2.1" height="2.2"/>
	<rect x="11.5" y="16.9" class="st7" width="2.1" height="2.1"/>
	<rect x="11.5" y="14.7" class="st3" width="2.1" height="2.2"/>
	<rect x="11.5" y="12.6" class="st3" width="2.1" height="2.1"/>
	<rect x="11.5" y="10.5" class="st6" width="2.1" height="2.2"/>
	<rect x="11.5" y="8.4" class="st7" width="2.1" height="2.1"/>
	<rect x="11.5" y="6.3" class="st7" width="2.1" height="2.2"/>
	<rect x="11.5" y="4.2" class="st6" width="2.1" height="2.1"/>
	<rect x="11.5" y="2.1" class="st9" width="2.1" height="2.1"/>
	<rect x="9.3" y="35.8" class="st9" width="2.2" height="2.2"/>
	<rect x="9.3" y="33.7" class="st6" width="2.2" height="2.1"/>
	<rect x="9.3" y="31.6" class="st7" width="2.2" height="2.2"/>
	<rect x="9.3" y="29.5" class="st6" width="2.2" height="2.1"/>
	<rect x="9.3" y="27.3" class="st7" width="2.2" height="2.2"/>
	<rect x="9.3" y="25.3" class="st7" width="2.2" height="2.1"/>
	<rect x="9.3" y="23.1" class="st6" width="2.2" height="2.2"/>
	<rect x="9.3" y="21.1" class="st6" width="2.2" height="2.1"/>
	<rect x="9.3" y="18.9" class="st6" width="2.2" height="2.2"/>
	<rect x="9.3" y="16.9" class="st7" width="2.2" height="2.1"/>
	<rect x="9.3" y="14.7" class="st7" width="2.2" height="2.2"/>
	<rect x="9.3" y="12.6" class="st3" width="2.2" height="2.1"/>
	<rect x="9.3" y="10.5" class="st3" width="2.2" height="2.2"/>
	<rect x="9.3" y="8.4" class="st6" width="2.2" height="2.1"/>
	<rect x="9.3" y="6.3" class="st7" width="2.2" height="2.2"/>
	<rect x="9.3" y="4.2" class="st8" width="2.2" height="2.1"/>
	<rect x="9.3" y="2.1" class="st8" width="2.2" height="2.1"/>
	<rect x="7.3" y="33.7" class="st8" width="2.1" height="2.1"/>
	<rect x="7.3" y="31.6" class="st7" width="2.1" height="2.2"/>
	<rect x="7.3" y="29.5" class="st6" width="2.1" height="2.1"/>
	<rect x="7.3" y="27.3" class="st7" width="2.1" height="2.2"/>
	<rect x="7.3" y="25.3" class="st7" width="2.1" height="2.1"/>
	<rect x="7.3" y="23.1" class="st6" width="2.1" height="2.2"/>
	<rect x="7.3" y="21.1" class="st6" width="2.1" height="2.1"/>
	<rect x="7.3" y="18.9" class="st6" width="2.1" height="2.2"/>
	<rect x="7.3" y="16.9" class="st6" width="2.1" height="2.1"/>
	<rect x="7.3" y="14.7" class="st7" width="2.1" height="2.2"/>
	<rect x="7.3" y="12.6" class="st7" width="2.1" height="2.1"/>
	<rect x="7.3" y="10.5" class="st7" width="2.1" height="2.2"/>
	<rect x="7.3" y="8.4" class="st6" width="2.1" height="2.1"/>
	<rect x="7.3" y="6.3" class="st7" width="2.1" height="2.2"/>
	<rect x="7.3" y="4.2" class="st8" width="2.1" height="2.1"/>
	<rect x="5.1" y="31.6" class="st9" width="2.2" height="2.2"/>
	<rect x="5.1" y="29.5" class="st6" width="2.2" height="2.1"/>
	<rect x="5.1" y="27.3" class="st8" width="2.2" height="2.2"/>
	<rect x="5.1" y="25.3" class="st3" width="2.2" height="2.1"/>
	<rect x="5.1" y="23.1" class="st6" width="2.2" height="2.2"/>
	<rect x="5.1" y="21.1" class="st6" width="2.2" height="2.1"/>
	<rect x="5.1" y="18.9" class="st6" width="2.2" height="2.2"/>
	<rect x="5.1" y="16.9" class="st6" width="2.2" height="2.1"/>
	<rect x="5.1" y="14.7" class="st6" width="2.2" height="2.2"/>
	<rect x="5.1" y="12.6" class="st7" width="2.2" height="2.1"/>
	<rect x="5.1" y="10.5" class="st8" width="2.2" height="2.2"/>
	<rect x="5.1" y="8.4" class="st7" width="2.2" height="2.1"/>
	<rect x="5.1" y="6.3" class="st9" width="2.2" height="2.2"/>
	<rect x="3.1" y="29.5" class="st8" width="2.1" height="2.1"/>
	<rect x="3.1" y="27.3" class="st8" width="2.1" height="2.2"/>
	<rect x="3.1" y="25.3" class="st7" width="2.1" height="2.1"/>
	<rect x="3.1" y="23.1" class="st7" width="2.1" height="2.2"/>
	<rect x="3.1" y="21.1" class="st8" width="2.1" height="2.1"/>
	<rect x="3.1" y="18.9" class="st8" width="2.1" height="2.2"/>
	<rect x="3.1" y="16.9" class="st8" width="2.1" height="2.1"/>
	<rect x="3.1" y="14.7" class="st8" width="2.1" height="2.2"/>
	<rect x="3.1" y="12.6" class="st7" width="2.1" height="2.1"/>
	<rect x="3.1" y="10.5" class="st8" width="2.1" height="2.2"/>
	<rect x="3.1" y="8.4" class="st9" width="2.1" height="2.1"/>
	<rect x="0.9" y="25.3" class="st9" width="2.2" height="2.1"/>
	<rect x="0.9" y="23.1" class="st9" width="2.2" height="2.2"/>
	<rect x="0.9" y="21.1" class="st8" width="2.2" height="2.1"/>
	<rect x="0.9" y="18.9" class="st8" width="2.2" height="2.2"/>
	<rect x="0.9" y="16.9" class="st8" width="2.2" height="2.1"/>
	<rect x="0.9" y="14.7" class="st8" width="2.2" height="2.2"/>
	<rect x="0.9" y="12.6" class="st9" width="2.2" height="2.1"/>
</g>
<g>
	<rect x="39.8" y="61" class="st10" width="2.2" height="2.1"/>
	<rect x="39.8" y="58.8" class="st10" width="2.2" height="2.2"/>
	<rect x="39.8" y="56.8" class="st10" width="2.2" height="2.1"/>
	<rect x="37.7" y="65.2" class="st10" width="2.1" height="2.1"/>
	<rect x="37.7" y="63" class="st10" width="2.1" height="2.2"/>
	<rect x="37.7" y="61" class="st11" width="2.1" height="2.1"/>
	<rect x="37.7" y="58.8" class="st11" width="2.1" height="2.2"/>
	<rect x="37.7" y="56.8" class="st11" width="2.1" height="2.1"/>
	<rect x="37.7" y="54.7" class="st10" width="2.1" height="2.1"/>
	<rect x="37.7" y="52.5" class="st10" width="2.1" height="2.2"/>
	<rect x="35.6" y="67.3" class="st10" width="2.1" height="2.1"/>
	<rect x="35.6" y="65.2" class="st11" width="2.1" height="2.1"/>
	<rect x="35.6" y="63" class="st11" width="2.1" height="2.2"/>
	<rect x="35.6" y="61" class="st12" width="2.1" height="2.1"/>
	<rect x="35.6" y="58.8" class="st11" width="2.1" height="2.2"/>
	<rect x="35.6" y="56.8" class="st12" width="2.1" height="2.1"/>
	<rect x="35.6" y="54.7" class="st11" width="2.1" height="2.1"/>
	<rect x="35.6" y="52.5" class="st11" width="2.1" height="2.2"/>
	<rect x="35.6" y="50.5" class="st10" width="2.1" height="2.1"/>
	<rect x="33.5" y="71.5" class="st10" width="2.2" height="2.1"/>
	<rect x="33.5" y="69.3" class="st10" width="2.2" height="2.2"/>
	<rect x="33.5" y="67.3" class="st11" width="2.2" height="2.1"/>
	<rect x="33.5" y="65.2" class="st13" width="2.2" height="2.1"/>
	<rect x="33.5" y="63" class="st12" width="2.2" height="2.2"/>
	<rect x="33.5" y="61" class="st11" width="2.2" height="2.1"/>
	<rect x="33.5" y="58.8" class="st12" width="2.2" height="2.2"/>
	<rect x="33.5" y="56.8" class="st11" width="2.2" height="2.1"/>
	<rect x="33.5" y="54.7" class="st12" width="2.2" height="2.1"/>
	<rect x="33.5" y="52.5" class="st11" width="2.2" height="2.2"/>
	<rect x="33.5" y="50.5" class="st12" width="2.2" height="2.1"/>
	<rect x="33.5" y="48.4" class="st10" width="2.2" height="2.1"/>
	<rect x="31.4" y="71.5" class="st10" width="2.1" height="2.1"/>
	<rect x="31.4" y="69.3" class="st11" width="2.1" height="2.2"/>
	<rect x="31.4" y="67.3" class="st12" width="2.1" height="2.1"/>
	<rect x="31.4" y="65.2" class="st12" width="2.1" height="2.1"/>
	<rect x="31.4" y="63" class="st13" width="2.1" height="2.2"/>
	<rect x="31.4" y="61" class="st12" width="2.1" height="2.1"/>
	<rect x="31.4" y="58.8" class="st12" width="2.1" height="2.2"/>
	<rect x="31.4" y="56.8" class="st12" width="2.1" height="2.1"/>
	<rect x="31.4" y="54.7" class="st12" width="2.1" height="2.1"/>
	<rect x="31.4" y="52.5" class="st14" width="2.1" height="2.2"/>
	<rect x="31.4" y="50.5" class="st11" width="2.1" height="2.1"/>
	<rect x="31.4" y="48.4" class="st11" width="2.1" height="2.1"/>
	<rect x="31.4" y="46.3" class="st10" width="2.1" height="2.2"/>
	<rect x="29.4" y="73.5" class="st10" width="2.1" height="2.1"/>
	<rect x="29.4" y="71.5" class="st11" width="2.1" height="2.1"/>
	<rect x="29.4" y="69.3" class="st12" width="2.1" height="2.2"/>
	<rect x="29.4" y="67.3" class="st12" width="2.1" height="2.1"/>
	<rect x="29.4" y="65.2" class="st13" width="2.1" height="2.1"/>
	<rect x="29.4" y="63" class="st12" width="2.1" height="2.2"/>
	<rect x="29.4" y="61" class="st14" width="2.1" height="2.1"/>
	<rect x="29.4" y="58.8" class="st13" width="2.1" height="2.2"/>
	<rect x="29.4" y="56.8" class="st12" width="2.1" height="2.1"/>
	<rect x="29.4" y="54.7" class="st13" width="2.1" height="2.1"/>
	<rect x="29.4" y="52.5" class="st12" width="2.1" height="2.2"/>
	<rect x="29.4" y="50.5" class="st12" width="2.1" height="2.1"/>
	<rect x="29.4" y="48.4" class="st11" width="2.1" height="2.1"/>
	<rect x="29.4" y="46.3" class="st12" width="2.1" height="2.2"/>
	<rect x="29.4" y="44.2" class="st10" width="2.1" height="2.1"/>
	<rect x="27.2" y="75.6" class="st10" width="2.2" height="2.2"/>
	<rect x="27.2" y="73.5" class="st11" width="2.2" height="2.1"/>
	<rect x="27.2" y="71.5" class="st11" width="2.2" height="2.1"/>
	<rect x="27.2" y="69.3" class="st13" width="2.2" height="2.2"/>
	<rect x="27.2" y="67.3" class="st12" width="2.2" height="2.1"/>
	<rect x="27.2" y="65.2" class="st13" width="2.2" height="2.1"/>
	<rect x="27.2" y="63" class="st14" width="2.2" height="2.2"/>
	<rect x="27.2" y="61" class="st13" width="2.2" height="2.1"/>
	<rect x="27.2" y="58.8" class="st14" width="2.2" height="2.2"/>
	<rect x="27.2" y="56.8" class="st13" width="2.2" height="2.1"/>
	<rect x="27.2" y="54.7" class="st12" width="2.2" height="2.1"/>
	<rect x="27.2" y="52.5" class="st12" width="2.2" height="2.2"/>
	<rect x="27.2" y="50.5" class="st14" width="2.2" height="2.1"/>
	<rect x="27.2" y="48.4" class="st12" width="2.2" height="2.1"/>
	<rect x="27.2" y="46.3" class="st11" width="2.2" height="2.2"/>
	<rect x="27.2" y="44.2" class="st11" width="2.2" height="2.1"/>
	<rect x="27.2" y="42" class="st10" width="2.2" height="2.2"/>
	<rect x="25.1" y="75.6" class="st10" width="2.1" height="2.2"/>
	<rect x="25.1" y="73.5" class="st12" width="2.1" height="2.1"/>
	<rect x="25.1" y="71.5" class="st13" width="2.1" height="2.1"/>
	<rect x="25.1" y="69.3" class="st15" width="2.1" height="2.2"/>
	<rect x="25.1" y="67.3" class="st13" width="2.1" height="2.1"/>
	<rect x="25.1" y="65.2" class="st12" width="2.1" height="2.1"/>
	<rect x="25.1" y="63" class="st14" width="2.1" height="2.2"/>
	<rect x="25.1" y="61" class="st14" width="2.1" height="2.1"/>
	<rect x="25.1" y="58.8" class="st14" width="2.1" height="2.2"/>
	<rect x="25.1" y="56.8" class="st14" width="2.1" height="2.1"/>
	<rect x="25.1" y="54.7" class="st13" width="2.1" height="2.1"/>
	<rect x="25.1" y="52.5" class="st13" width="2.1" height="2.2"/>
	<rect x="25.1" y="50.5" class="st12" width="2.1" height="2.1"/>
	<rect x="25.1" y="48.4" class="st12" width="2.1" height="2.1"/>
	<rect x="25.1" y="46.3" class="st12" width="2.1" height="2.2"/>
	<rect x="25.1" y="44.2" class="st11" width="2.1" height="2.1"/>
	<rect x="25.1" y="42" class="st10" width="2.1" height="2.2"/>
	<rect x="23" y="77.8" class="st10" width="2.2" height="2.1"/>
	<rect x="23" y="75.6" class="st11" width="2.2" height="2.2"/>
	<rect x="23" y="73.5" class="st11" width="2.2" height="2.1"/>
	<rect x="23" y="71.5" class="st13" width="2.2" height="2.1"/>
	<rect x="23" y="69.3" class="st14" width="2.2" height="2.2"/>
	<rect x="23" y="67.3" class="st14" width="2.2" height="2.1"/>
	<rect x="23" y="65.2" class="st14" width="2.2" height="2.1"/>
	<rect x="23" y="63" class="st14" width="2.2" height="2.2"/>
	<rect x="23" y="61" class="st15" width="2.2" height="2.1"/>
	<rect x="23" y="58.8" class="st13" width="2.2" height="2.2"/>
	<rect x="23" y="56.8" class="st14" width="2.2" height="2.1"/>
	<rect x="23" y="54.7" class="st12" width="2.2" height="2.1"/>
	<rect x="23" y="52.5" class="st12" width="2.2" height="2.2"/>
	<rect x="23" y="50.5" class="st13" width="2.2" height="2.1"/>
	<rect x="23" y="48.4" class="st12" width="2.2" height="2.1"/>
	<rect x="23" y="46.3" class="st13" width="2.2" height="2.2"/>
	<rect x="23" y="44.2" class="st12" width="2.2" height="2.1"/>
	<rect x="23" y="42" class="st11" width="2.2" height="2.2"/>
	<rect x="23" y="40" class="st10" width="2.2" height="2.1"/>
	<rect x="20.9" y="77.8" class="st10" width="2.1" height="2.1"/>
	<rect x="20.9" y="75.6" class="st11" width="2.1" height="2.2"/>
	<rect x="20.9" y="73.5" class="st12" width="2.1" height="2.1"/>
	<rect x="20.9" y="71.5" class="st12" width="2.1" height="2.1"/>
	<rect x="20.9" y="69.3" class="st13" width="2.1" height="2.2"/>
	<rect x="20.9" y="67.3" class="st13" width="2.1" height="2.1"/>
	<rect x="20.9" y="65.2" class="st14" width="2.1" height="2.1"/>
	<rect x="20.9" y="63" class="st14" width="2.1" height="2.2"/>
	<rect x="20.9" y="61" class="st15" width="2.1" height="2.1"/>
	<rect x="20.9" y="58.8" class="st14" width="2.1" height="2.2"/>
	<rect x="20.9" y="56.8" class="st14" width="2.1" height="2.1"/>
	<rect x="20.9" y="54.7" class="st13" width="2.1" height="2.1"/>
	<rect x="20.9" y="52.5" class="st13" width="2.1" height="2.2"/>
	<rect x="20.9" y="50.5" class="st14" width="2.1" height="2.1"/>
	<rect x="20.9" y="48.4" class="st13" width="2.1" height="2.1"/>
	<rect x="20.9" y="46.3" class="st12" width="2.1" height="2.2"/>
	<rect x="20.9" y="44.2" class="st11" width="2.1" height="2.1"/>
	<rect x="20.9" y="42" class="st11" width="2.1" height="2.2"/>
	<rect x="20.9" y="40" class="st10" width="2.1" height="2.1"/>
	<rect x="18.9" y="75.6" class="st10" width="2.1" height="2.2"/>
	<rect x="18.9" y="73.5" class="st14" width="2.1" height="2.1"/>
	<rect x="18.9" y="71.5" class="st12" width="2.1" height="2.1"/>
	<rect x="18.9" y="69.3" class="st13" width="2.1" height="2.2"/>
	<rect x="18.9" y="67.3" class="st14" width="2.1" height="2.1"/>
	<rect x="18.9" y="65.2" class="st15" width="2.1" height="2.1"/>
	<rect x="18.9" y="63" class="st15" width="2.1" height="2.2"/>
	<rect x="18.9" y="61" class="st15" width="2.1" height="2.1"/>
	<rect x="18.9" y="58.8" class="st15" width="2.1" height="2.2"/>
	<rect x="18.9" y="56.8" class="st14" width="2.1" height="2.1"/>
	<rect x="18.9" y="54.7" class="st15" width="2.1" height="2.1"/>
	<rect x="18.9" y="52.5" class="st14" width="2.1" height="2.2"/>
	<rect x="18.9" y="50.5" class="st15" width="2.1" height="2.1"/>
	<rect x="18.9" y="48.4" class="st14" width="2.1" height="2.1"/>
	<rect x="18.9" y="46.3" class="st13" width="2.1" height="2.2"/>
	<rect x="18.9" y="44.2" class="st12" width="2.1" height="2.1"/>
	<rect x="18.9" y="42" class="st11" width="2.1" height="2.2"/>
	<rect x="18.9" y="40" class="st10" width="2.1" height="2.1"/>
	<rect x="16.7" y="75.6" class="st10" width="2.2" height="2.2"/>
	<rect x="16.7" y="73.5" class="st11" width="2.2" height="2.1"/>
	<rect x="16.7" y="71.5" class="st13" width="2.2" height="2.1"/>
	<rect x="16.7" y="69.3" class="st12" width="2.2" height="2.2"/>
	<rect x="16.7" y="67.3" class="st13" width="2.2" height="2.1"/>
	<rect x="16.7" y="65.2" class="st14" width="2.2" height="2.1"/>
	<rect x="16.7" y="63" class="st14" width="2.2" height="2.2"/>
	<rect x="16.7" y="61" class="st15" width="2.2" height="2.1"/>
	<rect x="16.7" y="58.8" class="st14" width="2.2" height="2.2"/>
	<rect x="16.7" y="56.8" class="st14" width="2.2" height="2.1"/>
	<rect x="16.7" y="54.7" class="st12" width="2.2" height="2.1"/>
	<rect x="16.7" y="52.5" class="st13" width="2.2" height="2.2"/>
	<rect x="16.7" y="50.5" class="st12" width="2.2" height="2.1"/>
	<rect x="16.7" y="48.4" class="st13" width="2.2" height="2.1"/>
	<rect x="16.7" y="46.3" class="st12" width="2.2" height="2.2"/>
	<rect x="16.7" y="44.2" class="st12" width="2.2" height="2.1"/>
	<rect x="16.7" y="42" class="st12" width="2.2" height="2.2"/>
	<rect x="16.7" y="40" class="st10" width="2.2" height="2.1"/>
	<rect x="14.6" y="75.6" class="st10" width="2.1" height="2.2"/>
	<rect x="14.6" y="73.5" class="st12" width="2.1" height="2.1"/>
	<rect x="14.6" y="71.5" class="st11" width="2.1" height="2.1"/>
	<rect x="14.6" y="69.3" class="st12" width="2.1" height="2.2"/>
	<rect x="14.6" y="67.3" class="st13" width="2.1" height="2.1"/>
	<rect x="14.6" y="65.2" class="st14" width="2.1" height="2.1"/>
	<rect x="14.6" y="63" class="st14" width="2.1" height="2.2"/>
	<rect x="14.6" y="61" class="st14" width="2.1" height="2.1"/>
	<rect x="14.6" y="58.8" class="st14" width="2.1" height="2.2"/>
	<rect x="14.6" y="56.8" class="st13" width="2.1" height="2.1"/>
	<rect x="14.6" y="54.7" class="st13" width="2.1" height="2.1"/>
	<rect x="14.6" y="52.5" class="st14" width="2.1" height="2.2"/>
	<rect x="14.6" y="50.5" class="st13" width="2.1" height="2.1"/>
	<rect x="14.6" y="48.4" class="st12" width="2.1" height="2.1"/>
	<rect x="14.6" y="46.3" class="st12" width="2.1" height="2.2"/>
	<rect x="14.6" y="44.2" class="st11" width="2.1" height="2.1"/>
	<rect x="14.6" y="42" class="st11" width="2.1" height="2.2"/>
	<rect x="14.6" y="40" class="st10" width="2.1" height="2.1"/>
	<rect x="12.6" y="73.5" class="st10" width="2.1" height="2.1"/>
	<rect x="12.6" y="71.5" class="st11" width="2.1" height="2.1"/>
	<rect x="12.6" y="69.3" class="st12" width="2.1" height="2.2"/>
	<rect x="12.6" y="67.3" class="st13" width="2.1" height="2.1"/>
	<rect x="12.6" y="65.2" class="st15" width="2.1" height="2.1"/>
	<rect x="12.6" y="63" class="st13" width="2.1" height="2.2"/>
	<rect x="12.6" y="61" class="st14" width="2.1" height="2.1"/>
	<rect x="12.6" y="58.8" class="st13" width="2.1" height="2.2"/>
	<rect x="12.6" y="56.8" class="st14" width="2.1" height="2.1"/>
	<rect x="12.6" y="54.7" class="st13" width="2.1" height="2.1"/>
	<rect x="12.6" y="52.5" class="st12" width="2.1" height="2.2"/>
	<rect x="12.6" y="50.5" class="st12" width="2.1" height="2.1"/>
	<rect x="12.6" y="48.4" class="st12" width="2.1" height="2.1"/>
	<rect x="12.6" y="46.3" class="st11" width="2.1" height="2.2"/>
	<rect x="12.6" y="44.2" class="st11" width="2.1" height="2.1"/>
	<rect x="12.6" y="42" class="st10" width="2.1" height="2.2"/>
	<rect x="10.4" y="73.5" class="st10" width="2.2" height="2.1"/>
	<rect x="10.4" y="71.5" class="st11" width="2.2" height="2.1"/>
	<rect x="10.4" y="69.3" class="st14" width="2.2" height="2.2"/>
	<rect x="10.4" y="67.3" class="st12" width="2.2" height="2.1"/>
	<rect x="10.4" y="65.2" class="st13" width="2.2" height="2.1"/>
	<rect x="10.4" y="63" class="st13" width="2.2" height="2.2"/>
	<rect x="10.4" y="61" class="st15" width="2.2" height="2.1"/>
	<rect x="10.4" y="58.8" class="st12" width="2.2" height="2.2"/>
	<rect x="10.4" y="56.8" class="st13" width="2.2" height="2.1"/>
	<rect x="10.4" y="54.7" class="st12" width="2.2" height="2.1"/>
	<rect x="10.4" y="52.5" class="st14" width="2.2" height="2.2"/>
	<rect x="10.4" y="50.5" class="st12" width="2.2" height="2.1"/>
	<rect x="10.4" y="48.4" class="st11" width="2.2" height="2.1"/>
	<rect x="10.4" y="46.3" class="st11" width="2.2" height="2.2"/>
	<rect x="10.4" y="44.2" class="st12" width="2.2" height="2.1"/>
	<rect x="10.4" y="42" class="st10" width="2.2" height="2.2"/>
	<rect x="8.4" y="73.5" class="st10" width="2.1" height="2.1"/>
	<rect x="8.4" y="71.5" class="st12" width="2.1" height="2.1"/>
	<rect x="8.4" y="69.3" class="st11" width="2.1" height="2.2"/>
	<rect x="8.4" y="67.3" class="st12" width="2.1" height="2.1"/>
	<rect x="8.4" y="65.2" class="st13" width="2.1" height="2.1"/>
	<rect x="8.4" y="63" class="st12" width="2.1" height="2.2"/>
	<rect x="8.4" y="61" class="st14" width="2.1" height="2.1"/>
	<rect x="8.4" y="58.8" class="st13" width="2.1" height="2.2"/>
	<rect x="8.4" y="56.8" class="st12" width="2.1" height="2.1"/>
	<rect x="8.4" y="54.7" class="st12" width="2.1" height="2.1"/>
	<rect x="8.4" y="52.5" class="st11" width="2.1" height="2.2"/>
	<rect x="8.4" y="50.5" class="st11" width="2.1" height="2.1"/>
	<rect x="8.4" y="48.4" class="st12" width="2.1" height="2.1"/>
	<rect x="8.4" y="46.3" class="st11" width="2.1" height="2.2"/>
	<rect x="8.4" y="44.2" class="st10" width="2.1" height="2.1"/>
	<rect x="6.2" y="71.5" class="st10" width="2.2" height="2.1"/>
	<rect x="6.2" y="69.3" class="st11" width="2.2" height="2.2"/>
	<rect x="6.2" y="67.3" class="st11" width="2.2" height="2.1"/>
	<rect x="6.2" y="65.2" class="st12" width="2.2" height="2.1"/>
	<rect x="6.2" y="63" class="st12" width="2.2" height="2.2"/>
	<rect x="6.2" y="61" class="st13" width="2.2" height="2.1"/>
	<rect x="6.2" y="58.8" class="st12" width="2.2" height="2.2"/>
	<rect x="6.2" y="56.8" class="st13" width="2.2" height="2.1"/>
	<rect x="6.2" y="54.7" class="st11" width="2.2" height="2.1"/>
	<rect x="6.2" y="52.5" class="st12" width="2.2" height="2.2"/>
	<rect x="6.2" y="50.5" class="st11" width="2.2" height="2.1"/>
	<rect x="6.2" y="48.4" class="st11" width="2.2" height="2.1"/>
	<rect x="6.2" y="46.3" class="st10" width="2.2" height="2.2"/>
	<rect x="4.1" y="69.3" class="st10" width="2.1" height="2.2"/>
	<rect x="4.1" y="67.3" class="st11" width="2.1" height="2.1"/>
	<rect x="4.1" y="65.2" class="st11" width="2.1" height="2.1"/>
	<rect x="4.1" y="63" class="st11" width="2.1" height="2.2"/>
	<rect x="4.1" y="61" class="st12" width="2.1" height="2.1"/>
	<rect x="4.1" y="58.8" class="st12" width="2.1" height="2.2"/>
	<rect x="4.1" y="56.8" class="st12" width="2.1" height="2.1"/>
	<rect x="4.1" y="54.7" class="st11" width="2.1" height="2.1"/>
	<rect x="4.1" y="52.5" class="st11" width="2.1" height="2.2"/>
	<rect x="4.1" y="50.5" class="st10" width="2.1" height="2.1"/>
	<rect x="4.1" y="48.4" class="st10" width="2.1" height="2.1"/>
	<rect x="2.1" y="67.3" class="st10" width="2.1" height="2.1"/>
	<rect x="2.1" y="65.2" class="st10" width="2.1" height="2.1"/>
	<rect x="2.1" y="63" class="st11" width="2.1" height="2.2"/>
	<rect x="2.1" y="61" class="st12" width="2.1" height="2.1"/>
	<rect x="2.1" y="58.8" class="st11" width="2.1" height="2.2"/>
	<rect x="2.1" y="56.8" class="st11" width="2.1" height="2.1"/>
	<rect x="2.1" y="54.7" class="st10" width="2.1" height="2.1"/>
	<rect x="2.1" y="52.5" class="st10" width="2.1" height="2.2"/>
	<rect x="-0.1" y="63" class="st10" width="2.2" height="2.2"/>
	<rect x="-0.1" y="61" class="st10" width="2.2" height="2.1"/>
	<rect x="-0.1" y="58.8" class="st10" width="2.2" height="2.2"/>
	<rect x="-0.1" y="56.8" class="st10" width="2.2" height="2.1"/>
</g>
</svg>
