<?xml version="1.0" encoding="utf-8"?>
<!-- Generator: Adobe Illustrator 26.0.1, SVG Export Plug-In . SVG Version: 6.00 Build 0)  -->
<svg version="1.1" id="Layer_1" xmlns="http://www.w3.org/2000/svg" xmlns:xlink="http://www.w3.org/1999/xlink" x="0px" y="0px"
	 width="25px" height="20px" viewBox="0 0 25 20" style="enable-background:new 0 0 25 20;" xml:space="preserve">
<style type="text/css">
	.st0{fill:#1E2235;}
	.st1{fill:url(#SVGID_1_);}
	.st2{fill:#1B2162;}
	.st3{fill:#252D88;}
	.st4{fill:#2D37A3;}
	.st5{fill:#424DCB;}
	.st6{fill:#00B7FF;}
	.st7{fill:#0261CC;}
	.st8{fill:#380762;}
	.st9{fill:#370C45;}
	.st10{fill:#703991;}
	.st11{fill:#A046C2;}
	.st12{fill:#543175;}
	.st13{fill:#FFFFFF;}
	.st14{fill:#B947C0;}
	.st15{fill:#DB8EE3;}
	.st16{fill:#8B0975;}
	.st17{fill:#BD3151;}
	.st18{fill:#CC3154;}
	.st19{fill:#FF7261;}
	.st20{fill:#BF2C4E;}
	.st21{fill:#FE9867;}
	.st22{fill:#EF3A65;}
	.st23{fill:#FFAD6E;}
	.st24{fill:#FA559F;}
	.st25{fill:#FCE00A;}
	.st26{fill:#837CC2;}
	.st27{fill:#0284DB;}
	.st28{fill:#BFBAF0;}
	.st29{fill:#5E4194;}
	.st30{fill:#755AC1;}
	.st31{fill:#A8A3D2;}
	.st32{fill:#5D75C2;}
	.st33{fill:#6D85CF;}
	.st34{fill:#89C7DE;}
	.st35{opacity:0.5;}
	.st36{fill:#FF001F;}
	.st37{fill:#97C1FF;}
	.st38{fill:#FFF203;}
	.st39{fill:#0086FF;}
	.st40{display:none;}
	.st41{display:inline;fill:#370C45;}
	.st42{display:inline;fill:#FE9867;}
	.st43{display:inline;fill:#FA559F;}
	.st44{display:inline;fill:#EF3A65;}
	.st45{display:inline;fill:#CC3154;}
	.st46{display:inline;fill:#FF7261;}
	.st47{display:inline;fill:#8B0975;}
	.st48{display:inline;fill:#380762;}
	.st49{display:inline;fill:#B947C0;}
	.st50{display:inline;fill:#BD3151;}
	.st51{display:inline;fill:#BF2C4E;}
	.st52{display:inline;fill:#FFAD6E;}
	.st53{fill:#FCEB6A;}
	.st54{fill:#F2C50F;}
	.st55{fill:#8ADD8A;}
	.st56{fill:#00FF00;}
	.st57{fill:#07D607;}
	.st58{fill:#05CC0A;}
	.st59{fill:#482A63;}
	.st60{fill:#DE990E;}
	.st61{fill:#009DFF;}
	.st62{fill:#E8AB0E;}
	.st63{fill:#72A614;}
	.st64{fill:#A7E007;}
	.st65{fill:#699C18;}
	.st66{fill:#6D9E16;}
	.st67{fill:#84BF15;}
	.st68{fill:#3A4F93;}
	.st69{fill:#2D3B70;}
	.st70{fill:none;stroke:#1B2442;stroke-miterlimit:10;}
	.st71{opacity:0;fill:#171A33;}
	.st72{fill:#FFFB00;}
	.st73{opacity:0.2;}
	.st74{fill:#42061A;}
</style>
<g>
	<g>
		<rect x="23.0779209" y="12.0001183" class="st29" width="1.2915295" height="1.2915295"/>
		<rect x="21.7237549" y="14.645813" class="st9" width="1.3541654" height="1.2883319"/>
		<rect x="21.7237549" y="13.2916479" class="st29" width="1.3541654" height="1.3541654"/>
		<rect x="21.7237549" y="12.0001183" class="st30" width="1.3541654" height="1.2915295"/>
		<rect x="21.7237549" y="10.6456394" class="st29" width="1.3541654" height="1.354479"/>
		<rect x="20.4354229" y="14.645813" class="st8" width="1.2883319" height="1.2883319"/>
		<rect x="20.4354229" y="13.2916479" class="st30" width="1.2883319" height="1.3541654"/>
		<rect x="20.4354229" y="12.0001183" class="st26" width="1.2883319" height="1.2915295"/>
		<rect x="20.4354229" y="10.6456394" class="st30" width="1.2883319" height="1.354479"/>
		<rect x="20.4354229" y="9.3544235" class="st29" width="1.2883319" height="1.291216"/>
		<rect x="19.0813198" y="14.645813" class="st29" width="1.3541027" height="1.2883319"/>
		<rect x="19.0813198" y="13.2916479" class="st30" width="1.3541027" height="1.3541654"/>
		<rect x="19.0813198" y="12.0001183" class="st31" width="1.3541027" height="1.2915295"/>
		<rect x="19.0813198" y="10.6456394" class="st26" width="1.3541027" height="1.354479"/>
		<rect x="19.0813198" y="9.3544235" class="st30" width="1.3541027" height="1.291216"/>
		<rect x="19.0813198" y="7.9999442" class="st29" width="1.3541027" height="1.354479"/>
		<rect x="17.7897282" y="14.645813" class="st29" width="1.2915922" height="1.2883319"/>
		<rect x="17.7897282" y="13.2916479" class="st26" width="1.2915922" height="1.3541654"/>
		<rect x="17.7897282" y="12.0001183" class="st31" width="1.2915922" height="1.2915295"/>
		<rect x="17.7897282" y="10.6456394" class="st31" width="1.2915922" height="1.354479"/>
		<rect x="17.7897282" y="9.3544235" class="st26" width="1.2915922" height="1.291216"/>
		<rect x="17.7897282" y="7.9999442" class="st30" width="1.2915922" height="1.354479"/>
		<rect x="17.7897282" y="6.708415" class="st29" width="1.2915922" height="1.2915295"/>
		<rect x="16.4356251" y="15.934145" class="st29" width="1.3541027" height="1.3541027"/>
		<rect x="16.4356251" y="14.645813" class="st30" width="1.3541027" height="1.2883319"/>
		<rect x="16.4356251" y="13.2916479" class="st29" width="1.3541027" height="1.3541654"/>
		<rect x="16.4356251" y="12.0001183" class="st31" width="1.3541027" height="1.2915295"/>
		<rect x="16.4356251" y="10.6456394" class="st31" width="1.3541027" height="1.354479"/>
		<rect x="16.4356251" y="9.3544235" class="st31" width="1.3541027" height="1.291216"/>
		<rect x="16.4356251" y="7.9999442" class="st26" width="1.3541027" height="1.354479"/>
		<rect x="16.4356251" y="6.708415" class="st30" width="1.3541027" height="1.2915295"/>
		<rect x="16.4356251" y="5.3542495" class="st29" width="1.3541027" height="1.3541654"/>
		<rect x="15.1440964" y="15.934145" class="st30" width="1.2915295" height="1.3541027"/>
		<rect x="15.1440964" y="14.645813" class="st26" width="1.2915295" height="1.2883319"/>
		<rect x="15.1440964" y="13.2916479" class="st30" width="1.2915295" height="1.3541654"/>
		<rect x="15.1440964" y="12.0001183" class="st29" width="1.2915295" height="1.2915295"/>
		<rect x="15.1440964" y="10.6456394" class="st31" width="1.2915295" height="1.354479"/>
		<rect x="15.1440964" y="9.3544235" class="st31" width="1.2915295" height="1.291216"/>
		<rect x="15.1440964" y="7.9999442" class="st32" width="1.2915295" height="1.354479"/>
		<rect x="15.1440964" y="6.708415" class="st26" width="1.2915295" height="1.2915295"/>
		<rect x="15.1440964" y="5.3542495" class="st30" width="1.2915295" height="1.3541654"/>
		<rect x="15.1440964" y="4.0659175" class="st29" width="1.2915295" height="1.2883319"/>
		<rect x="13.7899933" y="17.2882481" class="st29" width="1.3541027" height="1.2915295"/>
		<rect x="13.7899933" y="15.934145" class="st26" width="1.3541027" height="1.3541027"/>
		<rect x="13.7899933" y="14.645813" class="st31" width="1.3541027" height="1.2883319"/>
		<rect x="13.7899933" y="13.2916479" class="st26" width="1.3541027" height="1.3541654"/>
		<rect x="13.7899933" y="12.0001183" class="st30" width="1.3541027" height="1.2915295"/>
		<rect x="13.7899933" y="10.6456394" class="st29" width="1.3541027" height="1.354479"/>
		<rect x="13.7899933" y="9.3544235" class="st31" width="1.3541027" height="1.291216"/>
		<rect x="13.7899933" y="7.9999442" class="st32" width="1.3541027" height="1.354479"/>
		<rect x="13.7899933" y="6.708415" class="st32" width="1.3541027" height="1.2915295"/>
		<rect x="13.7899933" y="5.3542495" class="st31" width="1.3541027" height="1.3541654"/>
		<rect x="13.7899933" y="4.0659175" class="st26" width="1.3541027" height="1.2883319"/>
		<rect x="13.7899933" y="2.7743881" class="st26" width="1.3541027" height="1.2915295"/>
		<rect x="12.4984016" y="17.2882481" class="st26" width="1.2915922" height="1.2915295"/>
		<rect x="12.4984016" y="15.934145" class="st31" width="1.2915922" height="1.3541027"/>
		<rect x="12.4984016" y="14.645813" class="st31" width="1.2915922" height="1.2883319"/>
		<rect x="12.4984016" y="13.2916479" class="st31" width="1.2915922" height="1.3541654"/>
		<rect x="12.4984016" y="12.0001183" class="st26" width="1.2915922" height="1.2915295"/>
		<rect x="12.4984016" y="10.6456394" class="st30" width="1.2915922" height="1.354479"/>
		<rect x="12.4984016" y="9.3544235" class="st29" width="1.2915922" height="1.291216"/>
		<rect x="12.4984016" y="7.9999442" class="st33" width="1.2915922" height="1.354479"/>
		<rect x="12.4984016" y="6.708415" class="st33" width="1.2915922" height="1.2915295"/>
		<rect x="12.4984016" y="5.3542495" class="st32" width="1.2915922" height="1.3541654"/>
		<rect x="12.4984016" y="4.0659175" class="st31" width="1.2915922" height="1.2883319"/>
		<rect x="12.4984016" y="2.7743881" class="st26" width="1.2915922" height="1.2915295"/>
		<rect x="12.4984016" y="1.4202228" class="st26" width="1.2915922" height="1.3541654"/>
		<rect x="11.143671" y="17.2882481" class="st28" width="1.3547298" height="1.2915295"/>
		<rect x="11.143671" y="15.934145" class="st31" width="1.3547298" height="1.3541027"/>
		<rect x="11.143671" y="14.645813" class="st31" width="1.3547298" height="1.2883319"/>
		<rect x="11.143671" y="13.2916479" class="st31" width="1.3547298" height="1.3541654"/>
		<rect x="11.143671" y="12.0001183" class="st28" width="1.3547298" height="1.2915295"/>
		<rect x="11.143671" y="10.6456394" class="st28" width="1.3547298" height="1.354479"/>
		<rect x="11.143671" y="9.3544235" class="st30" width="1.3547298" height="1.291216"/>
		<rect x="11.143671" y="7.9999442" class="st33" width="1.3547298" height="1.354479"/>
		<rect x="11.143671" y="6.708415" class="st34" width="1.3547298" height="1.2915295"/>
		<rect x="11.143671" y="5.3542495" class="st34" width="1.3547298" height="1.3541654"/>
		<rect x="11.143671" y="4.0659175" class="st31" width="1.3547298" height="1.2883319"/>
		<rect x="11.143671" y="2.7743881" class="st26" width="1.3547298" height="1.2915295"/>
		<rect x="11.143671" y="1.4202228" class="st28" width="1.3547298" height="1.3541654"/>
		<rect x="9.8559666" y="17.2882481" class="st26" width="1.2877048" height="1.2915295"/>
		<rect x="9.8559666" y="15.934145" class="st31" width="1.2877048" height="1.3541027"/>
		<rect x="9.8559666" y="14.645813" class="st26" width="1.2877048" height="1.2883319"/>
		<rect x="9.8559666" y="13.2916479" class="st28" width="1.2877048" height="1.3541654"/>
		<rect x="9.8559666" y="12.0001183" class="st26" width="1.2877048" height="1.2915295"/>
		<rect x="9.8559666" y="10.6456394" class="st30" width="1.2877048" height="1.354479"/>
		<rect x="9.8559666" y="9.3544235" class="st31" width="1.2877048" height="1.291216"/>
		<rect x="9.8559666" y="7.9999442" class="st34" width="1.2877048" height="1.354479"/>
		<rect x="9.8559666" y="6.708415" class="st34" width="1.2877048" height="1.2915295"/>
		<rect x="9.8559666" y="5.3542495" class="st31" width="1.2877048" height="1.3541654"/>
		<rect x="9.8559666" y="4.0659175" class="st26" width="1.2877048" height="1.2883319"/>
		<rect x="9.8559666" y="2.7743881" class="st28" width="1.2877048" height="1.2915295"/>
		<rect x="8.4979763" y="15.934145" class="st26" width="1.35799" height="1.3541027"/>
		<rect x="8.4979763" y="14.645813" class="st28" width="1.35799" height="1.2883319"/>
		<rect x="8.4979763" y="13.2916479" class="st26" width="1.35799" height="1.3541654"/>
		<rect x="8.4979763" y="12.0001183" class="st30" width="1.35799" height="1.2915295"/>
		<rect x="8.4979763" y="10.6456394" class="st31" width="1.35799" height="1.354479"/>
		<rect x="8.4979763" y="9.3544235" class="st31" width="1.35799" height="1.291216"/>
		<rect x="8.4979763" y="7.9999442" class="st34" width="1.35799" height="1.354479"/>
		<rect x="8.4979763" y="6.708415" class="st31" width="1.35799" height="1.2915295"/>
		<rect x="8.4979763" y="5.3542495" class="st26" width="1.35799" height="1.3541654"/>
		<rect x="8.4979763" y="4.0659175" class="st28" width="1.35799" height="1.2883319"/>
		<rect x="7.2102718" y="15.934145" class="st29" width="1.2877048" height="1.3541027"/>
		<rect x="7.2102718" y="14.645813" class="st29" width="1.2877048" height="1.2883319"/>
		<rect x="7.2102718" y="13.2916479" class="st30" width="1.2877048" height="1.3541654"/>
		<rect x="7.2102718" y="12.0001183" class="st31" width="1.2877048" height="1.2915295"/>
		<rect x="7.2102718" y="10.6456394" class="st31" width="1.2877048" height="1.354479"/>
		<rect x="7.2102718" y="9.3544235" class="st31" width="1.2877048" height="1.291216"/>
		<rect x="7.2102718" y="7.9999442" class="st31" width="1.2877048" height="1.354479"/>
		<rect x="7.2102718" y="6.708415" class="st26" width="1.2877048" height="1.2915295"/>
		<rect x="7.2102718" y="5.3542495" class="st28" width="1.2877048" height="1.3541654"/>
		<rect x="5.8554792" y="14.645813" class="st30" width="1.3547925" height="1.2883319"/>
		<rect x="5.8554792" y="13.2916479" class="st31" width="1.3547925" height="1.3541654"/>
		<rect x="5.8554792" y="12.0001183" class="st31" width="1.3547925" height="1.2915295"/>
		<rect x="5.8554792" y="10.6456394" class="st31" width="1.3547925" height="1.354479"/>
		<rect x="5.8554792" y="9.3544235" class="st31" width="1.3547925" height="1.291216"/>
		<rect x="5.8554792" y="7.9999442" class="st26" width="1.3547925" height="1.354479"/>
		<rect x="5.8554792" y="6.708415" class="st28" width="1.3547925" height="1.2915295"/>
		<rect x="4.5639496" y="14.645813" class="st26" width="1.2915295" height="1.2883319"/>
		<rect x="4.5639496" y="13.2916479" class="st31" width="1.2915295" height="1.3541654"/>
		<rect x="4.5639496" y="12.0001183" class="st31" width="1.2915295" height="1.2915295"/>
		<rect x="4.5639496" y="10.6456394" class="st31" width="1.2915295" height="1.354479"/>
		<rect x="4.5639496" y="9.3544235" class="st26" width="1.2915295" height="1.291216"/>
		<rect x="4.5639496" y="7.9999442" class="st28" width="1.2915295" height="1.354479"/>
		<rect x="3.2097843" y="14.645813" class="st8" width="1.3541654" height="1.2883319"/>
		<rect x="3.2097843" y="13.2916479" class="st26" width="1.3541654" height="1.3541654"/>
		<rect x="3.2097843" y="12.0001183" class="st31" width="1.3541654" height="1.2915295"/>
		<rect x="3.2097843" y="10.6456394" class="st26" width="1.3541654" height="1.354479"/>
		<rect x="3.2097843" y="9.3544235" class="st28" width="1.3541654" height="1.291216"/>
		<rect x="1.9182549" y="14.645813" class="st9" width="1.2915295" height="1.2883319"/>
		<rect x="1.9182549" y="13.2916479" class="st26" width="1.2915295" height="1.3541654"/>
		<rect x="1.9182549" y="12.0001183" class="st26" width="1.2915295" height="1.2915295"/>
		<rect x="1.9182549" y="10.6456394" class="st28" width="1.2915295" height="1.354479"/>
		<rect x="0.63055" y="12.0001183" class="st28" width="1.2877048" height="1.2915295"/>
	</g>
</g>
</svg>
