<?xml version="1.0" encoding="utf-8"?>
<!-- Generator: Adobe Illustrator 26.0.1, SVG Export Plug-In . SVG Version: 6.00 Build 0)  -->
<svg version="1.1" id="Layer_1" xmlns="http://www.w3.org/2000/svg" xmlns:xlink="http://www.w3.org/1999/xlink" x="0px" y="0px"
	 width="60px" height="40px" viewBox="0 0 60 40" style="enable-background:new 0 0 60 40;" xml:space="preserve">
<style type="text/css">
	.st0{fill:#1E2235;}
	.st1{fill:url(#SVGID_1_);}
	.st2{fill:#1B2162;}
	.st3{fill:#252D88;}
	.st4{fill:#2D37A3;}
	.st5{fill:#424DCB;}
	.st6{fill:#00B7FF;}
	.st7{fill:#0261CC;}
	.st8{fill:#380762;}
	.st9{fill:#370C45;}
	.st10{fill:#703991;}
	.st11{fill:#A046C2;}
	.st12{fill:#543175;}
	.st13{fill:#FFFFFF;}
	.st14{fill:#B947C0;}
	.st15{fill:#DB8EE3;}
	.st16{fill:#8B0975;}
	.st17{fill:#BD3151;}
	.st18{fill:#CC3154;}
	.st19{fill:#FF7261;}
	.st20{fill:#BF2C4E;}
	.st21{fill:#FE9867;}
	.st22{fill:#EF3A65;}
	.st23{fill:#FFAD6E;}
	.st24{fill:#FA559F;}
	.st25{fill:#FCE00A;}
	.st26{fill:#837CC2;}
	.st27{fill:#0284DB;}
	.st28{fill:#BFBAF0;}
	.st29{fill:#5E4194;}
	.st30{fill:#755AC1;}
	.st31{fill:#A8A3D2;}
	.st32{fill:#5D75C2;}
	.st33{fill:#6D85CF;}
	.st34{fill:#89C7DE;}
	.st35{opacity:0.5;}
	.st36{fill:#FF001F;}
	.st37{fill:#97C1FF;}
	.st38{fill:#FFF203;}
	.st39{fill:#0086FF;}
	.st40{display:none;}
	.st41{display:inline;fill:#370C45;}
	.st42{display:inline;fill:#FE9867;}
	.st43{display:inline;fill:#FA559F;}
	.st44{display:inline;fill:#EF3A65;}
	.st45{display:inline;fill:#CC3154;}
	.st46{display:inline;fill:#FF7261;}
	.st47{display:inline;fill:#8B0975;}
	.st48{display:inline;fill:#380762;}
	.st49{display:inline;fill:#B947C0;}
	.st50{display:inline;fill:#BD3151;}
	.st51{display:inline;fill:#BF2C4E;}
	.st52{display:inline;fill:#FFAD6E;}
	.st53{fill:#FCEB6A;}
	.st54{fill:#F2C50F;}
	.st55{fill:#8ADD8A;}
	.st56{fill:#00FF00;}
	.st57{fill:#07D607;}
	.st58{fill:#05CC0A;}
	.st59{fill:#482A63;}
	.st60{fill:#DE990E;}
	.st61{fill:#009DFF;}
	.st62{fill:#E8AB0E;}
	.st63{fill:#72A614;}
	.st64{fill:#A7E007;}
	.st65{fill:#699C18;}
	.st66{fill:#6D9E16;}
	.st67{fill:#84BF15;}
	.st68{fill:#3A4F93;}
	.st69{fill:#2D3B70;}
	.st70{fill:none;stroke:#1B2442;stroke-miterlimit:10;}
	.st71{opacity:0;fill:#171A33;}
	.st72{fill:#FFFB00;}
	.st73{opacity:0.2;}
	.st74{fill:#42061A;}
</style>
<g>
	<g>
		<rect x="6.7954001" y="18.9221497" class="st2" width="2.1596999" height="2.1598001"/>
		<rect x="8.9551001" y="16.8622494" class="st2" width="2.0599999" height="2.0599"/>
		<rect x="8.9551001" y="18.9221497" class="st3" width="2.0599999" height="2.1598001"/>
		<rect x="8.9551001" y="21.0819492" class="st2" width="2.0599999" height="2.0548"/>
		<rect x="11.0150995" y="14.7024498" class="st2" width="2.1596999" height="2.1598001"/>
		<rect x="11.0150995" y="16.8622494" class="st3" width="2.1596999" height="2.0599"/>
		<rect x="11.0150995" y="18.9221497" class="st3" width="2.1596999" height="2.1598001"/>
		<rect x="11.0150995" y="21.0819492" class="st3" width="2.1596999" height="2.0548"/>
		<rect x="11.0150995" y="23.1367493" class="st2" width="2.1596999" height="2.0599"/>
		<rect x="13.1747999" y="12.6425505" class="st2" width="2.0599999" height="2.0599"/>
		<rect x="13.1747999" y="14.7024498" class="st2" width="2.0599999" height="2.1598001"/>
		<rect x="13.1747999" y="16.8622494" class="st2" width="2.0599999" height="2.0599"/>
		<rect x="13.1747999" y="18.9221497" class="st2" width="2.0599999" height="2.1598001"/>
		<rect x="13.1747999" y="21.0819492" class="st3" width="2.0599999" height="2.0548"/>
		<rect x="13.1747999" y="23.1367493" class="st3" width="2.0599999" height="2.0599"/>
		<rect x="13.1747999" y="25.1966496" class="st2" width="2.0599999" height="2.1596999"/>
		<rect x="15.2348003" y="10.4827499" class="st2" width="2.1596999" height="2.1598001"/>
		<rect x="15.2348003" y="12.6425505" class="st3" width="2.1596999" height="2.0599"/>
		<rect x="15.2348003" y="14.7024498" class="st2" width="2.1596999" height="2.1598001"/>
		<rect x="15.2348003" y="16.8622494" class="st3" width="2.1596999" height="2.0599"/>
		<rect x="15.2348003" y="18.9221497" class="st2" width="2.1596999" height="2.1598001"/>
		<rect x="15.2348003" y="21.0819492" class="st2" width="2.1596999" height="2.0548"/>
		<rect x="15.2348003" y="23.1367493" class="st3" width="2.1596999" height="2.0599"/>
		<rect x="15.2348003" y="25.1966496" class="st3" width="2.1596999" height="2.1596999"/>
		<rect x="15.2348003" y="27.3563499" class="st2" width="2.1596999" height="2.0599999"/>
		<rect x="17.3945007" y="8.4228497" class="st3" width="2.0548" height="2.0599"/>
		<rect x="17.3945007" y="10.4827499" class="st3" width="2.0548" height="2.1598001"/>
		<rect x="17.3945007" y="12.6425505" class="st3" width="2.0548" height="2.0599"/>
		<rect x="17.3945007" y="14.7024498" class="st3" width="2.0548" height="2.1598001"/>
		<rect x="17.3945007" y="16.8622494" class="st4" width="2.0548" height="2.0599"/>
		<rect x="17.3945007" y="18.9221497" class="st3" width="2.0548" height="2.1598001"/>
		<rect x="17.3945007" y="21.0819492" class="st2" width="2.0548" height="2.0548"/>
		<rect x="17.3945007" y="23.1367493" class="st2" width="2.0548" height="2.0599"/>
		<rect x="17.3945007" y="25.1966496" class="st3" width="2.0548" height="2.1596999"/>
		<rect x="17.3945007" y="27.3563499" class="st2" width="2.0548" height="2.0599999"/>
		<rect x="17.3945007" y="29.4163494" class="st2" width="2.0548" height="2.1596999"/>
		<rect x="19.4493008" y="8.4228497" class="st2" width="2.1647999" height="2.0599"/>
		<rect x="19.4493008" y="10.4827499" class="st2" width="2.1647999" height="2.1598001"/>
		<rect x="19.4493008" y="12.6425505" class="st3" width="2.1647999" height="2.0599"/>
		<rect x="19.4493008" y="14.7024498" class="st4" width="2.1647999" height="2.1598001"/>
		<rect x="19.4493008" y="16.8622494" class="st5" width="2.1647999" height="2.0599"/>
		<rect x="19.4493008" y="18.9221497" class="st5" width="2.1647999" height="2.1598001"/>
		<rect x="19.4493008" y="21.0819492" class="st4" width="2.1647999" height="2.0548"/>
		<rect x="19.4493008" y="23.1367493" class="st3" width="2.1647999" height="2.0599"/>
		<rect x="19.4493008" y="25.1966496" class="st2" width="2.1647999" height="2.1596999"/>
		<rect x="19.4493008" y="27.3563499" class="st3" width="2.1647999" height="2.0599999"/>
		<rect x="19.4493008" y="29.4163494" class="st3" width="2.1647999" height="2.1596999"/>
		<rect x="21.6140995" y="8.4228497" class="st2" width="2.0548" height="2.0599"/>
		<rect x="21.6140995" y="10.4827499" class="st3" width="2.0548" height="2.1598001"/>
		<rect x="21.6140995" y="12.6425505" class="st4" width="2.0548" height="2.0599"/>
		<rect x="21.6140995" y="14.7024498" class="st5" width="2.0548" height="2.1598001"/>
		<rect x="21.6140995" y="16.8622494" class="st2" width="2.0548" height="2.0599"/>
		<rect x="21.6140995" y="18.9221497" class="st2" width="2.0548" height="2.1598001"/>
		<rect x="21.6140995" y="21.0819492" class="st2" width="2.0548" height="2.0548"/>
		<rect x="21.6140995" y="23.1367493" class="st4" width="2.0548" height="2.0599"/>
		<rect x="21.6140995" y="25.1966496" class="st3" width="2.0548" height="2.1596999"/>
		<rect x="21.6140995" y="27.3563499" class="st2" width="2.0548" height="2.0599999"/>
		<rect x="21.6140995" y="29.4163494" class="st3" width="2.0548" height="2.1596999"/>
		<rect x="23.6688995" y="8.4228497" class="st2" width="2.1608" height="2.0599"/>
		<rect x="23.6688995" y="10.4827499" class="st3" width="2.1608" height="2.1598001"/>
		<rect x="23.6688995" y="12.6425505" class="st4" width="2.1608" height="2.0599"/>
		<rect x="23.6688995" y="14.7024498" class="st2" width="2.1608" height="2.1598001"/>
		<rect x="23.6688995" y="16.8622494" class="st2" width="2.1608" height="2.0599"/>
		<rect x="23.6688995" y="18.9221497" class="st2" width="2.1608" height="2.1598001"/>
		<rect x="23.6688995" y="21.0819492" class="st2" width="2.1608" height="2.0548"/>
		<rect x="23.6688995" y="23.1367493" class="st3" width="2.1608" height="2.0599"/>
		<rect x="23.6688995" y="25.1966496" class="st4" width="2.1608" height="2.1596999"/>
		<rect x="23.6688995" y="27.3563499" class="st2" width="2.1608" height="2.0599999"/>
		<rect x="23.6688995" y="29.4163494" class="st2" width="2.1608" height="2.1596999"/>
		<rect x="25.8297005" y="8.4228497" class="st2" width="2.0599" height="2.0599"/>
		<rect x="25.8297005" y="10.4827499" class="st4" width="2.0599" height="2.1598001"/>
		<rect x="25.8297005" y="12.6425505" class="st4" width="2.0599" height="2.0599"/>
		<rect x="25.8297005" y="14.7024498" class="st2" width="2.0599" height="2.1598001"/>
		<rect x="25.8297005" y="16.8622494" class="st2" width="2.0599" height="2.0599"/>
		<rect x="25.8297005" y="18.9221497" class="st4" width="2.0599" height="2.1598001"/>
		<rect x="25.8297005" y="21.0819492" class="st4" width="2.0599" height="2.0548"/>
		<rect x="25.8297005" y="23.1367493" class="st2" width="2.0599" height="2.0599"/>
		<rect x="25.8297005" y="25.1966496" class="st4" width="2.0599" height="2.1596999"/>
		<rect x="25.8297005" y="27.3563499" class="st2" width="2.0599" height="2.0599999"/>
		<rect x="25.8297005" y="29.4163494" class="st2" width="2.0599" height="2.1596999"/>
		<rect x="27.8896008" y="8.4228497" class="st2" width="2.1598001" height="2.0599"/>
		<rect x="27.8896008" y="10.4827499" class="st4" width="2.1598001" height="2.1598001"/>
		<rect x="27.8896008" y="12.6425505" class="st4" width="2.1598001" height="2.0599"/>
		<rect x="27.8896008" y="14.7024498" class="st2" width="2.1598001" height="2.1598001"/>
		<rect x="27.8896008" y="16.8622494" class="st4" width="2.1598001" height="2.0599"/>
		<rect x="27.8896008" y="18.9221497" class="st4" width="2.1598001" height="2.1598001"/>
		<rect x="27.8896008" y="21.0819492" class="st4" width="2.1598001" height="2.0548"/>
		<rect x="27.8896008" y="23.1367493" class="st2" width="2.1598001" height="2.0599"/>
		<rect x="27.8896008" y="25.1966496" class="st4" width="2.1598001" height="2.1596999"/>
		<rect x="27.8896008" y="27.3563499" class="st2" width="2.1598001" height="2.0599999"/>
		<rect x="27.8896008" y="29.4163494" class="st2" width="2.1598001" height="2.1596999"/>
		<rect x="30.0494003" y="8.4228497" class="st2" width="2.0599" height="2.0599"/>
		<rect x="30.0494003" y="10.4827499" class="st4" width="2.0599" height="2.1598001"/>
		<rect x="30.0494003" y="12.6425505" class="st4" width="2.0599" height="2.0599"/>
		<rect x="30.0494003" y="14.7024498" class="st2" width="2.0599" height="2.1598001"/>
		<rect x="30.0494003" y="16.8622494" class="st2" width="2.0599" height="2.0599"/>
		<rect x="30.0494003" y="18.9221497" class="st3" width="2.0599" height="2.1598001"/>
		<rect x="30.0494003" y="21.0819492" class="st4" width="2.0599" height="2.0548"/>
		<rect x="30.0494003" y="23.1367493" class="st2" width="2.0599" height="2.0599"/>
		<rect x="30.0494003" y="25.1966496" class="st2" width="2.0599" height="2.1596999"/>
		<rect x="30.0494003" y="27.3563499" class="st5" width="2.0599" height="2.0599999"/>
		<rect x="30.0494003" y="29.4163494" class="st2" width="2.0599" height="2.1596999"/>
		<rect x="32.1092987" y="8.4228497" class="st2" width="2.0548" height="2.0599"/>
		<rect x="32.1092987" y="10.4827499" class="st4" width="2.0548" height="2.1598001"/>
		<rect x="32.1092987" y="12.6425505" class="st4" width="2.0548" height="2.0599"/>
		<rect x="32.1092987" y="14.7024498" class="st2" width="2.0548" height="2.1598001"/>
		<rect x="32.1092987" y="16.8622494" class="st2" width="2.0548" height="2.0599"/>
		<rect x="32.1092987" y="18.9221497" class="st5" width="2.0548" height="2.1598001"/>
		<rect x="32.1092987" y="21.0819492" class="st2" width="2.0548" height="2.0548"/>
		<rect x="32.1092987" y="23.1367493" class="st2" width="2.0548" height="2.0599"/>
		<rect x="32.1092987" y="25.1966496" class="st2" width="2.0548" height="2.1596999"/>
		<rect x="32.1092987" y="27.3563499" class="st2" width="2.0548" height="2.0599999"/>
		<rect x="32.1092987" y="29.4163494" class="st3" width="2.0548" height="2.1596999"/>
		<rect x="34.1641006" y="8.4228497" class="st2" width="2.1649001" height="2.0599"/>
		<rect x="34.1641006" y="10.4827499" class="st3" width="2.1649001" height="2.1598001"/>
		<rect x="34.1641006" y="12.6425505" class="st4" width="2.1649001" height="2.0599"/>
		<rect x="34.1641006" y="14.7024498" class="st3" width="2.1649001" height="2.1598001"/>
		<rect x="34.1641006" y="16.8622494" class="st2" width="2.1649001" height="2.0599"/>
		<rect x="34.1641006" y="18.9221497" class="st2" width="2.1649001" height="2.1598001"/>
		<rect x="34.1641006" y="21.0819492" class="st2" width="2.1649001" height="2.0548"/>
		<rect x="34.1641006" y="23.1367493" class="st2" width="2.1649001" height="2.0599"/>
		<rect x="34.1641006" y="25.1966496" class="st4" width="2.1649001" height="2.1596999"/>
		<rect x="34.1641006" y="27.3563499" class="st2" width="2.1649001" height="2.0599999"/>
		<rect x="34.1641006" y="29.4163494" class="st4" width="2.1649001" height="2.1596999"/>
		<rect x="36.3289986" y="8.4228497" class="st4" width="2.0548" height="2.0599"/>
		<rect x="36.3289986" y="10.4827499" class="st2" width="2.0548" height="2.1598001"/>
		<rect x="36.3289986" y="12.6425505" class="st4" width="2.0548" height="2.0599"/>
		<rect x="36.3289986" y="14.7024498" class="st4" width="2.0548" height="2.1598001"/>
		<rect x="36.3289986" y="16.8622494" class="st2" width="2.0548" height="2.0599"/>
		<rect x="36.3289986" y="18.9221497" class="st2" width="2.0548" height="2.1598001"/>
		<rect x="36.3289986" y="21.0819492" class="st2" width="2.0548" height="2.0548"/>
		<rect x="36.3289986" y="23.1367493" class="st4" width="2.0548" height="2.0599"/>
		<rect x="36.3289986" y="25.1966496" class="st5" width="2.0548" height="2.1596999"/>
		<rect x="36.3289986" y="27.3563499" class="st2" width="2.0548" height="2.0599999"/>
		<rect x="36.3289986" y="29.4163494" class="st4" width="2.0548" height="2.1596999"/>
		<rect x="38.3838005" y="8.4228497" class="st2" width="2.1598001" height="2.0599"/>
		<rect x="38.3838005" y="10.4827499" class="st2" width="2.1598001" height="2.1598001"/>
		<rect x="38.3838005" y="12.6425505" class="st5" width="2.1598001" height="2.0599"/>
		<rect x="38.3838005" y="14.7024498" class="st4" width="2.1598001" height="2.1598001"/>
		<rect x="38.3838005" y="16.8622494" class="st3" width="2.1598001" height="2.0599"/>
		<rect x="38.3838005" y="18.9221497" class="st2" width="2.1598001" height="2.1598001"/>
		<rect x="38.3838005" y="21.0819492" class="st4" width="2.1598001" height="2.0548"/>
		<rect x="38.3838005" y="23.1367493" class="st5" width="2.1598001" height="2.0599"/>
		<rect x="38.3838005" y="25.1966496" class="st2" width="2.1598001" height="2.1596999"/>
		<rect x="38.3838005" y="27.3563499" class="st2" width="2.1598001" height="2.0599999"/>
		<rect x="38.3838005" y="29.4163494" class="st4" width="2.1598001" height="2.1596999"/>
		<rect x="40.5435982" y="8.4228497" class="st3" width="2.0599" height="2.0599"/>
		<rect x="40.5435982" y="10.4827499" class="st4" width="2.0599" height="2.1598001"/>
		<rect x="40.5435982" y="12.6425505" class="st2" width="2.0599" height="2.0599"/>
		<rect x="40.5435982" y="14.7024498" class="st4" width="2.0599" height="2.1598001"/>
		<rect x="40.5435982" y="16.8622494" class="st4" width="2.0599" height="2.0599"/>
		<rect x="40.5435982" y="18.9221497" class="st4" width="2.0599" height="2.1598001"/>
		<rect x="40.5435982" y="21.0819492" class="st5" width="2.0599" height="2.0548"/>
		<rect x="40.5435982" y="23.1367493" class="st5" width="2.0599" height="2.0599"/>
		<rect x="40.5435982" y="25.1966496" class="st4" width="2.0599" height="2.1596999"/>
		<rect x="40.5435982" y="27.3563499" class="st4" width="2.0599" height="2.0599999"/>
		<rect x="40.5435982" y="29.4163494" class="st3" width="2.0599" height="2.1596999"/>
		<rect x="42.6035004" y="10.4827499" class="st3" width="2.1596999" height="2.1598001"/>
		<rect x="42.6035004" y="12.6425505" class="st2" width="2.1596999" height="2.0599"/>
		<rect x="42.6035004" y="14.7024498" class="st5" width="2.1596999" height="2.1598001"/>
		<rect x="42.6035004" y="16.8622494" class="st4" width="2.1596999" height="2.0599"/>
		<rect x="42.6035004" y="18.9221497" class="st5" width="2.1596999" height="2.1598001"/>
		<rect x="42.6035004" y="21.0819492" class="st2" width="2.1596999" height="2.0548"/>
		<rect x="42.6035004" y="23.1367493" class="st4" width="2.1596999" height="2.0599"/>
		<rect x="42.6035004" y="25.1966496" class="st4" width="2.1596999" height="2.1596999"/>
		<rect x="42.6035004" y="27.3563499" class="st3" width="2.1596999" height="2.0599999"/>
		<rect x="44.7631989" y="12.6425505" class="st3" width="2.0599999" height="2.0599"/>
		<rect x="44.7631989" y="14.7024498" class="st2" width="2.0599999" height="2.1598001"/>
		<rect x="44.7631989" y="16.8622494" class="st5" width="2.0599999" height="2.0599"/>
		<rect x="44.7631989" y="18.9221497" class="st5" width="2.0599999" height="2.1598001"/>
		<rect x="44.7631989" y="21.0819492" class="st4" width="2.0599999" height="2.0548"/>
		<rect x="44.7631989" y="23.1367493" class="st4" width="2.0599999" height="2.0599"/>
		<rect x="44.7631989" y="25.1966496" class="st3" width="2.0599999" height="2.1596999"/>
		<rect x="46.8232002" y="14.7024498" class="st3" width="2.1608" height="2.1598001"/>
		<rect x="46.8232002" y="16.8622494" class="st2" width="2.1608" height="2.0599"/>
		<rect x="46.8232002" y="18.9221497" class="st2" width="2.1608" height="2.1598001"/>
		<rect x="46.8232002" y="21.0819492" class="st4" width="2.1608" height="2.0548"/>
		<rect x="46.8232002" y="23.1367493" class="st3" width="2.1608" height="2.0599"/>
		<rect x="48.9840012" y="16.8622494" class="st4" width="2.0589001" height="2.0599"/>
		<rect x="48.9840012" y="18.9221497" class="st4" width="2.0589001" height="2.1598001"/>
		<rect x="48.9840012" y="21.0819492" class="st4" width="2.0589001" height="2.0548"/>
		<rect x="51.0429001" y="18.9221497" class="st3" width="2.1607001" height="2.1598001"/>
	</g>
	<g>
		<g>
			<rect x="4.7364998" y="18.9725494" class="st6" width="2.0599" height="2.1598001"/>
			<rect x="6.7964001" y="16.9126492" class="st6" width="2.1598001" height="2.0599"/>
			<rect x="6.7964001" y="21.1323509" class="st6" width="2.1598001" height="2.0548"/>
			<rect x="8.9561996" y="14.7528496" class="st6" width="2.0597999" height="2.1598001"/>
			<rect x="8.9561996" y="23.187149" class="st6" width="2.0597999" height="2.0599"/>
			<rect x="11.0159998" y="12.6929502" class="st6" width="2.1599" height="2.0599"/>
			<rect x="11.0159998" y="25.2470493" class="st6" width="2.1599" height="2.1596999"/>
			<rect x="13.1759005" y="10.5331497" class="st6" width="2.0599" height="2.1598001"/>
			<rect x="13.1759005" y="27.4067497" class="st6" width="2.0599" height="2.0599999"/>
			<rect x="15.2357998" y="8.4732504" class="st6" width="2.1596999" height="2.0599"/>
			<rect x="15.2357998" y="29.4667492" class="st6" width="2.1596999" height="2.1596999"/>
			<rect x="17.3955002" y="6.31355" class="st6" width="2.0548" height="2.1596999"/>
			<rect x="17.3955002" y="31.6264496" class="st6" width="2.0548" height="2.0599999"/>
			<rect x="19.4503002" y="6.31355" class="st6" width="2.1649001" height="2.1596999"/>
			<rect x="19.4503002" y="31.6264496" class="st6" width="2.1649001" height="2.0599999"/>
			<rect x="21.6152" y="6.31355" class="st6" width="2.0548" height="2.1596999"/>
			<rect x="21.6152" y="31.6264496" class="st6" width="2.0548" height="2.0599999"/>
			<rect x="23.6700001" y="6.31355" class="st6" width="2.1596999" height="2.1596999"/>
			<rect x="23.6700001" y="31.6264496" class="st6" width="2.1596999" height="2.0599999"/>
			<rect x="25.8297005" y="6.31355" class="st6" width="2.0599" height="2.1596999"/>
			<rect x="25.8297005" y="31.6264496" class="st6" width="2.0599" height="2.0599999"/>
			<rect x="27.8896008" y="6.31355" class="st6" width="2.1598001" height="2.1596999"/>
			<rect x="27.8896008" y="31.6264496" class="st6" width="2.1598001" height="2.0599999"/>
			<rect x="30.0494003" y="6.31355" class="st6" width="2.0599" height="2.1596999"/>
			<rect x="30.0494003" y="31.6264496" class="st6" width="2.0599" height="2.0599999"/>
			<rect x="32.1092987" y="6.31355" class="st6" width="2.0548" height="2.1596999"/>
			<rect x="32.1092987" y="31.6264496" class="st6" width="2.0548" height="2.0599999"/>
			<rect x="34.1641006" y="6.31355" class="st6" width="2.1649001" height="2.1596999"/>
			<rect x="34.1641006" y="31.6264496" class="st6" width="2.1649001" height="2.0599999"/>
			<rect x="36.3289986" y="6.31355" class="st6" width="2.0548" height="2.1596999"/>
			<rect x="36.3289986" y="31.6264496" class="st6" width="2.0548" height="2.0599999"/>
			<rect x="38.3838005" y="6.31355" class="st6" width="2.1598001" height="2.1596999"/>
			<rect x="38.3838005" y="31.6264496" class="st6" width="2.1598001" height="2.0599999"/>
			<rect x="40.5435982" y="6.31355" class="st6" width="2.0599" height="2.1596999"/>
			<rect x="40.5435982" y="31.6264496" class="st6" width="2.0599" height="2.0599999"/>
			<rect x="42.6035004" y="8.4732504" class="st6" width="2.1596999" height="2.0599"/>
			<rect x="42.6035004" y="29.4667492" class="st6" width="2.1596999" height="2.1596999"/>
			<rect x="44.7631989" y="10.5331497" class="st6" width="2.0599999" height="2.1598001"/>
			<rect x="44.7631989" y="27.4067497" class="st6" width="2.0599999" height="2.0599999"/>
			<rect x="46.8232002" y="12.6929502" class="st6" width="2.1608" height="2.0599"/>
			<rect x="46.8232002" y="25.2470493" class="st6" width="2.1608" height="2.1596999"/>
			<rect x="48.9840012" y="14.7528496" class="st6" width="2.0589001" height="2.1598001"/>
			<rect x="48.9840012" y="23.187149" class="st6" width="2.0589001" height="2.0599"/>
			<rect x="51.0429001" y="16.9126492" class="st6" width="2.1607001" height="2.0599"/>
			<rect x="51.0429001" y="21.1323509" class="st6" width="2.1607001" height="2.0548"/>
			<rect x="53.2036018" y="18.9725494" class="st6" width="2.0538001" height="2.1598001"/>
		</g>
		<g>
			<rect x="2.5757" y="18.9725494" class="st7" width="2.1608" height="2.1598001"/>
			<rect x="4.7364998" y="16.9126492" class="st7" width="2.0599" height="2.0599"/>
			<rect x="4.7364998" y="21.1323509" class="st7" width="2.0599" height="2.0548"/>
			<rect x="6.7964001" y="14.7528496" class="st7" width="2.1598001" height="2.1598001"/>
			<rect x="6.7964001" y="23.187149" class="st7" width="2.1598001" height="2.0599"/>
			<rect x="8.9561996" y="12.6929502" class="st7" width="2.0597999" height="2.0599"/>
			<rect x="8.9561996" y="25.2470493" class="st7" width="2.0597999" height="2.1596999"/>
			<rect x="11.0159998" y="10.5331497" class="st7" width="2.1599" height="2.1598001"/>
			<rect x="11.0159998" y="27.4067497" class="st7" width="2.1599" height="2.0599999"/>
			<rect x="13.1759005" y="8.4732504" class="st7" width="2.0599" height="2.0599"/>
			<rect x="13.1759005" y="29.4667492" class="st7" width="2.0599" height="2.1596999"/>
			<rect x="15.2357998" y="6.31355" class="st7" width="2.1596999" height="2.1596999"/>
			<rect x="15.2357998" y="31.6264496" class="st7" width="2.1596999" height="2.0599999"/>
			<rect x="17.3955002" y="4.25875" class="st7" width="2.0548" height="2.0548"/>
			<rect x="17.3955002" y="33.686451" class="st7" width="2.0548" height="2.1607001"/>
			<rect x="19.4503002" y="4.25875" class="st7" width="2.1649001" height="2.0548"/>
			<rect x="19.4503002" y="33.686451" class="st7" width="2.1649001" height="2.1607001"/>
			<rect x="21.6152" y="4.25875" class="st7" width="2.0548" height="2.0548"/>
			<rect x="21.6152" y="33.686451" class="st7" width="2.0548" height="2.1607001"/>
			<rect x="23.6700001" y="4.25875" class="st7" width="2.1596999" height="2.0548"/>
			<rect x="23.6700001" y="33.686451" class="st7" width="2.1596999" height="2.1607001"/>
			<rect x="25.8297005" y="4.25875" class="st7" width="2.0599" height="2.0548"/>
			<rect x="25.8297005" y="33.686451" class="st7" width="2.0599" height="2.1607001"/>
			<rect x="27.8896008" y="4.25875" class="st7" width="2.1598001" height="2.0548"/>
			<rect x="27.8896008" y="33.686451" class="st7" width="2.1598001" height="2.1607001"/>
			<rect x="30.0494003" y="4.25875" class="st7" width="2.0599" height="2.0548"/>
			<rect x="30.0494003" y="33.686451" class="st7" width="2.0599" height="2.1607001"/>
			<rect x="32.1092987" y="4.25875" class="st7" width="2.0548" height="2.0548"/>
			<rect x="32.1092987" y="33.686451" class="st7" width="2.0548" height="2.1607001"/>
			<rect x="34.1641006" y="4.25875" class="st7" width="2.1649001" height="2.0548"/>
			<rect x="34.1641006" y="33.686451" class="st7" width="2.1649001" height="2.1607001"/>
			<rect x="36.3289986" y="4.25875" class="st7" width="2.0548" height="2.0548"/>
			<rect x="36.3289986" y="33.686451" class="st7" width="2.0548" height="2.1607001"/>
			<rect x="38.3838005" y="4.25875" class="st7" width="2.1598001" height="2.0548"/>
			<rect x="38.3838005" y="33.686451" class="st7" width="2.1598001" height="2.1607001"/>
			<rect x="40.5435982" y="4.25875" class="st7" width="2.0599" height="2.0548"/>
			<rect x="40.5435982" y="33.686451" class="st7" width="2.0599" height="2.1607001"/>
			<rect x="42.6035004" y="6.31355" class="st7" width="2.1596999" height="2.1596999"/>
			<rect x="42.6035004" y="31.6264496" class="st7" width="2.1596999" height="2.0599999"/>
			<rect x="44.7631989" y="8.4732504" class="st7" width="2.0599999" height="2.0599"/>
			<rect x="44.7631989" y="29.4667492" class="st7" width="2.0599999" height="2.1596999"/>
			<rect x="46.8232002" y="10.5331497" class="st7" width="2.1608" height="2.1598001"/>
			<rect x="46.8232002" y="27.4067497" class="st7" width="2.1608" height="2.0599999"/>
			<rect x="48.9840012" y="12.6929502" class="st7" width="2.0589001" height="2.0599"/>
			<rect x="48.9840012" y="25.2470493" class="st7" width="2.0589001" height="2.1596999"/>
			<rect x="51.0429001" y="14.7528496" class="st7" width="2.1607001" height="2.1598001"/>
			<rect x="51.0429001" y="23.187149" class="st7" width="2.1607001" height="2.0599"/>
			<rect x="53.2036018" y="16.9126492" class="st7" width="2.0538001" height="2.0599"/>
			<rect x="53.2036018" y="21.1323509" class="st7" width="2.0538001" height="2.0548"/>
			<rect x="55.2574005" y="18.9725494" class="st7" width="2.1608" height="2.1598001"/>
		</g>
		<g>
			<rect x="0.5219" y="18.9725494" class="st8" width="2.0538001" height="2.1598001"/>
			<rect x="2.5757" y="16.9126492" class="st8" width="2.1608" height="2.0599"/>
			<rect x="2.5757" y="21.1323509" class="st8" width="2.1608" height="2.0548"/>
			<rect x="4.7364998" y="14.7528496" class="st8" width="2.0599" height="2.1598001"/>
			<rect x="4.7364998" y="23.187149" class="st8" width="2.0599" height="2.0599"/>
			<rect x="6.7964001" y="12.6929502" class="st8" width="2.1598001" height="2.0599"/>
			<rect x="6.7964001" y="25.2470493" class="st8" width="2.1598001" height="2.1596999"/>
			<rect x="8.9561996" y="10.5331497" class="st8" width="2.0597999" height="2.1598001"/>
			<rect x="8.9561996" y="27.4067497" class="st8" width="2.0597999" height="2.0599999"/>
			<rect x="11.0159998" y="8.4732504" class="st8" width="2.1599" height="2.0599"/>
			<rect x="11.0159998" y="29.4667492" class="st8" width="2.1599" height="2.1596999"/>
			<rect x="13.1759005" y="6.31355" class="st8" width="2.0599" height="2.1596999"/>
			<rect x="13.1759005" y="31.6264496" class="st8" width="2.0599" height="2.0599999"/>
			<rect x="15.2357998" y="4.25875" class="st8" width="2.1596999" height="2.0548"/>
			<rect x="15.2357998" y="33.686451" class="st8" width="2.1596999" height="2.1607001"/>
			<rect x="17.3955002" y="2.09905" class="st8" width="2.0548" height="2.1596999"/>
			<rect x="17.3955002" y="35.8471489" class="st8" width="2.0548" height="2.0538001"/>
			<rect x="19.4503002" y="2.09905" class="st8" width="2.1649001" height="2.1596999"/>
			<rect x="19.4503002" y="35.8471489" class="st8" width="2.1649001" height="2.0538001"/>
			<rect x="21.6152" y="2.09905" class="st8" width="2.0548" height="2.1596999"/>
			<rect x="21.6152" y="35.8471489" class="st8" width="2.0548" height="2.0538001"/>
			<rect x="23.6700001" y="2.09905" class="st8" width="2.1596999" height="2.1596999"/>
			<rect x="23.6700001" y="35.8471489" class="st8" width="2.1596999" height="2.0538001"/>
			<rect x="25.8297005" y="2.09905" class="st8" width="2.0599" height="2.1596999"/>
			<rect x="25.8297005" y="35.8471489" class="st8" width="2.0599" height="2.0538001"/>
			<rect x="27.8896008" y="2.09905" class="st8" width="2.1598001" height="2.1596999"/>
			<rect x="27.8896008" y="35.8471489" class="st8" width="2.1598001" height="2.0538001"/>
			<rect x="30.0494003" y="2.09905" class="st8" width="2.0599" height="2.1596999"/>
			<rect x="30.0494003" y="35.8471489" class="st8" width="2.0599" height="2.0538001"/>
			<rect x="32.1092987" y="2.09905" class="st8" width="2.0548" height="2.1596999"/>
			<rect x="32.1092987" y="35.8471489" class="st8" width="2.0548" height="2.0538001"/>
			<rect x="34.1641006" y="2.09905" class="st8" width="2.1649001" height="2.1596999"/>
			<rect x="34.1641006" y="35.8471489" class="st8" width="2.1649001" height="2.0538001"/>
			<rect x="36.3289986" y="2.09905" class="st8" width="2.0548" height="2.1596999"/>
			<rect x="36.3289986" y="35.8471489" class="st8" width="2.0548" height="2.0538001"/>
			<rect x="38.3838005" y="2.09905" class="st8" width="2.1598001" height="2.1596999"/>
			<rect x="38.3838005" y="35.8471489" class="st8" width="2.1598001" height="2.0538001"/>
			<rect x="40.5435982" y="2.09905" class="st8" width="2.0599" height="2.1596999"/>
			<rect x="40.5435982" y="35.8471489" class="st8" width="2.0599" height="2.0538001"/>
			<rect x="42.6035004" y="4.25875" class="st8" width="2.1596999" height="2.0548"/>
			<rect x="42.6035004" y="33.686451" class="st8" width="2.1596999" height="2.1607001"/>
			<rect x="44.7631989" y="6.31355" class="st8" width="2.0599999" height="2.1596999"/>
			<rect x="44.7631989" y="31.6264496" class="st8" width="2.0599999" height="2.0599999"/>
			<rect x="46.8232002" y="8.4732504" class="st8" width="2.1608" height="2.0599"/>
			<rect x="46.8232002" y="29.4667492" class="st8" width="2.1608" height="2.1596999"/>
			<rect x="48.9840012" y="10.5331497" class="st8" width="2.0589001" height="2.1598001"/>
			<rect x="48.9840012" y="27.4067497" class="st8" width="2.0589001" height="2.0599999"/>
			<rect x="51.0429001" y="12.6929502" class="st8" width="2.1607001" height="2.0599"/>
			<rect x="51.0429001" y="25.2470493" class="st8" width="2.1607001" height="2.1596999"/>
			<rect x="53.2036018" y="14.7528496" class="st8" width="2.0538001" height="2.1598001"/>
			<rect x="53.2036018" y="23.187149" class="st8" width="2.0538001" height="2.0599"/>
			<rect x="55.2574005" y="16.9126492" class="st8" width="2.1608" height="2.0599"/>
			<rect x="55.2574005" y="21.1323509" class="st8" width="2.1608" height="2.0548"/>
			<rect x="57.4182014" y="18.9725494" class="st8" width="2.0599" height="2.1598001"/>
		</g>
	</g>
</g>
</svg>
